<mxfile host="app.diagrams.net" agent="Mozilla/5.0 (Windows NT 10.0; Win64; x64) AppleWebKit/537.36 (KHTML, like Gecko) Chrome/131.0.0.0 Safari/537.36" version="26.0.6">
  <diagram name="Page-1" id="5HJarG5HNOPDFADBYkYU">
    <mxGraphModel dx="2634" dy="1622" grid="1" gridSize="10" guides="1" tooltips="1" connect="1" arrows="1" fold="1" page="0" pageScale="1" pageWidth="850" pageHeight="1100" math="0" shadow="0">
      <root>
        <mxCell id="0" />
        <mxCell id="1" parent="0" />
        <mxCell id="ekMqlFdolK9tJXopoHlO-1" value="&lt;h1 style=&quot;margin-top: 0px;&quot;&gt;Requirements Retail&lt;/h1&gt;&lt;div&gt;&lt;br&gt;&lt;/div&gt;" style="text;html=1;whiteSpace=wrap;overflow=hidden;rounded=0;" parent="1" vertex="1">
          <mxGeometry x="-720" y="-789" width="240" height="39" as="geometry" />
        </mxCell>
        <mxCell id="ekMqlFdolK9tJXopoHlO-2" value="" style="shape=image;verticalLabelPosition=bottom;labelBackgroundColor=default;verticalAlign=top;aspect=fixed;imageAspect=0;image=data:image/png,iVBORw0KGgoAAAANSUhEUgAAAiAAAAFvCAYAAABzb3A4AAAAAXNSR0IArs4c6QAAAARnQU1BAACxjwv8YQUAAAAJcEhZcwAADsMAAA7DAcdvqGQAAP+lSURBVHhe7N1ptGVVlSf6HQ09SN8qggiKoqCpAqLS2AKpaZ+V75nmqJGjRtZ4b9Snaj5UfcpPWZnVvMzKMmtklQ0KitiAgIqKgH0Pin2fadqjaYOo9BFv/9aNf8SMzT7nnnvjRgTCnrBi7732WrOfc8299rnnrHvuX39n8913393tcc8d3WP3/mX3rLMe1j39jOO7fbvN3fqu6zZt7rp77u2PWn9eYZ3mn/vAutH+zVvmb+7v3d23Te2ida0JrMOwY49zj75tuVxzwPLdPfI1ZH2CCdYQtnjmaGyuDmC8d0tc39VffPfXm7uP3/ij7lM3/ri75fY+GDbs0W3cuLG75557Wtt01+3dht/8tDvqsIO7x598bPd/Pefo7rCD9+zuvaeP+1933d57dt0++/QstiSwBX+JKayvIfsN5J0AsrkMzQkmmGB1IJbW95G0LcTWbV3vrccVNvfB55627u1fu3PznXfc3XV33t2dfMA93cOO2Kc79NB9e2R935bQ3Fo4bIcIqVpoLF0vwTY2xgCayurawxL2rRS2JLm1BMlsO3VMMMH9BpYibG1DbF1fgKzvH0LWdXffu7n7+R2buh/95NbuJz/9VXfn5o3dPvvt1+29z17dHb+9s7v33r5U2Xxvt8e9d3R7blzf7b//Pt2xDz+o23PPDa3g2G/Tum6PDX3N0rcaRLVA2LUQJqaInmCCVUNfIGwL4W3lSF+K9P9si61aR6y75pu3b957rz5J7LmuO3Hfrjtg7/Xdxj3sHaQAmReUdY9h1vks2JnZZsDz2NYNmCfaBBP8LkO2FtYIJJN7uw1Lxz5ufn3Ppu43v72ru71/eLln3fpu77337Pbaa2O36a57+gRj1OZuz7Zn0sP6vuDYd6/+uL5b3987oO/d6MbOTAErgiSCKSFMMMGqwdZGA4GtBtgS4HNy0brXf/yWzccctX93zOH7dif0BUhff/SwlG6WAjJtCCV7uJ33H61/kcyyyJjVwoBfJVftsm2D/LB/ggkeKLATCpBNCpA+doTMXX27+56l17P39rFkN2Oj1vcLLc05wEk/tD0HyBL79jcXeUTZdUCiKRFMMMEOQdva0ER/LUBmx9e6/3r1lzYff9xR3XFHH9qdfHBfgGzJGkvPOkswPjW9QZ7ROQbqvZyta//NwrzjsHkrV/eF7flZLQ/D91prAevGPjjzAAZPyotA04qFb8HxE4C1KUC2+aTCY1tSYYpN/T/toacfY1hagLVisVYP9Rdury+5aZZFa7+hs8atBApr/XnFuBbY7w+wVpraWXB/52+CNYNNiz1irOcOm/pHk3u3fMjU9VLjLPNaCAjlhLP+7WGpfxtsux7eWVuYhX2Mn9W0nQHTAjsD6qo2wW6DYfRv7O3ibe0efYfnlg29+0oo2nYF+pY+H/lYLC2Nx1rtW017YMP9PUbC3/2dzwl2Jaz3yXVPOUt7Bkvu0Vykv9watKMR3M/wBNS3pTnjjjXeP0R2H+Q7DOPc9LCF1Dx+F/lvicKOtgc7LKeDXtPbFR+9n/b2UzCvHqr+Z7UlQHuJ/lLf8vVhxbE7Gxjr35E2A7azTw90lAaGOsvwZXQ5Rnm76y3GqOOWaw9cuL9LF/5i9Ae2NSZY3L7r/uu7vrT52Ice0R175CHdqYet7/brH2e4CRRBI+HLM61Q2RL4mzZv6u6++65uw4b13R4b9+h7ts1oY4zfiuH+AfjatGlTk2P9+vVb+Vy62bddzrMCbsvpFljK5/cvve1MiD+NwfbFxxL4C4tNm+7t/W6pcF4EDAuZxeYs2aXaAp/arPl17O6H2TrdMVhevu3ted9ckuutUC/uc3McxDA6YnhRH5hg98BSzDhbzE7Vf5Zsm1ic7Hy/h22mWxiswt1m+6XVvn3fvf6Wf0ugb+6LjTjGVkfoLzes39AnARurYHsH2dxe69y7dd4QgntXAt7TAgqOFB057jrYnpcl2NU87F64r/xLMNa/zWcW19ESnqXxs2gNYZtbbj9+vr8uztPOh8i81m15oONtrczagmIulrk3t+m/0niwwu7In6uBJRst2Wl1PD94bfxggPZKtg/lpYCOo/Q+svSkueQwjmn1euPGPVoRMuYkGXfXXXe1LyaK4+nzxWf6nO8MQAuNO+64o7v99tsbHfLceeedrc+98LM7AV/4wxd9PFhhbCGJ//z2t7/darMUtPMWnubHfTOOTs3V4Fqpzfku+jvTVx/ocB9TzTbdTKB7MSJW2JIf2P14sAI/ri15jb+u1Md3FVQbOiYeHYdrRIX7qzwTrA1seO7//f/++UEH7t8dtN++3ZH7Ln1BkByxfkvm4CCcIwWJwHetbdiwYWvCr8Bp9Jnzs5/9rM3bc889W5+Eftttt7UxcPkMyloD3n7+8593P/rRj7p//ud/7g488MDm+D/5yU+6H/7wh432fvvtt90W7lCGXQGSxj/8wz90v/71rxsve+2114M6sQ6Bzb7+9a83f+Ene++9dzvOs1uu+d6tt97abM4H9913326PPfZYyM7G8BH+873vfa/5Lrr5vNQQFsH5YIb7qMd12jIgd4iTn/70py12f/Ob37S8s4+vUX2AQvLnLHBPEwcW7+9///st39ETP6ef+xt4gLjlllu6X/ziF20NkH+BGM8aIf/Nknu1MbacLncUZuHf2XQfKLDheX0BcqACZP99uyO2FCC95pryalO1Suaf/OQnux//+MdNwfvvv/92SZkT5SlV8v7qV7/afeUrX2n3DzvssBYY3/3ud7tvfvObWxdci8paA2fH6xe+8IW2gJ144oltEXP+mc98pvFx9NFHz1xQdhVYIN///ve35EEPBx10UFskH2zAX8bAonPxxRc3WyoiDznkkKafBHdsl/NqS8n429/+dvelL32p+8d//MfuYQ972MLJGX6+fMMNN3TXXHNNd8wxxzT6Y4tepTnB2kFszA5yzxe/+MUWux4u5B2x8kDW/TzZ4p9AQfapT32q5WS6OeKII1rBfH8C/Co65N9vfetbLa4f+tCHNhk9IH7uc59r4w499NDtHi4q7Iitd7afzMK/s+k+EGDLK5j8sw1ccgYJW9Ln3Crtyy+/vHvf+97XigjVK+cKOFeAqMoVHu9617u697znPd03vvGNNt/9X/7yl+2pUiUssQyh4qugf9a9IQhOuwoWoM9//vPN+V0rfm666abuO9/5znbblfNwL0pzFszDTX+KJIWaRVbhFNhRukOYJ19tdDdr7K4GReNHP/rRZjNPv3l1tgh/xiqC+SEd/+pXv2q+CRaZTw/scu2113Y/+MEPWkEzL6Esh3NX63Rn04N/Fg39WSCXg3l85p6jnMEPxDBbLuen7uW+sWINDgvevFcV83Dubqi85UGPX8rFWdiTQ3ZUjjrfubwtDuTSxNGiYD6di0drgUJE7odHAfVP//RPbRdkR3kewlrhgwe/1j98Zi1ba34fjLDwfr8gFvif/exnuxtvvHHr1nh1xlSvnuwtHK9//eu7q6++ugWHfgY76qijusc97nFtR8QOyBCS5KuBHQVWTWr1fqBeG+uJ1VOznQ6FlGt0PUENFxPjK34A36z+RcHcOOwQ6OshD3nIdk/mxmn0OqS7CIzRiQzDe671Sw70q0lo+N1ZEPlyDthi2PDFP04//fTupJNOajtE+lcC9Bvbkym+OoZnqBtg5+PUU09tNop9Ko/BEz1qY5B7YzQqBM/YOH3LzQ8YV/2nzlspnkDOHeEN/iEu1/yIT4X+GAzxDKHqmB+wgVi2dT+2SzjGR/jLIv3f//t/797xjnfcp9gPGLuauDNvSH8RmDUnflXBWHyFN76do7xGL46ujSHHGP5F+DSm2tfxAx/4QPc//+f/bAW9h7khzMKrnzzix86MXCf/4pNd7dg89alPbbvUeU2/FrConIF5/PMVhe9f//Vft/XMjjX95P4sWISHBzu0z4B4BXOgVzD7bHkF0wM3qM6gUvUU+olPfKJV2irC0047rTv44IOb41C28RKPHYbrr7++va6xdc3BnvzkJ7fEAY8q2rmA0YCiRYX9ta99rX0uwvtCOOO4cGsWErsnttUFg2PwaRybw+AxT65PecpTtlbg8D784Q/vHvWoR7XxgklfPhsiQCIHnhRPkheZ0MZPXhvB7ckAXkcN76mUwz864b8C2oo5NI899tj2WshYT2ueCvKkF/npXPLEC54iu0XWmMhOHrzDT1fG2w1yDY/xngTNh8c52eBAH9/wemIkY/QaHvCm+MRb7o2BseijHR3Chz67owMcIxv9GWteno6MVTjSER7J6B49e6KC33j8GEvn7Oc+u6L5hCc8YWsx6h5abPvlL3+56Qt9uM0lJ574Ihwnn3xy6zNH4S0BVVruAcecA2PCp3l4zftuc+kNHXMkNDrns/REbnIaE/trxpuPB+Ps7vA//FuE8AOMNQY+fmmLProwhh74CN5iG9fwuxfe+IxYIru5ErGdoRovsb9rcphjfHyLP5ONP9OH+Kl8VtnIbBzfxBM6fA0uMniAsX1v4TLePf18gO+Ql37wpKHHzl7ffOQjH2n4LXxa/J1ccBgHD97xG3+IfLPAWDrCs/l0xB7mxnZ0wA5w0zPbyF9kdI4feo9eAD8lD9n5DzuL0+hPQxsePMrFCrXkPj5Wbcn39NMJIDt8fIBN+Xv1T0c8w//BD36wvSrJg4C54QPuCpknf+BbfIlPOo5eTznllCYzveCX7y73Wo2t8e+1Kr3hNTYyj23plzx0R+7oP/TRc60fJEfBx37w04m50S85PHjb+TeebjQ6QFNcw6uv8kJuvowX9JbzowcjrKgA4SicNI70xCc+sSWCAw44oDkdRzROUuS0lO/duwLgsY99bHM4QcSgAkMlLIFJAByAY8Ev+aLBiRmZYxrPMfQxeALGvCyG+DDeOV45Ij4VP5xAMtN33HHHtadqyVLS8X6ZEwoCixQ6HNk9dBwlFU4GPzocjXxk+fSnP72VXwkI/xyZE3JKSYEuqz6B+d7f0oGi6Mgjj2wObu7NN9/ceM98/WQKP5KtBge9K/TwRpf0iA+ySnbOzcMr3QgEepMcJLckNvaBxzl5JGx6827WPfMsLuSlL/SMZ5sK+IGDvtHQ8IA+W5nH9nQI0BCseMGnsfyI/GwMPz9jNzzQs2RBD5pzMtAFXiXG0KdLOnnSk57U/IjNQ4ueFCAWSfrFFzk1MriHdz6BH/j4Nb2SI7t4STrVvvSMf7LAQQ400aZDekvyRIud8Gps/M188ibZOSeXBYvM+POKkex8k5/gx1i8oG3RcGRvcqJHP/SQz0jxI/QkdDTFATyAz5FZjNCjsWxEB2Q0lv/CCycbkCNysxVdJabxefjhhzf80ZlGB/BlMeD/5ojDxDw55ROxAgebGIM/9OiEHMbzGbzRq/sWEHjRcY8viGPn/DI2Ck1ykImNsugOAb/8Bk06QR8fdJT4SO6CzzivkeiBDenUHPTYWMMzYAfj2BjuyM/++AnvxsGDP7TcIy+/ULAnztiGv3vgMc84/WxFbjj4J17YSBwBcpgDH/83h+3QFxdkBHSRI7vAqeiDEw52oFv8mms9gItPyif0rLDk40NdB6f59EGO2Mk9PJBHvnWfz8NHl9ntpmc8JSe7F9vRF5vBSR/8lY6Mw694hJOO0NPP/+CgK58To187pok98/BJPvcUh9HVBNtgRQUIgwsGic4CLolyVE8lxlI0hVu4BMPv/d7vtaT2yEc+sr124bgSwcc//vHmGOZKXpxDn4RoLGNx2te97nVtcXr0ox/djC4ZcgLv5SWSRzziEQ2nPjQtUknCswoQQS2BaRzOlqzPqRhzwgknNH4kBzT0k1FhgP7HPvaxFkjG4FFSEZh/93d/15KbMZxQP2fn2AIDLQ4tuCpwdLtEHNniSmfm2D0SSPTjSQE9iQ194wUXXuncOIFuPtktEtddd12Tiwxw4Iv93vzmN7eEQAZ6oCdz9KVYkQToCh+2XOkZD+xFBnZ573vfu3URpRv8VJAk6Z/+fA5IouIj5JTM+ARdCGJJyLUPfOZJgixkE/hXXXVV41+xS490JrCvuOKKJit/UQjwH9ujxrANvfNFPivp8EV61EcvcPNXSdp9vsA/zLMTBfi6xIMvY5Jw7QLCgU+0kuQq4A3Oiy++uNEkP3nhJCs8iR+2seDyYQUKHvBKV+ZGV/Rvcf3Qhz7U7OMc/+aTxzWbwkk2i9073/nO5gv0Ziz94BUf//k//+fmq+zL98QR3PTpmt7Z5sorr+ze+MY3Nr/Q557+LPh2E+lArNEXW/BLPso38Paa17ym+TAfkDvIN9QZHZtPPxZbdOiNb9I5nu1ksblFjN9++MMfbnqSC/Th6w1veEPjNTGCL76NPtke85jHND0Yz58vu+yyJkti1dwsWOyk6BlbGC1g4t4CJObMZVP0+KL74kmMsY38JldY7NAimzhCi+/hJ/aRV+DEA12xnbH0rZE3CyC74Y/d4TTv3e9+d9t5lhPJwB/f+ta3ts/wnX322W0sHV9yySUtVvm83IU3umZP+B3JYay8KI/Tv/F8n08CMQ+M5ZtyDR14hUnn/FgfPuwosoHYR8+rDTKeccYZrW+o68SH1/r8ynpAf3jKWnD88ce3o1dF+thebuJD+s2XJ8mEH/TEJ/nFKP2KMUB/dJ0YwDP+0TbOA7XYpxvx6tWecV4Xiz9FCj8US/IPmfgQnifYHmbvCQ2CDVCkAOM8j3/841tiEYAMxMiOAk2yY0zOx9AcylxOxUE5lPHAtQBkSPc5t3kSjUVHoHAGDi4xmMeBvf4xzsIicBhdMhH88wAv+JOM7D5I1J6OOSzZgEQouDg6OTVJWuIknwANT46Sh0A0nm7wJSAkBosXnvA3BvTiHrwcXJJ1jqbELmDQMYYu0cALOp4iJDeJQTKWSMjDDmShJ+PxQ0ZHOlLIWEzDKx2SwzarBQk9OnDU4AzQPzvonwV4xQPeyEAWdPBNz+Tz1INvtvAEKmngP/JJdPjzbpgt4NT4C34kYPfJSA/GSRj0wB7GaPEzc/HsGj7jyc3HzOev5noCMpYvOrKrsWTgcwpVfsAukgx9hUYFNseHBZUu8MmnJVlHctC5o3HiiG3gdp8O+BAd8TfxUXdIJDr8axIiHiVZC5exFT9cZ555ZvMBCyKZ8Eym+IVzix+86KBrDD+gRwmWbfCm0T07KpokZwuhZKvYIQ/7xU81c+mdDeh1COjgm3x0QQ/0bS7+UmhaTGMbOtZHB+gZ50hGPOMH35J/FmyLEl1ZQBVH6FpILCh0gGf+4L5YxA9dwDeE8GCR5xfmZj6adE8WR7rUUuTwO40uLWp8j135k/iCW7wnPh3pg00VXXRlXCA+SEa8K0Qs0Hw0ujUGr+IE6JMDxSD/RIN/4gsdsiWG6VROEb90lYIYTrzKq3SEnoUeb/FPeOmFfs1LXGbuciB+FGL8zXy8wotPuqRT/se30CUv3CliHPWRp/qfI90r1OCjX3yKO3aQv821vvAZOdN4Psnv+A988cfkFw09esVX5J3gvjCzALlv+bG0eAsKTiihSDwWD05HyRxE8rGoMhZnSTWbAiTFCOM5msfZGU/ykzAYl5Ff/vKXNyczhwGDV5C4rzgRbI6ckKMOg7IaHi1OoSiQ1CVrzvXSl760OZhEBASWhPf0pz+9HckheUqKHMsTOGeOIwt6OpHM4UmS5sR0hK8xB4xeyC/5ePJTjJHnvPPOa8mUXOjQu2CrOzUSCZ7djx0AfQnS5z3veW28BIC33//932/6Mxaf8Bt31llnNTqCXMAAiZ4dPJXhM+DcPY2e6r1A5KIvcjhKfGhbCNhIscVf6MhC4dociQBvkriFVXKQzNmOnHBLip42+AC7uI5PSrrwGc9WSTixFf/CD9mNx5dFic4VQIqA0HHkk0972tOaL8Su+DKfD/CnoZ+BJDyNPfBpUaDr5z//+c1v6dDixB52pMwhBx0ZK/Gbr1gTV3zDoqiPL+CLDugCT/TpidKOAZ8jOz+58MILm+2NQZe/kvdFL3pRexoWA3zcIoNu1YOGd35iLFqSNJ9if4U8H6cHevcEiq6x9GseH+SLeBX3Yz5DdjJqzs0R++LPOb9wzk/Np1O2QSMysCXdsRGfoA/yk5lszvm0BYa8fAGOLI7w81E64BP0yDZ2T/jTEPBBHvOf85zntMUJfvPxRT/mpwDBO99TDOLZPIseXxe7Cj96Fx8We3GQD2GzF/ziU/6h68Qq3PFvNOiZzuyUiAf4yAKn3IlHsaZf7jGfvvTzkec+97ltLP75SuRyLhbpkp7giO87Zze+w1/Nl1fZkHyOdETH/COABl0bPwvonl7YnI3xig845Rc4QeJVzkqhCvBnLloB99ifPv7oj/6oxTM/gV/cAbFkHP4UXfIt22bnEw1ymyMP4zP6SEO38jLB9rCiT8VQqGDi5JySY3EmASEYVPGqX/c4COVLlrUoCMAFJAVByIiSjy1CW5qMD4cExuCchQMYByeanppt8zt6NSGYKnDIOAWw82J7+KKLLupe+9rXtj4JS9LnuIBDcSYyGq9QQQNPnjwEfhZ9Df+cV1LDYxKjhCFxCFzjwsMQjFcQedVw8cUXt6RpkSKn5OY+XgS8JtEL8Le97W3t9Ybt5yTtAJuYhx9Bl0QpcQguTcALjIwTWHQRPeCX7twfBvM8eYDx8PEDycCTeWzFTpJhcMNjvEWDP5Eb6MczPumYHGxDBxIFeT2dKtq8ErLTwDb8EyTZwKNFj5IXniyabGurGm/m81Ny1kTiOv4AXJuPD8VT3c2rYA6/fcYzntGKAfa184RHPqGff9ClJ2x2d/SK0k6UZitbUUhOiZ2dLVQWLj5LP4Cs/M3iQT765QN4pTP2zVh9kifeyIAfuxg+YIe2uRpe6MN8C4/Yg5t/xGckZragA+PJCSf5yG8ceo7mwTWWpAF+LTLwkg2PeI4M9I8P58A9/oovtOmLHbNbhBe6rRBa4Ytf8dMsOHwADkWUuFI8yCnGjgEe+DhZ+RP78kVb+ApF9mJXvJAb73zH+OgRDjKjQd/yqHF0K//BId59X5BXs/IiXZFZHgTmkg0N52QS6175ZAdG8Uof7E6PbClnKU7FktcjXhkYhy8Fn/vw4t8YuPHmvv7oV597+FKseZhwXvOqOWgmjgLmaSD2CaSffvADh9cwXu3wWUW79UHBReb4WPgB4dO1OHGuOec77IFXOYqO5XlxILbdgyt46JeNUlDiB560SjdgzFj/BEuwogKE4QQIZUo0KnTKFRSqd4lLgvQ0IglRvvFZFIC5+mMQi4/xKnbVrAAxR/BwsrzrZnxBJxkrPizEnmIkIU8beBk6N944RmjhP45lHmeSPDlgnB8diVACkZDMlQwEkwVDYjRWf+YIaLSrTIJGC/3cG0L6jZPMJCSLTZw8oM9ipEkIEgyeyC1RJNDJWIEOom984RNf6OjPGP0SsnN06QGuHIH+yA70Vx4DSZA+gyCo+USenujSeWhoAO2hvvCXlj6+4KkbbgsNXIoW+pCE6vwquyOa9Oidv61n/XYS+AK+jAHVZxxd5x6IX5ET/2M6oF/8SPB2T/iq+KCPt7/97U0GyZqvp4iJ/9IrehK2navzzz+/FRjoWXTgjv0iG57oDx6LZvxHvxZ5gBhAXzHuPThc0SE9GIuHzE0LPY0vhQ909NEJGRwD4Q3E3vo0YG78Sx98cOQ+iByR2TW9yTtygQKe7Hgnh/n4MQ7AH18NPUc6ymsIeYbe6JmtFL58C81ZYFGW9/Bg0RWDdMifHPEhVsOHY/QX+ZxX3RoDr8LBw5wiyD25QW6EVw4yNnoL6AMKHDLg3SKNP3yymRjEp8Y/n/WsZ7WdNHjpQiHqcxHmiLVA1RtAqzYQ3umRr/IDfRoZ6AMPYwB3csEQzMtOrR1RtsGrQkFxJq7iWyC6HLbwDvCp+FawKhrFoDWNnq1H8lFdF8zHY3SQfkd0h7YAsXHV2wTbw7YoXwAo0aLtKDgFGodSNXMEW36cjmOrLjOegRgQMMowmblWRNj6k6zNt4B5opAcJBqBLFmiI3mia+dB4WJL0xN0EnAgtCptxYekbkvYeI6Mf4mdo0hK5MhfCEhqdmhshdryk+A4ZnCiVxtAJ0k4Ms4DuhJgF1xwQQuCPD0JCjzRod0lBZmEJAF52iU3nhQiZAEJBLw4j55zrYXPytdQV8bQOX0IVtfs6HxWwAXMoVNPK3hmK8UbG3naJK/58IQvBaWGZsD96j/GSjaKD/oACjDb5/xHEk0hBszRyKbhi/7sHinkUvjyBzo0Bi+OmQ/Q1cZg2B958IwXMvNpNCwIfMpOkELEwoknY92TWC0c+FIY2VoWE7aI867bWIULf0UreuGTSfxwha/IUsGipLj2lK8YgVss2YFybn50VnVAroo39xzZOLrHQ/KEe5o+vpPYydyKT05BI0/3xrrvqLkH9NGB3TS+oKhUhPMDccS/xB9dGas5xxMegoe/ySXswS7oe5qGw0KtACRXeByCIshCLVd41UF3ntTFZnYZq7yRJfQD+smf+MOj18MWRvaRD/mRWCcnvsgXHYLQABZPD4ByF77s6DjyH7gy1zhxY2HXFC7iyi4AnSTG8AWqPgGeQa7hNJbOyEC/5pA3x4yrYL57WnBVgJNNyS9H2gHEu1xgx4oPeGikW4CvIZ+hEdryjNfeChBrDNnZXZyyHR3zl/AMwmPtI5c8DR/6lf/QNGaCcVhRAQIYkEElGwmfM3t6+C//5b+0QGRETi6JcUL3Ob6WufrivBKNp4cUGbZ0bU//wR/8QVu03Lcgq8Y9FUgUxghEizXnZHiJfOgArqsTcVoLjgVB1Y8OvD445wlBQpHEyYGX7C5YFMiLF/jwjq7mPMHlnIxxuowZBlwFY1Xd5557bpPZQpinMvK6j67FwhaspyA6llwkTDqWpAC9ahVqwsVT9BOeA5HJ/fAssWf3ST/ZJRXBTt+zZKM7CzzaeKVzcuEXwJP5/AR+H/jiBxIlviJ3aJFLn+JQ4pCM4GWf7LZJBMA5fuHNNbBoWdzo0GcYLDbhCW7j+Qy+oyfH+NYsyFg4jIMnO1YWKH7Fl1/4whd2f/Inf9Kdc8457ZWMYppP8mMJT6MvBW8aH8y7aX6o0ISTb4RPdMkuhiR/CdriR2fuD23kyU+Ba/GhBw8Snvz5ON7Jy0bwJ37oUAsuR/jRc557/IM/8gHzopPqh4HM0+Dh04ojr1Mc8RH5+KG+2BQdBS7dWpwVDGSgQzoyxz1HdMzzmoSeXAN8WsToTX7KhyRTzPO9On4I8PNZvHtAEcdsyafINIT40tC/0gBaztmXnRWhfBx/6NCrHcUhDnJGvxZTRSx+FLl2/PhjChNxJ8/xAUUGnOjYrfuzP/uz7iUveUl7HWNhj/7QiO4DoavfOf7oH238eWBMPNCj2EY3PhMw1/WsfELPCjKxb664ffazn93iSN52L75PRrqPngP4xIt76PEf6wpd2XkXC8mp+NDgy/jol67I4hyggQf6jb8C98kqfsZkmmAJVlSAUCYnEAAMw9kUIRKkpAY8BXAChmCQPK0xvj7OJPATQAzFoBz+1a9+dXuq4UyM6umEwT3xx7kcFQgWZO/tfC5DIvJEx8HRAvhDA24BgA56Fjy7IJwticscdD21u+8eHi0Q6Lhn8X/LW97StkU5VvhPcJE1gQjoKu+AZwGe0OagFgyFm+obTz7bQC5J1zjJVfIQNHgiry10vElU+I2McNIbnQeia0k1i3wCw7mF2e6AuRIwu3oiZi+7GNG5XSkBL+BmBRYbkYVOJGg8m2O+pCYpKrIqLQuh8exJJjQ9uXlCsUjgn03pSZM44TLWHPYxh9/E5uR3zgeBpAIPHbA1nuA3jy75Gz82J+PQrolsHtAHHjWLMz+x2+LPWG0X0zte6NviYLHj04ozPkmn9KVwEQOKUHaWyPFjDv+Ag83xbjw9iAW65Dt0DyRZY6sfAElWsQE3f2Zbvk4P9Mk2WbzpER7+wafxobGVPmP5GmAXT9Jo2sZXSIhrvoxX8qco0kDO6Qz/Yg8etrdLRAf4oj+LMh4ylqxw+iwU/snCP9EiE3/Gp5iWQyyMbMLu/AQueOATZ+Z4mOKvitzEeXLXEPgTXtHJ54jwkc8lsRFfokfz45OO6QNo5IO8AL/44k94YV+y0YkHMLYxJ3iCU4OTji2sigqFixyUIpbdyWssX+ef/lQ7+uWD8CmY+REetMwjEx7wa1zu40Pco6EwoHd/Ks8edCKX5Sc8Ird5cOCDrulzDMiKLzHu27U9rIhfsYkOuvSFRwWgWJJrxDTd4cG5eeigbyxfiz+wuxjia+KVL8TfyZ3xcjpbi0m02V/hynZ2jtBlq9BO/ojME2wPCxcgjKAlIAGjqM7zlwuepCQFDgGMT0UZIwRPHNc9zsP5OaiEwxE4OacTSHCnqkdPEZTkybktaIoiwY4OEMTDnRf8Jvnqh8sTJ7wWH8kMLxZeC4NFAB08SWqcyhi4E+xkhVMfOiCyRV4y5l4FfXjRzIfLYsShBWV4Mg5PXrlwaPrBFwcXiAmqAFzBV3UtMTlWOwT0aRIJHVjsJBJ6F6AWuiQfwWYs/PANgW7pVSKQ6PErMLMoSKD4gwMtOxJeiVmQ0ZEMM97CYIGjQ/wqcOGmB/LHLpJLFpXIQt4089kUT64lEr6TRZ6u49sKoywQmrlaAO/wKMDZLkAXGes+2SQ2NNDCo8TFdzx1sakx4kbi1k/H5KYHsplDB/iyiHhVIslaAOjJAmUMX4WH/+T1J37YKH4QQIt9xRHbZIFDm14BHQGyODcfzugFr9WnjFMk2yInk8USziRkMqVoNTd4HDX46dLTrW1wRZhiCH+Zi1bkkfh9HgA+hQ4do2M8H6uvcdiLb3ngcM6HIyed0hm/MZcO+ILi04JDl7OAn3tyNhev7IEHvLAfHNFjbMEvyEn29BuTeM25mFAEKITokI00DxrsV/HSN17Mdw3Q4A9yG38RMwoKdgpNuuGffFOjZ/TEmx0Gvmasxrb0wWfkavplR3bT2BBueva5EgUffHSq8VHFh9yBt+A117zwpQ3BGLLhzashepaT+Dye5HFHeB2tQXhEX6O/rBH4JLucTSfxB/zFfpr86x7Ak/GxNXxyjQKEXujKfXYnq3yCrhg1PrJNcF9Y99/e+cXNDz/2yO7hRx3aPe6Q9d2+fe0gNGplIlgs7hZDyldZC2ZOwaH0MyDD5/0c52QAgZktb4bnCBZNCVDwSySCinMKfM4PL+NzFkHI8IKMU3AsCUZwCyC7AoyLR8EtmQg6AWKRgU9C4yycRkM3RY1xkpGGT0+YeOeUGudPwoWDM+V9pH6JER3BLnm6j294LYySBf4tVkkageyykBXPGtk9QXJkNCUPOiAHOoJOv2ADKezgJxN9mKtPcOijO4FAb/SMrlc+0Z1ELeGzI12ZRwYBb8FkRwlOIwP+yEXXbB5eAubiVxLW4OcTbM1GCiZjPC2HFv2zDX2SCc74Fx3wF/TIbkEmI59MckqQuy+xGEtffIaf8D968DRormREJwBv6OHTbgz/zm4Tn2Q/cuIDr/BqzvkSu9UkEz7wTn48wE13SX7wWRAkanjsJLAPvGTiEwo1CZVfGmsumdmFrdiR7BmPD/zTKdn4rwUjMYF/gC86FLNsgV+2BfjmO3TI74wVc2j5bAPfxy8fwAe+jcUnPSaWzQlOOvcEjE/x9Yd/+IeNH/LAFb2hTS4+h2/j6Ypu82BhniKULHwluxVsLAZSMJCBr3k4whc5jTWHbuiTDeBXdGSx4CPGo5kihP6Mz4IUQJNs9IwHQCZz0ScXnryeid/y8zz4kE9OoUOLFxpyiDjhB3CGXzjJwyfgyqsZOcyChx6d6CcDvRrrC+QUg16teLBJzMc/6YR/GisGzONTtXgxFj9sYqw+Pum+OWhHXvP5qDyPf3yT03006FvMiEfjyS4HoueVIx3HH8wB6PMrehaP8KHjiBf+wJbsxh50TC5j+KBjHtIU/expHvuKAbyyU2iLVecpWulYPpN7U5zSJZ75GxnISj8gPsBu9E1XaLLLAxpWsckzswDhAlqcQKAwokCldMbhABIDh5PQGVHyi4MwmoWY05mj37XkpU9AcRCBzMEYFg3jOADnNk9A6oPPfc1YjoIeHAl6eDki4+MLfwIbDfPgcB9tNDJOMHI0tOByzZmNNxfgBx/uGycwct91TX70RVY04HU0t4IxEq5+fNMf3ElsAlZAWOwBeekpRYd5cXYQfUoS5gWnMXiN7uCHkzzGuYYXfgsiHPrpgF3xAqJbtMkjoNAM/YD77A9n7G2M+XSBFyA44TGerOjhj3ySIP4CrtkaHjoX9ObART68wOUemfEFFx2TRcIxDm7y8B/0wlfkQtM5fNGXa41eAD1pwDit2hYeNOkgsUEH6Gto4BFdPBsbP6Qv58BYfmVs/CfJGD7j0SKD+/yPfuFHO2PQ0aJP9qan3Kcj8zW40EBToy+yOtKhMWiaHx9Fl36ABTN2gctYPn7xxRc3Hnxux1/1yB+5T/4AvOyCNzjIHL40Ookt8BQfc9QXXQFzh3aPT+CFbtnOXP34NgceONDnd66X8/PkI7KYk/nwyT/O6doYPIqz2JPM9IYXPJkb+5CNvdAmd3QV3zBHTsaLefrgJYuiQfFhcfzjP/7jVpzwjwDe8UMvdG6ehn88xj+NozP8k1UffYzpBBifGMM7nuGNDc0XywCfxsYe7kdGMgWc00fiFl46oEd8mO9aP5x04rwC3OQyXiyIM/pFP/c1eNBzTI4iE/nRd+TzGrp8S4wndmN/wD50ji7cD2hY0wKkGB8IFIqmYMoVlByFkfVr+hlWv/GMxvHigCBjY2hHxtZnTvoyfgyMR9d4NOtYNN3XB6dxeNVnPOcArvFlvIZu7XesY5wbk3twRcZFeB4D8wU2fObHacMTQA9+Y/QZB1wD9wPhVfIyJ/gWgeiTDGgEF/7YXD/bZhGbB+EVjqqT8DwL3NfMqXLhAX9Z6IM/4Drjc66Zk2t2d3RNTr4BR2wXmWeBeWDeGGBcld11fJvu3MMXCN2qIxB5+a37FSdgD+eae+FtDJ97Q54zvvaPjZsFxuIPn2RjF3MtZnY/wruka4wnx0svvbQ9BfoyKrsSFoHwP0ZXv0Zu8kSm9GsB86vO48dDPeg3DgzzwBgPIHMS+7MgeByN18IjWq7pJTxW/jLedWiEX41N0Tcm94cxHnruWyTtpnmlYCG2SPoiOjsPY/EbPivgFT9owx0I/RzHAL6aeyNnpRNegyf3Kt4xvvTxf7idRzfx+3l8VTCXbkMj9nXtGLsP4yl6BsblHn7Mic4A34c3vvaAh/uaa1nYWoAcd9Rh3SmHrLtPARKDUrrGAHHIGsRpIAZwzShw6IuBteDNMYYdc6Lgrf3BY545cYQ6NmPcq/0VZvXHoerCFRrAdXjOvci9KAQHQGMoQyC86a98Zr6W+Vqu61gwnF/BvdDN3PQN+2fhCKAvSdBHfEQfPPirOPWD+Aeo+I1jC+Mk29zL/IDrSgM+5xkX3YLaP0ZzCBkLnNexY/MyxpEPgSEdvDoPXxWPeVUWLXoC+gNJehocFU8g4x1zf4yevvAD6nhQ6QLXGYMPT6a2vr169OrJ7oPiww6I1zc+5+Mv0BQfEnNwVBpDCE1jnIfPzEmcVt8AYziDCwRfmmuyZ0zmD6/HoNrKOX7IF9zJC7kOrozXovcqn5bx9dwx44b20ux6+Ms+H872eYxXvvKV7dWXQsScwBAfXeI1vIPczzkYXldwDx738Kbp09AIuHYvuqEz92seGAPzjAWhkfN588YArkCdO6s/kPvDOcP+MRs9oGGb2haGpR+jO+iA7qAD9uuO2LcvKrboigqrgp1HmVF2nKUqOeeOgVyP9VXIGIaLQ4JZY0GMDjI/93KMI+S6wqz+MRkrpG/YhhA8Y/dA5kV/IH1pAefRSe4Fv/lVz9o8GN7PdZ2bc20WXeezIDxVmCVn5b3SyjH30eQbGZv7OWoVV+6ZB2p/bWBIN1Cvc17nDaGOyRFPsVPtz3kgfcbV65znWGXkoxXvEOq8egzkutq0ng/Hg/RXPkAWFK8LvJvPO3CFh8+H+UzFcJGp50OouOtx2F9x5jiEzBkbt0j/clBtVvVSbVNx1b46d6zl3tAutS9gB8QOic8D+boBn61QfMQ2oI4PwFX51tJvfPIoqNdaYicAT5Upx9oC9X7mjEHkzLi0Ib7VQPQRXGljOSH3AkPZc1+bJ88Eva7sgBx33FFtB+SxB/eJo38wYQo7IFXJFSicwWL8lcC8uXEuC4zmWtDkaWkI7lfjD3G6nzHurcQZFpXRGDBrzHLyBubRCEQWYyOL68infx6e0As/gcoHGOKA35ZqtUXoDheTeYBOxs6iqR9e13jMee7FL9xbRGYwxDkGwR28Af2VvnPHCsvRB+ZUXOGnznV/Fn8gOMBw7o4CftLyykCLfbXQBmO03Tcnn6ewK5E5tuJdwzfULwi+4fVKwfyVzp01Z0d5GYPgdJxn60DGA3zQb+aGL9e1P5/b8hkFu010X6HiDGTuLBAbaIj/8KGFD+eOruEKb4GxvuCoOWSMt4B7wZPxFWedO6Q1BhnvGFmqDtIP1yzdZIxj+Ep70MFs082EbQXI0X0BctCWAqRHRH/zVBiFrwaWm+t+jvOMmXGBeeMW5bWOXck8MGv8PDzuVViO3hCX69o3b36lNRxXg2gMhjSCy3n6580fwpCXXFe8IAlAcw5ynTGLwCK8LTcm9xctkMcg8uU4Ri99GbMozOI9fA9hiH/IU53nWG0RGOJ2bVzGBrJQgRyH9GdBxVNhOH+leAMVf5Wn4pnFwyKwIzjnyTLkO5BXlin2xhbPIV7XsxZZkPFDOer1LHniD7XQAGP9Q74qDGkuCnX8LD5X2l9hjOeV8viAgNmmmwlbPY66qsqWU9+OKHi5ue7XthwsN24RHKA6kvPh9WphUfqLwBBXlX05OnWswI9MY3IP2xD3crQWheCpx2GrMKt/OVhk/HJjct9Rsk6CXwlUGovwtBJgp0VhbCx+xvibxWf1j4Cx9GIXRWGWRk8V/9jclcDYvNXiG85ZKR5jxdMsmKW/RSA6G7Yh1H6692HT6H0MhjjGcFao+MHY9SxwL/YPRF/6s7uynM7n0VgUhjhiu1m4F6FpTFquJ1gMmnfS1++qznaWsTml1w62kn2gsgaIY227G6rzLwpDecBqdVl1IJnQW/6SYyX6qfTrvPSvRs61BnyFDzqselwUlpNhpfgqmFtbYNb5jgDZsxvkfBFAO3qL7lbCz9j4WfP1r9RnVsJLgJ/zd40uHqxAd+T3+ZPkzIB71d5yhDGO1Rd2BYSXSndX0Z5ge9i2AzIjRnencZZLHCtJLIF5stRkJal4l+1LkXyvhmCpc+9vDrtSfozPnMjtaWReq/oZAlzuST7+9M+XinkPPSuxzMJV+4IzMDZ+VwMeyKQw9dcd+a6DMRnnwXKyrBTfLKh4nO8I3vAcHPSQhWSRhdf4WrDAk+OO8IavMRyr8ZfVzPHnx77Hw/du+J4MMEsW+NN2BGbNXwneystK5s0CceA7MnwRGH3IBezLP+hIzBjD/v5iSl715WzGAP3L+cBq+Bz6Bh7wEv6S29YC1grP7z7QNbvOb+2vYA4+aP/uoAP27Q7bq/wVzIgeHyjKXUQOiVUgvelNb2qO6pP8PkTHWUFwDHHtqI52ZP6icwUimfyJpG9AJVe2zJdLAIE6rurCl/HA6+uM4fMNhRV2VD+BtcKzGpC8JE6/G0EPvl9h+H77gQ5k9WVwbG2xce0vLehjXstiU8Hc6C7ntVWYdT9HMLwHat9YC4zd0+aBD3365lexJI588RhYbt4DDeQU3wbqO18U5vmSSIWZ74dhf7kG+DZsvsOH6jeqrmUxMAZwezjyjaaKIjmK306w1rDYOjL+gnAAHKMe1xrg3dk0KixCwxhP8PmhprqlmKRUA2VRvueNmxV4Y3P01Za+eVDHKbAkTb8vYQGxfUw+SURCtcDmCaHSAEM69doTkAD31dKSEZncDx7gmBao5yuB1c4Dq51LV/Tjt1ok0qEsFWp/xs0bvxKYhWctcI/BkJ5FxiKiKTyzuzGr1fgBcNU4qucVlpNnOGcMB5iFp/YvR2sMLGQWWb9P4hiAazX4Vgpo0C2/tKtgB1IcRt9gpbzMGlv7h2PsLCgorr766hYb8og8gyffxspH8KiPnvJ17XJrbB/brZTfCsvNw4cCxA4mPU2w+2DZAiROwZmTROIcOV8NBIfGIYOrJirXzhehk7EZV8c7n3c/kHFAZexP2PwGiT9n05/gCNTxoJ6D4f0xWaLfins4b0gXDnrKdqbrQJ0HgksLfeCJ3ZOa3znxFcie3CQCuz5+hdRPeEsmxg9fwdQWnBoa9OapB878+V/mDnkJuB4uUHVMpZcG3DfP2EUgtMFK51YwT/M0lz8vrfwG9EUu57FX7a/y6NdAlXWsGVfppT9yBYyr8wK1b15/GoA7+OEVF3YGxYivxOZDizQ+Ep8a+tYQImeVdR4Yrw1hFh791UYroRVgVzkM/2QBzoNvyI/rYd9qITQ8LPj2U7sPHpr8yJydusAYvVk8BOdQD7Vfi94Ccopvv/V7NnzCd8Gwtx0Ov8Ei3+iDRyHi6H5sH91VOs5zPy0w7NfMYY9Z94GdGb+Rha/61fQT7HqY+womTqb5PITK0a6A95yqWxWsPgaXiJNIAMfRb54nYk9JnhoFan2VwRHdV4kKIk/laOi3IDr3GwD5Gm48uefpS6WPnn4NPfx48kZP5e3pJF/CEyckj+BE11gtvz1hnIZ/fXYIvEbww094MUdLwslY53gjr8oafXjJJOGGdng1Fm/54S1zXLuXhRsN+OxQ0Ln3pgoEc+gSbbgTxCBHQH/GwUFe+oCL7syhL+MtHmRXcJDXD4f5Jsv8LgzdRwY8wRm+0cBzbEpn8EiGFiffwFh5MgYvdMmH6MH2qzHRCbzRBT7RwLN+eNHHr/vmOvIJ+uETdG6+b+XEC3qxq7GRg17o0y4G3PFXujYfZMu4Ahn5gB/H8m2f9AQH3ZofWhoIPbzwb09f+CQD/o0zxjXa8PNjNOgITj7mqEVmc7TEI9AffOakuaZfuD194gP+4M5cLXbAAz+m8/ALd+iziz6+YeGRzNGhR/GMTvwkesnXtmuhmXN8kAUtNnOep2d84wst94yxrS9u4K5ftBX8eDMPD3kCxxscxqLHV9CIbo3lE/rcNw7d+DRZ+C4QG+jQPT7w5DeWFN94c80vq40B3GiYr58OAJ3DHfzmAb5DDjLgDy18A7K4z5Z+gdW3n6KLZwUiGnw4OqkQ/Zib/AwvnsQdvoyhNw1feEQfH+wDZ2zKH+jCj8vl4QYPcGpsZCycsSn+fUGde8kt9AN3bKoffboXO3THB8wNnwF+Z37G4QdvxsQGxpDDXDQURROsNSxWYC9cgDCqJCupc3ALgio7CYAROTqjAg7HYSW6bLVx9Di48ZzBmI997GMNj3PvUbMtZqw5nJJDw88Z0TMOLxJfipMkTP1xQDglhCQBMnFuyRGOBLXFQwDFKYG5FmS8Sq6SEPwaHaBplySBagFEF05HePWhiXb04xqv7lvo6Qg/gkVQ4ddRkJAdD/STRVhyMxddsuPNOX1WMN+vPRpLj3CQgf4kBgmAjBZRAW2cVyd+XZPusrjmXS794NvCy6b8gS7Rjv1d4xmuWoCEN0d04bdlDfwwGXkla/xJovjBI9zG8jU4yR+7RlfGkEk/3t0ju1+91ZdExwfoC7BLkjZZjGMXfeTCi7H8awjsgBe04NXi3/QD6MJ88sKln1+ixTfISZ+JBTj4tkWOffkmPsiiHx4+qrEHWfTxO/7IJmykhS55NBD/zC+3mkOX4lq/OYkRuiMLPozFE9+p/mkcneOPrcQMXaFjHP2EjnPysxNfhcP8oc9G/+jiLfLShXhDxxy43PcrtvSJt+hEfMGp0GB39/kOXthNTlFY4MMR//DAgRZeU5yxDzzmsBm+NPfREB/sDAefR4Me9YlrMS0eEveOaLrH7/ILwnQBX+ibZ2weDNiIHs3jE3hDjy7kHzy671UxvOzinrhiK2OiZ/Sdkw3feI6d6IDO+Ks5eOZ7dE2PZOcb/MH4+Hr0jg+8eoDxDbj5FXC+jue62KOZuFSAkJffeHVDfnzK+Y5sj75mHn6sEeQInyC8srexYho/6MT36FofWeHWNxbjE+worEEBEmBogaFQuOiii5qjcDCOJ6HpF6SMyek5ogARMO973/taQDAyR+DEnMPXBHMcDvNXf/VXzWkFtjECG54kbWNqlcyB3v72t3dXXHFF+5phTx1ofuhDH2rjJRpjOaAFWNBwcMEoienDs/tkEwQWQ4HFse12JCA++MEPNvpo6iMnXdjqFKi28uBFE463vvWtbR4ZyIefT37yk20MHdARfVx77bXd5Zdf3vixaAD8R1cWX+cSyt/8zd80XUpG7tWAxLutRLwJsgp0iX+/C3HVVVc1HUmQkrVEgN51113XdAgPfUu0EiFcT3ziE9sPiOWXcyU/Hy4lE1zGsBt+0DeOfiQctvRV3LUA0YDEJ0n87d/+bUsI+Rlu/LKNfvQe97jHtWTkddBb3vKWZhf8o/e2t72t2YofSUJ4v/HGG7tXvepVjU/ywGG+BSZPVHiUeOiOXSRtfNEJn73mmmtak/x9uDRJEIR/Czb5+CAbsSn+yU03dMimds7Mid48GcLFN/geHtwzDg7+pKjhF+SzSOBDLNCr2OF7+V0P/kBnbKiJSbj5CDrhm534Jx9685vf3HSVWOAf73nPe5qdzeez+Pd7Imybwp8exT494td84xSscgD+2cJ9sYUf+NkLTsWguAB4ZJvoE+CVvHTCL1/72tc2P2EDhQnZ2YuO6Y6P6kdfjuFHeLKok9d9vsT3+Qkd0pUFjM79lDq+LER8i23EP32zAxp8A90UYGxAj/yRD6DFb4znD/CgBQd+LNLsLnfwB+PxrMCmW68lxDlfpQu8oUmv+umZrdhCvmBztuD/l1xySdOvGKNjfOFTsRbfkxfYFC6ANj2jxZ5osb38aBz90wP+6J0+6RJfV155ZcttgGz62Yqe2Cl6Z2MfzoYvr3f9NtD111/f/IO+yEtffMW53E6fbCnX4dGvJrMZvYvrG264ockLLzuwIb7g5HvA2Pe+973NH7wC4mMKH75kbn4NWD5Aix74IpwTrDUsVoBsv2INgIE4FSfhvBYdBhO8FgcLlB+Z8qTLQQQbp1IkWGAkEgaXMI09/fTTW3LkFByV43N6wcOpLTBPfepTu8c//vHN+dB0X6IFeAECXr/7eMSXxGThsIicfPLJjd7ZZ5/dnXnmmW285OOIJv4E7amnntoc/QlPeEILAng4J97QRM94gX/SSSdtldlRH6eWIIx1bizHhwtOTRLAp4DHA3BtviSBBzgdyU1/AlhAktFRkAN6l7TgpSvFiQVPAoiOKqBjgSSHhAI/OgIR/SRU4yQKvLMV3HiTQPDPNmwmoUtwgl7RoBlDB2ydRYG/SCLOswhWkBgUQO6Rl77pnqzOFRT8DI90YBE844wzml7xr+GBzJIOe7Kt5B8fxVdsQBa6ktijU7tKfJZ8fp1Vox++jD6c8bEh6NPoVeLFFxs+6UlParqVXNGKH8VfFat4pzc+xDYWojzRGavPwogP8WIs/uOLGQfoj7zsGNmj8/BtnpZCjFz0iQ/48cy3jYHXPLjowLt8fGrO6co9iZ9MkU1fvRaTFj3z6J9e+a0YsegZj8ehb5hPRvLwV3zRLdvwfePZjCz0jHe/dQI/niz45qPjYcBYfsYX2Mc4izN9W6z5Hpr8ls75vjFyGr2TRXzQmQItNpZf2FMsoBVfIDO+xQ/9Gs+OCj9FmviHi53M19CnL7K5B1/6NTySAW90iT687GEOXwP8kE7YFk08Osq38YWAa7KZb1xsxF5Z4MUVfo0xln7gjo7MMZ7uFDHGGwfogkxA7iAvm5MHvqwrjmRmT5878+FVNocbLTTNBfQfndIB/0RTcQc3naUYktvJZZz8bh7bxFbRsyOeJth9MLcAAZyEEzkKBA4gcTky7DnnnNOSgCcFRQeH5BCSncqXI0kAHIjjxsEtWpIFR7T4GXPuued2F1xwQUs4ChAOqKn60U/jxBxQsEsonEqg4gFtT7meDM4666zu/PPPb+PgMC9zJQkySIySm4Rj4YTDEwaHxpugstj5MS0OLTkpasgOTxZ/fJEDTeMEv4WD/JKARQ9vAB30M9bCZPHHD1yegukm/JLReMEk6C3G5lmsou9hkjEPLgGMl2c+85mtwUFehSGd4IV9U4Dghe7wLaHRHT1I7uwrWbhvHLySBXvmU+/oGR/etSFIEBKmZKYYUTTSt/kanBIIveETzy9+8YubD1kE8W9hcs8CQU7yo4s3tmEneGIrfCtSJR02syB4guOTxrC/o6YPj3iPXuN3IH18GZ/swWf5iPnGooUmfdCzogg/Fg5+QRb38MGGEiIgCxnOO++85rvkIDM7Vf/Xcu1ebEkHoPINyIwOO7MtW9PLc5/73O4FL3hBs4dYA/CwPf9kY/QdjacXiZ69Kt3whb74E1dsxFbih9zG0Dl/JWfkAI54phP+Tpcau4gLNsEHnaJJ3/zCz8xfeOGFTTZ8Jc4UIIo7fCfG8eAJnK4VIXwn+km+QI89NTsZfIxu8KAvOQUeT+HyA1nEkMWTjjRxin/j6R7fjvyPvugxtKM7x+Q7Y6ITMsCVPMrn5FyLKrzmpQARr4lPMrM3HMEfWvDzX3j5JRvxS0dy41V+MZZ88Mr7HhDpnT6e8YxntPj1YCJu+QT8cPMD5/RCHjaNn2jklDfYzM6WHTP5hS/6BV/yGG+ec7T5AL8lp9xb8x8erQH8h83Ilpz58pe/vPkLmmjjDV/hkYwT7B6YW4AwTBpgMEUIh0ofB2Fsi4lzAaFxLEHuyVmS9eTjqdM9QatfEcIRJETOIgAEJjqAc3AojiqIEkgc07wAfiSnl770pS3AbbnZtkTXfEmA8wrYFCec2lMQvuzceGLVLLQSU2gCT+IWEDQ5MedHz7lARUPgSjwSExnRtxVoq8+2efiODuGzwNKTQs1YhQedkMc4442hW/oxJ30SkeASkPQ0BMkgT5OSkGRkfra+o+PYETgnC7nrGLjyxOieXRfJ3VatJ0/3FBEBNgje8OY6fUkqkgJZPMlIInTPZmyFX7xKNvwLbbq0FW07Fw+SD97whNcUNuREA202Yj8202esApMvSKLsRd+RFw4JzHnluYJ7kUGyTmIzV6K2iPEVsvB1vmLxYA982+HS+IV55GRX5+ahjy+6SayRk22ck6HyFVtnUQc5wuk8BQd/4GcSvid4dPFGz3SCHt3ndVp0zp+zbY4+GPKCdzjEsQeIyOo1DzzsDOCAG294hsN54kODR5wA9+iYvi1Qijz6MZ6u+LendbEIL5zO5RjXYkzuUfxYtMzjr9m9hBut5B6NHuhfXIs1dtanKQjcgzv8wYk/euNrcDiaL7+Zp/CJrgAf0m++8fTnSB+ae3KV+ebJVeLOaxLFjzzF9uINmA/4iX5zgjt6DogRdjKGXsQUG6dApKfggB8O+iETf409FHf8Cm10jYuewk94iK84pz/x/sY3vrH7i7/4i2avf/Ev/kXLCXRojHlk55/4xxtfwqcdTf4kB/B99MSZQshrGK+M5Cc+oBiTU9jNOHwmR+EJbucT7HqYW4BUiBMJGg4Y5xJ4EjxH4VQM6SmE8wJBKuErRizM5ifZmWs8Z9bidIHQrI5c75ur6ZMg7KCoyuHHg8ratp5dDQFlHH44snuSEAeUfPAC4pxaEn74cDRew2/GA0Er0XlfKTDoxGJEL2SFJ0kAL96JKzrwILAlA+MFeGTMeLiSHIH7+KVvtjBmDPTDQX/mR8d4yZzIlQbcq7K7pk9H9NyjRzbGh+D2VJhdK3PgDb8guPED6FxigZMu2EjyME4ioTN0bLF6mpV02UR/igy08WFcdBVfIjNcVVZgHP3DZX50AlxrmVsBnjT3jJHMQisAF7vQd0CS9HSnILFQWjA9LXuSTVIMPUc8JIGnP3ZCnwxalTtyOgbCL2AbdrJjmYRO7z6vYWHDo2IpOreDqVCB01x8sgvZql1B6GhwKDy8krMLRD8WFAUD/vkR2sB15ALOc032SkcfXCnMnGecc3zGzsEf+xoXffEdC6aCni+h4R7eh3Y0jx3YEq7w59rYzAPGVtBvjnynhQdHLfpKC//OA3zUAspO8op4U3DxfTqAH8604Ao4D73wHtpiTQEKr7xMToU+34TXGDjxZA559Qf0mSNf4SX5Uj8wz/wAfJFPM54viAf5jY6MJ6Nj8CgSPeR4OFTAsb+cqrDjV/iCj5312eX1IEpHHowUbIpf8xW+wa1FJ9HLBLsets8kywAjMbgWozmmjxMJTg7hOk8VCV4Oq6L3+sBTFseNQ3JezXkgjlKdwzlHznjNNQeUVBQgtpUFk8Xd7oL3ixY4Ts+hJVYJkkNzVDwZj198JngcAZ4SPKEdPl1raFkoJQuLoiLIk3DenYMEmID3RCb5w4W+p3GLkgRgHPyO7uMJhB/HjKngOg1EV8N+YD6otsy1c2Or3oF77KnYoy/JnGwWNUFvoWLrinOII3wrZCxqQCKkD090cGjoKOq8P2cvCQRN+rS1T2fslYSlRVY0q85yLw3AzRfoF2SO+eGx8u46+NOCN+Ncw6eRj387J4MnTAWqGOAbtvP5h8KTzoa4K8BvDPye9sgMr2s+nRa+Myd8OYpNidvnotBG11Mn3rw+U5TTB70olviyHRq28DqBf9oJsGgH7xDwJMmLAfGFF3TYjMx4cB/EPtVPgndMD85juzEwN7iMja9asOOvjvjwWksxxn/NiS5DL7TSAvq10HAv8zRxn1cyruHVl90EgJ77rtmS3QBczvWbC+QntrBD68if5E1P9GzJ/+GqvJqLRuIYOKYBYyzqdhMUi3DAazfDIk5v5mcsfNFt6EU+/KZlrKNxGgjdzNPoRc4Wx143oqvwtcvGD40xHp920eTMPLSwnSPfwiv86Cpk4PqzP/uz5q9ijQ8rQugQbnxGF5mnTbB7YEWa51ASiMCJMzkKME9MHEeQq1JTfHAURYH3tAoDuxTe5+lXwXJCgQeXJBtnjXMIaDQdq+PjQT+HEqhoS6LGWcjRecUrXtE9//nPb9vNdjzMUXGbRxYJVeBJRHYf8BsHxYuGh/AEXOPZ2Cwc+FGAqLgVQZ5sBZbihh4EggUJHlW/d6bm0otizFj4yIY+GYAxaA0h/egC+OGOPRyjP3Ial2QwD8yBF6/4cZSI0JPA8yTnlZAk7n2wpiCgP3PDA5rOw4O+4NcXnBIpOhZoNoSLX7ivIKErOnz2s5/dFkJJh49F/3DhEd7QB/rR09yno4xTNNGzopQ/xP/wGL9yPoTgM9Ycc42PHSKrQsN9xaRdAIWmJJqtYLoik3kWfHNC3zxtzF52Em1bo+s+eYylJ3TIBA8eo5voQ3IXH+byS0XIK1/5ylaQSNzw4psNFB9sLYbYmj3wC9CweARvBfzTnXsKF9vpZLZwKgTwZe6Ybs2hj8jvvI5z3/UY3dzLfXTEEFr4yOcmFEL4EW/VBnRlztAOZK120J8xxgPXoRu+ndO9Ao+PKaDtMNGp+/Kla/pmD7jYEj36gwdOMliAgeIA79kdtPOA7/CDXuztmJwA9IVPoF+R6NWaPCwfs3NwJ/bhD+Abf/rwCh/5vAoio376NE+Moa8B/OgzxjnAA5l8PuNP//RPmx/SjwdGfgo/+fmiYlZexaOcwX/ho6fgFIceUuRhfXD/wR/8QfdHf/RHbT1SwMgl1orYMXabYPfBigoQyVIlKaHauss2ra1li7j3zFlUbHN6whNkHMNrCQu0St77O87LqTkCp3FdHYKDcmZJ19OxpzQ0zbUdz0klXjjME7icl7PiUWDk/aDAEAxwc3J9Ei5cnNJTQF4BwAVnAk6fhKE/fCXQMy59nBuf+PNkaevPwqOPHhQf5lmY8CsJoK/ZBvdEQp+2XbOwSaLDD8w54o0MFhY6jN4cNWO0JFK46hjy0DndC3TXAldwo41/fKHtvgRAh54o6F6/RY9t2dQuRrbXNfLhHdBN5V3Txy4WAzsh8JovWbARXpLIyM5GkjGb8T9/4cD/3EvCJiMfxb++6AL/EhB5JU80JDMLU7ah85pHg5ctK4RvLTj5tLGKW7piOw1Pkrg4wD85yURn/CyvKIyFg31iE3ynxefwzGdciyH08EzvcKQoIX8AnznCTS9o+1Na35TpXLFhLhnYLMmc3sUOnYhtviAGvXtHM3YeA/PZXvzxE3rBq6dQuOim7giQKXbCv/4qeyBjxsBYOIOXzhUb8g9diT9y4oe+5AfyJS74Br4iEzpwuq40o1P8Gc//nevnD+xKT+SlMzFNt2LKE74j3hR08qR458f0bKz8hd8UmPAq3tCRR/BurLyh8V15hW2N5WcKPTnTOHnEPeB++CcbXvinXQF8sw3e6QbPfINs7Mn/4MKbnCYGyYd3tMQveciGHj+XN8kQ27iGL/rUL0YUiAqf7JKxEf3hh23yekaecU8OYE988C3yw28sveHJZwDpBm/oko9PKq7Igge8mYOPCXYfrKgAEWQcgHNzVgEhECRFTzucSMBI8J7sVbUWOI7CaQUZBzcnDpnA4OhagiRJV5+xoQlPFjvBxumN5VASieDhnMaiK3gVQ3Y6JNY8PRif5OgoQQFPRmhyTI46Vrmjl8VRc99TOdwCB070LWb4lYwtfhZkYy3m8CToNfIZS19oS46OxgkUvKALnLvHHhmX/jRgPB1JTOhGtxWCy9EYCcFRYYMfekFDkpE42QzfEhA7sCWdS2QWfmA+/aAHr+OQtmu6k3w82ZFFH5vjGw68sxsckkgWD801HvET+WMXEJ2FdpIhO/JRW7T+AkABkKTOP8klgZo/5DkAR2TEQ2yHPzqRWBXk9MUnsm0sWRqn8VHXlYbz4HUEsYsEL67IiEe06B09SR+d6DzzKuhnn3yIL/GhEJGo4bYoSfj8kz3oIzFurNjnx4mFIQ398TWLAjnFAHvRkbnu86csRrWxj7kWHA8f8IUG2czVnKcfVLpwmO8D2j4PwFctWGSIjelNTsGHufGNagv9Wfzo3D19ztHOAqY/9+UkhTRdoaFYk3/4mt07OQK+vO6gT7mCjukHr/wRHbKID2PRcj8LL72io0hQKEcOeU2hI8+gzY8tvCA8RtdytfwsZ6LPH/BioVdcZacAXo2+UvDihYxsi08fClbMsAu71phEy7kjPNFx7Bx74htPxih2FBvwyDv6yYKmRgfu45N8fNU8ePS/613vavIkPsSoXKLA4Vf0yraO9DLB7oO5X0TGWdI4KsdgMAlKQuQArjlPfZWgT5KXgOMYgkQClCg9fUrKxnBER38KxkE4pDkap5HILVDGAU7DKQUwmo4Sp+CzmKFprKTM6SVWW4wSAJ45vT6vaZJcOCWZ8KSQEvTBiYe8/zaOLiQEAQqPXR/yG+caDxZxeC2mcMFJNufkoSPj8zpBMNCL+/iUPOnIOPfoFQ7jyR/Ao1cWaKZYS6AHjMefwopu2AJICs7J7UkxW7r66IWuyEkm9PFnPj3gCx2Bbwx7wOE+/aCPNzKkTxuCPjgkEck4RQFe6A8/dElH9IWWPjqkI/ZnRzIYr+HbdjudRB/m6M9nLugEjfDmPmBfydt9SQ9etMJ/moXHHLYnI1n5N0DHa6nqb3RH//BrkcHc+AY90yvc4oHceI3POfIFePCXhgabkA0+84xL0tdA5rIV3cCJZ31eBeLZufjjS/QdO5PBPXEkTukFTfEvL4g1uuC/eMI/OngG5uNNEcZm4ozO4Mdn9IoWG+unH/aByz3j4DPPYken+vmPhUo/HeDNHA0O+oAPj8bj0zj804k+MoujzOU3+NDCB3rshg804TSeTPr5HpzyEZvkYYOu6Y0/4dE4+nDO5vyQ3PDzA2P5L11GfuPEMNpwuuY3fIxeNXjoXvzSkyM7ih0tfkBePCSuzSEv3GyMfwUFenQFr2LH7oJzD3PmkA9vrtmUnqMH5/GT6FNf7I43+ZOPsSU/Z4PkRGONoXs0XbsHD5+FQ9zTFZzRFTnpHg7yWm/wRFf5M2a6YVd4jUMD7gnWGrZ/OJkF6/7bO7+4+RHHH9Udf0yfuB/Sdfv0uZivrh+sF6pjW4SKEMEk8DzlcBTGZEgBzTkZPclBgjIuiULgZjEzVz+cHFBQCE6OFvDU5AlNtc/5ODhHEzAAHg6kn8MZlycDfXjilILROciWoKcNzphFwnjgGk4y2N1JEEQufHiywQN5BARAX7UNP1k5uznksbAk6QD0yQWH+8ZpAidB7Bot4/BADn1AAqBb+q6ywWc+PHRrqxnQL72Zbwy89CQxSzzkyDxz4HZfgrCYuG+OYgE/ecrREvjGoAknXUg+9Eo+ehsDT1yeSm3R+24Dn9mhf+Phxg874YcOyYsO38EvHdOVe55A+Qsd8wtz8Rm7JJnTAdnYUGJFJz7n6ckT+7/8l/+yJWJJNLznyLfYGD10+ZA+gB+6YK/4MlvRW3Zs9LmHLqAjvJEpusVjYiSAV7YxBqAFD8AbH4AL7eAOuB9fggf/xqTgwHNwsR994xev8GpJ3nAZbyfGk6ZCxJ+6K2QA/PRLP2gaX/0gPEYH+gBdmktXxhpDL3QBl3vwmc/nolv9dg6NpTP+AfgieWNn983T4AZ8Yyz/oGMeHwsfzsOj5twiTQb6hIvP5do5ncFrfviCm47pNz7kPt9GA302QZe+6dJYenaPLeg/tBJ7IPkSXjjFBnmj5+ga0I/8RhY+J+fRQwoMesaPvG83Ac8+x2cMGfgm2ho58ROd0yMZHPGNBj6Sp8hDNrTMh4se2J6Piyd5h+2dV3+CU7855JZX0UIfLfPhgd84emAD8pDfPbjwHJknWAPYrubYPv/Mgq0FyCOOPqx79IH94lsKEK7KqAxpkVCEMLCFwvadfo4NBEaCZwgZNwyAnLuHDuAw6dcnMOJIOecwnNU1B3YvdDloEnj6zXGsvKEpyPThG9RzYAw6+HGv8p9jIPzrd26uFnz4ci/XeDIO/7l2Pzw618InWTIW6IcTvixSoQnHkAfzA+5poZHz3MNL2pBu8GZuIOeZh6chnYwxn40kJVuqtknxmF0N4+AwDn0JiA4k5MjhvnGxS/osAmgnIVaoPCh8vBqTzCQo4yU5X4Num/k//sf/2HZkJK7ICxxdwx1bgcgJ8JFrcqU/EL74lnP8GpP+4fgKxsCP9pA+neqjo+AaAtzmh8cx3yAfncNHN8YEQsdC55UAXYlHT5j5ErYKZESLD0XGjKljK7+h4T550IeHv7tHX8EHwi852HEIFk7+Y5GKrPCYpwF04MNr6AZ/jpVHkP4KxgQ3HFrmGZ/7zjXjXFd6oPY7hk/8OSene0MI7gp1/vAecA9eOk/shL4Y9XBgh9K1D40qauBhF63yMaRf6aZfn0LF3Ph+BbZ0X3HBXvE//OnHK3DPmNBHewyG+AMZP+v+BCuE7dS/ZPflYP2GftLGfuz6/hgzVDyMLdnkqZ7zSAZaHJABh45YQX/GOh82/ZxJg4tjJCjcl2yMsVhIdu65ds6BjQm45pTm6A9vQydzL5U0ehlbnVgffMY4z5ghLoAn+jE/OOo8/IRXzXl41Iyt+gkN5/g0voL75ps3C4wxD94h4FfDa5XHOZrmVPxVLveB+YF6z5zg0UInYDHwTtfvkrz73e9uT2G2kz3xhBfjgz9FQvBq0VXGA9d8At/m8x/H8FFx82nvtN/0pje1L0O65JJLun/7b/9te4fsKc+TLVzBk4XUdfDkWpMYjQlveEUz9wNkMs9iCiKT/tyL3EPImDGAo9ra9VgD+Ir/DX3DmOiRzp1X4OMeQnwOge18z44Fy1hzUyhoZDE/fh4eqj7AmOz0ouHPHOf8QGzjXV/AeWJ+CGiZp/iIrKEVejk31hitym3MkGcw1ocXc4PDmNDJecYF6phA8Di6755rMs4rPoyreAKhl/tp6LoH7zB2gHtszp7J++EjPl4h/ILwY05yIzCHDHTkfvoD7mVXG+Q+enh0T6vFB0A7LVDPK8CJJ7wN6U+w62DD+X/0//z5wQf6DMh+3SH79B29vZij7oBoDMUhPBHalrbVyfgxeM7HIGOGLQD/sA+kP7hz1O98jKbr2mpfIDKZD9yruOrYzK1986DiCX6QvopveD9jAkkSFWcg44f9IHhnjcn1rPtAX+jSVaCOT3+uc09/Ajt9aUABogCwxW1b1rtZBUjdpic3yLXmHE4t/RUyJudgbFz4c08S85rJU51z74vz6kWyMze8VNCfBmInMVL76/lQH1mkKtSxINeBKvvw3ljfGGRMxsNZZUw/OmN80B37meMzDvTl8wQWhTre/LQKYzj15dqxtmHfEF+9VwFOzfjYpYL+4Mu5Zg7ZMr4eh20MMh9kTB1f5w37x84D4TEwvA/QRR9UXBVc1xYY4gcKEcWH3Ue2FhcKuugsOq40g6Meh+dp5uWYcw3uOr6eh3b6x6DOmwfBs8jYCVYCS/6wHKz7/95x8+YTjju6O/6Yw7tHHtJXn30FYuoevT1iE44h4Xh3xlCeJrRAHGc1YG6CPU4XZwze9IOx8SuFBOmYE4dmBX1g2D+EsblDWBQXEPza8IlvFsA95CHXY/Pn8ZJ50VXFQ2/pS3+1hTmSlv48JTkP2E3zGRjvgT05KwAsXsaYa7FwzDlAp9KdZbsKw/sBeD392LXIe3sNz5IrXhQfoWc8CP7QDn79KWjC7xhk/iy+AugZGxqVjobOjsCQD9f0Ef5rP15cV5r05jMi5ngStjh5t093meM4tujPwqlfC7g/nAuMGesfg+CchWsMjBdzjnx30XkVzK3+4DpQzytftR9UurlXx2p1PtBXdy7Qr/dB5gaMib2G4/Wzsc9LwEsfYiM+HtnSzNfGwP2h3TNP33I+k3HDezsCwTnBGsF2Lnzfh7YxWPc/3v65zY98+FHdw445vHvYwV23d195bFi/rtuz95H1xThZDAEnifOthQGHeFxXGNLI/R2hPYv3Ie7leKlgbPAOx82iNw8q7UXmhr4Az1zz6vmiYE7GBy+oODJmDG+SDRjed0+Cltz4kQIryS84Q9N57Qf1vELmBOYlwzS8BFzDi6c6t+IEs2iDsXurgfBSYa1pVJiFexYfijVHekozTluOzzGcQ1hkzM6C5fhfBIY4ch0Yw13HrJb2ojjG+JvFUwoy98VGoM6tMIvukEbm6avnQxjOm+B+Ctu5wQIFSG/Tdf/jrZ/d/Mhjj+oeeszh3dEHber23Xt9t0df6e7Z23v4lzD3F9iZDjkvEJaDzAW7I2CGvO+InoZzq2wVdqacQ5rzaNWxOTd+Z/L3YIahf0wwwQQPctguXS9WgKyXSDZv6mf2T4Kbtla6bi7h2w7nAlAXgt9VWG1izbzdlZh3FV10VkNrpb4RGs1H++ZJzK6Jp+9s2eZ+hZXwFtzwVZwTzIfobYIJJphgtbD0VzBO+uPmPm+rW9QjXra0877d39LMzlxoF8E9L/HuTN4WgUrf+WoXiqEcrtMCwzEVxmgOx9cxY3y6zms/5z6vke8oUYSkPzCPnwqhpeCAHy4fjM1fskwwH+guuq76n2CCCSZYCbS3LGmB1aaUB0Myioy/K7Li83eB1zEeLXL5bIEiwZ/u+j2KD3/4w+37CernN4bFx7wFMvcUHL4PxJ+U5jdOFCB55z3BONBfbRNMMMEEq4HxT+kVkF6SYhZZzBYZE1jp2EVgJTgDtvXzg3jzFp95eOHw1x2e0B2znb8IP+7XxXSROWOQT6z765J8E+BK+FgUgnMtYDk8KUDI5hsr/Z6H36AgX9XZGAS345Dn4PQdJL77w2/e+AIk45bDO8H2QK9pE0wwwQSLwswCZCmZbN46QFK2oGVRmwd1DDxJ6lpNUq49cQ77h1BxLAfBOQ/fEHx18Ote97r2S4q+NbHSgSe46lOfBnJP4eHbYn2TpmM+p0AXy8nofsaH/1l6nieXwsO31V566aVtp0AhBE8gPO8I4AmveBzCLN70D++5jk7q+SzAe74sScucagswS8Yx/P6s0HeP+N0L32Phz0nzBUtroasHC8QGk84mmGCClcCGC1/2r//8kAP375Nvn9j38TXHS3+7vrHPJRsklD5pW8QszLa9PXla2OwW+JGi7Brkm+0CnlwlfeN94ZRf/vRV18D3BUhWFrF8KZVFTbOQW0h9TwS88PgzTWCORcTWOVyeiPMz7vrrd05oeIbPuOwKAHy6j3Z+5dE3YuKnfs2wxQj47IFxnpYVK56U8y18eHYvvwxrO99cX9jmuxHwBOA2jh58hgEvnsDh0DKGXJp50Z1vnqSL/LkqwGPAPWM9ydsd8IuncOU3L9ynI3jZEL78DDxe6Y4u9PtV28hYbYpXdoLDPPeN91rEUR+7ZjzQhy96IzNbsB0Z6LYWEPglq50IY/FDB7Ep+vEjdvWDYvkuGrLBTb90ZA6ZyUFOc5zDEZyhaa5zRU1+0yI6nmCCCSaYYDUw+2FyK/R5d7QA2dgvIhvXr9u6+5HF02Lv57sle4uOcwu7BVoCT/KXwLPoeceuWdjy42+SfBYgC5QCAE7nFguLmkXLggefRbQulPAYY7HyGwWuzc2XIZlj8cOvn213zEJu4XTfOIUUOgqHa665pi1EFiH34FJkkA1PZCUDecmFfzzRDV78WJPiwxjyWfzrjyyh77dH8AufoohO0dDgw49Cxo984REt+IzHN3rGuofXQBZnPNgBUYSwgWLKD83RhUXd766gazGGE7Ab3F5BsRP+4CIjOmlw0JX77EKX+FP0kF9h4kehsoCzMzxsBK8xaKLjPptmoVeUsGFkjz3pzbjo0NwUnAoQX4rEH/yMOd7044Ge6JJf4dc9vOqDJzoMj3CYw17sUHU7wQQTTDDBToBZBYhkvH7d5q5/Nl36DEg/0ELow3//5//8n7aYWBQsfPotGhYoi0++Ttviqt8rCUlen8XAeNcWRuOdv/rVr24/bGWBtvDos6j4rQk0bI9bKC1UFlCvSuDxJOw+vvyKqcXHwm8sXNdff33bDUixg6cPfOADrZCx7W6uxU5xoXmi9qu+vpkTLnIrKt7//vd3H/vYx9p9NC2CFl730bMw0omFzsLs2z0t/nZB0HL/iiuuaAsxPZEDX4oeerDwWWjtTtDXRRdd1BZL1xZ7ejRXkeanpxVHaMPtCCc5LPZ4wwM56A1uPCvEXvWqV7UiJLsLeGcDdsEPGfHBBvSLpnFw8Qlz6ZStskuBT/q/9tprmyxw4g/vdE1Gtk8B4zdX8Oer/OlHEYDnyy67rBUgbMJen//859uvcPpNFnonJ5opxvzcNx/E52te85omo69093XRika43vnOd7bCSMGBHz+c5pdu2YacaH/qU59qfJGFT2R3TptgggkmmGA10CqH+a3PsXNewWzZAdmSiC38FmkLrZ/j9+uXfjzMYi/hW5QsHI985CPbgmPRlNwtko961KPab31YDC0IcFlILdQWsCuvvLIl/JNOOqmNy0KAnsXDPIuguQoTC6YC4eSTT25jPdVaQCxIFkB48elJX59fWEXPE7NFlXwWScUSns33tHzCCSe0X/p1hMNCpwBRMKDjqdviZZH0C5FkP/HEE9vRAmsRhMtC6DdFFDLGKhwUVWTAs0VSf3jOTgV6iis7GPT72Mc+tukYj2TGY34zRR/IQumIBzgUEOaefvrp3cMe9rBGS0GmoEPn3HPPbTxa3BUg7pmLv1NPPbUVBnjDC/78/oNxii67LBZu+jQWf+yfwkthwQbspADB83nnndd8IHiNo3+8pTDkE9ExesCOBln4gLnZuVFM8BXz8GQcn8xrGQUFu5ELn35ll9xo0QU6/EdxhU92Ix/fZcvszEwwwQQTTLCToF+6RjOtJc2NpaVt6W2OQkJRcMopp3RnnHFGd9ZZZ7UfoXrGM57R+nzwUtK3EEnoigdPzJ7CLZoWROMVE7bDPbEb13Zb+oRvsbZoKwAskPBaVCysFhRFgEVcAWG8ReopT3lKW1wuvPDC7gUveEFbRCyGFlNggbUIw6NQMAd9Cxj+4MEf3ixI7j/+8Y9vCyNZLVYWW3Of9axnbcWjgLAQeiJ333hFi8XYQmchU2hYNC1y6FiA4YbD4o8vvNMFuSyOdEEGC7jFlL7o+ZxzzmmLsMUcTXqroEjAE97gxgNZ8KCoIAuA28J99tlnN91ZnO0E6Dfvmc98ZuPPGPMUkWha+OmUrHikV8VH/MA8vCoQNUVY5GIPBRa8bPqKV7yi/cw9fyIznOjzEfjoha74FBnshNjZMR5tuNHAlx0NhaY5KbboQkGCZ+PRhk8RyrfIrQBiE00hx8fgddQ3wQQTTDDBzofRbKvg8PcXmsR/b5+cs0B6+s4PEknYFjBPlJK/xTYLj0Ve0eCJ3AJih8RfZlgwPAU7ejVhYcuTs2ax1CzCFnKFgcUhi5oF2AJowbUo5wld0fLCF76wLW4WHQuaRRV/PuPhNYonck/a+cAiwDNZPPlajCxA5AL6nvrUpzY+8JzPWNjezxz0jW966hdTzXlw4N+CbrEnqwWVHiygWaDhpifzjFdIaM7R8VSvqNDoIQVWBXPxbjzI4p5zciq2FHp2H7KDYvH3OkMBBQcZvaZQfOBLnwbIxDZszVbZLVDUKb7CG5wpItz7yEc+0nbDFA5sZ3dHQcc2eMGT8fhUyLITHfEbAB+5yENn7v3lX/5le23ETxRyZAN4xBufyOdAjPeaB78pAvGV8QoWePGOBy0yTzDBBBNMsHNg2ce97H5oFpssBknQ+ixmedL2dG5RtdhI6rbQJXgFiXOLqqdnC5ECwiKnUIEvuwXwW9gtTujp0yxAdiXM059FHl0LCpwKJAsh+rbXLfj4McdipXiqOOGo55EVL8Dui50cCzLaFk14giN6yLwsXho+FBYKJwtwnuRTZNEbOVMEAdfu6Yt85qBlzHBxzHl4pyN0Kx+BFFjuRW6LrlcV5LMrZDz5FJWKErs4xoZHLfp37h68FnfncOvnD3ZHLrjggoZPwfmhD32oe9/73tc+j4Ju6CsqFR30zH9iKy06jnyKCp+LYWd0+JR+4wJ8QaGhyCGHovO6665r9BWP/CF6gQPP/DC+mMJtggkmmGCCnQdzCxApWqJOsgYWApB+yVqri6iEbmGw8BpjQfEUr9mVsKuQ1x4WS4uOxJ9FE6CTZnHR4HdEz1iQ8ZUftC2onqYtqooGiynaFkZFSHYuMhe+4ATuWah8wFLx4JUR/j1Zaxbg0HMMn5Eh9/I5BTtA9GF3xtO63Qw7P/SWFj4c8/oneBzDb0BfBXONNZdeA9Gd+RWf8QpDOwl2CexIsYkdn7wqcm1edA+GfET23AfG29XwesZOCPnYIrsbXqWxuVd2igIfbvWBUjpmK7tGCsroNIAWvflcCT4VJIobes44/qbwUIB4lcXWaPtsDdoKLj4CV2TDH73QW/QzwQQTTDDBzoO5BYhlxgDJOAuWJ3rHLOD6FRA+/yGpZ4tfIrcQepVgi9zTcD57kA9iWkjgySKTRTP0LARZFOACxlo0FQdZ+Nz3VGyh9zRt98NfUFjg0POKAR9481TtiR3e0PTkayFzbiGCF34Lm7/iQNtiZlEMDnwDfAI47Vzk2n19eIFHwWFRJ7vXMa4VRnSX1y/oa3gjl4YXeLLzgr9ZYDwgD9kiiyPeFF6aBdpYMisEfDiVTn0GB29ktPORcXgCjnQKf/qGgB59WfDt+JDN67AXvehF3Stf+cr2OQ+7HopDRYOiwwdsFRvslA+2KhQVI5Eh4PUPP3rxi1/cXrsp6BRQdroit1dsaKNDnvPPP7/70z/904afn/jsiJ2t6Nzujdc2/JHMQ5oTTDDBBBOsACyDC7RlC5AKFmULh88I+KyAJO8du0XMU70nVwuHZG7R8XkMT7iKAh8KzJ+82p1wne1ui7TFI4urPotHmkXCgmDRtgApduwo+GwH2j5jcPXVVzd+LOgWTQWA83xY1EJni99YhQpZstArmCyA+MGbBcy5BQp9C3X+AiM7K/kMC97xZ4FHk3z57hGLeoocPNOZp2+vhujNtYY/9Czc5qAPUlDgw3184DkwXCTRp0N6phf68PrL3BQMcGY3JHpSlBhjUY6M9OtIPuNjEwWFFnzAXHxrzsnsaLfhkksuacUB/ZkDh3tkxYMGH1r0gj4d+gucq666arudDQCHpmhQVPIzvmOuwgIPeKbX1772te3VCxzo4YH+o8fo1T3n5NToZajbCSaYYIIJ1hbmFiCKFJBkLFlL4JK7RcVCayG1ENvh8ITpKd3Ts7868ISqADHOHAWD5tqiAB/c2T3w9OnagqNZTC2QWVgVCXYQPMWie9NNNzW8FjrNQmacgsL2vHkKD2MVAJpzC7wFBw0Ljs8T2Kq38BiTgsATsdcIxihaFDAWOYulRU+z4GVB9MRucUPTawV08EAn+SyJ4gXfdOCzCWRRDFmY8UR+fKQFnEcftb8ulPSHB2PQxnOKO2AXJToG9G4Hga304ykFFjnhsDijl2Itn/0A+AXuZRHXjGMD8nnl4hUWvSqK6AutfGaI7jU6px/FLfr+zNk8ukWPreCNf6CXDxsrTOmRL/A3tnP0eROFDLxoewVGz+jhL/xH58PzCSaYYIIJdh7M/B6QDeUBcEOfkD1VWyQsHnYh8voAWAi86rADYiG2QFgEjZHMFQY+kKrokPx9/sPC7j5aFnoLiQJDn7kWAouFazsqdlicW8xt0Xtqh8+iAqdF1Pa+d/94yHY6+hZgC5k56ChijFOkGGthd08hAKfPPWgWSbLCZSfBombR1ufzEXB5lYQnC5px8FlY0VSI+UCkBVJhgAadWSDdg4Mu8E52uMme1xFw0QMdWSzh8nkK+q6FRMB8PHiFgh6ZzSGfe/gkM33mQ7ToGYPn7G4Yj2e0vDaKHAoNeOifDuAD+s3BE/x0y1b05xUI3ulOo1d6Ix858OsIP7+xA4Iv9vantT5vAyda7BP9443d8e2eIwguOiQnuyh6yEUmhbI/GcYjOgo0vLqODcBQtxNMMMEEE6wh9Cl23asuu2nzicce1R1z9GHdoQff2xch/WLVL0p79g+BngMtHvf0hYAnYk+nFmhb3xZPT6EWMAtrPvvh2kJiAbbYejK1ANgZMN6iYWGyGFhYLSp2Byy2Fg5HC4NF2mLkaLG06DhaVH3WxK6LogYdC5BCIAsrnuF1X4MDXxYp9y2YaFvc8IxffCqwLEjwkMfiiHdb99mxMT5z4CO7xd7CpWCyQwSH+/DjzWJmV0S/hRAPKVbMscBrAB26sgBnUSUP3vCBtzzBjwEeIwd9k0NxoB9ecy3S+MWXMYor+oRfH74UEyAyKhwUEPhzTS4Lt/Hw0h+abMi+QB+cdMgX2M4cPBlTbcXWmjl0QT94MAdtfMPB9vr4Qwo08xWi5OBX+KN/MsGXoorO2Ao+cvEDhbWxaOF9KkAmmGCCCVYBeWUC6vksWK4AsdG+uU/OErxtbNvoFgE7DZ4iLV5tt6Rvw4QtuUvsKUgsGhpQYFh8HN1TROQpPWA+uhYo9ywYaLh2dB99CzhcWcyA+5r7WvrR01yji152F/AQWfDpiPdA5gSX+8B1GsAXQN/88IwPRYD7eHUv/IyBOaGHlrlkNR7fVVeB8IH/4I7e4UIbXfQDxgP3NLTo29EcEH261iI70A9/5HZP009m/XiNrcI/PkIbwOu+ce4bBwdeIpe+eg5yHhmDd2w8fM7xlL70g6G8E0wwwQQTLAjb0vn257OgT7Gjq5/Um/QrUUvMWaA8TVqsnUv2Fogk7IwFFiH39Uvyzj1laik+gKPiwn0ARxYHYz3lup/xAG144TEmi5RF2gKGB9cpXCrdLN4aCC3jjAfu5TwQOTTn6UvTT+bgjuwB12SxA5ACwKKJ/iwgJ3mMgdMTPBzRVQVj0mITenAensyPLocNTveMcx1cFfSTMf1oOK9yOw+EtnmO2VmJbqt+jKEXPBprDFzRrTY8BzkaG53XpqhRyNbiwlj4K54qb/ommGCCCSbYeTD++F1gXZ+k9+wXBtvT3ud79eI1gCSeBJ6EPe88C0daIIk/yb9CXSgqVDxZqGr/PLrpq/yDOqb2Byp/7uV+znM9Js9wjCMa4XsMjIn8IOPHeKsQ3BmHD0d46qI7bHWONgvq/ciY6xR+Q6hFaWiMgbnGuj8cN3bumPPMrfSdw0Pu4fw6F4z1TTDBBBNMsPNg+QKkT8h79wWI9/Y+kOjDgz6wZzEZJuvVJvBZC9cs/HVxqotmihF9y0HmBA9wPjYXb2nDOaD21bFaBddZjNEZ02EF94c7KbMAbuPCf84rvTEwbhb+9A/lCKQ/x7ECQJtl30Du2fGpu0Kz+AJDfJVO7jnyieEO2iwwZh7NCSaYYIIJ1g7mZmVpPMncqwMf9PSXAj4gOAvmLWhjYGyezHM9D8e8fjgWWWgCs3ANoeJ2vggPY3zoGz6NLwKLjB8bo6/qdiVQ8Q1xu06LfzgPrYyPHuYVhcZmjmKrvp5bCZhT6QdvrpeDyDHBBBNMMMEOgpSbNgv6ewtneouId/MWCIl+LSELxo7CWuDYUYgsYzKN9a0ljOHeEZrLzR3eHxs/1jcLjFtN8QEqnUXpVVjNnAkmmGCCCVYPq8v2E0xQYFq8J5hgggkmWCnMLEAsKW6u/x1dXB5si+LOkBfOtFmwu/S8HN3dxdcEE0wwwQQFpOKx1sO0AzLBBBNMMMEEE+xymAqQCSaYYIIJJphgl8NUgEwwwQQTTDDBBLscpgJkggkmmGCCCSbY5TAVIBNMMMEEE0wwwS6HqQCZYIIJJphgggl2OUwFyAQTTDDBBBNMsMthKkAmmGCCCSaYYIJdDlMBMsEEE0wwwQQT7HKYCpAJJphgggkmmGCXw1SATDDBBBNMMMEEuxymAmSCCSaYYIIJJtjlMBUgE0wwwQQTTDDBLoepAJlgggkmmGCCCXY5TAXIBBNMMMEEE0ywy2EqQCaYYIIJJphggl0OUwEywQQTTDDBBBPscphZgGzu26Ytx9XC5s07MnuCCSa4v4LYTptgggkmWA0suwOy2vQyJaYJJphgggkmmGAWrOgVzEqLikXGT4XKBL+r8GDyXbLWNsEEE0ywozC3AFm3pYFNmza1tmjyMW658cvhXGmiM36lc3YWzONjZ/J5f9LBAxn47b333tuOD1TgR4nRyBuZ42fV1ya/m2B3wphP7ihUnLVNsDaw8A7IunXrtrZZkCQ1z1DG3HPPPe1e8DlPkkuDZ1H41a9+1f3oRz/qfvnLX3Z33nnnlt7dB0PZyXP77bd3d99995aeJRjTz47AkO4Eawv89qc//Wl36623Nps+GIA/pfBI7Ef25fLBAx0S13JO8t4Euw/4IptkfVktTHbcdTBagFB/bRUEGgNrjO3awqrpcw0YMfdrq2MCGefeHXfcsV1A1zYEfcZ+//vf7774xS92P/7xj1tC2N0QeRzJY8H653/+5+43v/lNu5+kPSbTagEuNNkB3bXEPcES3HXXXd33vve97gc/+EH3i1/84j5+/EAD8ajg+vnPf978GMR3H+zFBxBrHnx+9rOfNf1Mcbfrgb5rE6PWALZYDcR+OU6wc2HDhS/7139+yIH7dwccsG+37z6buz32WN9t2LChW19yi1PJyGLPuL/97W9bwElAjrfddlvrd73HHnt069evbw4gQDmEeY76jNm4cePWMZrzOM9PfvKTRmvPPfdsfMSxkvByDoz/4Q9/2H3wgx/sPvaxj3VHHnlkd+ihh/ayHNDu7y4gUwqqf/qnf+q+9KUvNT733nvv7rDDDmtjyBF9RJ4dhdiGPpsN++MEawcKyM997nPdd77znbboHH744c2ma2nD+wvwT4XHO9/5zu6WW27p9tlnn+4hD3nI1viOvEO5H2h6mAX0owi99tpr286rnLPffvu13LYjUPPbgwV2RGbz5FG5Vs61FonTvfbaq+XAleDFR4V5fD3YbLRToFfhzAJkQ3+zqbg3wqbeuBY2i+mb3/zmtqB6MnL91a9+tSXlT33qU23MgQce2JIVp/B0cNlll7Xxv/71r1sCc08SGxoQvi984Qvd29/+9laE7L///lsTnrFZTOs8OD/xiU+0RKn4ePzjH98WeM63uyE809E3vvGNFhR4O/roo9t9zq3VZL5agEfwSYgWRjjpTZtg7YCOFdNs+g//8A/d8ccf3xYexfIDEcTkFVdc0c7Jqrgfi93Ajvrx7xrY1XzXu97V4u+hD31od/DBB7fY4yeriWs500ObXJGHOr4F1wMdVqorOq9HOvcq/tvf/nb3j//4jy3Xejiwli0K9G8Ns27lIXiWHR9svr5ToFfhsp6dxc1Oh1cdb3zjG7t3v/vd3Ve+8pVWWHj1oQC5/vrruw984APt3CsHgSRA3/KWt3SXXHJJ9773va8Z1q5FDSjnaNjW/shHPtK9/vWv79773vc2J5LsGXosAOG34OJBsfLMZz6zO+GEE9o5fjlTmrEcyjlAz7ljbXVOWh2vOZ8HuY9vT0No0wfHxgOouCtUOoHgc6z3tXqPfSyMijivotCbBcZHR0OcFS8wjgyOtX8IwRm8gcypdJznOvfHIPeMWw19fZlTz4Ex7BG/qPcq6DcGXgnpUY96VCuMFXr82UIxBubBOw/3GGTeUBbgXu4Hp6Nxi8jhfsbketZ498SfnTuJnT9XnoJjDE/6xmQIZC5wH/9DHJHLsY6v5yBjQ6veC2TOWBsD/RUniEzuOaefvIKR19Jf+Qj+4EufZkzGAfcVHfLs17/+9fbg4iHLmECdZ3ylFaj4c17HLgKZFwi9Sit4kx+GuIMj493P/EXaEGf64uvBxTc1uvPwSn/Ocz9jNfPTch84N0fu/PjHP950H5tWCL7qlxOsHua8gukN6z8LaV8AMIZAU3g89alP7V7+8pd3T3rSk7onP/nJ3ROe8IT2hKQYec973tM99rGPbUlagBqvmOAUj370o9tOhV0SRozjOP/85z/fXqV87Wtfa7jgPPbYY7ducQcY3LWnM9Wu7fBHPvKR3amnnrp1wUcXcBDnCgD8A2P0c6DQjjMaE6fTpyl+HOHVwKyqOPM4MrpoSeCSlJ0f8pA/wQFHtgnj2KGjX1/kzT38JQDDh36Bo9iz4+RpDJ1DDjlkC2fbg7kWleCI3PCgp08DnsboD+ib9URBbskyOCJXZBvqUD8d1bEV8OYeME6Ble3t9AfMxb+iy1jXcFZ5Kn7n8JHNeLT0DceZS9d0BZf7/NEO27777tteTTgec8wxW2YsgXlwamMyuk4DtR8dvPERMrlHbvfgo8f048d4Y8mePs344AXG4cX89KNj3Jj+jbOz+JnPfKb50oknntjkDh94QgdEf8HhGo/0iy4Y0ogscIT/PHGGhj44XIPQqHNzbRyatT/03IcjeB2Ny3nGV3APfTid4z92Ibs++rEDSz9ynh0iMsBlHtzhw7X5wLV7dIOPjHMtx37yk5/sbrzxxrbLJpY9VMGbOZEzceHc/Ko7fqsFhrIYPwvgyFw4ATpwAHM1uOhdEW68sRkfPsIbSKwBx9w3VgOVf7oGifv4cGIKLbI4omF37qCDDuoe9rCHdUcccUSbB390Qf7YwdGc8AunXM3fX/WqVzW8p5122na7KOEXH2R2XelPsELoVTb3MyC9mxnTny8lbIu+QuExj3lM97SnPa0FHIMrKCx2igFP4aeffnp7P87oN910UzO2+/o4hhYHMkbV+uEPf7hVnhK6p0wJ7+EPf3hzgMZrz0Oc1vm3vvWtVtwYb6zFHT48Kngs+oqeb37zm92HPvShdrRjwikFMxkFFJ69RrKY3Hzzza25j66xFnb3JQRHCYITugdHnNPia6wizC6EsXhRUNndsT1LHoXZl7/85Ra4EnqSLpwSGp7hyesnejJWcJABfoUXneFBMKBDf9ddd93WHSEtr8PCY4DcxtERuYMXX4oN9LTvfve73ac//en2+Roy4NF7bnzFdnRK3/CRGy68AuPokQzGRG7y0YsdMx/q5B/4NR7Aa/eMbeD77Gc/2/xOIQAXvZEdmOsdPH17DWgHjm4kCHoijzn0ACQ19+GNvfEbHuB1ji8LALxw4pmu2RGf4oFu+B/fMy9JCL3YzVw6oq8kM8mOPtDgT+jChw86MofMnoLxEp3zfbLSRZ68yWHBInsWR+PRA5GFvtkovsNnyBb85mUOYGt84yN+zh/wJ+7olbyhpeFPHMgB/EkyZ0N24+fxG7YhGzn4vHO6plt0jKcD8x3xH9vHn53jnR7ww//lGnkBXykSAV/Ck9jix55uxQqabIQnOONT+oxVXNAZW+FZHxsZjwZZ+YA86CHIkR3RIBt74EO80TvexHViHv9wsyEfoG+y4I292Fq/13x0gyabw0UvaBgnhsUM/6JjeI2DC790RDeRxVjjop8h8HPz2A7PzvkBHxMHZDQGXjGvHy90xD5kjo4c8QIPHHwOXjqJr7Il33IvOZCN8Iw2PePZOXnRdB99csSvzMUfPVpv0Oen9EBH+DAfHTqEk93NhYtOP/rRjzY+6dxrHPpnL74dvvi2xqfQjG9rE6wAFi1AtDv6YJK0OIUF//d+7/e2BhJDc2YBzQGe+MQntqcCRuOcFkKvRziSIiTFgnmCVAJSfAhE4+yAHHXUUaMFiMSIP04ooPBiPIfTz7k5kvscVrLlUJyHY3J6SQBPnEfytvPinuQqUPDH8SwU5sKFRw6XP/UVaHgTbAIIfvwYn6BNopVAjzvuuNaMf//7399w0IUAxLegFoQCxHiy069kSK/k0gSAo4BBlz7QIYfAwh/eBA8dZsGsICgVZYIQHg3PcNOXJmDJINCy4KHFznRNj5IIm9Gbhm96MNaCYSw+2M1iQs/mpEj0ys2RX3jSy2JGHrwoDrJ4uiYbP2AbjfzsZhyb45VM5htrcYDbWIuDpEkuvMKJdzpLkvP5HLpjCzKbr9G/pE4efLIL+fCvj7/EjnjSAN4sJhIfG9CFI/1LdPDShyc2OudnZMAbe7AzuvwM/0B8XXXVVc0XyUnfYpJ++TN+xB4/Yy+Lr8WZzPwLHeMskmIOP/wyxRHe6VhypkO4+SA+6Q7PGtnogX/RmTnG4JtO08zBJ9x4Mxb9FMx0TQY6Evt8hc3DMznJoCV/wAH4ERuyvwcEPgIXnGxuLLpwpNgkN/9U/NIH2eiK/cyhMzKwO5zG4Nc4+PmX3EEW/mSMhzA6dDSeL5KdfsQK+dG2EMpX8g++5AB20+QwNMgjlslGp3DySzblC3iDn27YAT0yA3xpciqZvcqmS7YK7/pdk1d+SB6ukJxMB3jDF5/km+zALzS+pD+5mF/Dx8/ZyDlboE1PxqLPBvzCGHIBOMQTP3DPGDKKAfEJtz7y0hFZ9LOdYgEueoAHPfrk23i85ppr2j3+A5+5jvRgnvl8gnzmG8evNfwZw7fpg13pPXLQR/WfoS4nmAO9qlZUgDCmBVa1r8gwTlAIMInR6xdGOuecc9oCyhjGZwEQPAzqVQyjZQERUByaEQWtsYIOjjhy47fHl4DhnBzNGGNT8XIsQePDcxzo/PPP784999wWFJzFPEEt2aHp8ywavmyj2tk56aSTWiB48ocHPxdccEH3uMc9rs3hqPjIk4kgkzQEkATg1dTZZ5/dAtxCpgjziojezPOqRMK3k0RmfRzcYkwmfHoFRbcC+x3veEdLzHCYQ05j0aTHU045pSVAfMDz7Gc/uzvrrLO6k08+eTv9BSyeChCBJAni1Qd46ZAMPs/DJuY/5SlPaa/ZBGUWH3ygy+Y+2wMf+vA84hGPaAnsDW94Q/MPePFuwTVWcrFgR8/kveGGG9p8eqYXSQYf9GycHTVjJUWLAXxwWADY8y/+4i/awkHuZz3rWU0O+rFQS0J0xkckDE+1+EAHXjaVyCRIxQXfoF8LrwXSwnHeeee11478g30BGdGAJ09LfNdcwLfZQtJlT7Yhg8INH1dffXVb5PkhWdgSX3YHFfdnnnlmixsxI4bY2MJlYbJFTI/Gsg+8ePAXK3CKCbqUtMnxd3/3d23u85///IYbjxKpBYrMdEyO+In79CkGFI3sS25xTQ92KNlNLLAFPweSss97WbDY3eey6AUeduKL8VN/PUJeCzJ/YguFGP8Sv3IKv8OzfnlFnKIt5sipz8KhGEALDnLigW/Qi3uxr7hj3+c85zlNb8bQgyM++QidXXrppa3RC7zxfz7MTmQzFuCVrsmFJ3Jp9GwcG9EfOngVl/wTiD0y8HM5gy3goh98oyF/kYNt6CafT3juc5/bnXHGGe31n0XTHLmErpyjd9FFFzU/FcdyIF+TU+iBH/IpcSxOK5iDhgcl/IkptMRK9OAeu4sJvPM/uY6/sCc5+Ib8ZbyiAR6vNcSk/IBPvsrPxQkbiW+6pHv5kv/LwXKSefjQ0ONXYpBvwmMu+8hdeOULYo//ixv6RF+O4uNsTA/45VN0Qc98gM3pmE3oDP/+QAJOcrjPn/MwZa6xdJkcMMEy0Ktp+5VpO9hWfESdAkziU02qrFWSqnpB8brXva4tHAzPMTmLBCz4GEUfx9LHKTmfJCfRCECOwKgcVyLnCOY5MmiaxM5BFC6CwTy0YnQ8As4r8ASvgoeTCUD8cmr0AVoc2CIlaeBfIJNF0lRJmwuXZgycEg9c5JFwFT7wCgTj0DfOXI2z4l0Dkaee0wf+HV2Tka4FsgSJfwlbEFmgomvJivNLdmSxoCmoUtwMAT58G4tXeCV2CQnfkhpc+KcXdNjGPIuhhQePZDJGEsKXJ04Jnk4lW7xLAOYBdqJPCcBREWshQFsxI6GQm03xZLHjMxIHfiQq/iTg2V5zTUaJFz7y5BUePeAHPngt/BIzPGR0P7Kj4R6fZk+NPPizsPEhNuCTmgVbMgJ8ODIG0KMHdCxwfIPe6N1RDEj07IY/9PHPV9jAtQa3BcYiajy85LWIRY8WOknZfDpWCBhrDr+kQzYkg/HkdS6Jk2UeoEcP/ICtzaVjNCVm/kAmyd8ioth2zv/Esrl0JV4UkMbSB7psE3z44sfuyzF0RE7zycnfFUAWCv10hgZdkYX9NfpGLw9G7IKeI58gB5r0TAa6UQiwd3TmSL/u8228kZ0P4hs++MUqfeNVrkixJo7MxR+Ib4h9c8UOSGzCo+Gbzszja2RFk53Ia5HDixyUGM1Y+UzOIgs6cJtHvsQ1GczHMz4ydgj4ZQd4FRf0FTuJF3yaiwf98PM/vNCjuKRDelFUOMqLfD1+7Zwe5IjoE93wiW+6R5P94dbn2n12FL/0zsfpL3gc4eK75JNHxXxiID5AP/ETuVIu5UPimux41M/mfJMu4MB/7OOeWMYDG8TWEywGMwuQYfEBGNZCYQFQIVuAKV/l64mVY6oaORsn54gWFUbhQElanDJOKllxQosZx0hS5DyOAsl5GlwKEE4tSNDRKnAai5eFWpBmgebcnNFOjkABkqCgEtRZZDitRGQRVYm7p19ygNOiJJmqiuHBB37IJFgEJh4kT4kOL64BGchIV7nWIqdEQx7n8JFVYKSoSNL2VP6CF7ygBQRcklPmoqUvehwC+QS/QIqOyIZvNlJsCDb20Ed2cuDb4kBmOFybn6SUwpBd2Sl6AfiT1FPACV5yofX0pz+9JQFjkzglH0mNDPrhtqBLNHwGD+ZIhHSeRCV5wOsab/iHA7C7JE1exZe5eMSX5Gbh5osSCToWLE/LdAInGQAenUtq9Bt5A9G5MXhKQYZvslikHOlMwnPfwuDpmJ/CbwycfIDOzUWHjdkKXv7Kx9jRuadcPkJOcebpTHvGM57R7Gks3+BLZHIkA1tqY4Ae/HzBfLZhO7p1Tx7Ao0JTXtD4AB0q+CIHvZMjuoWHzPzXkd34Lp3RizHk8KBDFjH3ile8oo2VK6IzuUZM4AEt8+gHjiwI+uClXzuLbMmn+S0/oe/4AjvRET8VZ8a5pm/+wD7khlMMOZcrvDKyQ4OeJ2T24GOuNT5hrBxqnmt+qemP/p3jNXpw1Ec39I7f7I4m1vQDuRZ+uOko+lUg0BF+kkvIBMeY3fW5Rz92gMhOp+jwV/MdxTF9iCfyyq/Jn8ntCk96FV9w8nu6o1u+h2fXdMSm/BJdvMJlnDyQfI4X99CH03rEx4ODrsjuSLdsqxmvQMdvdMCe1ga+YzyfhJuu6d49/c7JaIcXTePJxr/Yks+QY5Y+J5gNc3ZA7guUy8EpW8UnWXMuxv13/+7fdf/m3/ybFnwcldEZh7EcGVeyYCRPShYU8yV9jsuwDG08550FCWTONlbBuydoORFA2xj8cChBI9mhj3f3OSrnN4Yj41E/XBYn8wLwusYrXlJtk1nAG28eHAmKCubAHb4quFfBNd7QcoTLHPKhIziziKAXXizOdLNSQI988ElY0Ul0JwkJRPLpM17w2+b3ntUToCfivNqpUGWpeDXA5gLaOEnAgiap+54Fr/YUuHYR4MUfWS04Gpx0EoATj3QFZ/RBR4oWxaNXUJdffnn7XhuvAhTT0a35zqtf0KumD279+MQvnOwZ0GcOvvi8hVufBZXP83FFl6KOLHSOR7svtrZt4dtVVNibE3yOwDn68DsH7lW7OA/gMz6ce9HX0AeHEJ+L/HW8a3q1EJKJTdynX6+/3vrWtzZZFCkKI3pIco/NHMOruQqdCy+8sB3pyjY5PHCQgSzm0LcYtjvEP/genfFFtqS3sfir/Ed3FkW5wPgUuvhla+Ojf7ayKFrg8K4ZI595/cVf+S0e4yfkpRe44SED/MA1/vilcy2Q+eQ0Bn1yw29R57/oeZhLkQZ3cBhvPlpa8KcfP3xuqJ95YD5ccoB8XeXAm7wqDwa/RdruNv14WBPLXid79cdHxC5+zKdnsg5tlnPrB70bC9DWJw+iDeqDFx6A+cbmOhB96g8NfeaiQZ9yEr7Q1fijVzz4l4/4ngIIXS2yTLA4zC1AhKrGQBrjKDYsfCprFaUnBU9XqlRPrQK3OiYDJ+m4x5ACnkNm64ozq3oteiAOMQZwCnzBBhejVzCXI+tHO/fxZE4cTDPWUV/AeM09iYMjZnFJn0WNY8bR4ZC48sRnvHvw5BgwT9KW8DQ4w7N7OQeZH35rM1aA4Mc4OtZvPp6qTCsBOCJX5XvYj67gkwQ92SqE2N8TTLZ8Y08gsaQoiQw5B+QB8CpKLcYWET5jMfL0Y8G2iJGx6pW+9AWCEz14ow+48aFQDK/w2t63e2CnIDsW4TG4AFzVRvDBO+aH5rknKYsZuwielBVoErInWXwABb3Pmvh8Ct+mO7J60vWUloUbRE/wD+0z5JesfDV+EqhjaxtCZCVHkrVx6Capu3YEeIyt+IDm3NPrS17ykiaPMXBmoYkdo1P3LXB2PJJTLDJej/ksAN2JMTJZDOys0LEncDqTlzxkKALQqPrK+RDCS4Df5MEpOgDkHPoGvbItGfHrvkI5RSn59KEhR1j0qy0id2iB6JQuzHdNXq8b6EHBJ19Gz/xLboO3ylj51ALOI9csncwDvKX4Cm421B97hgZ5yWHngV3YSdzZTaAv/g0XmMcLvKEHHF3DnTioY/TjJ3qMv4LgYBOQfvrQcj/6EZ/8Lh/IFp/8ku7ZIbGBTuZOsBhsnzUHwB029Qa4pw8Ozk25trQp39Y5B5IoOJR+iSABChw5F8NoqmPJVB9jqt4tYpxTEJkf5x0DzuAeg6t+M746LqdSNDgmqOv9LIJ4iOPCaSzgSPAnKLJTkkSRVwXksfCQl9NLCrafbcdxUjjRHSYXYLwxdg9S4Diigz/X6OEPP5KP/gSIc08XnvQsamQ1TjMHb0O97CjAlYAEeELbB0jpyOJiizsf7OQPnhjxYR7/GSbIAF0leZBNklWY0gNcXoNpEq7FiK6MZSeysge70AP85ll42QQ+Y6IbcyQQfmt72Yf8fMDYq0P8K4aNH/PB2BQdeNEE5MTPENDjR4ozhY2i24f6HPm74gouhZbCxJOtxUxBb0FzlOD4euw5pr9ZQGY88zM6iq/hnf/RkevIOoY78rKdsZrrzOP/nv7ISbf058HE5zXyoWB6ft7zntcWH7qtOAKhw5c0OqMDdmF3OrKr4qGFXfGvYLMjQEdykWYsXbMJfCvRFxvSNdz5HA0e4eDD2U1Ln0aXHshe9rKXte9G4p+ejO1KKGLYLa878tmWPMCYmwcR+kWDTs1xrA0v8IoLfPINu2j8mM7p35gao2sN8JI98oc3kKN+/LMzf5Cj7RrZCWQfhT6fEHfsy1bJtWsFeKGj5MQ0fZXnyBF9Rz7gnC4Bu9G9fMvfUxzLeR4i+JmGxgQrg7kFCIhRBJDAESzO9S8KDBkDWVAUL7YsfWCNU3BQzioggzdOEohD4MU9Fb8kYw5+AsbpU9hoFmo8S2CSQuZq+IGTXAH8eHIXMJpkp0kQZOCMdjoEjkVWoJkDH+f0RIYumuYpSCzU5oMsgHi2xS4hJRFJLuYICLTgE5z1z8aMzYL1pje9qf2lThZf4xVFElGS2krsNAvgSGDizTX+LRT4ckSbbtOniKB7OsabeWM7BQHj3MMz/bGJxYC+0IbXFqinkdicbrRs86JnLNnp3a4Ce0QP3v1KGO4Zy3YWB5BXf8aNFSCu8afxGTTgwOdyiUeBzZfsFnmKhSOywWVRs5AqFPgS8JRPj56m+Vv8Z1HAL/+0OHslBg/d8RV6xEc+GFttUv1FP7vSlwcGR+P5oWKb7F7LsauYoUsFAvx06B454SQfnZEPXjrTyMU/Al612OJWXKBjN4QMGnkSr9E/P8Aju9MfuegZf8D4KhNwPewD5LAzBaeHIzyHN75BX/SANoBbs8h6kre44pG9vA7CAxkVJeaYn50VNOQFtlHs6KMXdjMHXnOMcw+/zumTPxmHN7FAD+KDXozdmYAmGvgLvyDH6JVNPGx6cOAHYtoYOTsPjvjl+3C5Fxy7AuLbaCY/0Ls+esabo3488nv+wcf5MH8QDx4m2FlsVT+eYDFYtgDxKVTGYogEibYo1LHOPeFZvLNoWYwlmSTjWRAHZXzzOAJnjqME0IBHcKta/QmY98O+IdT7R4lMsgg9TlOPaMDhCcx2Mj4lI++ZfXeAp1S4bffiHR4B5VWUrXy03va2t7XPRBivQMAHh4Xb+HzwTRGhEPNuVNKUoDh7FkABnA93cfYrr7yyfUZAw4cnaPqE00LsWrLz3t07SnNWunDNAvbHM/3Tk6NFxxMnOq9+9avbn6mRV6EXnow1LwsOucbAOGCOIsFR4WUx8uTrT2IFu0TGJuRS9NlJ8DSo0Pjbv/3brX+yRz/ZYQpNfqf4lbRt3/tzRJ//yGdX2Ci+kEQagCNNHFgcLLTGK2zYbBbgU5FNX2yEZz6vnx69LiCzhQXffIK/KawSJ7P0Ng/Q8HTOFnmFwdd8fsDTHN7ZZChrgN3YwaKpMOBT+TNTBYK59CkOySdePNXSL/7tjrGf8Yopvk0O9ByrP+SaLujSnynzd3HBp9jSDip/N8ZCzPcsvj7HQ2foKBDMx3teh1b5ZskK0Bdznmzt6sodeCALORRX2fViNw3fjhYncz1g0QN/stvFR/AihuUdfiw/+MAqPxXziVG48C734JPOFdHiCchdcHlwkcveuuUzNmKC72Yh3VkAt5ZYBXjW8AXcj07Yy2tNR76MV3bS5DDxHNnZaSzuhhB68wCO4Kut+gJ++a1j4p4N8WptkU/4nqMYYBNjxBF/YL/YN4Xf0NcmWB7mVhK9u7Xjht5IgpOBbPdZ5ABlz1I4w0p8kqrkJIlySou1p0ELqwRiIYfPfcEnaQrkOEcF13AYx1HglRC0BJ8xmgXCbgUn5/ycxVOy7WEFAKcyTjKzgMAbeTRPMpIJGRQc+fIfi6157pED35KhVw+2i+1OSBAShw9a4QFvdIdv4yUiCxHHh1eBIxGha5EiP/48OdAT3PQvqcEtCFTkXhngQ8Dgk228Z/VE5cnKE6TAGwJc9EyH0QOIfdhDMy7gHn2jQQbz2NbrC7QlUwsFuhIEPVtUyayRxXh2rXjhITN6dKSRif7Z0ILCdmS2sBmfhdsRP7//+7/f+iU1u2oWiux2xe+cSyKKFbywowUGbnZlY2Bc7EA/Y36oqMmOift4JeMsQN84i5DFiY3okt7owrmF3OIdX+OzbMwXvGvmY/CgQ49kcJ5kjEdj8Ix3186z8OGZT2piwhMbv6G3YeJ0Ht2RDS19/ErhwhZ2BxQDfBMecUS2F77whY1nfkoO9iML28GpkYO9yUEHeNX0K87oR2LPfDxL8vxJww/ZvOZBW9GmoGR3BRsbKzZjSz4Vn3YeWcmX+Of36MPnQcIrAkUTvOKTPGIZTjaje7jMTRzBJ7eIS/rmY/IBeooaf7kmzsUJnhUYaCos+HJ0Lq/gFQ56oGvj6Be/+uyw8F8y44UPacbRZXjjE+hr8Otn0/ifsUOAAx08OJLX3OA1F+46331+x6Z0iCc+z6/ZVI4WZ+ItMSc/BTc+5SRzzA3QC3/S4A2giz568Xfz2EJuJUMK7OizAnvJHfCaF93gQcyICfmb7umAXcmNZ/7IN8Uqe7GfexOsHNa96rKbNp947FHdMUcf1h168L3dvvts7PbsDbJxfe+wRnDee/onvv7pJR/+EqwMzXAMz3hDYHxjJS1G4gBJopKJBUI/5+FkQMBJIMbo44zOx0BgC2BPWT6TIhlxFM7tSQ0uAas5RxOvEhP+OaYFzhOUI6fl4HhC08JtDoczXwCbTy5HfAsAOoDLeEFGXpDglHjdkzTJw/EVJHRpgSEvx49u0IFP0BprrjFwW/TMxQO6FgDzMo4cxmZxQTMJJGAungQW/ugZDmMEXWiwafQE3MMvGoIN/fSxhSNc5pCd7oIbf/B6AsaPfnoGfMQ98tEpv0IffxI+/ZsPryNbkCHFDH15OjY+vMEpebzmNa9pBe5LX/rSdkSX7GwOL37wQUY8m4sGnORx1I+vqkM7MxZhC4wnZUmW7cbiAODHNu0ll1zSEp73x/jBPyBvdIC/+BqcrukZb3hxTlbndEWm+Bm54MKreItN+QTd0J2x+Lag2rFSvP2rf/Wvmn5rrMWf4DQPkC8y4pFt2ZP/wpsY4Nvm6jPOHGM1/MJHXjzjkw2MBXCwi0XWGNfkQAOP4pTscKLB1+kDXf2hwT81c9Ax1hz3NLLig5+6V2MQXXj5lTn62JA/2T36y7/8y/ZqAe8WIXToIQsk/tmbLyUGycHnFDWxkft4Q8ODBn9wji9j2Y1e2JkPxvbigo7JoZ+MYoKu+Qkc+DUGT8bAk9iHO/rEg/EgR3TowJHscODX/OiLPPBW24kZ8/TDqx89cuAFvvAJH71oxrIfvHjCm/uALjW86SdzZIme0eMXeKIftBQSxhsnP8FLN5mbmHONPrxo4Fd8OJI9cWQ8n3DEfyB8oCcnRe4HJYzvRcyG3t3mFCDu9xj7/9f1Sr63Ny4HolyNsRhonrKN51TA2GochgMxpqMW/GAebg4i+G3VClxFiOZpxRMGh/JhIa9GOGb45ZTwooUH9/DJydyvMuW+Y3U6YAycjjk3RoAOx7oXyLkj3IJWEOPXES8aPvECV3jUyG0ufiVcR9fh0THn+iXHyAPq/RzRDV8B/WDYXyE48ERugCd2rhAcwyMIDkmXLHgBrpNEyZDiMLpAx9F9T5VoZjHLZwEssHYVfEAwBR16cMCvuaYfNMx1rg9ugFf3HPVJNp6K4edvClxPWGNALjLgx86QYtkrEdvSnkKjp9ghushxFuBFwyudgejQMTyzCf2kYKFDCRTvnuB8VsEHAhUhVXbz4aEnEN5A6OaYBsK3RleZ737iy7zQADnPNdBnvtxBhvgFfTkPPWAc/7PIuSeOxA7aWegrzTQ4Kk0QmT0cWYTkFbgAHXodY8fhP/2n/9QKSIsaGvAkbziHp+Y9vDvi1aIXv2MjR8A2iffoMI0MxgL0yGvBpg88OhoXXkDwutbCW21Vj/MgulsUQtuxykP+9JEpOhuzxRgEb8bGR+BKLNEN/QZ/pREID2N08Wk+3KD6T+RwnnnO+Uz8c1FZHpCwZJ7FoVfTzK9i39Df7N20V2Y/qP9HnyCIQXNcBBq+vsWYYy2GC17n8wAu4yRYQe1oR8D7UAlEIrI1ZsdDEuEglf+0ylvuBcJXxow198Nr+Icr+HKsbdiXRbv2Vz6Aa/fJkWZc1VP4Dc/GD/EA49LczzkQUENwb6wfZL4j/eIrdNOCPw0EX476h3Lrg5P96Mg53GmSjcXd07yELDk4enrmAxYvr4LsUNBv5QEt+MJzcIdfkPMcJaYffP8HbRHiZ/DWQmIIxlvI7JgoQCwQ+VPEJCtAB+ErDX+LtDoHvjTyKJbwqeCwQNOXp0G7Q/oV514NkMH82CLyOoZO1XtaxgUqD+Et8zN22DKvgmtz6EgcW5ydB+cQ9PEPjS3RymKROdosHtIAHSlo6cjCksWeTykmPeXa/fA0HdyOQ96ig3pPHx75c81JObqvgeCN3+cevRuv0U38iO2GfqQ/x7G2EoBnpZA5aJHFsfpP9LIo7owbHoe4nIdGZM09kOM8HYTn6N55WmwWu1V6wT3BAtCrauYOSF+HuN8aM61WrZIAqA4wCxJAi4IEL5Ha9fBhIU+WtslscwpMnzGxRR4HnIV/EbrGVJg1fjhuHhir0oaLEwdn+FkOVx0fPJF1ORjDvRw992fNS39oL8IDMK7OyXlw8p/IVO85J7OFNZ+3sdhLCBYO9rfA2qHw2Y/h/Aq5Riew1W/9t2We3aoPf+hD7XeRDj3s0O6JT3pS20JmuzEw/oM33NB9/gtf6G795a3tNeGpp53aPfy447az0yx+xiBzcqxQ57mfAsTnKCygdAUkSguoP4/NO3vymm9e1cMQxuiOAVzsE5zAsZ6Der+CPjxpNTbGwBg2x3fGwjsLNxjrN15O8RrVKzafd/GEDadCwE6XHSwFJJ2hZw4Y4ks/mEUrR23oD2lAf2wSnVScuZfxs8CcMV52Bgx5Qbf2rQUf8EUXVT/6c13pjPE0BrP4HOvXV31vpWD+LD52B+wQP9urd3noyez0AmRnAmfzhKLg8F7Uh4o4g8QLvH/1zl2lGoe8v0ECaEeckNPUQmY1AIc2D4Zjcl55r/f1z8KZOY5jyWJRsGCwveJD8RlcFgy7DbbJ2T9PQ7MAnzWZ5RzkX0/A3+6fjvUfdNCB3RFHHtnt0eOeBfzwS1/4Ys/fjxs+H6498sijuv0P2J+wW/HP0tEsWERPiQ27g3Y96EgBkidw7819ONVTNHz8J0B+fYvQmQVkCs7gqfjm4c49OLQ6llzhLzC03WohPNvxsLOmaKNDePmQD17mc1c1zswDy9GOPHh15JOBoTwB5+7lfuailXE7IvPOhPC3M/kM7uhneF0h9wJjY1YC8LFHfHIqQLYcF4WezO90ARKwtZ0qNAuNRKKfc0i49+cgXatAgGe1csKhDSG85X7G5HwRepkzBLjD847qoEJN0vENC+88Xo03VhLRNvc4mtf7H/vb6aG/1/et39Djm8M3H/z1r25rdPfcqy+CeryRue9sx6YZ+gke+JfOtoNKZTld4ZEOyO1oN4hsmoKj6mFJnu2LBW1HbRIewBDPcnjr/fAXwCfexpJ9xu0I3+EZRE/w1qfcyg+Iv7k3i7b7mrFkcJ4HI+dDmXM9dm/YN4vm7gZ8gkX0s1oY6gKM9YHwE9hRXmJLQLb4y3KwKB8Ztyifxg/nrFTGIW9gYRz3nToferQPiAIkiq9Kr8ZY1DHu71BlHEJkXanDBTJ/HiSRgDq+6n1I37i0ISQhrZZnAG+dP6ST6/u6wJCmxaHIMmR3Ox633FyGb7Q33bu0oK1f34/tx5vRZvfnITEk1Wtry9k2WL95aS5YhmyDRrsk/vQNYyEF2la5+2MW2nlxE70ObadfX+iDOmY4fjkIvkC9HvZXWAmdOreeR/7aB++QVmARmpnruEheMm5MzpXIt7tgqKedwfNQP2MwS4dgR3laqT2MTwFqDh+Y5QfGiaFF8iR8NT8H4F5uboXgSUM79FcE27MxDj3K5SNgC2BGohoKuLug8kM5Q0Wnb5ZxfxdhOSdY7v48iO7G2hhEt9F7jsPxua798aGx8YuA+Wm5DgzpuB73gfv6sSKh8bTlugF89+HR9bDvvgDTtgDesqMAf98qdee1mbn99fZQxJ0JkbvaRUtSC7iPv3qeOcvB2JjYpdIMLIJzOVgOx5DmSqHO93pPgRZ96a++FlgJzYyl40VgiHcltO4vsLN5HrNJBffZMG258SuBlcpmLNsnxsbm4i885v4sGpEtcV3nrgbCU3gEa62zCgtFAQb8RYF3o94jexeub3dAFEzhqSQn2LlQnT/61pfFahhMdTzItbk+F+FzCT7ct1L7GZvx8+ZVekvjlo73nTO83sJ3+B/IsbNgESqr4YQekkQCiRuLq+/4yJ+5Gkc/i8b10MbmeSDQ4P9dg8iDd75JNz4D4s9vfQ7kvr4zwWohfhZfXAvdwlFbgD/6C0mNXe8PD9HD2BkD+jEuOXYWkMVYLXKZp82bV6Hqw3n4s85b8+XstbLTEGb+Ge7GnofGfi+YJPXPP/1p+0sT36LIiD6IJXEtosy1gig7TyVRcniovFRl7UoedxfsbBnhj6Mv94FOYHxaQALwJ6G+f0IR4gOi+TO3ALvFdkOZxnCC4XVg21gFK3/Rh9bSeHS2nzvrfBVg+hDF4DpDSDsc3nO+5bh0Xtms51S1nQhzIPoQPz6Y6ivoxbIvUWJTNvGXO+whB2iLgkVaonI0fyw3DK8XgXlzVoNvFsDFt8ngCw5914uv4uazvggs39Nh3JDuWvKxs+G+Pj8fZsXiIpA5OSa2LWYKYL7C/2bpdSW8BjcILva0gPorOf6Olr9ak3MCi+LfUYgsjuLPmqoN818Ar2C5GIysiVe4tOhjiHuWvOGNbYA4oDe5Gp9iwGeW1hR6VkZXESymNegZy9/C+zrzfEPg0q3Fn5p2FNBJJYY+5YaPWYqdYMchjskHPBFyzgTIEMbsoE8zx/dz+DNHf5UhEMcAveUAvvClVR8cznd9112S3bYnc31L4zJ2wLfL2irk2vzSlnD2fLTrLWPK/MpXRZtzTUCmLfX1fp5z/wwATqIX1HMhtvBE6PdN/E5RbOmp3+Lr2yUVIosAvUtQElX+FJqfJJGFnrbWUPW5owCXBZHsimTfBSKh+wC7RWLIf71eSz52JoTPRfldC7nG7E7P9OvPnH1HDv9Ba9hAjovAcKxrRTUf55v+Sm5W3tqZgI/kKDnPn8b7IkBfmCmXDkGfAtjPSuC7xtMY0HGVnYzkFs9wKfbmzQ/AkzWVjdD2/UXwLDJ/NTBagAS4jiYQOYnFRyVpayaVGcEpdmj8ChlTxznOasOxAUpgDM5rAXNdx2R+zgOz+oHr5fhfFIY44MXjkE+Qe7XfedoY6DfH3CHMmlPBvLQhVLpD3hw5scJB4AggPhDI3CSbHPWFlj44fQ00P7IAZk7GRbbgG0K951ygaeE1/TluGy8oo7ctvKX1/2TuKGztNwa+vgVv69vW+hvb7vXnS/SWoI7dDtq8tH58f0zcBU+7VwBeOzraEl1ty80e9NFJWmg60rfYZU+2tOBKiu5JWuKbfTz5B9xbornNPgHncLGr4sMrWrnCWBBfCC+ZHxy5PwsyztHcIf0xCH5jh5B7AefhjcwesPg5nfi+D789k+/8qBBeAkO84TP4c13Pg2Ool9wLX7lXYThuOF+rkOvcG6M3i06OwzYG6a9jhuPxK397oJVLskAmnvEB6pzKbyDXs/Tk3ELqaxqy6xrcgeDQP5wfyP16nrFj48cgc8gnxsSe3/PB0xD0KUDc54954CNjaFY+quyO4s+3hOeBIHLXubWBnItHvo4eHHIBfOYHnNfrHYG5BQjAjK2XLBRevfiTxpo4nM9jijAWLM05PNVpcq65zyEJ7dz9KEkfg/yH//Afuje+8Y2tMuNgGZPxIPy5joOPgTmV1jxAw5g018O+9DvijfNoriu4NwwIPKeNgbHmmDuEzAlPQzCXnJLs0KEA/WQhoi8864ss6PoFyL/6q79qX/xG9wBd9+mv0tUfPO4HT45wJ6nHBhrZQreCOe7D6dy4jIen4jJGP38jE17222//3o/zjaV9kK3r56xTRC/5zd13+3rs7XWimECrv7HEd8/XXT3eu+7s/ekeuze9rbZ8cLUCPHf3PBjbZIannzv0sU39uHs29Xq/t5e/p3+7OT3ee83p6d17d5+Q+3Z3Pyb6gPvOnv5vf3t7a6B9eLZEMhrsrMiLj6XBg998r4U/y6Uv/V7F5OvlfVFZAN90Gd+pctC7BdpC7Uv/fOmbV2uxR5Ojlz1xEJuEl8g1hOpXOaKdHOJ+1Xu9Nj4+EPyO7uMl8mpwhTe7Pr6AjG78oJyv8c83KUcekHnxxYBzLfdzju/IbI57+sNL1WnkcE3fVV5zNOPM1Q9v9fPaKmS+ueZpcOS68jGEOg8dzbn+CuEr441zHjkdgfXDj7vxF99F48/E3eer7FBlAXBFb7Uv/ODbvPBfZWc39vRKEARvWnDT9VjucQ6nMZHPOVrpG+phCOjYRctDO0BrmP8D8MHPrmiYa1x0U/nAt/7w7Z6HdMWLNdKvVntjQf7IocWGsYm5zvWFJ3M0fJMBuIcmHMvJvQgs81XsS+CoUrV9buFxnwJ9JbWnBX1Rsgbc168KswXmfZLtXUo3Jt/LQBj9KlTVmmrV1pxCw1i0jGUMfX4B0s/cUxbHdY+DUYhfi4VPUo3S8IFHyZjSzTHXtQoPzvzCrKc4SoXTfMZQAeILfypX27PomIsn49CH23yyMDjZnfvMDL2RNTqhN7+GiS7nAdEHeviFA0juwDh8mMs5szVcEyPnwJMdonzrpTHRA57h5aAKSWP14RNuTyXw04l+ugJ0hVc/Xa/4sMC4p6FvLLuRAT06AfDpl9jpVbPlSld+w8KvThpLJ/RPv+6x31A2MntaT4Pbr6x6kjDfPPLDQed8jlyhveeewWchWvqWUp9pIuvNN/ul46/045Z+IZVuwU/w39P6+c9/0f3wBz9seG2Lfv/73+v1eVeToel3SxFCn/TLR8hj7p133NnHDv/5YeMj+vlVb4Pv9n7x5d7XP9Pr9Gt9nPzwhz/o7uoLkT027tHH4hYeennI+7Of/bz3o++3cZ/4xCfb1ig77rtv7we9bEmwv/rVbc3fPv3pTzXd0AHb83nykw/Qmd+mUTj4unoy26IW5/hzzZ5igJ4Sw2RDW7xlHLx44f9sYJ5+NqEPPEiI5sKl39z4fJJbAK/weULmP/CimS17sUBe/gcPvcJJV3zfN7+iyUdAxhojthLr8OOH3OIbf4psdvRZAbyZSxZHPoMffmcsWmIDRA90LYbFETvA69w4uqRfTbzhFy9iy7jYKfoWa3wueZDtHLMIkMU4+PEFH8CHcfRadWueOEKf7Objg17xoN+Y+nkXutXHX/ihvEV+9MhjHDsaKw8k95CBDegpOSBfCmge27Aj/D5f4Bx9usM/HuBMrhan+PAFesB4voUeHfB1+qZDNNgbbnzjmX18k62fHRCDxqGX+X7EFE9oxN5oG2MN05KD6Iv+2AWN5MGq6yG4pyUm+DE9+Vp/vlYBXraH0xff+UkR/NIveyXf4pt/4BvPbMEv6MIOCj7pDn90T57MdZ64wBc98Qd2IxPa8NOVBxMPFnTDx/iK+Mx8Y1cFvbpmFiB9Ts2YBgSnfAKnOuNgAgfzgCNKygQS1JRMGZzHOeE4IiMQinCM4F0YZSWIJBsNDgIyEAPAI7lQIhoUwEBoUrQfH+PclJWEQFEKBriAHyxjJA4kOOAkE/7IYX5+zZGRyMwQGsfgiAKQY9IBHuA0D85rr7226USACAgyOeJDcOEdLjjQpld68MRJf8ZLKPBbiOkpDiJY/NIvR9CfRMFhjHGkX2Po1XyOF8fEe3gRiHQmASro0MMzO6CDL/yYy96cLnzRLbwShzH6LU5+kZItssiRBb4EiHtZvPLUTIfGCTh8GefbaxMYgFx0jwfJBC048MmGbGuuxn/Ykm+ynWtzDz1k6SfTobyjLwrM/VxfeLSE8tVe5m9+o7fh0o8AHnTgQd2G9Rt6HF9v9L77ve82uykYbrrxphao9Ht4b7N99+uLpV5ePk2Oz9/8+b6o+HI/5rvN3vzi672dv9q3g3s/eciBD+nW9zr9Vs8j+3+l5/8LX+wXqz42bul5/Xkvi92ao3q/9sVl5PjUpz7TffNb3+5tt/QbNzfd9NnGt0W0/cpy25Xcq8n1jW98c8sisZScjKcrfLBl/IHO3v/+97dY8ZX15IaTP/AvBarGR/irhEavxpAfbfrkt2KAz8e25qHDF/mcmIXDXHo0l4/kxwOHCYwu+Yy4JQv/E1vosxueQPyEbOLDfXGl4Yf+0eKjfBVvFhqFl/F4sRiI8xRKPnjK37Io8Fn5AA38k4PdnCf30SeZ6VAM0YPP1+CV/xnLl8W5czqGQ0wa65pO6YsPO88Y9uNreKzy0kfiTl4Vl+Q1lj7xg17VLbvij1+Yp9Fl4oVPkB2N5BZ0w6fx8rnxZKfbxCs6YlGhSZfuRw642VMBQJ/4N9Y453IRXGiwCZz8Cn02I5u8Sh45A9Ar/cJNT87RwCtdi4vkTTaXC31Ttl0/QFceJvCHLl2SHz9sz2foC17rE//HD73rix/jDy06o4PkrFnAt9FGk+7HChA+IGbEhp9KoLfEkjzJJ8hPdragH/5Nb/Cbqz/+wH/JTX/kZUPyiVG08Qwnm8BJV+bwdbFtrYmN6BoPdENufmbMqqBX1ZwCpF/UUn70TklIzF9zzTXNiU4//fT2a7Mc1T3MMwBBGcPCw8AKB1tt5513XnNUfZ4yfC015jkM43ISSoP3lFNOaYuZ5GOBQq8uuPiwVXzhhRe2sZQp+f/93/99U6ifO2cMSmIESYWxKZZBOQ8lwo+npz/96e1pXL8+cxkHXgkDv5I1OTRb1IxhPEfw+xBkx8P/+l//q9FkME+W8Bt78cUXt+0w93xFOP4FWYomW70SsiDinBzHfXgSSPrh4GzeT9OfeylA8MBR8Ssw6BAOjkzPEjOe3bP1SbfsZKuOXvGLL+fGSWx0JujRNF5Col92ogfOJ0A1euCU7AQ4NZtKNOyHH/QsKPBa/MhE5/iWIOiXDePUZANoc37FkgATuBZOeuB/FhVJH5+2d5/UfqfloOZXktcppzy+O+Jwf+2xR/ftb32nu+H6D/YL3Od6PGd2p572uN5Oh3Uf/8hHu9/8+rbuIb1eDzro4L4w+EL3/uuubQuhRb7R63ErHq6/4fpuLwtbbzM0f/STW5oetVNPPa0748wzutOecFr32z7h33DDB7qPfOyjrY//3dnL/86rr+5+1vuCAvppT39ad0Jv/zt+e3t36Rsv6f1ur+4Jv/fEbo9eB+Lqhl5mu0/0cvYzntE9rteRApHeDjvi8Gbjhxywf/ePvf9d+uZLu6uvurLFBr9mZ3bQ6Ng1/+ZP9FILEMmHffgLnOIOfYnI3AsuuKD9eJ34vuSSS1qyg48fWtQUiIAPiB+Jmv7FhV/c9dtMfPRNb3pT8wE+L9FJjBXkDL7nl67xyMZ8ix+KC7Tg5qvowEUX+Hfu9QncfP6iiy5qeYBPALFx2WWXtZgTb2JRYxe4xLOccvbZZ7d4oB8804OcgS9yuMdf0aRL+OQ+saXvda97XVvQ2De/SUUv9Hvddde1PCh/6odHnvFXSfxYrMDvt63Ygf49VOQXeOUTeVhcyQ94ZQfy/u///b9bkSGfDRcHOYJu6Y8/iVk8sCkd0x1biVlyi2O6c5387LUUecTvG97whoaXvviPOBGfcgdZ8ctm8g652IQ88otiBv940k/v4lv+M4ZO6B1PdPOa17ymyc5X9dMJe4ROfnCS7uFmb/xnNyH5hp35kL6/+Zu/aXzza3rIQ44cR3fiTW65/vrrm/75Cb1q9JICkPxywNCPx0DM8Asy4SMFSHI4sFbhj574jwKEXqyTb37zm5v85JXj+J3YNh8Pxotffuie3RPxQG/iGV5rCD3Ix/QH8gBhfdIvNshGp/wabrrxBgJ9/iL/ux++Vwz9tLl7J5u3/BdAjPIpHHFOz9CcjIIEZ6pIzkJxxpnj59CN0y8IGNuRITUCwkcwiSXNPZWfBcgYeBiG4oyXwCgcUIwWYGzBqKLkyFnMOAoFCyQ0OCaHVyy4xzHwh7Y5nJRROCB58eiIliofDU4LOLqxDA+nOZKnfjTxLGA4hOacASUFNIMH3fAL8EKvgPz4HDO8OWQlewX9ccrghVOColN8aXhlL7pgT4kBLToyTnLk5I4Cxz14K+8g/LqnP42tHCUfyRgN/EjE9Mqe5DIfOE8jN93yKXyyAV80Fx+SheTFz8ig/8gjjuw23btUTN/T07311tv6RPeN9grk0EMP6+U4rJeNbx7X0z6wl8MT6He62/qjv5xh42OPfXizI/5iO7ryNMTv7+zHkeO3t/+2O6zX22NPeWwbe3xvfwWLODiw93ufBaETOpcAyHFqzyNeLSQPeUhfkPe2u6XXzQ/7AuOOPj40kWhBelJflDzmMSf3cx7XCvhje7w/7RPGz/sFibb27OMTvfPOe2bDLbGjLYHQJ1tWv6j+FSAvG+GR7chFRjaDh1zk98N6+GYTtnHfePhjewuzhGZhjN0k+mc/+9kNzywfBvBJmHyO7hNH9A+/xU7MKMQk4KuuuqotnvyUbYx3jg8JXQ4wT0MX/cQ/W6AjXsmYYtnRQiSeJH95IX4QnsgEf3YdAd3RC180Bg34PdDgB2465L/xY/bEF127T7fk4N9wWRzkGfzDw6740PAvt8jP0Tme6LBCdA2HXBr+0W++2OuWrRQmcMi5jgojfCVPOtKTXC7u5UA6Mp4PiD84Ixe8fFHhpNEB39NiE33mWhP4UOXdfdeacWixixyLF41+rQnkV5zg23i+TO7Qc66Zr8A788wzmw3wbL578ghbOmdLOSlrmWY8vcvp6GV9weciEB7SxgDv9EAn+Ca3sclrWvggex6Gl/LVsS1HszHfkMvFElmCF666Vgb0pRmDvlytYBZn9KZgZU/r4hiOlcCKZlO4qkvwMD7DEF6gUD6jeVIiJKE5IGUIII5nDBwcl0IpIk7BsT1ZJxnDi44qluAMzJkoEhCewwha+AWlIIQ/EKeO8RgAUCKHU0UyVMbAZb5rDb8UbEwWSLyl+DGWXAIv88lrHOfAj7kC3Xi64/SSCgPqe9azntXwqYhT9JAncuEbRE/kJitZ6r00gGdzMz8N6Ktz4ZOINTaVNMmoCSwNKDY09tDwEB7T4rThhR9o7gGysSGcnnYkNslLoFiY6AM/ILIE4IWH3jyF4TULhQRH7/hiV8kRrwqH4/rrY455aLdPb6tNmzZ3v7p16X3ynXfc1WxzZ2/n2277dXf3XXe31yP4veUnt/Q2XfpsjtcxT37ykxoNScgcdrS7oIjh7+ZK0PyaHBYchY9dkxMtQH1BcsIjTmgy3NP7PN3BJz7YXtKV+O/uae+19z7Nn2750Y9bYYMfPu8pzdPSsQ/z5HJEnwj7QuS0U7vb+3kWGyXWwQcf0vP1jO5FL3lp7+NLOwMaP6U7dKpt2KPq2Rj2YQO2dY9fG6fxdfj4yEtf+tKWvPFGLrZPfAWnfn3w0pOYor8//MM/bHEgPuIbQ0jcRU/yAVuLQ/PgUxwpAhUedhU8xdEn+vCKc3MszPRLZrqQlOUadpRv+F/8233ym5OnO/r19EcHki9fQ4ceFIZ49ZQv/6FtvvzHR8W63AZ34kN+eM5zntNyBP74MTmN40N44sP4F4eO7IB/811nAZKDFSb0QUZy4zO2rlCvxYknY7zQM1n4LZnpVIzCZ1ETpxZ0vOABPbkbj3Aazy+SA+UScrOZRmd2TPGUwohfJH+Ayhv+jUmfsfQnbtxDG794F/P8Cl799KAoTS41l96BazjhYcOXvOQlzX6ATMA9c8kO8Mhf2EeTf9hLLsCD+2QnW/DPg8SK4yyAQ6NPsgWnWJMD5D+2R5/P4CmFJ73xCWPxRj/x4/iPfnFeY0+/a/c051oKuve85z2tMOOb4ob+otcdgRVhCPPVqJTjXFJgvBQVjMEZbNm8853v7K688sq2DefJJbsGxgAJF1DWmFD64KYQcygUDxSa+65juECSafqMMwcuOCxE3ll6RSPI8Or9mETL8MZq5pEbVPzucTyNs7hnHjCevvDl3D3JRRDjC5CH3tyngypPbfCASruC+5r7wZHzOsd5giRzAujgVR/dcGBHPAaXMfqcx3b6jHEUiOSHI/0a3biO3PT+jne8o23hOrcAoOe+udW/AuglyRnjGFnpDw7JPHZqG3c93z7Qufc+Sx+Sg/Oee+/pn5y9O/5m9/WvfaN797uu6d76lrd2l19+Rftwp2TqL1b27Oet7+f409h9+6Jgry28t52G3n/27fkl6109Hz3ibuP6Dd2++/TFdb84bBjw7i9uNva4Nt3dj+2LIPLxdU+1V/R6uOLtl7cF9As3f777UU//17+8tbunx72x/aXOko2iE2LhYQ889Dh8bsVf5dhdOWD/fdtf3/yDV0TXX9deN0gcXmMocKNTMRpbsS0bAX5s4ZGA3bPQKRQsKMa95S1v6V7/+te3LWlj3dfYJv4fEHcWIQ8RFuPYGy8WavJbxMk1hNiKffEZu+OTn3gKtaCZK8dIvO4rAm0xez3hdZxY5lN8ljwWFTziTQ6otMmAnmYMHoA5kjAe9OMr9/AjfjWFi7HiOOPQRSt6z7xKy7n79CE3KFostviGx315w2IfO+lHx+uGvHqUwxRBdJHFcAihnxjCX/SsD1hYLbRAjraw81NxSp98ym4TOyrKLEqxPZoa3SYO9eeYwoUcrs0LL6DqPjoDrtPMpSt4FJ7yNvnFj1ezfADgA27jQHA6sgl7KVTkf74Zf9EXPvEzBuEdxIfgxhv87mtj4H704zwwPIcr+CokDwQik5hiKz7IV2M717FP9K2Jhyqf+64TawGvYbxWpiO25qNicCxuVwPbZ8plIEI4RjmOlCBpxbkcfU7Dgu4c07biNMmDk29dKHogeHANFQ4qHRDFxYiZE6NnnPspXLQYz5aSgOJs7nvylixVlapdYzkwfME5xlfuZwxI4IevNP1oV8dzxJMWHgH5gidQaQzBPePrnMjuHpvBGV618BAInwCfeHFMX2jAU/tB+iNHQD/7537kylOeJ2jJxCs2yUQQgcpLBXPDe2hlrISdJ33XtGUsXrfy1Xfa+VBgGu/p4ZEnPLLtUpxyyuO6c885t+fpqc0f6A4HkbvRbf/1+unx+9PXWAS91te3LT1tvKKgXfXd+FDEGPPLfkGT8MTI/r38XptY5D3VnnTS0mtFRRDosTT6m8qf4oKl/qWCl47vusuH237WPrdy4003dg/pFzE7B/CKOYtkbADwA5/rxDQ6ziMvnSnsPBnb8fG0qJiwyPnsktcOdJmxTe9b8Diyh90/T23mKhCNt4CZa7Goya4CXE2vPZ9sxYau+bWiR/FiAQ1NY/TJLZ4IHdnRZ2HsdFrUI3/wOlaAJ1DPQfxoGL/6Lfh54gaZ617opLlXG8g9uC2O5Kq+7TpJn77oX8GhMKBjcrIRe2dnGpA1NEBowo2WY+LTeejQVS1OLEr48tQrbtGTy1/0ohe1V3HiyPjgD9+hGaj8RFcZ6xov7qNb5QfBDYc8oXDwGSH30Ze/s0PBZ+mqzqu4+J3Pb9hBQ8scurMrZK7x+HFvDODBn3H14TP4qyzAMXFlDLzB7V5awDmdkzV+n/vOQwfkGr70G4tWxRkwLnavsaePT4ReGl9gc/FvjM9a2RUj91rAigoQQqmsECdcBCQIo6rKOSLlqY5VpxzaFpwPSuWDi7b8CAuitEUgShkDvEjGWhwiEOPH8LZqbSupDvEiQdnWsrUkuMgAhrTGDLoocKa0IR48Jbk5jyxJDq61sbmBOg5EV/rJH724DszS5RgEF55yHYhTp884vPIDOg7vCVYFKX/44z/+4+bcig9PL3bGauDOAnTQHONhO+jv9xpp+Ix13luxX6z81dGhfcF5UvfUs87qzj33vPa5hD944QtbQj3pUY9uBQgwF8++9AukyFjC2c5aUeJPYf0J7a2/urW7405PEUsBTgcWp9/0evDXMub/9Me3tCcKuxL8zQdLzzn7nOaHxx93fFtglzCj0+tzc6/PLfYNbO75WeJrydfp7Xu9X/uzXgtTFn47GF4LeYKOXegiC1DkGwPj8W5Bw9v555/fcFmMfCjbIiiJwxn7w+caP57AFJgKq+c973nttYfiU/Gh+SAp/cwC9OGrvOqLX4lTCzB+FCC2xi3EeMSveEZX/rGw8JHgHIP4FcgYcQk/OfBQY5Kc9KPhKQl8pQBXbeiEj/h1cLOVXOuJ326dQkshr1mAvfLgP7GFFsg1PGSgwzwhhyb59KFHvyns6dYrD69t+NQzn/nM7hWveEWLGwWAcUN68yDj0MWrBuix5gDn+pI7XHuA9DkVuzCKTra2QLK7YoKtor8KoeGVvp14C6nXGPxSrPAdBXbmZvwQ9NMPwA++4hOO6YsMjnzFvQB5stuY9RSYZ40lo/72ILSFD2MyroL7bEqXAef6hjLgW4PbmgAfvsKfe+aGlqJMDP3Jn/xJyyF2RHz2yq7gGC8rhRUVIJRDMSpwisMwZxUQkilH4fwUKzFZWChQI6wdB9uEFhvzKIexh0qaBQSmVE4DsvUKGJ1D2SbyQVj00DAmfzKmzzjbthQosUqIFE4WBRTeGSO8VYhRhrCcDObAiVfHisN5+vGhYBNAqnx84sl9vFdHDaCb5h458CP507c+jW3IRn505vE7BGMzB3644XONlqCV+OgYz2jwDzrWl3FkTFAZb2FK4FuQfNApH2IOhP8K8Ts6gbsmg4AdCoXGPfd4P+z9uO9SWN8dedQR3RlnPrk7/IiDu1/d9st+YTq0O+rIY7pDDukTzzqLhyJ1aacM7gaO/f89J60ocG/9+n4x6vnEq+8BOfCgg7tf9nrh3xYGnw+5vdfR9/qi6ua+GP/s529u4zf1stzW6+YH/RifBzn0kEO6PXv+nf+il11hzIfJFL1t3LCxH7P0zhZHvJJ8GzduaJ9t8YqpZ7775S9+2XRrV+eI3iZihR3Ep6RmPrxwgiwwuR6CuZ402UVxaLyEZEG34KGl2GGHQPxPnzj3xCQ3oGuuoiA7XxaCarMAe/MVfkYXYgE+ffyLjvCFDt+zCLEDnzSGTOJaLsoDE12gSYZZ8oLcIwc+4PIUaAGGn7x8z/28BtHPn/Maeh4MfRmgaZ5j8kD4cIw+EoPo+4sU+iEjHulRbvbBbkd9ZA6eIdCrHbi8XtLkTzsDXkWQDQ45UjErL9Glaw8Q9IEndomuQJXPeVqF+HXljb0UiXK1+GFzMrG3a0c8ope8aL7iCJ/sL3fIefy9+lXoJ56Tm+hOq/kjOZZMNQ8NAS765U/G04XxyUtVJ8aGtj7j+L7XhfRN7xkvXyrM2UC+5t/4cy/4hqAfTfoJ//ji75HDEdAVX6M/48nsHA90b6z5jpqiQ4GnSFN42vnCm11rc2fxtCisqFxHkIFVQRxG4+yCQVJSgQtCjKuWJS1K5jAEcax/7cEoKxGAISQDuCU1f+r24he/uG0N6qcgBnzta1/blMZB8CDQGANwWgUMZ1dF458zMII/tSOfIMOftlbAAdIis6NrzoO+a3xyEDtIglDQewIjB91x8CHEwTXzvUqyEHpnLxgFGb2Qz327PqtxHFvo7KhYAPTE3pKv5qmYLhUW6NGvhGjni945P52SWTIlly1jfYJOUiCjZJekgM8Eb0Bf+Hfkb4LVfOcBizS65i8Fi++32L877bRTWwD5axey8AX3P3vjTW1H5vTTn9KPXfIVDb/hu0e2pQzpT71q6Y/+tJcPntjP9eVlnszomn5+0/u6+Fj6oOvSl3cdfOghbSFWHPtMxWl97KBDBxIBWdi9+UrfHL1uqTajS/rDl7/uwYtixIds+c5VV13dL8xL33mTvwpgK7EnVsibRD4L8MQX+VIKCf5j4UPbQsQfxBnelvhcSnT6+J1XnXwgBYy5wDxP7+SYBXzIfDst/ApuuCw09Ge+BI2W3Rlx5PMfttPpmQ7JaNfVFj0gv5ivfhJIDIHIAQ992SFVfNBlYhIuC4hzHyplb3hXk5iNZysywwtHiiU42cm5Pv4q3/L3Sy+9tO1K8IPoBh6Ly5CHyAefPGe8HQMPinRIxxYwDwVyBFsr7shmcZLL8SXvG8ev+T3drkRePIhvR3ybS3d8gm7pmE7laX6LT/TIz1+y00UGf52kmGIjtuZnY/qP7IDPoKVApm85El7y0Ck/Qm8e4Ft+Rps+0UPfxw74vbxGhylIQ5+eySUnsjN/pX8LOx6sVeS3xnltKcbMQQNfzseAbvgqvcZH6FChjlc51ccL2MtRP93aKODrHjLkLDRdm6M5x7f5ClE8ZPdSPrHWoLNamP0osAXY0VMbwTgkYowk8ChKchLQz33uc9uiT/mc1lOO7Tl/HqRiMk4Co0BPQipXQDjK4oBwM2SckvGyyEXBrr3X5mSUSIECzpgXvOAF7T4n8Hfr6FrQANwMA4fFkjLNtRUnucIlyNAUYEmM5sHNaarx3dcHlznuGcu45Klj6Y4jwVMXVjLRg+DR8MbQ5gtEAYE3jWNyGPJlLIhja/roX3IiK537m2+JI4Vf7Ig2HtEjh74APK7xjJax8JOVw3kigU/gkkN/XqUoTjV6pV92whM69EO3cOqDl04sED6sqF8CTQLh/Fp0ZS7fMof+8QTch5tukrTTr49N9BtuXj7rw8/oCK83f+7mpisJzGIP9/77H9AnqyO6/Xre6arx0xcx0Y8Ec0A/ZsNGf69/VK/3J7YinN34Hz1YtOjdboVdDl9CduRRR3cXPO/8bp/eb3xHCH/FA70q8sjYmO0hcvExdKVVS6MPoLKbP+9l0/Ub1rddD+N8v4jErADEww/6GJRQjXPUyEff/C++RCbJmW2M1SQselQIkIkvkokN6FGiRBOf/DZz6VkSpve8YjMfHnS8emJ3c8cAf5KdBUKxSA5+LFGi4/MHed/Pli972cvaUU4yTjxr/NRCwSc0fKGPRzTIlsbGFjf6rv7Fd+UzrxoUh3yGftGxaPN/ryT4pzlktsDBEzp8B8T/8RA/BejToXv80oIDzE2M0hXcfETBBQffwYt8LD+wFxnYNPyD0NcHv5xpvB0cOuN/8iW+6RIevkG//lJPzpbn0TFOkZucBPBPNjmDHGSLXvFNF3C5h4fIXvXCfngXL3SML74mF9Ix34QLDQWh1y5yDDvTgfWF3eprGDY1D+2lHLCu0eF7kYdvksk1/ujb2PgL3lPoBuChY+Pw5F4eYvHBT9iw6l0LP3Tq4VnMiwuNb7Mnm1g7ycfu6PAjsZVcENBPd9EP/t3nI/SkQIJPDKJPN2SXuxMrZFdQKKDMhROgBV/syDbi3ZGsfF+M7gise9VlN20+8dijumOOPqw79OB7u333sd3bJ5/mHz3hPhnf2xOR1DgbZ6DEGCjVn8DRGI8AGBP4FOx+hMK4ACAE4YBxlOyaMmPobCkxImXoN5eDUpZ7DCRQKDdPEIyPP3QtZvrxxUACDM/GWWzgo/Qo3rwqhyc2PMNlvj7naOce59YfvOTAb5KYsZ5s4SaffrojF1ngcE4W4+G1iKXiNR6f6AosCxSawVMBHvgEE5rshS4dueecI5MliQh/5MUbGvSeHQXz0EPXWI7LoY2XpCzC8ESf5qMRPeGPXPShD19sQi56JgO++ICjfrhrAoUDDXqhY/fIYC7AV3YOPBWbH7x4wvNxxx/bz+kX6x7/3XfbKl163abh0zef3tvjxtOhhx3ScMTn9+/n+VCnvs09S/T7K/r52c+bzg47/LBun732bnzQ2S190AN83/7r33SXX355d1Mf6P/+3//77vQzz+jxH979uC8KJAevbfbbf2lBxC9/sLi3grXX+4973n1D6pFHHNUdcvBBvR16O/a48+fDP+rx0K0vWesRNFlvueUnPZ/bfleEXD57wi4SkyMbeIIkk1jk/2gndtibDsmkKCQX3WuxqUZfeDePfdhJn8Z/6Q9PcLMbOmiSEd/VzgE0LW7+wsMCZEE0Fm080blrR7TRlA/4IB7okU+zKzrkc9RvcaB3BTMe8UMeY83BKx/kXxr+3Ks0yCJG4BPr9CBGnMdPFU3wW+zgoW86okdgbBZk+OnJPToTV1U2id79vArRx3Ye7vCkT5yyG57oBj/6yKYP3v+fvT+Pvi69CnrfXV1ICtJAAiQ0R4QAAgmQkJCeNKQPAYQQAtgwUC8IDLx/eP9x+EfG/cMOAdEjDBUICV1IJSFdpYMQckAFr9EB1wFHr3JUjueqVxoFSUhXd3/WW9+qWavW/jXv+3vfqiR7vvXUWut55jP7Z85nrbV/e7OzfKDIKTrm+vNucoTDVnMToZ/sdKYXvfmBzOjho8FDDx567MqOmnnshr68w6a+CI2+/NJmin3UC/TprgH66mNn89G0BvHjL+P6yJOeCi0dzJMb9OFBNrLj1d0/u2lwNPLB4zf6iEd4rR3z8VfU+cVGnM3ZS34jS+vHuX4yOmqgeBDfbGrcEfCbDQXbOAfk0NiEXOgDMYsOOfTzBb7swObWEdBPTrrJtTYc9GAjOufX1hUa8IyRQVzgDU/c4cvH4ptN7gZneSC2X/YnbkCkBY+t/fnge/cGx5RgjEj4CfoYm4IFA6cxmuNJkOM189Fy3tghIMOk7bq+FsmUE12LFRhnTI6CwxF0Y+Tk128cPdfGkifaWjJMmTW6ADhrML7VD9Bja7zJGV8t+bLTIRDQaFjk8OnnmG2njsC5Mdct+BYNXHxbJBYkfIHXQrCgjDmiwZbTnoBe2Tt+NaC/FhiDC5rXdcdkNc4uNdcSBbnud/M+IS7+oPMybZGn5GIDYkH5nIjPdHhiQRff8XHDXv4bbrjzQ14f9KHQ223kT2zNseAseEmRzuRm//+0T3Lv/Pl3LsnqO77923ef/4hH7O7/oH1xfu/ev+/n3w8SaYH0ZrcS+B++9z3LZ0luvq933Zc+ICbaYPpg7Hv38sMz54a9LMsP5u3pvvd9lwqwjYeW3bLntKGWvYrl8FzTky34rpiQ7Bae2WTfv9hr3/SXlNiAjTXz9LfWmpveAVwF3KsXBembv/mblxsH8mQXc7VkxLc4mGsWP3PwAwow+mTgJzTIle7oAP3moBE0bj4eQHKeaxKQQVHQh7/x4lAffppzDaAJ0quGJ174opWsdDUHTUDHZDFvyh2+PpsB31aqALn2JKnNGbCetbVPABx6oOWcfTQ66DNnPY8s5Necs41Ngw9h08Ud9dOe9rQlntCg55oOObMXGs71kYE/0QzCZY9wks11PtUvNpvbmjUWD3PgAH3hAPOMkVcsGZ+Q/Prj59h8kAw1NqIj2cvXzcVP05cdoqG/2KJfeujnb3Rd8zMc/fxobmC8Y+eg62LPHPTYFIi5qdMdcPfwuTvs2ZxhA7J33J6pxIZ5CoKM7Ljg3S5sCuijbHj1r2H2T2UO4U+I9/p8GjdAjwMAPLLBc86hBUt8Jw4QgHMs2OJVEICJe1YwN9sl1yGY9CdPcglsstA7mU6iBczLLuYU7EDf1nz401bmrfmFE+hf64b+Wp85Ps+DdG1evMGd9KIJ9/bTPWRj+NO/e2n3zfld+cFdy4C3Be1u5v/c3616WoKer2H/9//uN3f/eX+3ivZLXvKS3ad8+qftbtyvoQUWkfb/29OzoMnCHlN+f/3itY/vGcHXlMS/Q4rbVdvvmxYgoy81g79sPi51L7CWfV7faatL/Qu//TX9tvw6gew1sUZfIEFrwDz65fM174AtPWXzV3Q2IN/6rd+6vP5AMznm/GScNIrZCp+5xtlZm+sBGIsO0A9nygiM0zG8/LXGW18rEGRR3OEHk3/naDufY1M+R/rQA00gL2fzk8ANic8oeaqiyHkN4MlCQOdsdwjIoE09JpBvAv+TVRFz9+zR/5ve9KblSY/XDD7P48ZwzkvXgC2mnR3hoOuoZTOtGItO49FobrTWtIF52df49LUxx85rxie41ib+FiSf2HI+5deXnmhNH+lDW57XX1wHxmv1z/MrAXQO6VNOOhH2U/fWvP38duOgN2nq88VKgntuPkBz9NVcB8vcvaEyjPOttp5fOwvAm/OjSd51I0O04bqmk5bjJt817QnRWePU1nTO28AWrUMgGNZgnkWf3wSxYJ5QcG7BlAW0yMKf89DfsqcWoFVf+I7xqU2c9dghWM8JnN/Zf6lN3GQWH3el3/mdOtI3G6xBod8P7P777/3e7pf2d+5vfP0bdm+59c1LIfX+/Kv2d5qfuL+Lv2HPB3i1eecHTC8lLnKI3SkHup7O1Of/LHpH24u3HIe419123e6mPZ0bh541dGZbw7rfuXnslGxb8TLxHANzxGBPIabPJ6yv4fSqxjwgdvWv50/etfDime/qI1c4zdeav/ZDEA4ak84aN79qeJvDBq7pUaEJ1voEcCpA9TcvmprzswBZ3bV6zK6RX0sf46cBnPQm2yzSWw1dMeBphc9c+GySeXzbo312oWM2A3SqTTtnB0dj5uNRjoc7ccyb8+s/iTZIdg3eHAvISv/pn6Br/tqaC4yls3M813K6TlbnIHwAZ63fpAuMsbnrQ7IA82Y7CU6ic1a47n/96Xff9tmf/rDVE5C9snvayGtUdtwSihBa/Rch1L0Jps45/1pBATQXVAE07Uw+/VsBWJ9rCwUtgRxOsKbX2OR1qP8s0Nw5/1rbM95bcHddBu5yurfh/h+bLldDfnR9zsJnRny+wPtYd/FekXht4rs9fCX8fW8ev50w/6plv3s4ZMs7Zb40fjc04uirf6Cbu6UzXlqxtAVb/dHLBnRJH30z3uZ8cw7xmZCs7pjZkC3Z0V8IeHKAxh3224DTeEzfzeNFwZatJ6zH8U+GfLGWyZwa3eEpJHffMB+G5sN3p+xJndc3NgU+K9Fj9CkD/C0IJz90U6NIb8kTX/Pw9KFgn28Dnmr5LI6NUPynf+f5tQCykgHgPfU5ZA/ABmCt/5rGln0A2tkJrPEaTwbjE0c/H+Anv9c3/aml25wb6Iv+hDXuxHEe7bvBYXPdCftpZ9uADKYUnUBpbQq2KdCHKWTkewLasbb7JktBxeaBvhmA4Tm2eXEusbueQaoZX+uoH2z1b8lwGkSvIzjP/EMw6QVT5q1xEM4c31vh9rM9XHdpsS4L6bZBb//PX4WZlx0Bep5oaIte6A85Fjrjck/gzr6JB5Yhg7fDcn27dLej3jFloN1B/3a6xcDSNY7FRH5cZN/3Z5OOa4BTrEWnzWy86H5o/mlgfsethKqdRvuk8eiDy5XxJJj0J5zGy7zpi5Pw4Wn58CyAfvYE3YjYxAQTR3O9pc/aL67JU45aAxr6HRXqXsfg3ROLewtkW7LSL3sFW/ZIZ2Oz6a8F83wLor/Gqx9Eew3k1p/M6eH6EH5wklxbsiRPstTuAnc31d1hP+X6Jt5JyLmebQoJzkFzEdw5/9L11YKUB/P8asF59clBV9qA4JkL21HfemEAC1syMNcCz0+TngW/nntIv5P6D8lwCOI/4RD98wAdD7WpN+ham7zvgjP/7Tcdhj6kuTbFk4rbdS/28WLvha6xJTHvkZEdtJfNwdJ3eyOD9yYH7HDdHqcNjQ+CX6djQSX/grIAuXiajHeA8T3vfeq5w1de4/jArG9QJfP0Y+eO0zZrMEZP85sbTBpXCmhUAPJZ/afB9OcazK9dDbhc+vCz52lzwz0Nb2237Kn1SmHCxOk6/NnMcwyczzqwhvodzfW6yNMsT1/Mu9ZwUnyky9QxO67ndb0ey26H7HESmLM1r/45vsbrei3nIYhWstaC9XWgz5zZtvDOCouV78L49gbmeVCQNudKmJ8XGFfyU2grtvc2YI+LsskWrS3a+tqozOIw53feNdjqC1pYWzbewj8rHOJ3ORCtdduCk8YPx9H2nPrMc2TrOwBuzeqZpG/vutuiuhtcsvsdfJ3vD11OWMhvDRrY993xz/m+Let3f1z+vN5Gdb+OFvQ9j8N2uDQ+N7ZriP5FwUXSulKgexv8qwVn1fesdl7jzfNDReNy6Z5lHoCH97qG3Jtgrc+hNXFPyb6Wb30NknlrLDg0dtKcNZwV7yQYmXMbYmHxtQgloRIRZTXXnV8twMM7TN9L4G+UfbI8Wch2tZPEeeAinHNWwKt3sGzAB87Xm5DTYO3LjhPW1/cEkMFjZB9q68+803OtL9yzyHwaztqGd5NB3EUC6hW4H+33f+D9S4z3Z4aHpIvNiezotm9wLm1Arl+erLxvv5b8uag/HabLlr8DMviTPvjW4Flsem8BGyefJeEnep4XzPfXI/Rvfd2TsI7FexruDfLwyVa7CLgoOhcN5LJma1POLZ9kk3uTPje84Ou+9aUPfqAv3bl5d/P9btvd5yY71H3h2g/uU/nuutuVlAj7ohnXEpkG1gag/GlBuTbCWYLY4pcIfPOd71zwGM/jPBsRspFR0dV/b4LscZ52OeBDXiVZdpjveE+CgpIPFZql4K18mUyXI9ukMdvlgjjwXQI+0OaLpXzJDp+v6c4Ym/1nwZmw1a8o+aCkv3Lxob5PfMhDdh9z30sy3A22yR4Em5nf/Z3fXb7y+L3vee/y1wJ86RXPXsPbsS4BdnruzmL09KpnNH/e62vi/82//te73/j139h93P3vf8dfU9Bh+h+ILX8+ye7s7wuLiq9DdjsL4NP8q0FHvxsWXzrlS+mMkf08YE35lkobEHG29b0PE/C0loB1eE/BtMnlwpXSuAgZToNZf7Qgvmv+55Fn0puwRaO+5qx9fx6+pwEecpBcTXe0oz/5rM9r5s+xCwekT2t7WP56b2kEW7ruhK4Jq6gp+r6Xvx+tAe4s9Cv+NgLdIeSELdgaW/dFowYY2wbEn3H5ql7n5HCnWIJxfm+Cq+rkFdiE+YIh337nG/nOCtPG7FkriV5LHc4CZFMIfT13m1FxVxICHS8app0UNvxf97rXLWvCk4GLAF9OZnPzplvftHzltR+xuyJ9mro/fuiDdyZq8r77X/yL3ete/7plI6fQxsdx2rO/nrDp890cl/Mk4SxwubE2500dNPFBdl8Dz67nBXnNV2z7cjTfqinWPhogO54Gp+GdlU4Av9xzFvCtsL5KXnM++a3j6VrnsqvBj23EoLi0ZtVeOm/xOmT7a22HQ+AZ/SLMIs7t51tAaUlI4ncnUJC4tjAlY3dJFS7j3UnX9DemBfMcND5bc214JEFfpMPw+jjCxoNczrcgGhP0HYL4Tkj2CSfRAHPc+ZRhPXaoTXCNxloXwDb84Mt+2CKYdMybTzga0wQ1f6KBVjgTwp2w1XcIDuHWv9ar/jmH/PytaNpseS2QTuZPXND87DbHi/dw5hhYXwN9+OGrqF36Qaz/cin29uh30Gkpdb0B9TvaHCzz9zKi7Tcq/v1/+PeXPoi6IN2JfyLcjgKXnIvOt//Zrw+0Xjq6g/rgUpgvyf+fF/n1TzvVig2xpYhb540dgjlfi+4aJo2JHyz56YS8NOM5mHQkafqt18VJYF7yyns2XWjwy9Rh8tGCeb6GrTlozjmN1b9ua3ywvp7QvMD5SXYL8CmGwJrGGt/5lmxrODRXw28t28Sd58CNqJqgyV1gruuTwDh5D9lzxp3rcNa4h2DiNX+2Lag/nLVszq1Hurrx0Vyvcbbm3tvg9M+A7B3gUZLPGPh+fN9a54ekPIaknB/R+Ymf+IllE2JxNkeCKqHlxBytzQBx3jVwjmePsARjrxX8voLv5O/3BuD6Jj8/sOMXEn2xzRa0Y8T7LIDndKp5ZKBXoG8uzjVMxzs3X2GHX9MfHbTXbS7EcCVEm73mN+53Wfyom1+n9JsJQbo0V0J2PgGOpybu5n0DpTsJOGwefdfwtDnf+JQzmLIB5+ZpW/3sM32kn9xaPJsnHn19s8fpzvtgW+PFjznmRzu7BeIn/tm7cUctmqBY1byC8G2On7+PPfx9qNNmwde39+FOm5CFzvtvf4qxbzYDYOm/3W5LbNwu24033bh8N8JnfsYf333SQy79dgZ+d+Dvj+jcAU5tMPb9S7t9DE3fxoruBz7w/uUr5v2VzmKbPb37fMx9dg/dryU/GveAvS29fjFXjOCV/bILfXtFA/TjAce8Rb6NZm644YPmJC9wDbf+eAXzGk5rwZzwtWjTQXzIV16fkP80aK61Wjz6UjQ+6ZtMw6FbMZrc0dC2wJxsUbzRw/xAH5r64bUGsiW51vjRCrIVOZofoDlvGIP4pp9zeZ0c9dXiFx/na9nyx4TowJm80HOtGdMffnI6j2/j5T0/BCn/6w8PrXAd5zxgPD8nM5g4/A3yV/GlrfVb1tbtLTw8gfNkn7pPmDI64rmWDW1zfanbz/3czy2/Qu4pX/MAPjNu7q1wwwte/G13fAbkfrd/BmT5BsX5QmavFCMoXJxlQYO+LtkmRD/oW/bcLfn9C8nTom/hC2aPMd1NMBb8jJYjGZLhLBA0vG5xp2mn5y7GayCBZiOk0OJtF4yOTUmbI3c7Cqm7ZM6yQ0aTLPiCGTzAPE9W8LWp4lhPW8ylL/kLLPKg69Gfc3IIjnSGQw9zjNPDI3V2FBRwJHUyKf7ustxdsk+/BOk6OvQhU/bAjywSK57oeA0Dj36SJl5eT/nyn+zJHvqyhcau7rgFtFdZPaqu0JOBjckEjxxsC+iMBhngsSG5sq0jmfId+R3Z1iLJXuiYL9bED5uzLXtYgNmW7cQPXdwF+EEk9mMTffyXbclCT7x7VaOIGHeODhpwxI1+c9jNExb+8qqHb9BlD3KQgV/Zww/G/S/7jcjv73X8d//23y5ySNjxWb4ldb+eLtmEPRajLLah//+1jw082LXPWf3u3tZ4f9bDP2v3yH1ixfc9f/ie3X/b6/lbv/Ufl1j89d/49UXGP/qj9+7ue79Ln9+4ZMNLxfP/+k//5yLLr/3ar+7+017+3/8fv7/Yz2/b+DzJ//yD/7m38b/Z/ef/73/efeqnfdpid7EuptmcbPiyI334PH8BvNEXF2xWHJKhdcQvbOS1KZnZOprZGvCvMTS97iCDa+Pw47notfel2ECXTHwjD6CJZzFGNrbMx3j4sUKbxhJ6soJkFv9s73Mf1oHYsGZsds11w0MmNMSU157Wq2OvgOlGZjjo4W+Mff0QnF8hdY2OmypAFpAMbMAWePCN2BZzIFvrt5bpCt86h08X8YwmHGu1RhY2IjP/iOX5+Z+atagBc/Bx5Ef2x5/85rEzf4hjaxZdc+Uh4wE8MpAVHTT5NNnQI7N4Q4/tixUAlx3QN4Y+mmKQnq7pIn75Q3yws5jRJ5ehtay7fV844k4+KAe0vvMd+mKAncllnI3Jw+b0FjN40ZsM9GBHALe3BfDUg5lzzKlOiGf0iwH64sMObC4mxYUfaxRLYkrNRasNMhy6GWdntjW/dm+BzQ2Ir16/lDL3IABvNw6nCxhGoAQjCGKGsmg439MJTYAyNIPUOEMyKHlwElzGNtYCrNgKCg7QOAV/8xnUBsSvQ0o8HMvYgooMnMFh+EjqjmgJOHQFeR+ii6cAIIOEIdjM8/PsFrN59BYIHIsGPH1sUBDoT1fBgKbgZR8y00MAspX5+FsQgpY9bOQECp4ShHn0NY624kQXYxaCMYmILehkgaHDHn2NNXn9hLrH7BYBO7IVe5CDL9mCLpKixB1PNPqlzxIMf1tsbIGfuGBDetCHzvigy56aa/jmJbtFSzaJxgKUhM1nF4uQnmxbAhYTaIkZeGSUENAlJ53JRw8ykcNTMrK5phdfADHDXmKkxelcLOpnF7TJ6kgGOPr5tTtpCQRdOA958EOWTcO/+81/t/v//Js7N7pi8aY9TT/Z70nFXoU7Nh/iXqz941/6pcX3YsNP9ntqIdbR9XTiC7/wkQstcch2/8f/8ZuL/X5z3/7jPkbwYu8Hiuk9r2VjtcdFj+x0/K//5b/ufm9vR34kP7lsQP61hLqnx65iLB7iWbyxiXi2tvSzITzXbC2O+JG94Vl/ZOFX8cs/+ItB+BUK/Cq8aOm3jshMN7zQhSu2SuitTR/QxTt/ywUlbb/2yi90KJ74j96+fdOGlY0AmuKT/GRGT94ir6M+dNmRvL45VPyIRXyLE3JbW20WxCSZzUdLPKMtTtFVpMUwe/mhPbKhyT9w0WUDaxUf6xEdvuY7a3Lx856GdRUu/fFAx5OB4tw4m9CjtYwHmeiOJpnLiWQJXJvrxwHFJT5t+sxhP/rD0dgDHt3lD7qhQV5z+Y88eOdj1+LEL/GyCRn9Zg0a+OgDYo/9xKkxtsOrjRd5xIvYkPPkcDYTt+zA98C1fEweMcpu5GjNsgm6frhP/OCLBxnziYanfj6gF3+wnVhpLYhBeprH/uwjd5IHTpsQMrU5BWTiI0c6sCHdzEUHHj3FhlxXrkYXLzLBKybYSzzQr/x8T8OJGxDAEQLnd/bGaXEygoUosEpGT3jCE3aPecxjlkSgoOUQxVEh5BAKM0ZGEVgSLJhBz4CC4hWveMXiYDS/+Iu/eDGua4+c8HjkIx+5BKDFJPDNh4OXBfJTP/VTu1e/+tW7xz3ucbsv/dIvXXjB42iLBn86ONdARUGCe9e73rXo764HLzwFtFdOFoDg8RPHbIGfBFFy0AS0RCOI4fuJZY8JJcOCAm3BxSY/9EM/tAQTevAEpgD7yZ/8ySUQycIWdBbUr3rVq5aE4ZWL5C/hWsjoCkYJyLkffnrzm9+88LIANfPRluz8IqX57GehSNL8qZnDJjYeAl4MeNzJluLih3/4hxefoMk+FhI5C3B2FR+elL3jHe9YfheFvHjQmcwWsjtTcy16uPxvvld+6FlQbCjBKIpL4d7fVUsyeNOBj+CyAXnZij/EE3+aoyjQyVE/XAuaLmQiryTz9//+31/0fuITn7j7oi/6oqVfoiFfMvCVpEyOT/7kT9rr9sd3n/cn/sTyNOJXf/XX9mPvWp7SiccKzP5/S5wBtv4X+zXyd/7O31nkec5znrv7rM/6zL2cv7usHbFDh8c89rF7vT60+9/2Orz9bW/b3f/j7r/E3SMf8cjFzpIWGR7xBY/YPWjP6w/2G5hf2McceY37tdEHPuiBu3+7v/7hl71s9zH7JPSYR3/JohMe7373P182LuziNabY0e8Oi00lNz6UsPUrNvr5URxI0GKAPcUcnmz6lre8ZfGv2CKD9Wad/NiP/djiJ/PpzabW1fd8z/csMfCMZzxj+Ypu/ramzGfD1sPrX//63Rve8IYlr/B7uYHPFS35QDxZ8/IK31uD1hW70ZOMxgC/8DU5yIwHf5lfgcNPfIt9eiiQ1qQcQ4enPOUpi6/EDl7yHrvRUzxbg+TwtfJkNiY32eQ5h29NWo8/+IM/uGx22Zi88gM7oGG9/4l9jMG3Fj2l4RdyynPsoO+tb33rkkNcoysf00284o8GG/En37EBu7BxoI/8/Pqa17xm96M/+qPLufUm11sv/GWt/sAP/MCyjunHr3xHDmtFkyvFhFz2yle+crGtdSUnyodsZhOun1/lre/7vu9bCqYcIAbwklPlDWuPD8mAFxtY3/RlCzlevhEPYofO6BgXg3KZdcP27IwW26tvYlqN4/fv/u7vXuKbz60NGySFXAzzK1p0ZhPgV37xxlMfma1zNctaYAfxip+59NQnn7DfG9/4xt0tt9yyjPOxdWDtiWnrTjygbQ7a4oEOT33qU5f45i+xwpY2Q09/+tMXfcST+sJ/4tR8PIA5S266B+DSCtwA4hj0+NjPmAtii44xLQiLjoE5m3MopbhwMOAkylbYA3QYtA2Hhe8cniLAGBalxcWAFoTgQb/PeTC0wmIOfPQYuPkAbc7jGAvCHPIKIPIrPByOP0BLM49j0dEkVA7En/MtGImooCGThWSxW8AWk4VmoVjYFr5gMEYOdDRBatEJSraKJ70kBoXLwoDL5mSz2Oik/1GPetRyjY/gRAMOW+ijF3rs7Vyg0oP9yGER6LfgLGZ8+U/xIWu66uefbIEvncnHnvzDjpIA+wf4avrEjWJo5y+RkJsMkrYje+LBLxakZIIfu8ZLQpDAJQ3y0lUfWSUAepGZHyxI9pUYJSW4aLNRdgHZh/zwjJEDXfZBi83w5wexTQaFJ2BvdOB93ud/3u7zvuDzd4/aF6mHPOTBy+acHHivgUyeXohDsWmT8ahHP2r32XsdlnjfHyVuCfimmy49fv6k/TpLVzLRnU9+f2/fX/u1//eSKP/gf/7B7j3/05OZf7U89UBDPD3ykV+4+9J9gXrMPgk/9JMfeocdyO/8M/Y+wZcN2RxtMc7W1rH41MRHOK1LR2vWkwdrlhz8zZf8DdccsaPAoI2vNZ798PLLqIoo3YpFSVJsWUvwyGqN8jFaGtujI5atNdc2ChXDx+5t6xot/gb8rKGliQHy8Ac9ydrnCsiPpsJoDrBubXhcy39sDIc/zFfM2IKf2a8NApnQRN/RfLaCI4fRU5yi2SbPOnCuIFlvyUCfNkXGxRFZrUtj+PMfQNN8uDYf/KGxNXnlLTaYa5i9ya9Pg8ff5EajJ6zWK/vTkaxTXoWeLawBNxH8hy87kFU+42v+rCACfOUxcvNZvndOf+PFjj64mvNkto7px//WjHhiZ5vdW2+9dYlNPiMD21mv4kfecI63GKY3OvDITT9+JjMbiGf6ullRb8Qync1Hx4ZWrJC39eJoI6EGuNngp3SzZtmX71uT9JTn1RZ2wl8tY3N1iB7yExvZOLG3WIGHls2XtSI20Ao6n33XEk7cgGg33F6QAYNyMmHdIXAAJ1OUIzRONS4IKuYtGGBMfzva8PQznqNFKOngwciCw4JUEDlD4LoO0NDwKaHYINml+7lpTkKbUzhdcEqSrvXDD5xL+uYrvgLFAuFk/AVyT3r0SzwFoIUpiUjGAt3itGuV1OhhAZCRPPBsTugpMAUdndCir8Ur6NFkV7wEPhkUcHIIKHb0NAUNsmcDdgSOFgT+5pCbzM7p2RMItiYfXDZyzrf64Qlui4EMcLITOeHQN98C/ihhiJsa2+sXMxKDpyxkQZNNJEILDR1yihFy8IVEx5Y2C+iwi8UlqbIVWchoHvp8bANQXKFp8SajPo3tigUbNb5+znOesyQA+HiRjxz8yWfNZwNy8P/n7Hnzj6cgfnzuAQ944O4P93Z573v/aI+8TFlg4bu3j89lKHpPfdrTluJrzkMljH18SxifuNfH0xQy8Otn7hMgvM/Yx8di8/fubb7/t8Ta7/z27rf3zQdO6cGW9ML3j/7ofcsTkC9+1BfvXvSiFy0x5fds6OULz7qrFhsSFPu5ttbQ0ODwhdhTSPkMbnGBpyTb0z0+BOzBjnKFGH784x+/POFgywovG+L59V//9UtM0BdP/PhREucfftMnNsn3ZV/2ZUs8Wjdii78VDLazgcSbbJ6+PPvZz15sJh4noKkpAO5I5R70rXHrUFyRv4IKxLYiRV+4YlNeJLP1KB7Qsv4B+uZ/9Vd/9WJ7dkD3Wc961lIgumGhp7VYQdHYWNHjd3KQgS/QZEN2o6s5fEBHOOiK/TYggC3ENRnkGXnIOd/AY2MxEYjT1jE/mGO9sjm55CybHDcWbIAn3eVOtie/QizGxSN/4/XlX/7liyzwydoGgA7kp5sYQJO/+ZYs5GBj44BswNgE1/RATzzxv3gRZ3KHJwSebtu8aegYY3t+pRNf4GfdyZ3858gG6o8YQ5vt+YBPbSqtL2ukGzLxZC2g6xo/8okTzQaN/fAmB/uIDeuE39mZbdgaDj/B43s5iV+qHfrYTXw0Jq7oQEayqRn62ZActXsKDm5AtkSiCOEFmMCwmAWEAHF0TRkGOhQc+jkCvvOCCW00XbtjZmxO5QA8jUfXefNAPOt3FFAWFOf7rgavIDxG9VhZMJgz6XAa5+knX/RK/pqAKWhLAoFz8uuHyxaCRYKlj0efHqF6DEoeQQ7fGPsBPEFyVdy6q7E4jYUj8Fqw9ZF3Dfqz7QQLDG8y0jnIr/mOHBYV+WyasuXb3va25RWIIBfgZAmyhT6JRAJ93vOetyw4f2nDDhIBmpIRXSx6ycqitSg9RvY4Eh9PHchBh5kctPRyFJuSmmRBLjGAB50c4WjOi0M0xBjIhnjQ1SNRujp6pCxpa3DQkeQkt5v3sbHIsm9eZ5DV5z7Iidcd7zT3YJ6/RvkAGfZy+ezGfff84bG5eTd9zF7XG67fvW8//oeSCP/taf+Pfbz88q/88u7Nb33L7g37eHrnL/zC7j/sbQZ8uBTdB33Cx+++8qu+cvfQT3nY7t3/8l/ubn3zrbu37m1In4+xsX7gPrHf56bde973RwvNj90nLjJnT8lrJmc6kEusNO5oTCvhsb2YF9sSvdiVGK0b+ACuWEbTOhT/fM+OipQnXF6xsLe16pUpP5nPbuKKr8xh49mv6CkIioRxYCxI3jXQTZzgb0MhdshuLnzj4gSOvGS9iFMbYpsMdhWnr3jFKxaZjYk30Px4OwfkFafWRrZ148JubEk3eodvbrGkj2ytfWvKh8etS69K3MXb1KBnDYCpCx/gr9GTDcU7yE9rSA6+xNc1enj0KsETKE8WXvWqVy2vJ2xErZPwNHahG11akx2BYw2wO7/AB/rbLCUTcD7bFuDDvuixt9rg1YhX6l7X8BsoZhz5QmGfMewovthOYw99Gnx2TX52tR7EjNdz8h5+7CS29fOHmEaHbYprQAbj1lZ1ELAH2zjSFx36kdXmiFzs7wmLuqP+oCPmjJER7XS9p2A72g4ARS0KShO8YsfYGUI/5bYKIWDArbEMgdahAMpgxmtB8wEZPYZSxDhZ8Li7s4t1lGQ4gyzNm7Sck6Mgii+5W7xzLgjHuGPFzdMEdwKSmiQrABQwu/Jv+IZvWHa3ghZtcmqCDQ088BJ4MygDc2ZfcyYklxbQj2z5cgayPnpPOpIYW3r64K6KHu7GPHmwS3e9JUeNnOzujs9jSgVCApC4FRx3SRYqPhaRuwA0Nbay+VFY2OtJT3rSMp6do5+Orksa9NHHhsmldW4eu05/koM8feCOrDYY9OVH+OhqwDV+5gdGPGHQLm0K7uoTYD5d37e3NznIMOUDaEZXwmUv77T/x74IfsKDH7w8ofiCvf3JJabNxVP8eIryxL2tnvTkJy1PVfjYo2CbX58FYX9gQ0L+Ge94kkmL/7RltteyIbziJn3QlVRdr2noy4YKE5vb4Dnnb/b2lMVNCBpgrsfkAq6tETSL32gHrtd9gf7kNl8y1/THqwIBx1ppw9JTS60NkCc8nhS4JksFL/lBdkAbH3Q7bz3qmwAfkFFTQNlMQbYmxENPsWxs8Js8QbriDxzFIX3xnfhwswHdi3N9AC69zPc0gy0UZrLwoSclPoNALjHTPHqlb/bV9Ll2hM8G8Z44AC38o3kWQIsNrQ9yenpXPpafyfpN3/RNS9zJ23jJI/hnF0ctWTTnaEffetBc8xP7KPpshFd5ja966gc/+vQG5ndM//TV5xw/8rkmCx/xv9zspk9cil15zasnN3LiMX3Mq90TcPfMeDtsiUNhQcqgYBqF0SiVIRxdc0AGdQ33JGWNCxCGbBevD5i/JO3bF2h0HCdNPL1asOP0KMxi8EjL+zm7Q8HGcXMOHvFxxEs7L6AZLbaRCASBpxged1qUjs9//vN33/iN37gsTosBbno7ZtfkuFx5wNQToMtGyRi4zrYAP33uUn3I0QYEPh08/s6eip95cNe+0CdJ0cujRY/CJWc+sCjcvblrVOzxo3sJjJ08CvfIHy+L1QYEP/7DUyGYdsFPjGgWtcWpVTSNr0E/vTQbLB9ycxfJDvhbyOKHDwF9inew1lczppEzXwaNm2ettKaSj29sxuDkH7byxMgGBE2bIps5crGrGDI336Elttjbo2H2RpOtbWTYDW+2YSe8mgvQ0vBPv9YMXOC8cXM1G2hPThwVRk8M6GaORlf95vEj3u6ebUTdLODhMbH4EidsnnxbLRnpQT+0PEFzDuDgqcAm7xaIO4naEw005J14kD8e8NiNnGyukJCRH8TmM5/5zN1zn/vcO2Lc/Ir7GqLNbuKzG431Hb5x8+nkaI7mCQx/0ksxw5MMnihWQINoTdCHtniLruvAuIY++chmnNyN48EOnoCSQVzahFk34lNRJ083V4A9QLED0hGgqaEPp7UbTBnOA2iRQS4is7zsplR+Ie8LX/jCZQNCB3mbDHD5Gs/sgXetvoCc8JMZDXHDt+JBThPf8ia+aoANCHz04nMIJj/6oI9fNtPQcGNrI4wP+9tIyWnWvlzL18G07bWGgxuQQyagLIEpmRKUbifMiJ1rFrQCVr9zScn8NeQwi1rzeN8Hl+JpUaLHgIKVYzlhDRaUzQunCya7XItHv+DXyEImgDY6mj604To/KRjWABddgLdCSl/vPtGyC1ZYvfN0jp9AF3ySC1w2S19z1u00ecybsL4G+JLP4mpBkgFterOzgmenzBZkc/eMlqLmTgco1r03Tza0+TC+5sNRPN1987u7WsnJO3Hjr33ta5eEzxbswsd4SqJ28xauuxU+bJEB7/w99u0dOhnQ8yjVZzXMQQ++Beg48SR6eolH9iA7OdDDWwzyIZkVJXTpSLfiG0x9HTW0tEOADtp4iGc6kwlNj4nZjHz6yCs24BgjG1sBsnvEyxbFNH947Gr9mOfOS4KVjGzI6aGfz0Exmw4gHdDTgLhkPzZq/Tomp+LcEwEJ3mNmPiePuMJHzNh0mufpWRsV/YqYuSV/tmi9OieTecnUWnB0TS43Hpr41Ucu/mRP8mnNmUBezU2LV0NiH09rgX+KE2tF89SJ/OiTVYwmO770NebIzmK3dQ3wR994uslncHyOhp/Yhb5k0OfDivQo3vjcZlnsim989PMR/9IV3zWkO9wpz9a1GHDOB/SnW2BMbrWe6cp+8oP8JuZcmwvPuSdCZHMXTjd6o6ePvp7oOM92ZC9m4OrjY3rTz/iUVwP1rYEcbIInm7I3+flSs3HO3mRAz7V58XLO/mgY0+ILmmM+HGtV4zs6WvPiRB1gIz7jc/ThO+fPGSuBa/0AD/Jnk2Sw1ry6lm/FMB6e6IhVPmA3uYx89wa4pM0G3HV5XjJsUDAwmrsYjqO05GjHOx9teQdl8bhrprQPbnncyuGHwGLiJEYTfN5rKiSSisIiSbgmw5Qr4CSOtttzVyWxueYcf3YmIZG5IEEjZxdsFtx6p3gawFUkBAS6bGPHSwfvtCUxdwn4WswCWSGmh2Dpzst4eqEz20lwaOGtAR7eYOpnMUik7CvR+cwG+QW6JEP+/swMrmv2tWAlHoGuoLAhWeMjKUskEg8f4GGR9UTFXP7gU3zs2NnB+1m4ZOyxobt9i0qi0seXHi06FzeuycX2YghdMqALT8IGiohCJT5tctwxALKayz82N3S32J0r6GiTjc/Igy+dph3pbQ6cdYIK6E0mfHriYiPBLhIVfhIt28IlLznp7mmBRCKmxaiCyb5kwEtz7bWZtWetsZd1Jwn1uQzyW7P4kXWCMX3WQfHomkzeLbOrNW4MH0d3dtY+WdnTaxSx4jMdfFGhYRMy0IV9+V3z2gugxa5eL7R+2Uk/uWrpyr/0scGiD1uaL67YwecRrHtPCJobtGbYXax58kJOce5Onk2tBzoax6t4kp8UTfqICXqzt3jwVESxs07o2OZggnno04tt+UZh0ty0/MiP/MjChzzWjvwAX34TE+zCtz7/Ie7pS29PRhR452hvQbYjQ/zRzq76yKvpR0+sGQPmkYEPbTjEsJiFxw5kZnvFl/7WJr2sH7jWtmt+Y0O02Qh9dMW2JwTy0I//+I8vdcUYu1jH9Gb/8wC/kYNfrTU1SzzyFR2dW2+eeKpdbMGX1gCZsgcgS63rjvRGh43ozz7yqDXLV/kUbTzQrB7BYcP6J6DHp3yFrjWEj3wg5ukl5sigTrKVfClexAf6ztlh0oa/5nWt4PAt2h5KmwQUHCUvi7XAtigZ1CKVLASMMYtDQZKw7Mb8+aKEIglKJgJPYOa4CYxot+w1BZ4Sk+QviXgiAtqRmk8eCQyufg1/R/LY9NiB2pBwCqdZJOZyKme38AQa2dCCg4Y+YJzMgkWhMqZPYx/4nBstMnk0K6mRwSev2YIdJAkFUEDBN898AUKm6Opvk4cHgE8mMugnK1uY61wfGwJzyGFBtcABXP38Ryf0zPHECH1BzVYlVu8U8bD46ZAtS6AtjHTPrvh454lXdC0W+kuq4skn8x0tKknJpoys7pThs1fF3yY020hSaPMxemTyqogcNryKHl+iJQnQ0cJEE+3+aoOsdDRODrhtBPCGK7b5iw3gmYMum7EfP00wnx+y7QQ04ItxSbQ4TSZ2VUj5l/xwJU6Piz2uJRdd4Ure6LNb8YeezQo7wLFuPImQ+G0KJFy2Tg460GXKiQbejnA09OktmbG3gsMuijNZ+3wO2grEC17wguUa/+Sw/q1NOaOYFoMSJZ1tSuFZr87xAmQVP60/Gx3yigNHcY+/p2ro4MfP5LNBk9TNpU8xOkE/Ob7ma75m2VjlC/PlHPzZSTwDvpPfFBLjZOYTPNmmIoKnGGUTc9EBjsUIGwE+tnGzkbKm5AvrLbspbHSNjqLmMbuYhsvH5FbYJr/sgz4fArIB9ocr7tOt9euYvOVYNtBnHJjHd2jI9eVq64b95Hq4aLMZ35ODjegldujGjuijDRddn5PDr5yTT+hHttaWI/5sSU595ukTJ2J3xomNqNdk7EZe9MnLd3ypPsBnm2gG7EZG8a41Bh+Io2wNz5F93MyRh850oItmIyR3yqPJbd3lC6DfXHGJDxnwkdP506aFDdnfGDtb+3ixm6Y+k7dYZJMAzeS/1nDdD9zyL2/7nE9/2O5THvaQ3Sd8/Ad3H3u/fQK78YZlZ6L1c/wSP8dzDqOWPCiqSEmEnMFIAonRGFa/uYKQ0fSbZ9FVWM3jLEboaAEKXgnIUwW7UE7RGFyASrLmu8aD4woK14qLnbVr8+gBlwxwOUqwNBZ9vCUt8zmZTvjQAT0JDk2OLNDYhX0UB/iKX7LSgR3oJWDob7657iDwc6fozlKASM4CsTsPi4JNyWsuOpIRu5iLD1uyEXxyVgj0uXPiC09f6E1/NAQsvooXu9GDDgotPS1eSRktvHpCU6HLnnSBS5dsjT4+Gjz8zWU7yYZujuxPN/aVSMyjg8b/cIAxPPgdD3a2eOHQk12SxzW/sQmdxCh7kZ++5MNfvzn452f4YofN4aALyMGW5og7vmBnNMnKhvjRhw42EWTUT252nwAH7/zDLmKoeDSOPprp0RosqeuDV8JU9OnAVvzHZ609ugAxR3b66uNr/PkOH+No2RDpJ7smHsULnfDnB7ZBm03w5EPxYp3roxOfJy+65ognNhdz4oNt6WXN0Yl/xRdfsg9/ko8ccK0nY8Vta8IYXvQuV7E7WYzzG/ugx/Z4tRa0ZKa3+eUrY2xFZ3ZD03y8+NkaJANcejriw5bOxSnabDjXNl74OLfxoDc8eUecFg98aUPmy758kPs7vuM7lk0k+eHZWMLNtvrzNbuxET+Tk5/YvrXGjhq55Z5sn03oaR6biyU41j/blAP4qFgjhz56o8Xm7I0fHuKBzPCLX/Zxg0rGv/gX/+JyJy+W4Lnp4I/0Yh/8yMAfchq+aKDF7nBbTyCZW1dygTk9eRE3aPEre5OZvOYr7OTXhwbd9FsH9KGjdQM/+YpPNzJ8zX740EfM5B/+4gsN3+xsrk0L2niQ1XxHssDnW/jWqXihG1/TVTzpIyN5+Il85DfXOhIT+TlIrmsJp29A9s13FlCEwoCghBdkzgtCoF9w5mz9ig8n62d0Y+Y51/SvIcNwNofgbR58TjGHc/Ux+BwngyCDRzZH/NCkh3O4zS9xmOe6ICWzMc7Dr/kaPM0cgA8ZzIEveAC6+ulBTpCNogsHzeaSC45+cmjpmx7RxRcYT1eQbHDDm/OBPufZwJg+cmiu6YE2+ciPfjyNA3PTydE1MB4OME880IdMIP+bU4NnHF4Lll0sOkc4YoI85E9P8/TR02IrVrKJo3G6ODcHb3jJgRcc9I2nC3BtLHy45NTHhviiAYp5cmQXYA46QbpmF7j5zjH7NY/cyW9u/Y7xNw9OsUM+gGbxBS/eGj3TC73kyf/ou9aPNhogXYyjT9/8kW0czYFDNjwcsy058k06oeFcyxaOxpINr+jEM7+KGz4gZzjpHW20tEAfOWvkMc/8WrIA44qCY3YwNn0IsgGQ+I3hle2dK35kJ7ciBMoPNn6eGv7Df/gPlw3IX/gLf2F5ksA35irqbBKd7ET2ZBGLZNTv2phzPEE2dAzga+gWb64nrqYvH2t44UG+fIRXtNjD+kITvkLpT/M9UfvO7/zO5WmrDUF5CM6UK0CXPdGDB9hMfJkD0netG97msJ04kVvIW4yQFV0tGugmP/rZQv+kbwwOevrh6ROzjTUPP0fX2ZFs5urDrznOyQKfPPGKbvYG4qEchA6d0s1cDa1gnl9LWDYgn/3pD91vQD5x9+DVBoRIi0n3hil4AgLPtgb4wBiDuuYM185zbH1A/zwHBT6jN1cfo2oALX2THoc4n4bOmcDcSTPn1k6CZJt49QXRxGfSXPMK9Gv60gueVhBr0XOeXcE6oMJf82ErzViBiEcQ/dMgvuAs+JcD5LK48Mpfa/nSsfMJW/1bsjbeGL7FGNufBuYXf+YcgtPkPAnWMp4G8GtbNqsls/Og/vPItQZzD42VTIu77NzaBc3tmn018VoMiwc04EqswHn6dB5MfYxt6ac/QBtObY65Np4ujZGPXIdg0nBeo7uC4cmAp29AQUHLhsTrAt8067MQX/d1X7c8IaDz2rdgi8fEq6/z9FvTAcbpN3UMd+0v5/C2cu8hsL49+fA5D69uvuu7vmt5BeVJBtuSe0vHIJmCrqff1zD1CNZ96bzW8TT65sDXtvhsQXggHifpPGHNw3W+So5aEI/ZN8+vJdzwghf/3176CQ/8uN39H3Dz7ub7bvwYneNeOF/Jvhz3YxnnkJEyggbmHLCmM2Hi1GYQ1Gdu0PWkGX4BAcJDb+LVkjvcLVg7N+h8zp/yBJ13nJuI8CdsyQnWxzlv4qEPuk6+Nl+uLXTn7LLG34LkBYfwTsNp/CQ+ySSRTZ8F0xeOFanpg/CnXpMGWPc5n3ZfA141EN7EJUNyAGNzXrI3NueuYeKfhgvCh7e22ZrnjJvgEH1z5/yOswXw8sXUtWNgDhmmveH0xCD59EULjnhYxwaIxlabvF2vIb7Gkgc/eoQPZ9KBt5YFhLfVsocWL+aMIoEAAP/0SURBVM21O9Y+U+LzTD4r4bMwNic2Hz7n4ukHXvFBI/kA+ta0MdC4pq91ormuremA2dd58nZtLp5gjuUr7RCQwVMfT3lsRjz98BrBk5xscoiOseKE3Y2nVzKA9APRWdM61IcOMD+bhrvGJ2dPYswjxxrWsjg3L1/EM3uCNR8QDdB4tKNT/9Zx3e4puOH5L/7Wlz74QX6M7mPvtgEJnC/tDEJPw4ACQcuoh2isr8FJeGtjzwbmcX3eNVhfz+A9BAXmhOZEb4tG8oKO6bHmu6Yxz9d0TporuC2ekiNwXuDDc51Ocy6YvIBzfZ2fBdZ4rmffjA2wtskaH5ijwQkfjusaaN4hOltwCG/qPccP4YPGGt/CTf7ZJrhuzhqPDRqftOf5Fkwaa7zmThrr8y1YjzfnkB8baxwk0/QhmLj119d5NIDzdVwF6+sJ6K1p1Qca09ZybOHMdtJYje4KsKcAPtej+csw3+fSZxHCBcmwhvxqfMrZsdb4ITrNAXNe/fO4bodoTiCnpz0+m+QzHT3diUY4s9UXj/CCdV/ns29NZw361vjRrX/OdV4+KteuaXRd3zxqU+71cfJynP0aqH8tZ7C+vqfhuv/11e++7eGf/tDdpz7sE3ef+KAP7W6+343LKxjmS9Trb1cOUGAqu4bGgnD0tzPVXJ9kjEN0JsDhcGONTzzjk85J/IyFP+mtIXonjZ/EZ2s+u2g9lTgNogG28NcyuLOwAbHIAZtZIPriOwN/wiF90YjOSfPWcAg3P5IDkEv/IfpgyhCNQwsvgHdo7CyQXtE4dA3WY8Eal9xbcGge2wT6zEfrLPEz5Zt8szs4jcaEQzqeBOYkMzC3nDBB/yG60WjuFqxxJv2T6B4aOwnmvMulAcjr82JoeMrRZ57OC+Z7OmBtaFcK6Gkg3aaOl6tzck7a5KVz9IyVD7TsYXzinRfQag2s6Ux5QLxda11rzXVOTtfJeB6I/hYYA+tx8k8d1nybN+EQj3sCrvv+1/y/bvus/+WT9xuQT9p98gN3u4+97z7o/RaFwUs4d3kasqUQOItSGdjxShwVTFlOctxZ8CZMnGTuPIcfKowTF2zhTJrgJNw1hAvOgg/M0bJ1/Ot3flZawZrmlQJaazgL/eRfn9+TsKXL5cDUK920Q/TPontzD9E5C40rhfhOWSacVQbzT8M9C869DeSX5L6I/HgR+kcruEibrmmDNf0tHHClcmzZaPKqX99pOGDiHcK5EljLAeKzxaPNCZjjFyXPlcL1+9S2u20vy23XObsTiFebsBbc9VmVuVoGuBz+J8E6cDixu07Xh5LCpO/8EL91/0m4J0FyOpa0wDwHaJN5JrbZfxbe5sUHmHOWeWeF6M12luQLL5jn9yRMHbbahK3xWnDoet3OAhN3zp39Vxvixb/F32xnhbPgnofevQXYpKcAVwLntedJEK2LpBmsaW/R38LRrhS26Mzr8ugWzmlzrwZs0d+SI2hsjh/CvSdgiXAmvrNc3Xl2CFLgchUxz+Ly6M0HkPzJkNcBZ4WKYfwLkgnhBFuyNn6aHm1Aoum6tgX0opPWh6TOC1P+eb6GxtivVyoavj4Q5c/dHKf8lwvNj8bl+v+jHbLbee13tPcRjnBt4CN1rd3b9Lr+Q3t53Nsrpft7/bs89TipYB1S5BD+Gsz3JSq+YMenvv09Nojnuin2nQdnOQdXYvQ1Xe9nfXmQT6W3adJfA75wxjfPac6vBNb8t0C/P32z0bDp8ZkPX8TjS3x8O6Pf/tAHLtcW5nXHeoQrh/P64Upi+AhHOML5wZq7knXX/Hty7U4Z7kk5DsH1S0k7Qa5DRe8iwLfXKZD+zEyhPomXsaspyyHgtIqupzVk9ZXH/mysD4vVeiriW+t8zbjmvP5aMOdcSSMHudjS9wXYGOmzAfEVzTZCPYm50iAkc19y44j/EY5whCMc4Qjnheuvv+Gm/f9v2O1u2BdaxXa8kJnFNVifr1v9E+bYBE89fP24Yu4bBcM7rQHHsxa/9byT5hpbF2kbEH0Krqc2CronDH2pWTRr6eULdnxNdxsFbY27bmfFm40cvk3QV1mzJbDh8AVGfstCXzTXUF+01lB/DS82QNOToD4bAybeEY5whCMc4QgnwfU33v8Td7ubH7C7/r437e73Mdft7nvDh3Y37T64u26/CemRewVZYVFwKmbO3W0rdo76QUUUhAdnXZj8iZmv0tV8TSw+5sGPz5pW5/h55aDPvLlp6Lq+KbOjIrp+JeEYr7WcwIfCyOnHw5761Kcuv/XS3+MDczT2guvv2Pt6X33JPe0JsnENwHWOTh9Gm9frho+fW/drpH5Mji3hO/ouAX9X70800z9wPu3MpmvdjbNXODZeb37zm5cfcbLBmpuw6bfssaZ3hCMc4QhHOAK44c/8P/6fL735Y++7u/H623b3e/9/3920P97nRj9UdOef6SmYCouC76uC/QCTb+jzJMDdvvG+8z98uF6r+MEfrwW8DlCYFEIbD6DPkwLFWiH1WN+rBHfzPjzZ9+QbI4tNjH4/EOT1hiP+NhN49tXEcPEy5qmAXzv0g0aKJbn6obNkhqvPnT2a5HWHrw9/OOib766fDH4UyJcFVdgnoKM4AzqY55cW9dNRH5pkRReQyzibkJnt6AtPoyPbk8+TDePk9KoFHbL2SsgPDtHPKy64frSrX4OFRze80NcHj17ktGFibzYhqzE/bOSaTr6hkT3RJXM+Mi4u8AV8jE76HeEIRzjCEY4w4YbnfetLX/r7f3jb7vd+9z279/3ef9nddOMNu5s/7uN216mpYwPShsIGwU8o2wD4cKOiqFD1i4AKmjtpBQ6OgupDpjYaaPRkQHFSaBVUd9Vebyhe/YqozYMNgoKoyClwiiQ6fs7YPDzgmaeYzh960qdA+xEnP0fs2iZK8VVQFWsyK559hgLvZIJHrvhrNh50svHyq5j0oM/WBgQdmx6y0NsGhL3I25MRzTi6ZLKps2FT6BV4NmFPerExW77jHe+4Q29yGicbu7RpIRt8/G0gfMOgX9u0waCnD/7Czb7syY9ksXmhEzr5m/9stsjvB6PImM09XSGfGDGGL5r54ghHOMIRjnCELbjhNx7yF1/6v/2L/777lV/9b/si+N9219//Y3ef8CmfsPu4G67b3bgvKt3BKkaK75ve9Kal6D3ykY9cXkMo8H7JUNHzM8iKmg0EPI/q/ayw3y5QwPy2gc96+OlhTxAUeUXrbW9720LT6wOFUkG2eVCUFTO0FXm8FGC4ftba1/baPPicgyLqa4oVdxsN1z/zMz+z+4Vf+IXdk5/85KUIK8h+UZIeNh6f8zmfc8dG6BWveMWycfKKxRMDdBVaeqPp9wlsSOj6xje+cfnBJL/YqPi3AWEr9PDB4/Wvf/0y/oVf+IULf/P9dDb90KSXTYENAb3wYxs/ae7DqzZENhaeXuDhmvzsy37sxbbsYfNiDjx9npi4Nh9vfTYQt9xyyyL/l33Zly1f70zmd77zncsGxAaST8lsvo2QzZtNyBd8wRfc8bPs/OLcT4Jr/QQ7XvS3+bAxOW5AjnCEIxzhCIfg+t/6/71/91u//aHdb/3Oh3b/8b++Z/c7//N9O2/1ldQ2Hwq6O16FVVFTqBR/Relxj3vc0hRU+O6KFS53woqUDUWFShH0CsDTAEXYHbfCZZOi8H/+53/+gvdFX/RFywbDX5so2GhqNiOKKVy8yeAaTUWcfDYONg2vfe1rl+MTn/jE3WMf+9iFpnlkJZcnCPjTjdyKMd799gL+NlSediisnmIo9HDNsVkxv82HscYVYRsJGwQ0s5VNi3ObLhsUcmuu6fqwhz1swTPH5oiMfgHTRo298ASe3CSv4s8fNjJkZCcy5TtPUTwFYce3v/3ti8zPfOYzl/k2Ma7TZQ36zO+pBl7s4tyTEv7UR1cbEzLbLJHvuPk4whGOcIQjnAT7knnb7oYb98Xzput3H/zAe/a7jfftblh91cMsUjYMioti66mGgu7noW00FEIbFXfqCqCNhSKnYClS7q4VtJ4CoKf/CU94wu7xj3/8UlDheGKgKfw2Mwor/p5C6LdBcIet0JPBpgOepytwPWn4+Z//+YUv2Ww8FEcbgK7Ra8Ng8+SJAP500IeuO/k2XZ4I0BtfTz7wrtDPBhzR9OTFB0MVZXrhz142FHQjr+YVh9danogo6D0doRdbwWdXdNnA5sGGypMamylPndJF65yONmFo+HNcn90gx7d8y7csGyH2oQOdNfq5npuq6Nlg2JD1qo19bEL0GRMXbMzn7HPcgBzhCEc4whFOguvvc9sf7T7mQ+/b3fdD79ndfNtv79sf7u67rz9zD6IAKXyeUCgwPovw8pe/fPfWt751eX2hILl7h+cxv9cBjh7VexXzyle+8o7XIT63oOgqroqbQqYQzoKluCvCCppxTwK8MoGnqPq+i5/92Z9dXiX01xhowQEKqOLolUyvB0CF1LVzoHjbJJlDNq+DyIy+JzXAHPQ9XcAfVJhrEyribdQCmy1/lUI2NOHYhPWEyVOct7zlLcvTGxsomxRjNmvsBZ9d0EkHtqI3ecCUy2aML1796lfvXvWqVy0+ssmyuTEnPHPoZXPoSQqegGxtPvU7wo8/eYA+cqz1PcIRjnCEbZA7PHX9cGyX8t4Rrhyu9+e2vgH1+qW9f98+eMcv4faqQYFS+NxxP/3pT19eaSik7q5tKnyuwEZEgVZYFSuFyBzFXVN0bV48AXjSk5609AH08cFDEQMKGTo2HPoqgJ6s/PIv//LySsGmx+sAmxTNnT2InoJNnvoUUjwqvK6BomsDY+OBvjt6cnpCgCY+8M2tIEdrqwF8+8ucWZCd49+GgU4+WKuYe51hg4C/Au/pC1u96EUvWp6g6DOHPbR4bUFj9LZ5QcsTKnLbzOFpbMpnM+Fag9erHOfs6ei65loLmnuEIxzhCKfDh3MRP25ALgrm947tDzfsm63Ifp9326UC0+ZA0VEovb7wasFrE5sKRdtdu6cF7uJtLBRLzesBn2nwuuBRj3rUMu9Zz3rW8j0aCi1wl+4zBgpehR4vfPU7KrjOfVbCqwRyKag2Qr7/wgYEr4oiOuiRR8FV6Btrg+IcKMY+8OpJis9jeEJAN7RtRPCGD5IvOHQOH08yxItOrm14HMnhaINgw2XzQQ/20jxtes5znrN7yUtessjUhi2YG4d0maCfTDYfdHnuc5+7bOg8VfEECd9wkh0d59k/W2n6ZoNbfzDHj3CEIxzhMHw436x8OMt+74Lrr7ttX4Aune4+cN3Nu/ddd5/d+/abjz/aF1Bg06HYeKXir1BsAhQmfwXzFV/xFbuv/dqvXT7o6cOaNiPAkxIFUzFz966AeqLgiYXPUCieFVCF2hMNf4VhM4KXVzQKpY2BQuk1jM2BvxIhhw93ouv1iSLuz1L9pYb55MVDMVcg0XAEin/fMdJTCJ8X8TkP9ND12kah9gTDEx5ywQf4aZ7O9BSi4j3BhsI4mc2tiNsMkZW+ZEHHJs7mim5s4pWRDYgNG5mM44kmYHs86Rn/9cYI2ASY5ymKD53azLzgBS9Y9PX6jB3pSE768oMx9tSHJnl7VdZmwxje5Jk8jbWx4sPjJuQIRzjCYZA71IAPx3b3nH+Ey4Mb7vuo73yp7/y4cff+3YNv+p3dn/jsT9x97sMftnvA3sY33b5RUHwUU0Xr1ltvXT4Uqdh4wuADlD7roXAr+goofMVbsQXwFP5f/MVfXPoVRk8s0PMntDY15ihoaP3zf/7Pl+b1h9c1nrookH23huKHps2BDYY/78XLB0ltcmx+4OOJNn7hemWEhsLuyQDwIVMf1FQ4NXw8JfClW/6c15OQRz/60cuYv1bR95SnPGV5aoE2mMWYfWyIfuVXfmWRw5jXPHh7guOphA+n2mgo/gp9mxybAhspMvTB2v5c17XPprCxD7T2isomwV/VmNtnZ9CgPzo2Ml/8xV+8bMzwYgt+7YOkeJvP5mzrqZB5/GVTiQd9fQCV322WbDjZ0wdO0bHh4Ev+ZadkO8IRjnCEIxxhC2741Kd8x0vvd+OHdh970x/tHnq/39t9wcM/cfc5n/mw3QNvvGHZgCgsCooNgjvkN7zhDcuXZClEiqMi567XX7H0KsTGQZGzwbBxUfQUfQUN2KwoXHD6ojKAl82AD07aiHhdo1ArwEAR1nxYVKFTeNElT5sVn6VQVDWbAJ8ZUfDJoaj6oCd5/fmu1zeKp2KtXyH2NAJvsqNtnldICjg72JgYe9rTnrbI5SmGDcbcgNAhXuYoxJ56kIXsz3/+85cnE+xgA+OJgsYONlaejij87MMmXjehj64NkA2RzZMibyNBfk+M4Hi15a+E+Md8myE28ZczxnqSYsNmQ2LDRj6bB0+40GMHNmU/mxp6ktd8+tig2ITZ3JGtv3rxnSHm8gVcT5mOcIQjHOEIR9iC677zH/2r2z70vvfsrvvAH+4eep//unvcoz9395hHPXL3gH2d8gERBdDmQ+FRnBVQGxFFT9HxWQ/Fpj8fVUgVeJsTmwQbFPMVObRsUNxJw+spBjzFE44+vBRXhVbx80QDTbgKp+KOpuLtr3NsSowrtN2RK4SKuMLcKxOFnfw2GHC+7du+bZGdPjZC5FC4FWZzyGsMXU8RAJrme11jLjnponADc5LTEws2wot8+NPTBsHTkz7XYZODt3k2VXRDk35w6AjI4rM2Ng1egdEJvfQiO17G9dmwoMveNjt0YhcbKzYkQx9O9VSDbvyKBr/ShdxkaXOJp/k2SzZVaPiwLjnZxabDOZ7HDcgRjnCEIxzhEFz38l/+L7fddN37dzdd977dx1/3h7tPf9i+WD3sk3f329fT6/YFSBFaEPeFzrnCZpOgUAJF0sZj/rVIYGOgaCpi+uEoZm1GFD7NuKLrqEAaV9gVsh7lN65AeqKi2OqHg7Zxxb6nAu7g0TKn1ySKsT9vVfAV9W/4hm9Yiipa9HJnT682IOjTwXk0bMLgtvFQZPGdentqAEejZ/KRC012QNPRGBnJ0Dw8s1U8ABy62xyQMUDbho8t2xTCZSt9aKBnDC4+6JCB78hFbzQcyWgMX/PpgGY2MZ9t2SKbo48nWubBdX6EIxzhCEc4whZc947fev9tD7j5+t399+1Buw/t7nfjdbv7aPtB5aMCehEwNx2KE7q1xhVIR+PhuFaUFT8FL0g2c9rEKH7Oe53hurt8T0Ne85rXLAXZX5n4q5zu1PFSWBVRmw28JuAFkj+5k3EN8MODE+jHQz8ezZ000itwXQPRnHIEzc2Oaz1AOHMefPTWm6mt/uQA8cr2E2fSOcIRjnCEIxxhwg3P+Nr/+0tv3G81brr+xt2D7nfdvtDsi8b+P/fcysdFFREFSSGbbRbC2SrqWgBXf8V8Pb/NiaMNiKcZPijZh0u9XvBBS+A1jScI7uAVzu72zdXiD/BI9qDxibeG5EreoL7mkhX9oHkT6quZa465XYMtmwJ9bRL00bGxwHUybUH9jlo2cW5DRZa5Sel4hDsh3xzhoxfEQHCMhcNwaK0c19DZ4cPBVtf/we+/d/fe93xg94H37wUm677duUQuHhikQl8hnEbqet3XxoBRFdIWssJXITTeRsEmw5/+etLhNUuvEIDXB14NeeJhjicizccHRH8tx7qtoU0A2BoHc25F/xDuhIkXjwmNb21E0s35GuCas94MgUkjvHCSHd2efhif/jnCEY5whIuAY075yIPrP/C+9+4+uL+Dve1D+4K196976bves58PtoJEn6ZAVQhrrs8CFTugyAHXil3XwLl+GxC/G+M1Sz8wp/mApTk+a2Hj4XWLjYk5yRefCY03toWTnls2WEN4+J1kg0lTm31rGZKPDaaN0M/erqMDosUmhzYOa9vDA/V58tEmzvzpjyPcFbbse4SPHmi9HePgdJBH1nY6yW5H294JHy42uO77Xv2rt/2xT3nI7tMe+uDd537KviB/zL6I7QeUxLuX2MsHBimgFKoa6HhWmMad9LrWFM3ONXf3PhPisyGefCjGNh/+eqc/890Cc9dwSF64dEyek/AC52fFBfD0TV5zgwDaAGzRbe60zwT9J4HNhw+qeuLRE6UJ0Zt89a3l+GgDNmA79j3Nxke498LlxHJzigHn2jEODoMc1uf+5BrAdlpPW9nzvHBe350VkuVq0T8vkEe7t8fYvgrt72Y/tG+37YvZXmBPQZjwSs0ogATLDJIWnWOOuhyHNV+LXlBf510LWhsOHzr1SsZ3g5CxYn0SwOn1xOR1uZBctUMwbbcFJ9E4ie4cmzROmgPYgUxsKTEA11q2nNfrsY9GyA6dWxPTNo0d4d4HM3ZrlwvROvr87FCOqY5kt87PkrOuFdxb5AjuTbY5CfaVmlM51OJYTi+1c8IMEOB8LjiNQWwG1puQqw3xB4pnO2hPQuyyGzsEFoAPWkZn3a4UtuxwEt1sV1vDVl8wx07CW8PUtw+bVkz9ua+nS5pz/V5x+ayNxsYlkY8myF5sxAY+GO1Pwf0JdBvajzabXG04yZ7Z+zw2h9vTU7EsZ1zORiS+c641UTuPTB/pwBbyizzNNv5YQOOHrZx1njx20UBWMpbv1Inq3rUGvMnhCXV/aXlvhxue9+K/8NIH3f++uwd83P12D7n/Tbv73GhzwKm3Y5wBGFtwgPXThxzRpgPomw66moZKjmTxXRecU2B7KuJpyJQvEEga3eAXWLOBLfnjeRqchhOdNb2tvuCkMTD7J+4hfNB4NrTRYBd3Kb6QzKst373i2qsZX8Tmz56N+dyNZHJPbDyDk3x1Eph3ufKmq6Lly9v6JlwbEK/9+h6Yy6UPrkS+4Kw0pj2vlOfVhMuRbWuOPk1S982/vihQHui7ic7KJzrsV2HQFAqxYR3Z1Jc7J1yEf9dwNWheFBRjycfmfSs1m/vrxa1cPeEk/eq/KBuoCfzoiyx9mWO57jzxcRFAn2zlyEa+4+kQnEf/s+JOvLPOueG5+w3Ix99/X4Q/7ubdgy9zAxJgiHFfFtZvsShMFtn8oGLg+iyCXgkIEgvfDpVz2iX65k5y6u/JiESwBji+OdRvpSi+Cmxf7LUlf9cXodfVts1JkJ8KJke28qfNbCLILTgbDQnaN6/6YjjfENtvxdiA+HFCi+FQkr1WQIfz2JO+6X65YG6x41ts2U8B8yFpcSTmrhSuRL58fBYaE+dKeF4tOI8uazg0Rz+f/dN/+k+XJ1gKixsWucz5eQAtzTw5qN9OAv5Kbyv3BIfku1y4aHoXCVM2OdqmXXOz6BudjfO1vH6SHltjze38cqD5wIZUvfO7YW4wqg1kvdabEHnYz2fIueKpb9A+BOeR7ay4E+8scy6kGmCksHCMheUryBlC0n3zm9+8/NS9gtT3bvQk4VpAgdprAoXTN6HaSNiMKAp+4M0du03JhPQK75Zbbll++M71OvjxodshmPqepnvjyX4a/gS42XiC/jWdrb4gOlp4mjs2tnJHIjHjw5523prz+noKggY7zs3Hmm/0wXl1Pg/E5yz0z4q7Hk9+je7ujCSn7kwkJ/HotczlQvRrVwLmr21+Gu31mLhQoMWFtYXehJNogTl26DyI1lacnHYNtvpOAn5SCN1Q2TC4Tj+0ahO2eMgX3R2j4a7ZbzXJS+JkDVt0rxSiN+k6P2TLxmrlg7NCNCacNH+dU+VkMWUD4kY2ObfaGrb6gkNzwJYt1mA8PDKLDzVCnbPO3XCfRuMQXM48c6w7tbc8DE7SRf96bKtvDeFs4Z40tgUXdjvKCZIq5V/3utft3vjGNy5J1xeAKUQlX3cOLULXM+CuFjBExY9j2mgoBDZKfmCP48g/DecokIz5ZVv6KCY2WRzrqUpzJBT9zum0XkgWbsHQ+RqM6W8MHrr6zwrm2hgoCM3TR4813/rX9JMRDcf85OhJhh/m8zs97gTdtWn8qjnnW3h24e4G3PHPO318tfg6kqN+NmXbwPjE7RzM80MQDtr0Qds5MDZlmUDf02I0mScPPksfvhAzYujLv/zLd3/yT/7J5Veb3cmxy+VAMsdjS/azwJxXfATOK7ThzWO8A+vezxz8+I//+PKjhnzY+Bp/8gX647M+J0fXzXPNh72+CPS7Dm/SA/xYH5jnoHmgc+POe+KBBr+51o8fWbZial5HL0DD7zn5RWw/jIneGsxJ//NCMky+ybTupwNfT1sD59lZ41M3kXDPAuhMvwPn+MRjyrEF5mtyNZvlA+ty1pB8C5zjU5v9HbUt27pu/Z4EaKJBBrlNLvQHDvKep8JkJdt5YS3zSQBnNrmXneRd8TR1mXQ15/r513X0wj0EcNituTNmHBtzXv9JsLyCedAFvYIhkCIsUPtFWgHLIB45K1oeURFsBsPVhIKtYOCQAtkdiF2ru5AnPOEJSyLoN1bMYUivFfyKr6c4dPPlZp/3eZ+3vMMXeHTRj4bdL5o2OIKhxcEuxt09uUu0GVOQtO5+yJNdOA0NO36P773egGuHW4HXyOcL1eDRC45ve+1PjRV/NOF4EuFXhulDnuQDimQfkHSumNiY0YX/8EIL0BUNc/lV60kH2f0QHtuQm87k+pIv+ZIFz7m59Ke3hYoOefDH12sb8uODp4UEx1x3GXRhB+N4kLM7oxY9OdbAVviSSXzS1XyvCNE0p41x88nFHnSziYDPHsYrGHDo0iYbrfA0r6vauEpQ4strKrqjwffmmUNvd3tkpXu6uPbkzpjHq+THT2NXMhojB/vqx8+1WNLIxb7iw7iNuLU444AsZBZH7KqJo6mv8+zjWGxbR/QUq/iVhMlabNHBsfhEM7/2mB0tskmkZANw2IiOwLnYzM58VpwkH17pC1eMNKYBMYM2+ehMLjTFF+ADtPGwdtiH/8Q4fq17vNhBH9qtS7TEM3mtZ3YJh/70IfOhggWfjMUr+5CRrHigI2bTCT45xIAbP6946AbwLbbDEzdigYxo048M2RLoYw96ym/sSV9QHo0nPclJd3T5FS0y4gkHH3EFB+0p1xr0eeqEFnvJz374Uj+90Ceba7GMB1uhTVb+JxNdxBI5AJvyB1tan3QiNz3glGPNg8tOeIkBNMVn6xPgy4b84kc7ySh+yYDP1LG1TC502FAckdl6bYzO5DEHXTHovPVqTC5gh3Il+5LTmJgiu1dDZEYbTroZa73LFWxAB7riM/VrjbJ1+ZAfxTdabKahB8xDo+NJcLcNyE37DYi/wTXv5KmXDD+BAATyC6l+PfaTPumTFgNxgIXri8CcU34t3GmCXgmgTS7Gd87pnOSn9TnXmF+39Z0gikSycCzn+Jl5zrGJEmB+W4aO6HGgBCfYcorA4jR8OAavHIyecQFmnuAQlC1mdjEXHY52lNRLzOjB1SzKX//1X1+CjKzo4YOHYDGOluSrT5GgLzoCtCQvcMmGFn3wlCSiA+hONnPx4EM+RYcuZAWSM7+bK3nQ3RMTcltkCj5+bOzPocWQGMFfkxTQshDJjoeYSVc2ZjNjcNnGMXmy4wQ8yBG+ZGPxouOafdhPMbfwyIoePLJkC3qSqxiCJ+FZnL/0S7+02NYceNYCv4oxSQ4/9mNzn5GxOQdsUrHHQ/KhK0gXsvO/gqKhS3Y0xWHJkR6afvFIFv5kK77Qx4aOrvmU/9iXjfiFDBofszW70LfNCnlc00WjP7vyK9nozi42WehLfOIJX3LGAx22IEdFSdFkQ/HgTpL+ZKMDG7IlULjFunn5jj3JSDbXyURXtiqB4svP8NiZjdDBG02y6qMXP4kH52jxqRjzmSbxQQ7xQ0dykplvyE9HOpFDzJDT2iEn+9CJz/iGD8jEvhPwQI9N8xsZ2UicAHPRo09+pgve6Ffo0ScjHuLJfHZBr3WnWAJ2LCbYjO2zERnoTX65Ei4Z6YuOuDFOZrzhsDk6+RkvNiavMTQcxdMa+E3s84H8LN75DS02oVv2a6NAlvxOFvj5h53oyU7yIRvB5TPz2Ybf0x8uOniJAfP4m6xsKT7IQC9+cXNKTnPf+c53LjrO2CQLPHEmJujDNsUz+tYInfEwx0cZxDQ9NbYiF57WujFrjb3RNpdMcN797ncv9kazGx/rSmyJR7rRi35kQAvQn8xkoC8Z0BU3eLAZuvDZAG004edLsp8Gd2xA7r/agFy/b+fZEsSMUwRDgUlITuD8z/3cz13GtoLtLMKeBpwebNEjT4XNAuJAj8IVSMFQciEfB1ZsBaWiynHw/Ty/wOEYAfzTP/3TSyAINLtfSeltb3vbMkcws4nkfOutt+7e8pa3LDt5xZccP/qjP7rwNlcDaL32ta9dFo8+Qc1eFrUmcePP+T6X8o/+0T9aZCWffvIqiK9+9auX4KaLOZpg86hcwKDtKDh/5md+ZvcTP/ETCw39Egf+FQWPivkOvXe9612L/VzTw6KfGxAyoEkmPvHUyOJmlx/7sR9bFoEnTh5bCmiF5Sd/8ieXAPbV+eQkv9d4NrJsCMjudRk7tvmhm2sySMTsT4c1kEPC4RfyJxdf8A2/kAddjW+9dvuFX/iFJW4scHYhK3/poye99P3AD/zAkkD4SQISR+bwkTXAb4997GOXjW5P2shs84gHecQVG0j4Nr3ip6QpYdGdn8QnG/mQGf/h/3M/93NLLEoc6IsBekmCEgd/6IOPp35y8p8+vnr729++8Ii2GJDMxYFkRh/JBrS+SnQSuNighyed4sVa4V+vZH7kR35kiRG0+QgtthO/5KMnm5GjxMq/bIy+9fCyl71s8Yv1xH74eTLpM1z4iRP8FUI+Zhf9/Iqetca++siBrwRtPQA3Fvxnnqee7Mg2aLKtIx7kVCjEh8+Eof+IRzxiwdXPvuKXL8SYeXi86U1vWvDEkYLKZ+KDLvwAf4IYY1cx+9a3vnXhy6Zs/kM/9EOLX8wjE7lds6dCgpa1KFatO35jY2tWofon/+SfLLaTp813JCM7iS+xxz90+Rt/428s52THr8/2iZHmihPrVS6UG/DCH47YR4df2MqNqHh0rZCJBb4mI1uB4ssaMZ+drA9PV8XHO97xjsV3j3rUo5Y4BnI1ncjHd2xAf/EB+FcfnmJSbNJTv7ogZqwL+ZYv2V/+Ewto4k8vcZd/5SebCmscL/5GU5+Y5Rf0q3v8jr81Lv7kO/SsdzkEP/ZkEzIYs+bRwYv9nFsn9Bdv1jVbl2vEgHG+Yhv5Gy55xR6f0A1PtrGm4JGTreUadrdOzXGuNvggtg2LNSnHiiOvXNGS1+hobYKz1nP7jLvC2eYtgEkNMHACWCQKrICawjhnwDnvoiCaky7+HMQ5nMJhDMdoHGxT5CvbJSaLwgKU8Mxpk4KepCVRWCRtUOC3IfBk5Eu/9Et3X/RFX7TQ5Px2o+jgL3jhWciad8CPecxjFl6SmUUOOF2QCCoB7SipC0qJQ4IUmAouWekjWNC0mVLc8bGo8XYUIF6FaCUAdyH0YAsy0EsQWoBke+ITn7gEvEUhWViw7EkXvj0J2BNNOglaSRAN9C0ktgTosC89LUZyO8Ijt6KFLxA3bZCMw2O/pzzlKYstbDAkAYsfzHgwl67kkpzwSU82k1wsUrqSm31sKCRWSY9PNXKyKVxysQW66POBTQaaziVnvMQCO5pLbnHH9jYekraEJQaTxRwyix++dW5diR+JIjzysBH+mjG21f/oRz96SRTsK+7xx0M/m5Gjux72EgPsKk408a6RRYKSMNHBhzyOYoHdxariqNm0mNPPHqArRsW04ilG+Y1NS7TsopDgyy/sJunbcLI1XmRQJPBCuzl05lN+h8MfNl78hw568PiFzfiimEt+cUAuNEvy4pbv0cG/nMVWbMZ21rb1Th8+RU9MiFlz+BXt6PMLGmwCyE0WRcncNcCT/PFStNgWDfo885nPXGRFA9BfAYavEIgRjU3Jxp58yBfiSvyJKTSKJ3FB9zacZOMj+eTxj3/8HfmFDGiys2IFz5qRG/lDjGlsb52jIRZa2+aLLfrJZWTmN8AOa1u4Rp/MCqzNA73zP77WSX+pJD7YnO7WIfvK+2QVQ9auGw40jVsX9KKfXCsPkg0tGxK0yQ2HrcwRa/xPdrgamzmSl3zoa/rykzExJH+jL07CYyvrkhzkt47kO2vAHHKJHw2wGd3QD8QzHcjJB/K9I5uobcUzfujgSX+25BN82dlmlK3QxpusfMgO8Kol1hMcuHRsnZwVrufq3D3PLwcwL9ETmnGcN5ZjCrCOYJ5fJODHURKDhafAKIiSqQSl8HAYRzCiopPDBRlcssMR6OlIXoFpsUqKkpcm6bTQJAVOR4/DJeinPvWpi+M4keO/7uu+bknCJQdBptAIIMGAHpBUJAeLXiEXwBIImSQDyUMQmfO4xz1u2TwIPHqRT7/AVqy1FoHg4SM8yUcmuHSAZ0HAZRfBK7jozgYtiDUYR5ONJWMJw+ZAEEuc5LKwoqPw+c0eCYOeZGZvi8YC5zt8FDGLkp7kpI/zF73oRUsikpwsHnF3CNBnHwWJjvRjKx8MVXDIa36+EwPsxw/kkrDZQ+Lke8mXLm0+fNCUXOZYsOZZpObCIacNq7kSoY2ZxGau+KGXosYX4hUekFjMt8kVQ20i6GOM/9hC3NisthHGj3314YH+0572tIWGzTMeYpMv2UM/HcmMJvmNwxOffAbXURODCqPNjk2FOeK5uyQAB22yK2TO4eAhFshd4ccPPU8cxJyNAD7dvcGnYxsQjR3EMl+J5zasaLEPWYoTtia/uOMHY2RiH9d85mhc7ImnEitf63MToNijI57RNoecYgdedNiAD8TXV37lVy46o6UpzI5kNncN1hCd2J0P4KIpNr7xG79x8SNbyQFi1UYFHh5w5AWbPrHo8zlsKsfJaXiKJ2tdnMhXX/EVX7HEDbnyLfu8+MUvXnIBXuKYrcxRgLsDJyv/W1vPfvazF5vyCxmSB4/iwjpmV+tNnmAzPLPDtAf6cg/52d5mjE2f97znLXTIKRfTUa7Hh+/FmKO4YkcbEEc+tNb5ig/JSJ9nPOMZu+c///mLvGQTR24SxCC7sBcdjdOXzdEhOxnRY9fihR2tzZkjp36dwxff4rrNXmuXbMboSFaAHvrmOTeGFt5wyxHosIVra79ND1nN7YZDvsJLzIoX9Yqt4edbIB+jC18eQVMtU0erJdNvZ4E7NiBL29vJ8UNn38DcDRjGgmCImagApWv1zfGLhGgyikCSMDxlsEgVDwVfgHCCQBVgAsljKQa36CUfwVYSN67ldOcKFVqKrMd/do6cZ8GYj076OqKtOWcnhRZ/NJO5giJYPPrzqNbjcQtMcAC4Ah4NiaFALzgrBIKKL/QZc17xZxsN0ActOAA+PPJJUopuBYjsFrqFWXBOKAYkJ3L/g3/wD5YnSRISWuQCZJYc2BZfGwiPm92d8IPkxI544cveYopOLUZy059e8Mi2huayHR0kcb5PVzJI0uSmJzy2Zxt95OAHd5EeJfc0h+/RxRu9Co45wUxCFjOabCZh2vw+97nPXRa2ucbJSh+Jjj3Y0Jz8Di96xZV55MaLLMA4XAm/JxnJxt6u0SELGuJFsXZNP49mvdriB3qyN9qOaJs79TSPHPrIyxfw4JOLPvyOBxx9ySGOey2kwLCtvtYL+cxrQ5GeYkwfGvQ3x7hiz4bW5etf//plTdpsKYI2P2Qhv8TJ79ap9ev1U18bYK5ilY3pooCJzR/8wR9cbKJYyA9i0DiZ8FA8Kl4eh9t801kxUMTE27RZfl8DPclLHxsvPvE4Xixae3Q3zs82Fm0mbTDw9trGqwI5j+xsIJ7oS9bswF/4y3M24wp7hZYdxbj1ay37C0cbZwWHTnQPXKPHL9kE8Ik12+sMNkarDVFxcgjo6vWI13he4YojhVOxpAfZxZsNKznlerFEd+diAw0+sQbo92f/7J9d4swTSPLAY0eFVUzwexsM9hOf4ogcYsXTObzkBrkC0JP+dGEL/nWO59SPvnzLJvDIX96iT+tUf621AJzzGb84R88YPfWLL7okQzTJ2QbENT352IbOKy2+ZQsxIh+wGbsCMtABLXSBIx2MiYf4k2nKfhLckUHuQLuCzUdAMK0AXMOWcM6n4BcFBXcFWeMARsbHmAWjCHBKu2MJSAGwKCVxeJynEJhXULsWdC1EOvToV8IxX7DltLVu5DNmPjnMV3S9W7ZABJCk5Q5RcpO0BRd5BCB65sIzF+ibdKcvjGnmk1tAzYTRuIYmHEHmXAvH/BmME4yX1MztyYa7eUmgoEZPMrSQJVXJiL1sVNxlKdD4wEse/PUFrrP9oUQOhx75aS1zdjDfBoVfFbPmsbN+Pmcrd9E2DpK0eXiyPfmK4cB5ts4P6aKPfYzrN25+tiWDBrdmLtwaiPca0MNDvJA7/mwgJvVlX8VWwvYOn0/c6bI/f0ho8Kb8W3pqM47qh0sfLV3pZa15bC7O2V6ce7Jh0ysxziTq2HznyZLvkodO5rvrU0wVUHGlYChKilSxKRbx1se3bdZ6wlIhwBMfPDR4wBMAcVHSJQ+5bbI9CRDHZFdo6VmMwwfGzMlmE8iHN9u7y3zhC1+43HnSVcHwTt4mQ64Qr8Unv5KbHTR5jx893fCkxph4jne8ANr4ueumr3ynMNs08BVbypPWpk0f+ZIToKe5bgwvr6zc/Mmn/GzdoCOf2UThNfVPnsAYvWw4+NYTk14Hws0v5LeeWlPoysXWq40FfmKKX9zJe+Jhswg8WeYfmw0+kqP4Sd6yFtjRXHLwsac84ottjeFFlmzgnHxolJcayz6thQmzf9Jwrh9Ep3Nzws8W8TMmvsiHjhix9hzFPt+6GeJ3PqEP/cQJiI5YWvvJub7kSq9wHCf+FtwlE3P7XV1/ZXAS84wUOK91fRHAIILIgrEhsDFgMHcLFq+dG16SimAVeJKFDYCNiARsp0gXi7yi79g5h1lUaGgWqMUuCVownLllC3MFGFsY50yBQTbFwJ2MDQdaHndJjhaDYKCXecBcQd6CnHQbD/QZYwP8LFpH0EIBjmRhj4oxno212OubYBwtdrfAPXpmE/Z2dy1xkwGOpGQRSNIWSnbzREqiwAe94kXbgsa27Jxt+UHDW5vQfP0WKn7koSM9ulu2SJ/1rGftXvKSlyy+5YuSjKMWPZAP2InNHclDL7a1KVP884kjextzrQXJl57RWssd6Hed7QJzmq8Zl4TEvbtmtuI3r3kce0I1ITlAx+hNPYP1fAVE4fe0QbzjoVC407dhZW82Mm/Sdz5b+gXwyW+dex2GpjXDzu5gexVo7cZfcYWj0Hva4HWg+Cu+6YOuQuNG4DnPec4ir+JsjZZDNDFjTHHyCFy88KU7aHf9cooNQ7Kju96AGAPGxZXcYkNDH/7QZ/OBnidUfAcqvm6yxCbe7MCmf+pP/alFN3rSh/7yWTIA8UMXG1Ay84uibPPG3/KPpz7WqM1i/sg+a0DbDZonzp7iom0Nsa3Y4mfX/JXOwby2xujy9Kc/fSn8ZPNEh+3boAMbBJskuV4hteGwkey1ho0hXpo87UmIjQhcsnmy4QksvdGFZzNGRrTIoLHD13/91y/z1RT+ZgNyZAfyuyYrGxSj+vnPNfudBHDhtdbWNtZXf80132YTPCYf/cbJVEwCdhJj1gt9J13zrUU66g/CMW5MHDu61n8W2NyA3DUULg8SPlgL1DUDa64z1nru5UDzGUQBsdO2g7aYBZvXGR6nKnyCTfAah+uTvRKxJGkxV/TNtVMkIzzBacyit1ERjBaXRY+W1oIH03kg2ThOUGiSiWSJB5ktjmgIZsmzd6aCQjMf/lkg2wpEdieTczZxR+jcuDE8JGeLnZwayF8WaHaeoI+87MUeEnuf8ZA4e4RsIXqcy9YWtnGbOXa1+WGHiuqUdwJedGeD7LCWKR3JxF70aqMAusabzSUU/qavxcivdJDEJDNyigvjZJLIk2Pyxjc70gcYJydebKsAejSORnLaoLnLFZOKHrnR1pzHI3w8atkn3sbDmeDaxgfgQ0b+avOnwOjHi23IH20w9Uwntk2Oxt0x0sE4IAs6NqPiyrhiqbBmT8lRLIpzMVKc030CWsVHtmdHmwz2I7O4UmQULr40zr7uchUcrzWsMT5WlPg92hogb0/nfEbga77ma5aiTh539u7wncOjk/imA3xx32bVmE2LuE5m4HxtW43uaMtRNi7ikn++6qu+avfN3/zNy7xXvepVy4ZB3Nrks3NPYBVKT03o1tNTG3Dri7+9RsLDHPLLLTYLnhQpwgo8HPHgCUJPw/C1fs2RAxzTZQLadO2VtwLHbuSLhrxD9znfdQ2IEfrQnT09ofJ6xOsT8omBeKHbzSY8R5tGPrZmxYQnrvyGN5vYUPl8kBhTkOkNxL8n5WIGHhuSQ6za6NCDLfHU6JAtAfnpyD/FKf7WvfiY+TNd14AmPPqRN13VArT5cc5Fz5zoAnPgmWeMnvrENJrsw2ZiHy902VJdRBst+KB1TJfWX2t6wiF91nC2qnUZkCE671g/ATnC7lpzTqmzCn5WwI9RGZ2BBRU+gsLjNnyBoJGAOMNCJKOAk7QkRoaWDOBzDLrwJTiOlCQkNO856eMJimRTUd/Sixxo2XRIyPAkCDKSzx0aWhKqBaNYS8pokc98gWx+ARLAQU+DF9QvgAWkMefoWtQSRc37Tu84ySTBST70FswW0jr4J+RrAWuuoi2JoSW50QtfgS9x0tH7f0dPRGxU2JN+AJ/Ji/7o0wUOH9CBPvrXAI/M8Hqnq1Boko67Y0XCUxcF05HvzWN38vKtJzgSqiSGn3H82NL5BLKwETz+JSc/TZso9GLFHaJNsYaXxMpe5EjP7I5GtkgvcWTcdWOOZJj+B+ZLMhUY86wR8vG3WKYzP/hTbr4Q+/SgJ3nWRcd8fMQNH7KPdUS2ZHfMN20oPAHDK93FORvbHJG/OJco2RB//VO3bGAMH+uBX/3ZK13w0JKpXMAHCgjf24h4muDJozjkAzzRxwt95+YpZH1408aAvI7sp7GVP/lVIHtKUmy6WVFQAT9o5D8Exujisw82BujZsOJpTEF0gyKOyANsdNi0V5v8KObpjr+4s5bRscb781N/BioW6UtPdK1XtGyUjWmelLGPHCXustF63fGvtcRejh75WzviA7/+Womv+e0Q5Gt2c1P3pCc9afGdjST9FEu5+AUveMEiD1ulP/+LX/YiL1pinz1++Id/eIkReRYt8SPXiw9625B7ksWnPntDXvYnPzuYZwxNuUzcueZT821+rK9XvvKViw/Et/iy1m2Qi+U1ZEf2UwtsnmyE/FkvX6Gh8YPYYpvmOM8fgWvyoSGmW79iga5sgZa4J6f4LaeQ0REfdkYH7fi15hzFo7F4b+m2hqu2AZE4JCWBx6kMKfFWOBild7BaBfhKIOXXisdTa4cKh9GAayCoBU2P2ez87XQFPnwLhTOAa0FvMaPPaQJMoFfcJCWLHq6AzBbk0McG6Jmvn2wSosInAbCJoO8OwiIhj7vnEr65aJtbUADjAozdneMH4KFNJ3qjUQAJLonaIhOUdNDXDlnSQssRDXPRFcR005yTo0VMBrqxlQTJvvgqdHR3l+LRch/0tLglD4tb0k5+i5rMeCQH3fG3WNA0trYDgKPRE00bIDHHVxKpjY5rRcUmhNwKv3PyS2KKEz84urYgJTIy4CtZV1gmiGmyFUNsRsbuZv0lg0JAd3FDHptc+J662ATjgUZ+A2gF+vIJXGDcdT6pH2QPNNmVXehJLhs0dqEnmWwI6Fp8OJo7beyaDHwlwSmAEqyEDJ+vyIJf+OJcgkeTr60dfucHhcIaEOvFU/pPv7MlvmgZg6ffubUjlvKx9UM3Y+jSVyx6tWlMgaWrOdYtXPbQ8IOPN55k4RcbRDwlZvHrThk+UCAUPj4lg1hXSMQUedFkr9buFsRXnhSjbMQn6Fmf9PA6UN7q5klcwYdHb36kF534Bj+bFuuZrejbxs+HjhUpTzra1MAzt1hwlCPkNZDN+cE6F2/5h53kKrlU42fykIsObYjYVNuCcgv6zvGQl61V/eVYcn7DN3zD0teH2PHRyC2u+JRMaPEH/7Q5Ea9oezXEns7FoNfH/KU4w5MDsq08In7ZgGxautDL0x5jirs5bC2fk1nuKLb5XyxYw2QLjOkXp/IIP4kDMcX/bhitLzHN5uLT/HImIAs69HYEcM3hX/GYX6w/awEvY8V7a60Ns+vkxg8t5+FN0HcSXPd9t/yz2/7Ywx6y+5SHPmT38E+9eXfzffd3NvsBn6W/axo/HxCUkSnnnHEVdguAUPoUVA30yoIiGeqiQdBJjt///d+/PLr0ONWjN39Kx4jkEsyCzeM178Xs3jlCv52rRS8gLHRy0lHykfAEOB7wBa0kJcm6tgAEi8C0wAW4+ZKFueYpehxqF233LoErruabxzaSHTwbH/PhKWCSIV4WIFDE+qAtfmwr8MhoV25c0jJHgfEXAILQo2o6ok0mdjAXTzIrVnQhCxtYrGihASRZfXORCXJz+Zz90SiZCHYFx+IEaOLJVnSH08JEr7mSKF3zGR+wF7uQ3yKcYGG4i/G6R6K2wPDpDoZ9zS35wEePbuwreZPJWK9q2JVO5KdvRUCMA7KSjY/4zftVOORmX2N8oaHP3uxKdrL1WgJf60SskMtj9WQ0x5MZvmZ7SVPxQJ/cmtgmK18D8qLHZ3zrCRSb8qvExu7k0Ec/9qlwoSG28ZbUxJRziZh8knSFTpEgh40735nL7uiiaTMoMZMHDXZFW7xLrnCtQTzoyIaKD9vgzXdsiB96/E53/dZUdqUP+mKIDvTFg297qhkNhazYE4sVdQWHLniwMx3oZLNOd/rqx8NGhB3px35Af8UYLhnZmxxo8gM/TbA24FkzfMXXaIsr/mcfOUYsokNmfuVz+rMRwI8evTZEl2z07k6cjR2tc3HHjnjBEb9o07k8BJff+Fhja/4hY09l4LO7tWl90IXseLX2XKsLdGEf+PzA1vD4V1yhS37xrZ9+Yh5Pdic3GRXQNhMVXbbJVtaWeGQnvsOf3a1JPjIPXmu0Gxb46PMn/mICHr8BOpKHfOJcziIjHmKMD9iOTdg1G9gAk6fNDHrFF1762Bl9MrANOugZwwc/NmQnvie3OLbm6ZevbVzEgVdO5ospsrEtPLTREx/kY1M+4Ws10bn1KF7ZlNzWLzvTm+xsaC4Zgnm+hqu2ARFIBLewKSRoBaUjRRmXIzSQg4yfJPDlQAHNYRbC3/27f3d59Pbt3/7tyweJFG9GA2TmyIKSPMY4SLAzMCfpK8DpQE+NM80VyPSlF/6CkU0EljHHZEq+dIeHpsCR5IA5Fg/6jmQDxgtEvNAA2RYt+GxLZnZHwxh8fWziz68kzT/zZ/7MErjAXHzo4Uhf8+lJTjqggZZkAvChv0VDL+f6BCwgK7rGgNhokbA9HnRJjyB8AIc80TSfDBIE/5DJMTAXbZssj35tBGw2LBi2QIeMip956ANzjNu0lSzRZs+OQL9x9tCXb+lJpuKCXtnHuDH9+PAjHfSTAZ4kxw5sZBwf43MdGZMI8Dcv2eCZM+NHA/kf3ykzXLrmX3YhK3ANL1y8xY5Gz/xoLnnEiUTFlsZcZ7PWjn6bvDbuyYi+6+yAt7hhLzYkF/50wBMd9oBvLtBvHG164mkuH5MBGKezcTKjz+bpg545juQErW3ym6ffkYz64eLFDhoeAM/4A/qJeXJn1+IuKH7o4khG8rJla5J92DU/wJW/yMUW2YVeruEVN2wqpyUj+TR04ZYr8HQ0h/7G6Ese+pCFfPDwx6sYJ5N+uNHIF8A4+ehPD9fkA/DQNW/GD7r6xTy65M2ubGrTsqaj2JPTOVp0L+7goq2RRWM3YCw+9CjWspM5+tDR0Ccj/V23HpyzG3x+RtfR5pHN0BZHxsURHnDISo9kiE5xhoZrshiDxz7FhfnoGhMTaLOFOWxAPmPwgHHzNfPpgb+Yio8+vNFV10A+tDaNTUDrEFy1DUjOx5yDGJNRXRtz7TxhXeeUkwS+HIgXQ7uTsgHx3v+v/JW/sjz+tyuEMwN2ygnWsgoaslYE9YULbzpBP97oFTBz/BBwsAbwKfGeZp9k0cJPJufp5ij52KV7X802f/Wv/tXFHuTE2xznaDV39gf6QTajrz4+z++gI4An8B3ZxFwN3Yl3FhBj0VrzTB6bTo/GvfrwqNWdmjF42eYsQH+84OOTHYrzbK2lk34NbvhomJPuXSdTSab5ybkGY81FW5zAda2ByTeYshk7pH8yrW3qXEMDOHatTVlnf9f1Tfpb+gVwzQHwrcHWRwV84kyY/cngqOE554gVdKM5ITqOZFAIyc3mfADQ06IPzEk38+gMv7nRnbCmH8/8il42m7qZk/zxnLTRSDb94Vd89DdvDZNONMKf8QyS1VEzlx5akAwBvEB/dtLMQ1t/a7BcGo0pDzBfjjPXemo8G8Bb+3gNyQ83ukG08E+u8Iyt+/lrC+DCcQTxMXeuzWiCaastuaIVvuPU23HKHo18RtbmrmlNgGvOmk6wNSe4K+YFQsKsz4FzQk5BnZ+UBK8UMrzd21zM2gT9teSc/UCfwC+YZr+21kGf4LejbMGcBdA3T4vXWeyT3OypreUib0E2zzWLoGBiJ/P1W8QSfnbQJwHogx84L1lo+Ea7Fg1Ar2yylhOEGz5wHp3APPzQIvME9KYdJFq4aGzxDNZ8gykzGmymNRYvgG78s0fgPL92ng7dQQJH43PuGuCYi8bWvPqyXQ0YP6SrPnO3bBrMc75Htz7xUGI1ptiBxqOdHZIreZJp9gMys5MiW6E1jl84E+IXHQ1M2wTRNbYF0TePzbNNvtevmT9bkF7F6pRpym6OOEBXf+P6zS2epvzOp/zJEpifbHg7yi/WhPNw2FHDc54nX/KA5qGHt+vou6ZDd9P6QPPXNJM3mZN12hnom7E+ob7okqH4ih5azrfmNy8I3xHM8WhEB07X83wt/xrgkBFeuPE0FqzP2c+6WssMJm6A3pQrHlrQ2ITZN3l1bmyez3YS3OXH6D7hAXvl/Ry/gX07eer5gCBrJddwmrBXAoyj5WDv7/xZpfdnFkbjGW22YF6vzzvO/iC6oEW3XniuW+Rg0qqdFcJtXgFXH5i64skmPp/gQ6Elo8aDFsUE4/omXn35ez3WdefhZQd9ztnjJIgOiNZsAB0N6PNaoM/2SIrTNhOaA9bjrrfm6VvbAriebS3Tui/a2QW4BnBmrDQv/OgFXW/1Bc3f6gezfx4n7jw/JAfIRukRXuOHzoP1OHprO02cQ9D4tF99julwEjRnre+h8wn6TpoXzL7slc6HZAxna2wLtmg573rrfF4Hh2is2wTX5hVr4BDOpO84WzCv57g2/ayFA9gWzLEJs289vo4fsBVTc3wN4afjbI0no7Vv05Hd9E/bgM5P6nOsrUEfmlsw8TvvuJbjNLiwVzDTgfPIQGAKlbGvJZSwJT937ZqNB0hGxpstMA/O7Dur/NF2RCdaAI1o6hNU9VXAt/g0P4Az+06TLVnCYwtPONypen9rMxLA1abuIF0quHAOyaoFWzj19fTFHQvazqcNHGtrmuFMCCcZukZz6lP/pJF9tuhOiC786J40N1zHiTP70vnQfHYKP57hz2b8EBgHc12gM2E9vzmXA9GafDWxVh+cy+WxNfc0evQmA5zseBKs7RGcl+/lAJrkTdbLhbUOyZq8rrfkr79YC/SBNf4WhDvnTL5gi/ZpcBbeW/EW4GNNWQPaBGOn0c8v4Z3E6xBs6T9hxmr0e6V0aP2CacOzynK5cJoOW3D5kTyAAbw3VUAnEEif8QlX2xBrWBtGgfMhHccK6HphTdBf4/gKwBZMh3feEQ/8PGrTCpoaeQTtDKZJD6yvAVn0b7UtmPpoePpwkQ8n4du8SWNNC162Ax23YPIKtmizba95sklzwq8dgi0cNKI3aU6YczrProdga8wcOqzXAjhEs2ty5fstGQM4fNajZfgg+uy4JZu+rfW4hQvIMNuEQ3MOwaRhLpnXCXrN42oDGeY6PATknfqmS20LmjPnXQngQ8aT5DwLrGVHz3FCYxPCXcMW7oQtu6XHnLdFp76tMXCofwvwO7Qh0GfskH6nwRrnJF4nQfhbMYNmsWrd23zoq23xWtv+cuGsMYzHeflcWTTfDpiWCNdCrI0j+UmCF7UwzwL456gJFYNknm1Cmw640VnjTIB3SL9DfA71g5NstTU2+7Zkcb3mLbD5cPbPeWy1LlxrOdew5htsydOHdC0udJMpW3c8jedJOHPskGwgPA3eIdxoTdC3VdDQKN626Jl3WlwFcGbbgpN4gNah2AaH5DoEh/ieBnj0pOtyaWzBFq2z0IdzGt5ZcA7B5c7bgoukdQimrpNf/bPvLHBe/JNgynA5cpw053JoTphzL5LWhOhqM7+sc80arkQWcKXzT4KTJT8jENCOTwEDFasSmmPFq7GrCVvJNKc5GmtTQZYM7FgLwtWco7Eu1KfBeXAPQTqt2yFobI1fP1hfnwTw2IodbBb65PwWvdPaGvShBcRRwNa16Zste67prnEO8V33b+GBQ/2HZFHc2Yi92C1eW3QO6bSGQzKsIVpb/GyOjOfL2ZLzogFN9vBkqL8wwevDDc7iIxDeWfHv7fCRosdHIpzkm2vtt8vJHReyAQEpK7FIMhUpf7vsb5OdG5MAL+fx1HngNNoMRRZJsbvA+hwzZH02HB55oTvHt2DyDu+8uk4+63YItsbndeOznQTrcX5jC3837ktxfImN7/pgP7CmvZ6/1RfQ1+dx0Bcr6wJlvE1I4LwWTN5rXhPvNDD3EP3TgOy+lMkXC/liouJem/PXtMH6Oj1qp4H5azsBc5NBM86fmtjvOzacr+deBKDrOxfYwxeM4dHNyocbnNU+V8OO9wR8pOhxNeEibHQlNMw9NP9a+u9yeF34X8FIwL7cxpdb+VY63/YnGfsiE4nQ5qMPf15NOMkhEqIvrPHNnwqpD2D6khpyGZfEwwVw6UAXGyqJ26uC8NYweTvXzlJAwJx7XriSuacBXdnJN+f91E/91LJR8O2C/mKGPcAhHZPr0Lg7Y9/y51tzfetjX3ZzrYvUWex3Eo7izi5inz42a75oiC5TdzSKHf2ua1cCh+IRoI3X3DDaFJCVT8Wz1hOoK5VlAp42q75N0ddS+9bGvnMCXCSvIxzhCB8+cGFPQIBE41vofG2x76xX4H13vq+Ade47+RVyifqeAom35OtruV/3utctvwNhk6F/K4nbUJHfl3XRy2aKrvDp4jghHhPOkmSbA3cLv/Hon4YPGoPrLte34dGnVx7gpPmgMU+1fNUvm/FrT462YC0jmH2zsSWZfIWyL0WzyUN7C+jAV3zQNxOicQi2dJu8T4OJexI+HmKBjXw7oDjXsvOU4Sx8zwvon0YXDnuRk81tkPjTJoQt9RmrrUHf5chuHruIGb/TIQaTAxyyrb4px+XwPsIRjnDvhQvdgEgsvhv+e77ne5ZNiO+U8FXnvnVS8vMLkX78xx3vVoK7SNhKVngqCBKtIueO7DWvec3ulltuWZKwu9cJ8MmqkPghIIXXb5Z4EmBMQ2smU+AanykD/W1uNOfrazDpzHFNv3H9zqcN17iuawF56OEr11/xilcsBRzADyaN2aKDP/B9Ib76eOq8lsFTkfV89ljjae68ff2739jxWx++o2P9lMxc/D2x8ouNftfFxlbhnHZYN2AunPzhvDYhfODceEXZUZs+nQCHzn0xlqc34aYnmvo059MGAI3mOLqur/71vDk/WbfGa316HngK4XdR/GiWr6Xv+1+iM8G1TcTcuJ4VyMwe/sQbH0+4+Jy9jG2tF+fkKM5rE+cIRzjChzdc6CsYd7EeoStufvDGzyb7URzfmy+ZeIrgi7/82JEvgerR/dUECS6QvCQ0R09A/Ay3oiwBSsJ+UIeszSGzAufJjackNli+vtvGSpEsWZvvETNaPh9hcwNK9ngax9PduyNctnJuvgRd0ZZovZfHz3tzNNv0sLFCAK8kTh/4irMfjnJ07XG6Bt+PEdkceoKDbz/MZBwtBYBs7oj92qWvZXeNvj9ZBvTqJ/vpbyNCLjJ65UA+tMyhE/k9DWCHdNPceet3ZGt6sBE5Qa8tpu/IRwcbwHQwT1GjR/bqx6t8DoOsbKOwAvqQk35w8EsuQBd+ysbZvs+68FH2Qpe+bNKPeuGNBhvyKzw/1NXvmZhTwxc+XsUH2fDDm27ZSzMfHpuJHa9N+uGp/AyM051czukpJshItjZHycNudGNzPD1hQl8fXHga+7OnTboxfdnBGjEm7uiDd/YqFsjiFRu7fNmXfdnyyhPg19ohJzpkYrMpp3jhD4AGW7EBefCYfjHnCEc4wr0frmgDYrEHFr0CICF4x+tX/hRrSUyThGxAFHn9Cr0Ecy2ghEReidFRklTMJDvy2SjZHGnhS44SKrn9BLuk6S7dBsovA6Ij+UryCqIi5KgASPbw6aigKHqapCmBwnMtaZNJkZR0JVOFRsHwVAZNyZks6Ljrd/QEosKGFxyvL2wO0OYHY+42yaiweYrjcywKcU8xjMOT0BUAdBQKfOlekadHhYYt9NtEsiPaNiz0gtfTkeRhU7gVFIWE7gqPzQkZnFc424CwRUBnPPpJa7zMsxFiZ8XcOJ50ULD4hY365U32JDveeNGHTHRRwNAkr6d38BV4utGZjcnOT+bwvaKKJ3nYDj3zyGAMbhuQYK4ZdvbrsXQmD375B564bCPCnnSiA/kd4YsVsuPlyI90IBf92RUPc/iTL/OFueiIQZ/nwcsattkG/JYP6EVHdraW0SAjWf2IIX5444Ev/emNJmBbMYW+GxPrv80OG1sX5EaDHfk0OdmejcU+nm1Y4Du3OeLj/MJP2hGOcIR7N1zYExALXsJR2PoZX4lTspK8JDmfobA5ecpTnrIkV+PXEshYQpO8bSz89LEfJ1MUfU23R9KSrkQmEUpykq5kKMnTzZwKu8Tph+0UE3pKuH7wzA+fwZMYFQ/F32uDW2+9dbGTwisBeyUiOUvIbKfwKkjwFVvJWUFWgBWSl7/85YtN+8lr/WRgW3IqMPgpOGT3aqNCQccSNj3ahODnVZQPlypEZDbHqw5j5O1nmRUYhUCBIQeb6bfp+fEf//HFdl6j8C+ZvN5yTa5eq5BNQSELXmzpdRj9FGI+0IdWhQQPBdg4XVyT1deqo82f7P6yl71sOc+eNrx08eFH+rAJngqhoslncOmH9mtf+9rlFRW9+Yh9xC55bQ7YjWz4o8WfP/dzP7fwgcsHP/ZjP7b4xUbVBoQt0oMs7Gbj+653vWuxkcJsE4ouu4rLf/yP//HCC00xJdbIL9bQIjP7+ByTeMafn8ThO97xjkUG9hIjNiaeGpmLh7lw+fLVr3718mrRGjBG17/1t/7Wsk48xcSbbDYVfMRG1i3b8x+Zvvu7v3uJYfLSjx89NeQX8ls7cPkd3hOe8ITFtjYRP/mTP7nEDj42k/xio8PH7JZfyEknuuIvlsjETmTwM/fwxT7Zr3VuOcIRjnB+uKJVWlINJBFFWsKR9IBE0J2dBNWj/6udINayBfiSUwIk42d8xmcsBVLSkiQVaUlO0lUk3N0BCY5uEpyNAzqSpIStiCkAnvr4qXe43nXbPKAHHy0FQ0K1efjCL/zC5bWPJG/MhgM9BUwRUSyce92jKWRsx7Z0I4dkz7aKo4KIJ3pkkPzNV2QVQ8VY0egpj5+jtzlJbwWJHciO3yMe8YhlI6AgenWjcOBBFzrRxa/m0gWuYksmBURhoBNcTcEla4COcXL1RMrduD4t3eYcPvOUCk+bWLK71siOJr/ZXJCbfclmTAFTpMhh86vYsj2b2AR44oGv+TYeZEGXzenmqZcxGwO6kZtdPE2Ba5zv2c2G6Eu+5EsW+egxgd+KS7LYVOBng0lmticX3vRBn63x4GcbBjTZmq/w5VM2J5v4gQvoRv982a//2tSKL/zxQI8vHfXlq7X9jZOVHcxLD+vIhgJ9OuBhI2Euu5vjPLrFbrFhTbUGxa34ZTubKBtdOGLekZ7WGf+zMx9bT+LcUydPDdE+whGO8OEBV7wLKBEBCUYCUFRKZoqzO3RNkpbUFZM571qDuyeJzyZCwZIAFQEFoScZEp4iYxOhSEuuErV+Sd655OrxPDo2BxKo5KgAaYqGBh8NT0Qe97jHLU2h0XxI152nYoOeAkcG1zZqCqYiIkHDL8HbPLE1uyqg9FGM8KCPJxNs7C4TfwVJYbP5kMRtQGxY+MK46xe+8IWL/GyhCChwoFcK+dRmxJ01efizzZTNAXoKhYLuHJ7jesNZMQr4BB67wi2WHAF9ycTO9CAjnTQFKhxysJkfGuQzBVIhZCP0ff5AAacbWoqcTSbbV+zYMR/BU1zpwTcKsA2IYu+vOmxw+BA/hV5zrUAq1MkfrNcL+fhW4TXXGhE7ZGB38ceWXpWQ0cbSRr7NJPuTp00im3nCQf4nP/nJd2yMnvGMZywNPa85kkP8iwPxCdhI7NAr4I82KcC5+eKTLC95yUsWu/KJZr6YZiuyb0G605n+7GUun/ApffiFT8iCF73EGn3EKzvZtOHnKYoN2treRzjCEe69cCGPIUpmEpVEJolLZBKQR7GKpAIpKSpw8JojYVyNpDFpbtGXTBVVxVdikwT1KVSKrAKjeEukCp+iTWay0w0u/RRbd142DQoSfT3t0deH6uAqsBJlfwWgWLKVwsY2FQBFRkF54hOfuGxo3OEZgy8Jw3V0Lbl7AoOfRO3cawiPpT35sKGioyM9ya3RQ3G0UXQt6du4kPHd73738uFcdLwaUNQCBYMOPYHoNQBZPGq3ATGOfvqx1/Q3YA9NP9+w9xqaF8Azh8waG2n01g/ooqBqbTDzUfbxKsarBAWOfj35YKfpI0WQn+ig6CuQih0bFB+eOphrzFz86K2Racp2CMzhT7I7R9/Ggn09/RBHePFnT6HI7q/J+JkO9OpzKj1Ryv4aW/CVo358ND6BT046kQF/8YKWPrTy8fQhYBebQTSsFU9XPFHyuseGqScl6dUmBi1xb66NBD5s+ba3vW15dekzKPwCN9/Qg2/QMV+TZ2xa0AHkWMt4hCMc4d4LF/4epIQjIbq7lPAlEneTCp1EWJKoqDhqFwWTVufrPgXZkw5JSwFQPCU1d1I2TN7v21T01x6SnTmSJf2c2yxI1uYrQMCYa0XEXa3kmL7G8OgOUjPPNZmMATJJuAqCvuaDkrjiSwbJ2SNouEDClvgla3fH7pRtDswje0Ulu0fLZklhVuzIL7HTQdEC8JpL5goB2dKrQgroAOhhPB3QCRQZsh6Cqfca8EebPOSCSwZNv2u82IOPkpdc+o3bqLzgBS9YNnrGyGLM/HxEdnP5X3OuT9FuAzv9qZEJTnIcgjknPPNsfNp4Th+TjY315WfrSRH3lKYNE3nQ0dB1rV8jPx/Fr00Hu6CX7HjRMT/C1w/gAHJZLzYcnqqwT5sn8psDtxYNtPneEwsbXpsoPrIpMdd6E7PizJx8ku2jo5EfXjIZO8IRjvDhARe6AZEEFAPJ0R2buxobEUXc41IJX6IPSkwXBafRa0xCI6dE7iiJSXwSuLtMn8fQPK52N+zpR8VAQpbkHLtzlGx79AzfY2l3y8985jOXx/3mwqslBzrGHPU5rziwG1nCJzOerslh06BPM+4xtQTurpS8Xh144mQTQjZ2NzcazVN0FA93rzaM6HjCYb5XOQpB8pmLt7nJ37HCAJI1HmStuMXbUT+85gE4zTsEeCl2s0A5thFwjR/aFdHsw1eKJD8p3C9+8YuX1ycKO9z0S36ALiDz1JO/8FGIjYHkh5Nv16Bv3Z++jvjRj7ziIds5t+Ggg1ijh9dM5PcKhO/xJOMW4InGxMFLH/p0pkfnrY9k0+ccHUdPZzz1s1nnS0/RvB4RO87xaW62NBcdGyofSvUkpyek/GEzKGbpKWbJR1bHQ/YMjE3/HOEIR7h3w4VsQGaCkoy9u5aU3E27w/QuuuQIShAllqudNMiXjAA/ya3NkCSrACm4ivcrXvGK5S8bJP4+H7KWz1wbFpsqhVBB8PkMSdTTHu/ezbX5QhsPCb1iAtCsAKDnukflNgO9IqggSvLuFNHC0zxFiszm4KcY+VBgn1+Ym4j0JQOa5EDfXy3o8369z7HQDU8N8B1Z0TGXDLM4OcKloyPZ4Hn94RWRz2EA8+HYpKKpTf87TvsEzsMzTl6QHUCbB8c2N8ZsPsxhKwWbj+jqtZtrvmMb9DV6bgHa4htdNPkWHwXU5iUwTr7p6zXggR4cvNnBtcbH+JALD2tHQSe/pwDk5mcfpnXuySIf27TgR6ZDfMkG0tFTQOsUXXGKf5tfNOCxiXl9AJfN4XntYhPBhjYeNt7kFYvsrhUzxR466Hp6KCbQo6dNhw0VPcwjExz4xcghnQJ8Zswc4QhHuHfDhWxAWvSKioTkT+s8llWgJA9FyIcq+2CZd9sSrwTk2malAnU1oMSVnJKnxCfJKRySJDkVcomevIqYO01NclaoJVyPjc2VEL1ekXz12XTRxYdOvf92rTCVyCVSDe9APzu4G0SD/WxA+mshf53inboNAnv6Sw504ZNXwbHp8ZTFnaTPbSSjzYunGmyNLnnRltTZmz88+aCnTRQ5fX4FL/P4yuNxf2HjMTudAR34SpGc9tTPlvDQJJ+nSooKHfqrBq95vOP3dAwNNlj7Zw3rcUWTPchJh+zq2MbINb8qaOTgV/J51eQzE3xjY+QOHg346LMDG6IB8GY7/eaJA9eK5tOe9rTl2p+IspfPD5HL1417fVeRXwOaZDXunM3Zhl/Iw1bvfOc7l41HryPEA1x0+bZXhfi1ftoQdlyDWBMPNhJs0QYhXYFYtxlgY5twcvEVv2WrYsFcNMVkT9D6s9ieINpIsS2biVt9dMebvfODxn5ikC2bB+CLW+vS+UlwKIaOcIQj3PvgQl/BSMYey0oi7qIUSEVeQZZcJCnJUoJXpCRCBUFzfrVAUpqJqQIl2bqbUyyN22zYUNgAOPpciLs5YxKf1lzJ12N8xV+/giBBS8aKtmYzUiLFxx2mJhkDRaIkC9DGzxMIxY18knGbAk0RVLjRMI6/z5pI4G3wFCj82bwNE3kVMneiiik50cLfhyjZQJ+Cxn94KRaKhmJVkYLXHTuabEMPjTwKC9mMsaMnDezANhUzfMhlLjyApqcKNkloBxXSjugbVwjp6VVfGyy29eSGrdFG01MDmw9yuGYfmy821diJLID85imqjlM3dmID8pLBBuTZz372YlMbNbrlI7qyMV3Sbw1o0YPc7EEWsjmarzC3gWMXGxBHm1Iyw4Gr0LODOEMzO2roZzdyGMMPnph1na3pp5nndQ5boJ3f8MSDbdBEx3rxdNCmRqz16pJ9rXE2kBPwmnYkizjnG7IUH+zoKO5svmyM8THfHPkkHQD/6OMDtub3IxzhCB8+cKFfxW5TAXoy0NMDCUOikyAkEk1yVdgUD/09ar5oqJBoE8ijiPishicfZJDcFDAFy+cnjEluEqf5Nhz+bJB+dDOHfhIl+c2XcPXB8ajfHaxrNODop7siBtDFw12nx+kKgDE46JITDhqSrWRv0wHXOHnRJbMiVRKWkG1k4Blnc8kfL69lJHX6m6eIoKXY4UcG52TySsajfk9ayIA+2Txyp5uiTz60HY3pZx9jjniwMfsoOjZ2XlHRg8xkdccNl8x440XmAG1APjrwBZkVMPKzmfghJxnwhquxG5rmAXfTYhI+/niyBd3giF2yKZLm28Ch31/C4IumI5npW4yYz+Y+FArfWL4GFWGtJxlkaKNhDfGPDSgafEcu+hQ/dK6Q4y8mycWO+snGBtGkazFEHrZHx+bShskGwJ8usyM+dEDLXPGlj//602QfbIZb7BljS/7VL+69IhI/+JDHuiCrz4IVS+iKBb4kHzuJFThsaGONHj3x4hOvFcUQXnR15Ds06Exu+MXLEY5whHsvXPd9t/yz2/7Ywx6y+5SHPmT38E/d36Hf94blsYiUed4lLFFL7r3aKEmuk4FEIzFJSpIgkMwllisFCX4LpgzkIqvH1hUdCRGQ29MYMvYuGygM7uiAOWSV2MP3VII+8IxLhHSqAHh87O5RQZOIJU6FxAbMXGMKBjnRcafLluQ0H7gz/Ot//a8vxeLP/bk/tyRvyb2nSei0CUx+ydl5Oucf+BU04/zgSYC7XLIpDhogExuRg5xw8FUUHI2zg2/edG4e/W1ybCzg08lcvMREOrEROXsCxnauyQBvDfSjJ3x0gQ1E+uGNh/lsjY+YwJtN+dw8OOQnJ93Mg8PHZFZQ+Q4NepjDV/wOF310yeGpn3F97IF2BRYdNECbD3zw8M24Xk954qAo8xUe5pKpTRE7pB/d6UAmuhkTT/HJv87JT4Z0wLNvRzXmqZlvQfUE5i//5b+8bBzwxgeemAXm023qhQZ9yEsePPmG/hq5yYePazTFCCBrMUMfc8mmj+/h04NvygniE47NTvFh/ejT2IdcfEpetI5whCPcu+FCNiDroi8ZSAAVmfPCpHc5icT85s3zLSArHLLCcz6T+xq6+5TkgHOJ1Jypd/PhTdx4da0YwZNQgUStCLozhicJa5K0x9zf+73fu9wd24C4W2zjhC9a5AAVjQl4a2DaRJ/r9CcXwL++qR+6c/4hYCtzpx3jBciLB1n1N3YSbTJkx44VIw292SYtftLgkUlB1eKJFnCEA/RHZ9IC8NgFrjE003WNC5KZ3gqsz474bIW/xOkbQNtA4olWvLO9hs4WfZB9zJsQfvKKJ6/b8LfR+LZv+7ZlI6f4Z8+pm4Yue8240gev+NBsPrQgu6Jl3Hx92vRR9oFnwwovOtYFu7WhSr9i3rzW2qR5hHsWTorVIxzh8nYIGyARlKwkgHUCXEMJqKTlvP6rCfGNT/JOOEkGuJKcec21CXCn5+7L3ZkkKZFL1rP4Zpc5Fw56gaTr2p21D2v67ZfXv/71u7/9t//2svnwaPvpT3/6UqzQYDtHYF7Jf9IM4jllqM+R3vzoWF+gjy7kW/fX1hCvfKxQKCSOaKCFprkVpxkLW4CeOfSrGFa06Z091/IDY/xkQ+foGh5IPsfm1Vf/BDJW/JzH0/mab6C/Bt98T06mzcmUXskGonmSbYA5bVzI5gmFhgdAx9MEn9PwpV+eXnjl1OuX+KBBDnEsvtnW+YyrZDGHvMVdNAC78S3+jgH5tInrPPnbCAVoW1vRR1eDa4yM2WzSPA1Os+cRjnCEywDL6gztQj8D0uI/LQFsLfrmreefRusQNG/Ox3cmzTXtOWdrXMJb93c9E988dh7M68Y1cqHv6LoCoCh4NSPJevzs67S9W/fqAs8139miVRFwDO8QGItutnLU6p8QrXhNmNfOaxXIrhsP6o8/mONg6oQWmlpz1/hAXzrEP0jHOTf8rhX0Crn+8Cdv0HEL0im6Cr/Pb3gdpogWA9rk3TG9jTvXwBxPrlryaaDXHjZuPijsMySefuAPP76HWjDPzZnzkgF0vsZpnD6asSD8Oa8G0OQP4/QKN5pnhfPiH+H8cLTxEQ7BhX4GRFIIZtDp1ySJidP5ocRh/HKCdz1v8pSg46cZ00psE5oXXnPXekw6syCUFM8C5ipuzdO821Ys9HWX7LMBNiOnJd3kMya5zzv1eRd7EsCPDr2Sqz6AfnjGgPMtmU4DPOLT/Elr9rFHtp5PMi4Hkn9Lx3jip2DD6SmFc+NTb+0kWcwJB02NL7t7z8/o6os/MLdNFzAG1/x82vj6SUQA3ysXT9i8jrLB9TkL7VBcmAO26IHGARyxRgbyG9Podkge+ORm03D0O5/XwLVz+PxBZvOuFNDUTvLdEc4P+fGjGT4qbXBnSjgRLnQDUvJjbAu5xSypSjIKJ+CQINwtuAjHTV4gmtF1rW3JQBfNGPx00+gD0nPSC/RFv3EwrzsPN3CNH5uCxhSb5q6Ph8BctADc2lnB/OQEZOqaPEHjE/c8QMaKkcIyH8GvIZnAofjZgi3ZotPY1KMj2bQ2fsA13K7haSfJEw4wP3wNrcaCKWsyJOMc67z5rievic/GWrzpNOMqMK4PLr58sqXb5AHm9dTxEP1wnNeiMWlN0N+cLZnOC3KUuGszG20wz49wPvhItR29JhzScR3/63mH4Grb7KxynAeumyTPKP+Vr9wBjKZldK07Og5oI5LyGflqGCNIpnitec6xNTS2boA+BVV9YJ6fV69oRQN9RVjrrrsCuMX7EExd+SafnBUmH/M9lelzBeis5Zjn54FkmkX+EOCRHc4DW7LVtzVG3xr5FKkK+BwD5m/RmDBxph+Dxide4Dr8dQvW11tgI+F1i89ZuClwbQ79ZgvofFLMnCRD53N8AttlU7DGO2nuefy/1q0WoNMmzJMVH4Kdfj3Chy9MP18L6K+7xE/xe4yhbbjQDUgJgeEtYH/N4c/5coYkdmhRX4sgmYFAjj6g119GrGWAKynBheMDlJIT3BLWOgGuaRzSa/Y7r10EbNGigz6yb+l6FlAk/PWGPwf24UU2uQiZ0UAbPY1dtWsJxcWMS3IVt16H0dmfrPryM68wKso1MOcfgomz5hedLYA72yE4icYhiPe6Abpbxz43wj/nhUOyoo+eNShfxO88cJ456TRb+Ui89cqILOlqrVwLmDJdFJyV1uR9kfwD+d/acbRmwHn4XKlMp+l1UTqjoz7QVY4U1/qqERfF52oCGa+lnBf6IVRQYecAn7T3ZUsCzwJ3t9Ud1xoOJamTEu3lApo2E2Tz3RcSrKcL5JqFjyPgSka+2dX3PfTeubvGtXzndd7E36J3pYAeHvyiyFsMPWY+D6DjswO+tdZfT0jOfRHZlW4WJHk2VtQd+y6Haw1btieb+PAV6L4i/Xu+53uWb/NVrPwZtL+mOa/ftmJkzj+J1nl5Bc05NHfK5Lxr+L6h1a9au6EQO77H46xwkryKkXXF52LTX7kUS3MOWbZorHHAIV76163NuLXg2hqxvm22yIUmP/fq+GpDdk++KwF02lydRosN2N9xC65EFnP9ube1Azx142dwHrqXK0M2BSfRuBIdgfniWY3wcwS+EbgvArRmkuGscKXyXC5cSfzdZcacfwKpC30CIoAVKb9jwQkKvN2gr1f2+xic4ps87ynjBhamYvfKV75y9xM/8RO7n//5n7/Lb1yswSZFAn7Zy162/D6Gawt2rccM9vPARdpjiz99bRj4hv01ifa8gDY6vjlTknZ+OfpOMN/C5Q+Ll235QSyVQO8p4Bfy2VD70i5fR+5PVn0LrC9wU5jgXIT/rtSOweXSmTqsadC/L8brDvYiwBpCl+9tbsQkn+OfDIf0Wdt8zjkN4Ikv68BNkhzV2tfvhsmfKvsTaTF+LSD5z6rDWeCstPjVmtbonG0vKrb5189xiKO5ps8iXzhXYpeLtOlJQDdxpJa4YTlUT+6twE61C4cDYXRhGxBCM7gi4vsrJGx9drsWtC/R+tmf/dml/54uLOSS8N7+9rcv30ZJLr9dYYGsQUKik99H+amf+qnlB98kTf0gZ7mWQCXoxkqmwNG1MYm35nptD7j60UIzuvA7Ni/6INrhNO7INxKuzaCNoM0IvClfPCVd+PjqC9ydasY0uBo8c/Cc9Fzr39JP35SP7T1p8Ph70krPmn78mpe8+oPGgujAm+/21/TR0PTNfknZEz2J9Cu+4it2X/mVX7n8toy7ueiYlz20ySN5Jn3HfNu4ecbSqes1jekb/UHnjsbhRSd5TgM0kyv+8VkXpGQyDtcc8q15wTNeI1d45EvO+uDXml8zH276w183kB78XUxNevo82XHz4Qc0PYWZ4+hEf4LrdM1GE6d5NTolr3O0a0HX5jpOG8Zv6hxEW5v9AVrJkMyO8Y6Xmwk3i3K04qlvDVOOxs2PVhDetE8ylj/AWgZ4GnnXNCcu+nBq+swrH2W3CXDgGp9y6Zv40a+Rq7UWHhz96eTcmH7gXB5TX+qHEx7Qt27G4CTj1MW4Mf3pHMCBq8HJLlpzGkue+IUTb/pEX3M+5WlsDeGGn20++MFVHG1sQi7kFUwK2UF7R67Q+c0IydpvN/iKZ38+6ldyfQmU33oQiDOZHdppX8QOfA1o2hR5NGjBOfebJ77cy/drBAwqmNz5+qE3icp3cPhNDN/b4DUBvdEr6Bzp5rGb4AUe8RYMHKPYGpMEHXstkq5oKnqauxPymce5nedwc5qHnjndaegnS/T8qJgvNbPh8r0PfQU5PPKZ359o2mSRl449gqabzZhE5fWLpwHmSt7m0aMkQzZ96CjU09/ZQgON2aySqS+h0k+mdAFsjC652a5r420I0Nfmo3X6k12y9ViUXuKWPY07Ryvbks1cR5tm30yr3+/ieLTaqyc4+qevyIw3HdA2znfGS2jO8YNPHv0VQbTYjSwAH3ToxAdeDxiLhyPIRnjBQQMt/Okrxrag9QuPHOxELnT0W89o8Y3vovEV8cAYHPqSPfnJ2ys01/Rld3joe+Kgn7/Q8IFYNkA/m9ZAvoBrLruJ8ckDkF9jD3aCm+x490Vm6Fn3r33ta5evovcnyNaz72Qxbj7Z5AKvA9k4/uzu6QhdsxGZ4QDjeOPhnJz4w+U/uoIZn+lJD/TMB2Qhd2sSPbxaj+zgiaFYSuYgWuRAo/hEgwzosBU9xLf85he1yeK3ftCCE5ApOeAYpwMo/rIPfdHNDn70En+/5SN2+DpIBrKRk9zoTd5AH1z0xBA++MMjk3gHrudc9ODxAxn4QcMLoKtlL3SdO8IXP/qtHXSd67dG0ISrHw36iw11gg18uzFdyc0W7NbrGA2+Mcf8zhbou0azHMLXaIqJqSMZzKGPOXTV2IiefOYcDQ1Ncugz1zy0ol8+gRttjd3Na304r7FV/P/7no61/gdi8oZ9TN58Z0xu/WnuhWxACAEIQnBBplD7kiMOYHSOueWWW5Yf2nrCE56w9FEkiMYaDvVfCZCRYzzVEAB+S0NRkYScBy0ev9LZe/82VBKxIOI4v1yqKFvE7iQsBgvKQpcs8PMI0pjPUHTu8a+vwhZwChp8NmFHfI3jLUH0iBQfAeY9fPgCxcavX2L1IUlBQH5Jl+2Ne31kvgUr2dsMOgqc+Gn9oq67fmNkozs+Fp5ftGU3IAGiqQlUeOjSga5o4UFWY0DyN0YfwY8+XmizBd3iCQp09kbPxpH/zCGnX4U11wLGq3lAnyTiFRr7sKXCRD54GjuZLwHzM/+QzVzy9DqRfuQwR2GShNnHwjWPTuxMRvP4Bi650RInNrN8il4+sqglLfKJHedowCMrHLbvF5c9wSIjv5LBWsJHnKFJDvqSSSzQH/BLCWRCa0zC8iTQXDR66uOa3Naz4sQ/2Yw9xQwf4EdHcrAP37IDua01OpFHrOV3suHLRvku+fI7YGM2ozsbs5EmDpuHJt7WpEfgxaV57Ep/42iJYU8/yE4O60TDm4z0Z6vWMN/rR48t+vVitMwxlw70pd8v/uIvLvbjD/LiQw6+Qg9PupGHDs7Nby3D1cShufzOjnyOB93lG09kxS0b0g9t8qAlxq019MiLjrgRs9mZz+QgMU4/NuQ7mzG04NIDP/KgxWdsbHzGnliB4/eN4Ikldrde9XtqKM+yFX3RIVexwW7WibE2U85rgK3oT24+zNd8kj/o3gaKXGI1O7ABfLLJ0WQnD7pkJCtd4bi2JsnJ/9kCL3hkZ081jj/FC3n4hXxqHX3QkXv5Eh/82I2cCje/okU+cccP/AyHL8jJ/5q1hx9e/AvXPDVBrM5cQg7ysqu1CvIZffC0tqsr5rkJZzf80WBT/WwglunTerOJoT+Z6fjb+3H5AN3//Tf+990HP/DB3YPg7vm1ptdwYR9CFSCUdzfB8BVyQgpMRqaQAu7pSMUzKMDWcKj/SkAgkYmDONQPgVn4ZLdA6EE2fZzOwBxi0+HJgV/ehCcABLKFICglX06y6BRINhBAFoFiInk6Cih48CUQQSh5WPQcKzjg4s2haFl0gsjitrjcTaBNBgEkgQhE53SzMbAYyImeILLQ9ZmPn6cYNl2CyoIhm3mKHh3I14JxN1hC84rNHHqR3SIQqHiTiX3Ms0g1v/bKthapRWdxiwULQzDbsOJPRgnEkxXysQVfiAHz0JTY3/rWty6+oQt8i4AfnOPdAicbHpIOfnDoZ1FKSuShvxjlY6/YHNkLfQtRrIiTEhY52IJd2ZEfLT484PARu/EBG4kvepBFjPA3X+FBN/aiHzspJOaINfYnM3vTMz+zET/jwU9ikg3pQg+2JS890GATR/HMpnDxnUAnvpRk+EGc0KM7RbFIP7+iaxPCl+TEg4zsSTbNOkcPL7rhb64PLpONbvxobfCT+NZnDl/IC+zuml00+GiIfbamN7uzBb3ED17OyUwHshUXbMgfEjccduKLePcEhF/5ypNCOrMV/5FJHKFrXjHEB2wmDviBXdHjH7GEJ3pwyEN2urANfLK41pzT1TrHm13Nac1ZY/jxi0YvfXBsIOidHORFk42Mk5n8mnn6xQs52ECeITNe+viGn8kEV14wjz54iyfnaPAhu1onySJ+jKOXPsb8iKYNLHzxQ0e5JJ+Kc43/W8PONVAswLV5fNvb3rbIKD+ysRxENjErD7CHwgwff/5Lf40P2YrN0LUGPR0WN3wsduGjreHDhmK8nAdX/IkTMlvXchSb+bFQdkFDn6PY8/mx1j3ZyGUDQHZ8+Jts7Es2tmJX8qk/4pTc8hHbamqHOLZu4PEpu7IFn6HLVvjysThlQ+uSj/Bz9CvUgKzqmiOf0AsdNuFDssmRNjB0Zd8P7HWlw2/ubfOv9jG3F2b34L1dPv4TPn53n/062Cu80J5woX8FI1DssDSG5kSOknAZ2MbjiU984lKQBBcHBM7ndbDVd6XQBoTh/GQ6uTjLwhC4nCSZCDhBztm+LpszOd8uURM8dnsSPqc8//nPX36rBX16k52zLQR4EihHff3Xf/3uWc961vKIDg7nomVzJmFJNN///d+/yPC85z1v98IXvnB56oLum9/85iXY3U2QU1IXnAIIva/92q9dnj5ZGIqdALbRsCkkB10kmJe85CXLqzCLRpBJRALdfL/OaoNTMSQfOwEL0GNrenkVBZdtJOs3vOENiz4tEgFsMeBDDva1QCx+sSHg2ZstXbMBG7MDejPxaJKJOwmLWTH0OoS9fSiUr9hY7JFNs5B9zocdnvzkJy8/4sdufE8G/G0+0eUvj+TJ4tUhfHZkazKLZ/J89Vd/9cKbPpI+n0pa7CiO8JB4JFeLmy26m5Sw+N88sYIH/vwqGVjMkjQaxvgNvhgEfPDUpz51+ep0SUHMWkvo4y/JKDb09ntBX/7lX77IJLmyD/uSTfKYYJwtyCxxiQ98xJ5kaR574esvf/gWPfrgiY848BoTSFTihP3QFqNsq8i/4AUvWGJfPAM86SLW8RIjztuAmM9fr3rVq3a33nrr7kUvetHumc985sKLzuLTxodtxI6Nyk//9E8vGyp+yo6tSXElvvCCY7191Vd91WJ3NMSCYkx+cd0dIbugT/9nP/vZd8SATSMaCrZCxI58xvfW0Nd8zdcsPiCDgmyN0I/+5qHtmiwKRJsjerEFXcW5ONFnc8Rm+vwsA1vSxWZMnD/mMY9Z5CBrxdS697kl+UEcehVOTzTJLcbZhV/5kt8VM/FlrZFHfjNWzlCIjIsl/OmNnz9AIMNzn/vcBV9skk1O4wv2ozc9rB3FnI3oQR52FlugTT67BOyDFj7Wu7XiibpcxFdkNUZX+shhbljEIN3lUrhs+4pXvGKxE9/gw1ZihH5yijVAF+tVjpVL5BU+oYt1wqf8oh8ddrABw88aZC80xIA4lhPFDdn4vfjnM2vIBoBs/kDCTRLbGrPOrCtrCF/+kpfFGTvKS2pqtpYXxAdd6QNXjaAnn1gPYtfmhS5sqDbLV3wLl5/ITl83heoEefmFvmK2mwJ+efyXPm736Ec9evfwz3747j/sZfgfe57v29vn4Z/5WbuP/biP3V03/BhsPxe5TJAwBIsjJSxEgcbozhmdMQXCDKprDXi36DlEQHCYpCeZWZwcJPAEB5z+5NI8+plrB2qxtIsWLAKEjnAFs0RmEUikHC+pSXQ2BJqkDleCBwLYLlKASWACWFAoHJKWQEBf4hKg7Crg0WBfQUjGdrqC1iKTZPCHg7bCr49uZCYXXq7pJ/gkF3PRYBM6OKKPFlnYxVGxoQ++8MyHx9bFBIi2GABsrtGlhif7B+Zkc3rT1WKng8SIv6JCFklEAUbDgmF7MtFR4yd44lPCVlzbXPAfOpIPXdiZrejqiK/Fx2504if+ssAlDjY0Dw0FwrVkIHnQkfxkMM5e5JDo2Yk98NBHJ/GoyPK7hCO5GlMwxIzYQEvciFHykMO4ZCdm0AvYQxLimzXoYw92Q4vcZMSTPl3zGx3wIq8xMeOINxA/fCjZFjN0Zzvy05udxSabg2Ig4OtiRsPL3ZZNKjAXDTa3ocQfrTYjdAH5LD9KngoDHfSxPdpkFyOamLee+YQecF3ziXXLvo1ba86BQgTIgQY8vqOzOLV2xRVe8obYYR+Ah1becSS3efQUC2jRU/yVR9AUB4owHHP5yHxxLTeIf/FDT75BF47cxkdsiabGRuxijcCxOXDjaAz/1lt5iD/oIWbYFS+4YoWt4JpXvmNf/oRnbYrJnj7hzZbsI07lTuMzLpzTTT892Fico+3cpgMvOsHRyKbQim188rs8yGb8RQ/+08QrPemHFvs60sM53bK9I/+Wc8jGbuxNdzmKPZzzvViFb82KVfGDlzWBFrnZBx3xxU786JyO5CCrJobkZfzojqe8hCdaZMVbXIkLsYwWv7eu+EN8kU2uMYddyUFm60ssmM82jm0As5k+tvzcz/nc3WfubfbHP+sz93J+zu6x+/zHl9ajtfvBD979w8HgwnYBBYojpTFVnBlaILQoGI7y9yQIOo3xyMpQAkrSs5tr49GmgKMELbnNs5iBAFGAjAsSujXHgpIILXK2QNtisdMUJBab4BEA5gsQtNFgM/IIWItEoMIRvILFnBKk4LfrFziCw5MMicMcQdvCwh99R818RzII1O6GFEuLX3AXvJcC6FIhQUOwk4E85BKwdCKbBQUHoE3P6e9siL+ja7TJKEbwoJfzLZDc20iwMV/Q3eJkLzHGB+jlCwsTTf7Q4LuWNPgQL/ZiA4vQ4oOjj5wSNz7kpZM+cyRf8vOrBcwm9LUg3U24k7RQS07sXYJgJ7bThwYb6qOXeMwv9LLhaENgDvpkFBviT7ySiZ5kkTz5ji16hErf6YcJ7C/uJH7+xlORA+TCh23wQBcdepJXYjafLSoqrjW4jvBLxI50M1Y8oatlC+CoGaezeWxDF5t68ckn+PM7X7GDtUNXevAtPEfAF/zfhhPAdU1O/OmVr43p18eufKffGiGDtS0e8S6XAH18Zo4Ypa+YZUO2RV9uzAZiI1s5d6QzfmJB/Dnyf/EgThVTsrGBtY6HuCWL2LeO6Q6HvPmHP9E3lo0dyaJle/qxn9iTG8jNT2KDL8VeBVFRoqccIP7EKLqO8gRbyKFsLJ+IFzob5zeyKVZsB9iH/bMpuZxnJzlIjiRHmxfxSFbNXHTFtSda5enyunFrVlzBYzMNH3bXyGsOu4ux5zznOcsThXiKR/PRy590Jht/tJbFBzrlKPrjyV7w0IOHBjuwO9+aR342Y0M+Z2vx1xMN9nvSk560HK1/vmVrdkQPjjzA1+Xx1po5Yocd0XdtjG50JoO1IY7QQYN+1hA7spdruJ//BZ+/+7RP/7Tdg/Y02O2L95sX89l9+nENF7YBKWgpRigB69HNN33TN+2+67u+a3m0/8Y3vnF5jMVhObugcj7p1K4W4MmgHGLRMiJnu0uyEBR1T28sNg4VVJKbBMHAgoNzBAt887we8IU77jwUQAHIqezBsQLOMb30c3ZPHbIHsKDgkq9+5/jC5VSykNliVuS8CmJfcrOxhGEhlZTii07z0XZukXrU3wcuBa+ABeSARyZBJVgd0c/f5JqykauNp8XGHoFxtjOXXnDQYh+0yOv6EJjHZvgFFhxblkjIgQb/sIdHjXzDPu7q+NVrELrQi37oatkJOK9fw5OM8OkA8MGTXo70hcf3Yqw4g8eWzel88kRXA/Gj64wb4671N1Y/33lV4dGsd8t4dxNwCPBhg3RDL30BuuSnW/FIV/Rb02JeshE3eMJJr+bXXAO+R8cR37XdO4oLj5P//J//8wu+1xh/82/+zd3LX/7yxbf8UAyKJTbwKN+YdcnfknZ3eWxGBnQVBrFDZ33moydeW6/koxuavs/Ia56etCgExvicjR21bGguHdhXfGoVpWwDB5ijHzhaB/kArpgha/I3z7m5GtmTw80IW3g64fWe/CBPKNQKn5xmTjq3Lq17tPGCI47Jk+/Qt64UJTdAbAHoJTfCpy8aYgaQnT3NJ1ubSLlLzvHahIxtLOVjsoF01bKlvgqqc40eNsw2YmK+jUY3bAqpPOCJvHO06IhfvliDPjToQTf4gXl0Jg8/kUXckJOu/CQuyYU+GfRrAF0yehL7qle9aolTmwX95uV7gI/Ygc/24s6mjzziGi8yGqOjV/XWpfVYTJCDPuiSgZzFOX6ujbMr2mTy6slmA91uZMTljIctuGO7sdd7aQfgwjYgQGAJIMFFYTsyzrfoFXEKMDA8wnMKY2jOryUwHBmAQBK0FhvgQJ8PYXQ7SkVc8HAWZ5aIOdSRQ+xi3dnafdvlenfm3ZodJvoF1NSzoAQtVHj44G+Bh9+xAIeX89Gw6D3Kc+ft/bQnLZpdNz/Ah5cczh3pI0kJOD7ryUtPRAQ2f8GLVzBl06Z+8NjGPOdzHl3xMm5OMtW6PgR4WADwAn3sYuPDRua7htfdJ/9ofOOxtXeuksrklfyAfecCM9a4OW3sJAU8w8WTfpIg+/E/mLTXfMhaApgAD6/JG07n+IpDicHaUxAcbazEA/9bf2LbvNoa8FBQvUN2RG/y1ZprTGyKGTpa4+JGY2fxxrfppE06tQmu4zcBPza24W1d+bxGd31k8DkFSVM88Am9e/feo2+vxLz/l6zhoEsuMOVJxykz2ooDuypwdMTDnb6bDP4u5jTz6Q+iEX399NHgBcan/o706RoYP2ltkNnmTzxYbwqLoiUW2IFN2EFe6GllhYgsdFPo9OGhn6+t4dYqeYo31/D5m00rimwBjFfc0DfP/PIhfsWOx/19Zodv+UxxNU+bdmBvNJIzcF5uITs8OHKCdchf8nlP9OTKPl/TGt2CZGBTcgf5KMAfHbaam/Bw8j0wl1w2XzZw4pscxat6KW+1uWFf1xr95GybSXTcTNHTurX+5SN5zatY9Lya8tQMTjUruzlHQyt+bFxt3OnCVvyjrqllPRmFz77RuQvcTs9nPq531HVp5G6wHcmXAYztToAB7JokMoFIEIpTJoEpDd8xg1D+WgHe+FlYLVYL1WKQ1CQ0dzsWGQcIDmAOnTiJzALLInEXJWA8nrN4BLVEZ1GhSXd22AI08UGXXAIOrl16Hwwlp+a8Ddzi4H2ziN0tSAKKqw9zSdBkEHQeEUoSLVpz6Azwk1wFszsRvCVtAesOid5wFBky0llrQ0J242vgY7zY1bi5msVHT4nK5q5EJT7Sp3YS5Dv0yIOOzS05QYmihcsGbME/Nh2SnMXZ5vAskFzpjD6b460Y413iMyYJSMYKPzyymGdcI7drLR3Md31WmHbQ+FCRREsS02wiFSB24IO53uJFL/EhFiQ1NxDsCVcff2nw4aIjadKRXuJOopPg8ROTeNTWvALn+muuG6/PfHEvtziXCG0kfIjaJoAMkjic/G3TJYb5ezaF1zrtDjr56KmRc8oX8IsnomRgS7FEZ7rih5b54q64Fw/wszkabKo5n4An2QP0ToJkz64aPnwVbWteXrDJILO85EOVPrRNdjdMilTrhP8VacfWjyOQc/gfv3QRd3ImHujLFe625U2vCcgCVyzmP/PwIpt1YY751qJ16UOr5JM3rU3yFCPFhiZf6ENbK/6diwcxzMfkk5/1oyWniR/6O+LjXH9596yAf/ZgC/5gL/ZzTQ4x4Bwe/9hwaHBab/1lYq/WyKTg8003L+SCrzaJX/lXfTCPLaw3OHKq1+/oqltsiqZ1IlbZyJgjcOST4p5OfKUe2HB346aRr822efCTbQuW3j29fHdoB3JFGxDEc0TKMcAP/uAPLo+APfYUeAzDIYyqGAg8ijCkhCnAzb1WQFZySaKChA4cSS4LQ7Khh8XC6AK5Rdp8156MCF769e4OLU61CBUmQXLISYKWHJwukAEbdWfCfgJBIfMY1ae+/VWJc4Es4G10PJ5WfNoVF4j+SoF92VZCEcD40BvtFoi+fIiuMY/UPQlCQ2IpGaFVcjWXvlugXwDzt6TkcT25yMe+HgezDd6TBlsdDOrb+/H1yojNxRB90LNr74NofCW5sXGfDCczIL8iO+/WkgEPtorX+shGJRuxQn6bbo/7HSVqsc5uHtVb+DahaAJ2Np8OaOFb4qQHenglhzhbQ7JMmH14sIs7IjTJZjPL/m0e8UzndJGoJD9xpIlhevgLHX/hIIm2WSRXOokJMYIXv4hFMtToZE3QuzkAfzbQpt6NmUtOcuDvpxDIw3/wW49w4NIDLY/yrRPrD0995Ovu0Fz9dNDEhVYsrO1LFnMq8tYIGejrZkV8GYdnQyIxi0d2F2etR/Hg0T8Qm2xJZnqQA9/0djwExsgaT+fFD70UU5texQdtdkh+crvW+Em/AiY3WE9am03FDg1yywdtRK1hOUKeooecJc7xts41dOT1cpY1L/boRj606WwN8g05zGdL+Y3PjbNPdukasKcbXfYky8xZnh7Thw3oZuNpHn/ItdmBTObzPfprv4OtPrhiyjoqX4oLPNDnC/LhZx2xAxy6sh2bqTVo09vaIAM7aHC8Dmd3fPBjN2vHZk9Mqa/s2GdV2I485OAjMceGeLMnm9CXHOIFrjG02GMCHcylA3zn9PBhXnKZm182YS/vB/fyoovXYtsDO5AL/TNcRsBU0SOkoyAXGAKSsexw7agIb8FQjMMY15MEx4OKXRBwOicpjB5P23W2A+ZwDrNA3DXYIUsqFo9dJ2fbnSus5ljgAojT6MOpFhHH0sdC4CzORAO+RG9nzl4C2Jj5dqwWDRuQkTyCEV1B4Ojv5skcriQGX+BaVNlcsJvTHbi7DjTxIpuAJovNFfnIZm6LR+CRj1zw/EkZO1goigD7uMO2wPGnh82SXbsF5lFdi5Tv0cOXffAxBkcs2OTRzaIhl6QX3UAQkwcPCY4+Yo2uFjo78YcnPzYg5pMbH3jk43P6SYg2P/wjifIfOvTukWMFwVx2lLDZQvxKHtndOJlLzvRjHzqS0RMlPNCT7Mhhrjsw/OnEpvwlebAzeyhidLY+2I9cYk78tXY0IPkbBzYdbE0fBTebk808j+HxdV4S0bK1PvqSCS026fMdHpHzu5iWWPgLL7ZkH3I6ZydxAB+ISzTZlW+7cxIb6POTWJBczQN0B2zLP8WmOXxNNw2emwBr2Jqihz482JqM7I4Pnt15w2vdkp1PujFic33iSCyLe/ZDj13pyF/w0JXXxDHbkM/691kR/rcJZyOymutajPI/XcmUrs7Jo1DwA5vgT5fyqsb2/GjtmgNs/OjqZsQca4HtrHnyii06yW2OxsWZdYI/3fDFR6yyE/nZlNz0x1s8mQ+fvvKjuCQvHnjKJXzF5+xkDnt75WEzzp7iXuMDcYY2utY2Gvhr/AHoSS5z6GOjIX/jLb742GaHDHzROuJXOpjLPnQhjxhyTm52xIdtjMnv5JQ3gXXGh+yBpjgByW59sIOngHxDD/lYXJDX+nMD4IiGJz7Gkon87MRmeJHNesNfs75bF2yDHzw1QNzzd2P8bQwtNNmFnujhT055m75ikh/7s2uyoiEGxAT/0Rs9cpJLPu1VFrvaJPENm+gTVx/4wL6uyYX7+TYiX/q4x+0e+PEP2l1/e46ZcGHfhMqYForgogyjWhQWFOGBv5/nJA6nKIU4XNBwjIATMC2qqwkMia8kI4GRnfEcBZE7aYmCTIK0wBLwAkK/RE4XMgtEicdC5Xz4aJfs2IBTLfgeL7rmdAsWDYHBdmzhEan+kn+BYYF66uFxKt5kFkxwS/QWhms+wUvSEyzsipYxR4VE0qeTxClQBZsFTmZzyQuvd+fkELR0E4jRxVMBIpOCyz50ZDtBXPJEFw6+Fo6gRZ/sZGB/Gyw2IH+QrWxAxBWZ9VUk4VtcEjN92ZO8+slBNnJrCgffkV9CEQv6+Y5vJVY6aRY0W7EJXcQEH9GDrM4lCXZDA664ppPkIBk6J6sEUAwoxmznGg/xot8c+HxqjE/4S4wqSOQGEhx+5hhjS/TY0Ji4wY9u5CMru6OPBtvSwZGeztGCQxc0NHIZZycxIDHTGT38xTq/wsWL7OiT1UabH8QMKHG1xumNBnrw8Uhvc+AUA8krvjXrSW7hLz7JNiVCNPicT+GzIdnZiT3w0fCQRM215sQMfHKJQ3HGJmKIb9F0FHf4k5le4lnDTx7wNM4aIBdcc9hMYZQDyUAncmqALOzN/uIW7WzSRoIerluP5rIn+uJT3mIDsYCGedaWudlNHzuIG3jsyncVGGAMb3LSyTy5Gh84fMbubEYvNOCaY33RWX7Fi23lEnqXi8q15FcoxaoYQh8OW4olOrGLBtAjj82H4koPNmvDY2Pnu2bKsWwlH+EDR65gjzZabMVH5ClO2njyO6CLfvLQz9FcMcoW+FvnZCavPIU3PchLL7Str54yos1m+JKLzcQTPnS1TstjYpzN4qkOwbPZFHvoogUHX7YUQ+KQrniQGx4foCd2yC1G3CSZhzYe9BO7NmTWNhrw9FtbbGMDhZ9xtNBn54+5D5+yi1ful37hmr6Hvgfkuu+75Z/d9sce9pDdpzz0IbuHf+rNu5vvu09K+wH7zvNsA1pEDM6QjEBwwjGiQBCghHYNX9GSMIFgZAQGuNqAt8AhH76MNAPcYiUj2UtS8AWSAKODeWQVbPTQ6K3BMdciRQcYh2tOAcPhgsBCRV9QTtsIMvTgaRLA937v9y6PFP/0n/7TS0KFaz47kt01GmTGi24lCDTQlFzh0sM4vOS3MAEdBC488wQkGsYlAGPmsg/Qz55w+BFP+pJLUomuefjVyIAG/mxB/ilzfkHLuL988NdG3/qt37okCvPRJi++7O68ecbIQLds4poccM1JTjjoSZjNp7uxkik75FOgzzibkh19fXDwQJ88xtjeGJxiQD/fG6Offrqbk7/YhlzozXgiE8DDOFp04B+xSge0jAHXJXWQD/Sbix8ZzJcwHYthTbJuPbMZXuRzjgZ90tU1XEfjZDVGB00/W9DDuTGykoccmv7w2FjjT/SBYzZurj72LJ7MRwuwA9wZs/CKZ35Hg176XZtDX9f1owmymTnmy2/WqNcv/uLKJsHnGsiGBh3j7zp5kw+wlfxjzDw2ZFf9eLOj8+lHYI0ZI7N55rBDdgN4aYBeaJMFfzjWr3N9chH6rsU2W+JLLvqj33znIH5kwUc/XOfmTdnQam0mX75iI7TZ1LwJdHQD4hWEozzQE0ZN7ohPc9E0T8MTH2PkwAMuyL9ozDgxj4zFaPh00C9+4JsHopNd6A+3+fk0u1tD5hjXr5GRzc1V3MULXJtEf+Fi0/wt3/Ity4ZGLMSHfuRx02fjZP22gcaPjBr9yznidi0rOuKhfEVuY4As6JGXr8nKVmLqhuvLafu1tZf3g/uYeMCe34037W15w94fl0jcARe2AZlAAMaiHCHXhtXubUDmK5WLsySPO5yx1xddjk/3CY1lE+dA8NoRC3zOt0jQ9cjMKxgbEN9saOduXkFSi94hwNecYM5JhiA6juZpE8wF6XJeiL75nWeTaTN9Yurv/b2/tyzAv/bX/tpyl9Ci/0iBdNemTc4DaIgd89lQ8sjH+mrxmdC1eJOg2Fc8V0DX+Ohs+b1++MWIxKYPLXBIhjlXc30tYEvm7Kb/kBz6NXq5a7QB8eFCr3DdjWc7tNAJXMdzC6Yc8VifT4iWOdE+Cdb0D8lxFkALnMbzrDBlizYQk56C9tsqf+kv/aU7njy0GZr4ZwW6m3c5c68GkEeOdqSb9eymwJM1erONGrA8dbh9QzShDak6ZLz4u6r63c31+w59YgLf6/dthXPJwxcMlKS0najiaQEWGPcWB6/hIuRCwyJYJ+pDtPWvmyBxJ+FRoXeaPjxkp2/R2ZQIOAuObeFq+GlsfFqQSRAzSaz5ozFbPNZ4W3Co/zSY8yb9dTI71P+RBNN/0y7nhWKiWJy05vU6FgJ3aZ722IBYw9GZUCxtNTB52HwAMTVBgm1j0jywJd/VBjxPWz9rgM821r15ySv/sWFPCeABxzUP51stWNtgjk3QH+1DOCfB5cwBl8vvNCgmZgOObKq4Tn2vRIarpcPlAr3oqNmIeKLp1YvPkogtnyPxRNL4FrCNJyPFn3V3TfXjK+5yxPcA7wv9EOqEHFqArBedIFobZKvvwwFaGKCkv7UwTtJtjjkXZALPoznXeNh0uOv3Ts3TDzwO2XcLppyBObOdBhNvPWd9fRZoDtnSYco5aUpIwKsnNvC64tAC/GgG9mJLcdgmMsiWa5h2BuasN6AT+Cg/bcUVWNPsek1vnh+idRaYtC+nBWud53GNu+7z1FecSvw+S+QzJFtwiMa6TZh92Wmtr/55Hrg+ZJtga+w8bco0ofE1nNS/BfrZttdgXh347IViu86554XLmXMtwObc0wybD6/33MzLfVo6rzf1gD5tOu4R3fCcbem7dJhwVV7BnAVaKBO2+j5cYC52cCV6CDrvXX04qc9VWHiCzQeTLLzLefWQjI4V8wI0eesHLegtQGP6a63/pHMSxDv9nHe3DPRXCD0Z8mE47zi919Qk+iOcD/JdkA87ngbr+efx9TyCs849DdBcy39In3WsTjC2RSuYc9e4jl4RiE9H69R6PQ1OkmcL4LPbmjdw0+Lcepm2db2G5qxhynMIZwvM0/BKRoCGlsxB55Of84kPutbo14d6ndvg+TyCHFGegPeRAnKhDZdaQG/6ufksruhsI3KvgPOF8QIflRsQfLStRbmG9UK/FkA2gecI8CbrWeQ9CdIbrPVynHxdC+7G4c/F/f9v786fbcmqQt/vgneviE3EfWA8gWt35b0w7A0bVFpRGhFEVBB7Qw1/sA0Nw9CfDQ3bi12oKBJKK0UjYANig70hzybeH+I/8O7TevuTVd9iVJJr7b3PWXufw6kcp2Zl5swxRz/HHDlz7bWi1TWINuj+RWC8Fi2NDPhpzlX9mvP42RnSJ/ncCVjr/uEE0zdTh4v0mf7sfNI6BOgeon2Z8RfBFv2r6ALC13/VsUHz8zI0got0R2cLp/kbdF4BMsd1PWF9vYar6ADgksk4dnCccnff8Rhdc7xc5xw0pnEeRNyXn3xYEnR9Ef1DMG11t8CUqXyYbe5K+NAwvRDumCZ30tEmqcDl0GPgPjz4oEmlv/OC5JTANlW2W9votwLJDdBHz3GeO+JnYW97DxjnA01NdjDHbUG0Lwvha+iyue1sumtg8vPq5boq/+nbQ/69im6nhmNyXQRXHRevrdY8OAT5ctrK+bodi6NjsDU2mscgnNkC9C6Cib9FY54fg2O2Cw7hkHO2yZNfzB9j9Xd/tmPQmDWsacy2vj9lm7TINtvUz3kPH2iU96IJHOWnckL5QQvnGOBRW8ux7lu3OfYmYOrNDtnjrgWiPtzObXTf+XpzQbt2bXLc3QQ586KAdX86Pfx5vIjGrUK0T8VjTWt9Haz7O5+Tfg0T9yoQ7dnqx6via/bXundq2IrVmXhmQropwLdCOPmyyZ2C5DgG019dH4Jb0eci+vP+bLd6Twvm+a3CmvZlGxAL7RAA8Th3DMpb2nr8RS041H8IJl4PEF4fONdf3k2uZAON7X5zrXvrYy2aa5wtuEzM3s1wTLe7Dy5n62stQDhcMzEEoa2zKtw7GQwCVjNBNHJtycPhFl5HOBo9bnLxuV3IB4AeXTu/bECb5P4SAtgJ8R0vvYOdtOfxshA+m/KFP7VFU4Fhl2NNL34zeaXTZVvxt9W2YI1jvKYo8OeqfeHXofG3C+g2d5xPve8E3Cm+V4GrxuFl4broXgXYvzwKHH3uxJ9pmj/A/BAzfR3CTfmMffDC119u+N4Kc0QfmbZaNnWUb4HCxZdcGZueW9D42hbgfVP673A1uLa/ggEFhGDq75IFgiCbgRccCqDrAJOyb/YzmS2wipIt8HmDPlhmnAlRYQJuUu6rAFtLQuTTyO1am08NlwXJwPcc+JlnNvFnmooEvlzDoUm/xk0u9CRQHzL11z69Ajom46F78d66r7+Edoz2lB3eTHTOxYwPhfkpbT+G5hsCfSB2yxangGKTXHhMHY/pcRHMscfoxE+7LEzZ5nG2SW+euzdtrq1h9s/jFu4pYc0zODVf9tiiqY9txAQci73vHfnrv/7r5U8v/VUIHPlNjMq/YvO6XllOII/55UOTvonTzx6Avnr8Ihu5Lxf4q48//MM/XHTzQdPWjGNwKJYmrHEu24Lkv0iPHab9nW+3a90BkaQt8L405td//deX7++3wFwmEK8LBJNCyJd6ve51r1t+4MqCSs5DoBL3BWB+ZM+P8Xji7enfZJsBerfAnDiO+cJXe8+vXL4K0FlC86NEfu9EcljrHt91P+Dz2gR0FR+++8TXMktA7HpRjGzxAMdk0DefHrdgjq/BTybNub9U8vsZ73//+5dvHmSP6wDy+msocRgfMm3Z8tQw6eN5VbiVMSDd1i1YX4P19XXCdfPasps+Tex1FBvmsu8KUoCISaBfrjXfHc2xmwJyybH4KiTknas88Mw844EHXCaOZkxcNMcBmo2ZLcje69a9HS4Lh211bQUIB6m8LSq+Nve3fuu3lu/v9xR9USV7nUAuCdwi/K53vevsTW960yKfidqHLAs0TSD75jkFyGte85rlK5ZV93DDaUzJwLH+oGTRvXBNtvpqgTHu4wUngLOeXNGHj273s7WdG4u8r/D15Wb8AHfSid9arsA52/UbAY13JGO00iN5wHpiuxd94+wuSVRzlwk4wgHhGgeckxXv7B5+uPjX4GnOwzFmTWMN4YavodE2sd+ksN1cYeBesiQP6Fqb4L4+Y5Jv4rKHGFT0+S0gvoM7bToBPbpoaM2GXvIka7hoboEx8MgW35msp/w112hOfqDzaK55r2mvIR3WEP95Dy996LNh9/UnRzi15Emm8CY0hiyNi/8WfuBeY8LHJ7uux3YNNx0cG+tYM7c9VKFvzuvLvo5o1WdsrfvuBeE6anC0KePEWUNjPEiYz+jbfZnxEu8Z74H75pKHkf70FMDRjI131+lYC7frLUieGXO1oLHRmbTW1ztcHa6tEhBYdgrsGEicgqhvVLyTThNcvsDKl1nZNjcJJHXfOmoSk63JpvV9HHShk6AW7OEAY9yDq+o36eYEcHTfhITTucll4fK0MGlmHwnHYoM3mgHc9SKNJjroe11kArN527T6+eFtb3vb2atf/erliclTdTpFQx+ZHPHUF6CDpm/g8z0krsnb0zmZABz9xpMFbX0a+6PpXvRtr/qBI7+U6vcz+AcuyBYATYt+OyR0JCubp3PJrPvZRHEDr92rAP9sjIZrMibvbADvCiXyeA0ljsR1NkQHDv6u4U15pu/oRx73jFEIV8zAMx5P2+l+fvy9733vco7OTJQBeuKIruKLLPnU+eSNdjErxvFZA3rpxMf0XtsFv2nnfIu/fjhkrQFykMucI1u8ozmhMezEV2wDh13Jp2Vbx/RzRJdv7RxNn7hnXDjGasVIss9YAY1xj/zpi4Yj2oeAvPDZyXhHdudzY9kR4DGBzHiFlz3YQNxpvhuiH9XEB4649IVVvhBNPzqTP5mLkeIi/VzTXeMfeMZu4awB72TriwLpll7Zobgr3tPLOPnFD62ZX/GIJ7nzYa/3tebZxIeHt/PoB67XfaD+eZ/syd9xh9uHa/sMiAlvwfMeUHD5Uh6/LmlS+HGdLcffBOArUAW9d/cCVJD7inMLq3Ng4Ra4njz9toOtdn0WSc17SQUVHL+Q6b6f64drUgl49y2ucOwE2TnwdeoSua/UVfh4apEM4PlOi/Dt0Ngx8trKrkWJgk0lEBO7D4aakOysqCAHHPqZiCYzefR5VYCmBGuRN8n5RXIKxztbv6TqqZ6s7AOPXOQ0Vn+Jjvx44o0nfr4gzDj36Mym8NkP4MVmFhN06WEh0iQSMulbL0RsSk8/vy8Zk5M+ZG5RxhtN/NmcrPBsBRvL9ood9NmTff2+Al+QiS3FiPuOeJLDOH7gXzTxg198+90PXw4kQdphcuybWtkEDhvRUdJ0r370igf6iDk+pgd7sKFdOvcqkvkEP7LNueQeu/I1GfmEL8nOvy2W+vXZtre7xxZk7fM3gJyNxZufyZbfNPzJyg7kN4atFfSauGXDPh8jtvGnM1uyFf+wJZvRhRxiZermyBa25cnab1zA43e2NWfo5we40HItVvJvRaZ50dd4k50MnrblLPrS1Rh6os/WcOmBPn/AQdu5scWDOdHnLaZfANvwgXnBRmyJj/h1Dsie/cWG/uI8HcmFNvuzFX3yjTiUxwAebIMev4phdoCnkUPOQtd19NgVsJU5RE++FKN4k8H8g6sZN0EMii/80K0QYkP9fK+YFlflRDqQET0xIkf4XIuxvv3ZfOQ/MmjNAfOBHmyvCCO7e2jwJXvzG7poALa7qAVoaeAQzjzfIZhF2uGC7WQFCCdxhKPkL7hMLk73wSjB4Sj5V4DcKcdJTgL3H//xH5cJrzASpBbK+YEnk7fFVbVuYsP1ROFDVXQ1UUxiv9XSwu1pRfLoVwhNBglEojGZJTGTU4IwASUmeBYUvE18i4IJWOIks8krAUty7GgR0y9xSuZoSYQa+uSgH3omKd5oSEj40cHPadOd7Pg54kdfeuNFj5I6u/GtRYQecCUpSdgiJClIGmi2wLBZCy6ALzFYnPRrZJdYJDZPci2ExQhbk4XP7AIYS2+JhzyOFhO/k0MGNtfP5prEyVdi0y9ISnhsYgEmt3s90fIHnfHHl9708PqNf9kGbj5E89nPfvZSOOlXLIif+XPnfCDpGsM2/Ic2ffWToQUw39FDDNLN56jYmj3Q5jt2llhdZ6No+tVgCwVexqGffcmv6RO74kK8mqv8bAFlH+MUaGJCTKGn6SebZgxf8IsP5LIZHhVVdBIn/WgWW9LHvJIfxAIcOqMr/s0zuOkViN13vvOdi4/EDDz89LMPvq7NYXFaESQ20YeHR3GCBzu85z3vWeJPDIgTcosduvLflF0fXuYz2emOtnM04OGf3yfgy9diH745ZAxe7Jvu7Mpv5DWH5AD45KOXIz3NEXYov4hnBYhcy398J47gym1ii5/YHh33+IkMCgW+FPfiGPC7hzRHcc6+ZGYfvMQw/Bb2Cc1Pevn5d3POPBFz5hLfsxtdyCBurQ/ir5gVT+aQAoSO7GYu80FriljiY7rhwSbmiDlM17/92799OH85XhZm3nG+1YJ5vkNwuV2ikxUgOUGQCTyON3EkZo7Xb4JJnJf9RPR1geAU4BLvZ3zGZ5x96Zd+6TIJBK9XMxIwkJw8Sbr+rM/6rCWBSBAWbUWUSSuhWJhMcD+9/axnPevhpyoLpmQiKZlwigc2ef7zn3/2xV/8xcvPyZd4JT4TlV1M0p/92Z9dJt2XfdmXnb3oRS9aJiKct7/97YucXlWYhBKDwkESUxi94AUvWCaigsinyNHU+s0E9CWtb/7mbz77gi/4gqUQIZPJLlG/+MUvPvuKr/iKh/Ut6SkiAJz7779/Sa5f+IVfePbSl7707LM/+7OXJGdx4ONP/dRPXXhJgOwgKbIPHMDWkqBFWRLRJDS09X3e533eEjPFiCQgKbGH5M/ebMdvz3ve85YdKclUgpL88cKffxRykjhc8voRJ74jF9+yIZ+xMbklMmPYmAzsQ1avrtjola985YLPH+yDJx+yu8TNXm95y1sWunxkPOA7cog9tPmEfBK8IoDvyEAXiwe/wiUrf5KFneB9wzd8w+IfOrJ38yg7mX+//du/vfAWZxr/WSje+ta3LrFiMX3a0562zE82sQiJd/PU4mwBqWgm60te8pKzL/qiL1p8YgHgJ0mdfBYmH+RmT3MDvWc+85mLPSwO4p4O8NGHxx5s+LKXvWzxiznyhje8YdGhhaR4CcjMZgoaBRN/KcDo+/rXv36hT1fj+Er79E//9MVf5BH3YpI8z3nOcxZ8i7x4og+fwfv8z//8xdbveMc7Fn3Fmnt8a66xrRj7+q//+rPnPve5Cx33zCP9nvbN+7X85BYDcN3zq9Z8wJf6xLDiig3pap6Yw+SWW+QCduEn+GJCvpJnxDMfkp/sxstNYpTf9bETnyq45GA+fcYznrHIjK+YQ1Nhyx7iWJMn5Cwy8BMbyu8KA/4n01yoAbuaF2KDPoo4vpMH8WF/tjPXyUp3eslTbGO82GF7fR6GzBU5wjh+Ff/w2sHhN/IDc4f/+Us84c9PyXiZBhzFQLmo42w7bMEsQNhouz3yEeM2QeKUWAS5cxNLAAnwnFi7k2DxLDmYPILTRCrBWegkuKp4SU4SbgEv6OhqcRb0di8UJ2hJCvokBJMNLWPwsMBYDCRPtjEB0feEg6+Jb9IqekwcSUpCMwm9E7XASkgWnuS1eEt47GySSTaeTiwAJWzn5HJPMpWAyCihuIeHhQAOWuRlJzp6ysBLH/0tImSwgJCHLgo55+7jV0JyhC8eLI6Bfi2Y9x3nPXSipUmobMgm/KIAsuiRR9Imr6SML10lK3ZnT/rZVeBXCU+y5QdHesCRMNFhO77zFIcnHmjxQzobx174pQNZxdcsDtIBDrkqFBSbfIUeWnSSSC1M5OAbOigKxA//Ohdv4ib6wHl2c4+P+RVdMrOZPn5CAy92EYPmKn8Xh+JPLJODTcgh/tHFwwJoceNv/ezjiBef8AWaCib2sVB4elYU4c127tPDfbzRFG/4T/8HYpWd2M5TuUUGTWPobi6jR3Zy8Bf8Fkk44lh8GicO0NDMneRlp+KZD8UAmcxlc1oMKHTg01OjE9xjQCd0+FDMsRO/sK/FXBHwl3/5l8vCTVZxoUBQ+OEhpsqdYtOiDepD37gae5HJ/fKd6/QjA/5ihN7oyT/0LQ+KAfeT13k5Ir7HAE7yyDf8QVexLa7FDN/wAZ5iylyCTw7FrqJFgQtHMSRuxSOc5pzmPplBfXDE1mVkXYOxxs2mT9vhNHDSSqDErsoX6G0HCv4ZKBowYZxvJZvrBAFJPjIBCcsEF7wSW0lNIWASSK4mi3EFJaAv3LaMJRCTGL6kJ+kqYiQ9NjDZPYnj1cJiMjoah3Y0JDmTTXIy2SVIScLkkxgtBOhabBUgCgJ2ZH980ZdoJFuTGtDZuBIZfq4lA4tQTyMSgUW35IwGW4UvYZBBckKLfGjgh2+4bMIWfCypkE9jR3Q058UBmfSFX5ygpQH38cgOFVDspRAhNxsYTxcyKuLYUUInT0+b+Fk4jHdOLwuyhI8GO9BdkWnh9gSIBlvzGX9Y6PiffMWT+2KKrPqL7+yeXmRQBLEbOhZnMtClp0M6GoeWsWg51/gzuwTu66MTn4g1NMlEdoumhVnc0V1ckd9ujTEWIPJZJOkHVz852UN8ui/22ReQmz3Q5xdzXl/X4h6uwkus8IWFiEzoWnDNN3TJvtYpoLNFkN78QxaxTmY8NXbHw0KpeHIt/vEwF4H7ZDG3K47NV3Znjx4o+AVNcsEx1zRxoDBoHsJ3Th/xWJ7YAv5hT/qzO1mMF7v42JUlZ7raKbD4y02e/sWuczqbm/iICzzjqzlHu6IxuVzLQfjhbz7QVazgzx4a+4obNmRLMrO74oM/xRVaeB+D5DGWjdlUo4OdXzlWbJRzHcsVru3kKj7suNDDbpa5SG44cMlAPz7S9NMFTzI6XiTnDqeGyxVpJ/WKieP9oG1pgWRCCiLNZJEIuhYogrCnCwFzUyBAm8QSqYkpqMlly84k97TjadBE00zmFkUTCpiodLZFbwvUdrXJogCTWEtKdKS/sRaTYJ0kyFUCMOH1s5Ox5MXXRHJECz45bbV6Ysf/j//4jxcZbLPzgYUEHePZn770wBstNIBE4FXAn/3Zny10LORwSx6BiS9Z0U2CIjc6Gl3cnzJq+NePd3bsCBzdj1djky9wvR6rDw+JXDJjM/o1ls3R1ce2FhE25RsLlPvxpwObuW9x40dxYRydkl8rbtGlHzrx1IdndoBLLjyyBRz2c4RnLDzjLISzOBJDWgm2NgGNAE182WPKiB47SdjhO7rHhgoH/OhrHngi95dsFoA+q6BwEltok5dcAE1ALjQrnDTn6JJFXNklffe7373EnF0gi5Ex2QPAnc14vrGQ0YEs5qi4Vuy4xz5kR08eIr+te+cKSffYl/9APqOHe9mUDOKDPZznA7zoSU7yplO2MF7fIcCvOR0uevIP+fMTPMWvufgnf/Iny7ymA33pYUw+pA/fid1shza58KKr69nCmUAWfNGkp+vihb7ooQ9HS0/9h8C9+Djnsz4vpNjie4WteUZfgC6ZFY1e13ltKN7YJZ1B9icLGxRnAE/80GGDYzLucCLg5ofbuY8eOI8PxyNwsgKEgy3GAkywWBAlLpNH8rIoSwaac8ldcDS5o3ETULDGT5JR2VtUyePdowTpKaB+gU1eLRDYAt0ThCcaT1CaVxne13pSUu2bOACuSdMEAk2i+smGlwRqUkrW7odTgpkTiy5tlXqy9RTvqZ8MdlEk50lDwwMtSdWuj8Z/6HhC7ZWFpySAF550mD6bNPUnH7k0SZmvxQTIBuGVKByBe8B1fSAewZRBP300+lgMjI1HfgJw+ZtcFlL36tfoaCEyVrKDq9BCO1x83edX/kpW+Po8mWvJEX7xBtByn7zup0t6wZWQLVRkQlcjR3ZIpwn6jI1ePIsX9NFwPzoAnvstouLPu3VHi5s4tnsivhVGaBhTA/EMsqnmHhnEtLzgad7ugqd7sSZu7ZYovNZ0ArIrCizWdlwsYBZoBaUYV5iQS6y5J9eIX3Gskd1cpV+2S776Zj9+mnOgWFUkFGMgPHzply0OAfsaM/1IX7GDTtcKADayA4AfO9m1YCs7I3xifPbnOy35QedTp9oWdA9/8uFr7qLbfToCsk66W+A+fEd600ee8VrFQwyfiCt+V+jgw66OdDIP6e1zaV5L6vewZ16kt4a2cckfuIf/un+Hm4Tjdt+e6ZeEGeCcLUA4WnAJHgu5ql2Vq3KX0BQmFSnGwG+8YzSvE0weCweewOSXvOx0SIAqdO8dBTpdJK0SKB0dm4gWBYu2d6q2Ky38Pthn8VeItHsyE9kEMqS7+5Kc5OK1CptZyPB2XzHCbhIDOfRJyGRUKEni+OJv69YH0to+xV+hkh7Z2cSVFPDjM0nOKwiJzkJDHv1Tb/J2fshf2dY4tD1NwzWmhTdI/8sAG8E3Prk0dpG06ZmOJckWVeMkVgUlW9jZ4GP3gaOEa9HlM3az0PE/vgqWqb8+vBUJjtmYn9Chc74ia4VYdnBEw/jwABxPf/xvwcZPTIhTQM74A3S0zpPPMXBNhvAmNMZ9vnHNBj6Q69ribgEQz+JCvNFzQrJ03AL6sYmHEjtuFiCvfjTn+Cj4ss0a0DbfzFW+8SBjx9KCZmwPCuxvobK7YrFWhMejXTIgTjRwTO4AT8UPP2ro8AXbGU/utd0nrH0TPruY52gocNjWNf9btM1Bc5Ie7C+nyF/G4q/xnXYM0E/ftX2n/uKYncwNMSDu0cZPbOpnY9foHLNdtqAjXdAz7xQeXu/RRwEijzUP6IMuHb3G/57v+Z7llSR+/G0HqPyBN1nI2DzEk2/0a+EBdK/SDo3Z4SpwOD5uqwAJCmyL3Ste8YqzH/3RHz378R//8bMf/uEfPvu+7/u+s5e//OXLp6i/5Vu+5exbv/Vbl4pWwhAoAsdkFlDoHAvmU4EgFawmkoa3xOVpyUTwKXmT3xOayS7xkKsJL7iNkRgULHZK6ABMVAuhRFsBYeGYiW6tZ0Gtz4KHZpMVHfwsCIq5Xo8AyZh8dl/gkgMfdOhlEfOKxoTXJ7HR3aun+YTOD8aZ8JIP3Yz1WklxQje6T5za1CNAEz5+xijmFCH44evcXwyQBQ1AhmxgTHpM6JrvvA5Ah27k86TINpKZz1MYjx6YdPhZsVaxaYEXg2Rz3u4XGgowCz88PNiDH/DkF68bFdTszu+SHbuLF3qiw44aXE/+7AnojQd53VOc4y/BWzz99YNXa/jxM0AfjgQMj17p2BGwa3OKvvC0LZsCffA0OIA/0AF8yT7iBm/Fg3kAGhttx3kev/xrnPHs5B5fsp94YF9xzHZ4T50CslikzVW2N8fg9nkWkExszE7kZg+45o6dvmJ+yhjg6z5ID3EvHyhA+jAqudHiE42NyHJIdnQUWOQxnkzsYKxXEmS20NINDfeaH3yPl2LLjk+vj+eiiyd51/oE63vJSK45l+UrhZv4UcSRVbzLa3Q3R8w3tl0DmjX08kO0ywHmkGbu0clcRpsugEz8mc0VKuaB+DA/xCHadifREz/igZzkYiM0HS8qzI5BNtrhNuCBc98vr2M+tJ3//9ZhBrNzwaCwsCD6oJLmg2x2CASSJOHpyROMIDeBBbhgFlCT3qmhSdFEFbwCXBGBr+ZJl8wSgAXKroYnAckHPlyLauPhqOLp4z2mPxG1CPozTq+dJAkTqoo+/aaeMwE6evK2MPlTWLL609Y/+IM/WGjbVrYgmcRwTUhPdXZd8DAx/UmhZGYXxwIoiVU8KG7oYILanmZ34/pAIB18fsS7ed+PITnEhw3ornXuOHUJ9LmPrg9SkoGf0fUZE3xaVPPLBLLWtuiTWdKyYKGnWcQlOk+K+Bon8SR/SdCRDSRY27uSFn+h4T27BCeO+b4ncrh8TSf28Se5jhazaIkHIF7shNHZu2s0s7Xx4l5MkMU4uwr4KUDg+9NPf+ZosZF4xaJx5o/YkGz7c26LT/E87UhH/iR79iMfOl1PYGdyKbYao4iiv0WCPP78WwFFzmIKwJ1+wts10Nd9PtDQtTPHBoos35ki1tjdfCQHntFfA3oKEP6QSxzZkb7Fo6N7ms9/4GP+sBm67YAdiq81pId5rmDMX/5E1c85mOsWO/7p8xKH6OqvADGu+LWbwz7iFw206KkPLh3Y3zzycGJuKkDMBcC/9J7234ItudIPiCE0xJvYtOuCp10rcawo5isxgHeFGljPY0AW9OjROiB/ifM3v/nNS76SD+DJv2xHF3HIT2zg3FywwyvfybFkMkfc1ydvy3fmm+8JUuiTB0+8j9lkhzsHJ/0mVEHM0QJoNpNFwEowkoIghGsiWTgsFBKTCb41QW4XmhiOnZsEnkwFrqQiyAWqSSxBeBVhApKZDuG79gRtQji3qJPf04wFyVODworOaNMLT085bGPCWCDx099iapxPp8O3EFh40PS0ISF7+nC0YHqXbZGLv+TrqdJ9fOA6WqAkaLTQlAjQ9JTgfomcP8jLH3RU5Ehu6LMJmfzZocVWv4RhnAVcH7p4ecIkD/vwpUTtvkTBpvjiI8mwH7riAR84FiX4tmcl4HXScF8RJrko0vKJsWwp2Xj1hDafsCvAhy/YAE2tRE1nNkHDExgcO3kKS3YTD8mCn8UAXXZwnw0V1mTGh84aWhKi8XzLz/RUkLMP+SVc480NNOnFLxZJ9rP9TCf24ge2U6jDQQsNsWnO0N/RWLKxi7jWjKcv++Ej9vhcgeGeRYT/yIGep006AAureBBf6AI+Mg5tccDWYp59LFjsQG902+0Q83TJRuxdEcU+ZKezeGBXuIqR8oFj52jT06tdtrcwkYONAL50ZRN+wAsf12jiwb8Wen6xoPbgxB/Fs7Hk5S9HsYGHItAcMBfNtXYjxIg40Iq1CeygEBVvbKZlW/fYU86hPxnoCJff2RdffPK1+UdmOvGrBwsFjDlorBjgJ7HCnuTUxDOdLPDo8Bv+ePSXdvSUV9iIn9gQb7KICede97I/fyYTcM4uGjuiqYk7MtI5ms159/hA/JAfDbFu3tKTPcniWLFWrBibDcwNdqK3fnqKD/Fu7KkgXXe4PbjvVW/9wAOf9KQnnj3545949tSnPP7s8Y87T8znN7zhPZWJBatANKkETolCMDZxBYt23Y4V2BKUSWcySWZNgCajSS+gTVSBrF+issCTlfzwnZtA9DBOIjWR6SnYJbMSsXuO7qEr0ZNFv4mKvgUpfDTxkzDwgC+h/NzP/dySZLzOMqnJKZGRGQ00yYWGc3JoZHaNF701iUkSwlM/fuSBR+cSPZklB0e8muD0QDc7kAEO2+g3Nv3Ig2bNGLjw0BIf5AfkxRte+gCx4teLPc3+4A/+4FJogHgBCQm9bKgfLb7IlwCv/JW+2TnfO8+W5EMv+yS7exqZjdMvFtiS3vrRAcnCPujD1UeGaAOyGNMuRvrAQ9OYCh3ykSc70QEdcUMeOI5o0pnfQfeSwRgyGG8BgK+PHvoA2eG7ZwwdzB0xYayjRYLMxQ6Z0SkGyQi3xdQ1ehodjYPbjkb3A3qip2jwC9sWIa8tLMR4sxs6aOPDbyC504WOycgm2YPs8NhKPKOX7PrxrmBAS3+v4+ykeYj46q/+6mXBQ3+C+esHLfHy1K5QQVO85G+Nv+nZXHOkE1uA/M32fIAPPDKJc/LSl++MQ49ubAEHGKuhiT57wUePbfSLNXFEZ3LqYy9f+kbXH/uxH1sKBnlL/8ShE375Hl2yRDPfkz0/GG/+sg/9+IU/itNiu/xcjOC19rX7aAJ4/KT/VEDWHVbwoRtgF8KNFCCXBUF3E44VmCaDSe9cm4vTrYIJYnKgZXKXDOMVfXoGEp2JodVvckpo5DJxTCaTUZ8tX7sfvkHS00fJCg/HaHSuH238TXiArglr8qJdP1w6JDMgs/tz8l5Gr8vaMjmTIZknoKVf8vq1X/u1ZSv6Z37mZ5YETn4ygOjE27FWf/cCYw7BGvcQoMGmeKTHVSG9NefJle+2ILwaeTsnR+fTPtGHm09dk/8yMG0YfTTR0sRPdtA/8YPGNbZzALfx2hxLRjHgSdfug1eNPlyqALHIiIUZpxPQiUfHYMqIJ0im+h0t0J7e7RSYdxULdmJ8PsvTd399Zv6vZTHuN37jN5ZCycLtyZzMbMZH8NM5vsmxJXO2m3aKljZ9ijZcY0A8jIUXbnTg2dEls90fcsJRfHkAoLPP99mNpQ9Iji2Z1+ddOybLuqEXnusJa3prmDYJtvBuFda0dziHWzDvrWXLDTilc28CCqAC/RSAloRk8k/6nU+obz1RnHsiMcF90NK7ZknA9rxzT1ae/Ht6YfeZVPRpEg45FBnJU3Pd0x68+p2TX7JR+NT0RVeLl3a7sKbjPD7OS8qBJMg+FW7kow+ZPWk5kre21v8qcJWYvirtCfGZuqf/Mbrre+joYxfQ+cRzXoM/eQfdX0P9s5GTffPRlLsGOgauG8tH02fRW4/hc7sI5oECxFzw6sWrG3EAv8W0Zm7Eiy009GfT574WNMYxORTtih/FBhnMUfPS0QOCxdjrAoVJPpiADjndy+74i1nHZJh8Zwu63sJF27FYCP8igBMtwNZ2dspDdNb8FYoHJDtOdkrwU/SsY2ndklWjK5+v/d5czR9z3Ba9rfPaFhzq3+HOwck/A3I7cB0B0qQI1pMkKIjXMCfyhNk/eTS5mjggXuHP47oB9ExqT1S2miVd5yamd9ee+rzbxEeC1eI3aW31bQF+tYmrbY3Xl871dx2EexlY43Yd7c4lKVvN9PadFJ7MKsS08Oa4YH19Fbho7OR5K3zmuElHy/6HYMtn4W9dd+w8mHSCrq/a8sUhmHhz3LqtweuD+RdVPqdlwe+VQWCsuaJ1vUXvqtDCaJfT5xfsECiEzHmvVHxOyrwUp1tgTotfryy80lRAwY1uLXm3ZK5v4jUO1LfVtu6DOZejVR4Dii2flfIgpAjz6tdOj8+KeLUSrcZGt/51C+fQde0qsDV2i8Ya71bbDqeBk72CKYHdTbBeFF3XyCrwu54TZ0K4FwG8NdyqPSQqSc6E90Es1+TzhC9xSWC2PSs+gCS25jevk6++LXkDOOv7ruvLbniX5Ndwq7pPwGPSwU9B5gOA/vLB+2IJMFjj3yqkZ3AKmpcFOk7+h+IyWMu6hjl2C7e+i+gAtNayXMY2h2hfZuwE7/h9CFgxbnfDU7i5YDcPZDst2vomn0M8D/VHL9oKH3/aSQafZXCtAPIhT69E7SoCfpvQWEWLOWOXxDgL/RbAD5Jh9kVf35S960P6bEG01+PYWx5S8Cmc2NxujR0nu7Br+a/C9yryXQTTLhNOyWOHS8DFKeRD4NoKkIL60ES5TtgKyOSRSABZJIL6DyX6SeumA5qsig+JoNciAblsk5KJ7Nn5kIzp6b52LDGnc/gAfraTdNxzfchuW33HIHm25AjgsMeUQzMGrpYdbhcm76vqciuQ/JJ8dpjtEEw5wTFcsMYHW31bMGUx5iJeEyaPzuf4Na0t+vrEPBs577XLGsRHPBxrcLfwt/qCxoo7OwLtOnoNqIm3djDsZoQ/54XreTwkxxrCB9EN1uMnr8vQDg7RrF+fxu5sIA/Rzf1iteur8L0K7mVg6hGcmscOF8CHuuBCuLYCpETRdqT7c1JeBxyaBCWkFq6CtS3GrufYzhuntdjdJMQfX/ab4N4x2SfA4w80tGgGnR+iCSSg6VM0tnZergroSOZo8Qn+aCaz82TuHpjxdEjmux3Sh201IM7Ygr5g6vnhCHTMP0HXdAsu0tEY8ZDN5ljQ+MmrOO/eRTxA4yduPDXnWv4J7yq63ApMvW6HfnTWx2NxBkebOjYum3R+GQgfNEbf7ei1w10EH3TvUXjkDL4NEDwzqARqi9Ns1wmH6MebTLMpkkpQQbgTGnsnAO+esNaQrFPeeT5BPxqH7k/YoqmxVYvk2t+3A2hPHSftQ7KsdVnj3a1AL4toT5TpSR9t9nfvXoCpz5Zex3wHn82yy9rX83oeb7UVW1t9k3Yx2/V1Q3xul1fjozV1Y98KqwnhTWj8+vwyEP4cc5XxO9wbcJJVVdDOJlkUxJJGrb9e6CnmJkFwN9EqjLyT9YluR/JeJFNJsER4Gcgm1wVXmcDdT57LyDXH0Ju9vP/u+yhOpRvfoO91U3Txrt0LQCfNHOhL2WbsOTZHmj/3gu7pHXSebsd0ZAf28CewPg8lNib+ofNA3+yfsrC9z3H0JVv6Z56aMq9hi9eHEyR/OlZcsHfxuMMO1w0n+SuYJrkmQVicfGLdJ6ZNbOeafpNecNtqX1fU1wVTPg2U1CQfx/48riIlcE7mvuiGPhKU1xBw6TLx1+B+OMfwbgcuQ5sMkmsJZsL0Q7TWNJ3znw/g+epstuhLv7b8eMguW/3k8SE3Cwx/+LDtOj6Sp1bf3Qh0BGv5kt2i5+u3FSD+ikdjT9d8RHd2hbuOxzUcsvPdBlOPZJ5tC8SFuSY2fPulv4Dx4WP2Co7RmP14zqbfN/f6Zl1/Xmrui2e+kQ/kq77Q6zKwlmGe3wTQCVyFL/v6Yi9jeygL1vrssMN1wMn+DLeAlTD8rbxFyvfy+xNSE91fL/ibeQt4327nXfdNwZygkjwZfaOfr8u2sPpG0BLOeuL5axTJz++yWCR8g+j8W/9jE7WEd9FCcp0g0Si46DmTa59puaxcFgJ+9FsoxvozPIvBOklna3CI9uyXBH3S3l8IkI8vFITZLNx5Dub53QJ0r8A7JJ8dJL8jIg795YRvr9RHfwW8D/rxD/21y8DdaIuATv0VhViZc8HxmOzGmHP9Dokv72KvcsfW+EM0Zw7Q5ADxrPD1J7H+wkz8+Qp2f2nlrzz4Yh3fYB3j8VsfbxLIdFm+cOUEO3GzCMk3l427HXa4HTh5lEmqvi1QsvCDQxZu3+CpKUAs5ooQiWVO4usEfGqAjJKOH/+yEPhaYd/wZ6djDRYTMvvhqN/8zd9cvgXQn6ahEUQb7lqv7q3vO6IxcdfQGHiNq6/W+NkH1zGAQzc6e9qr6IIzE1a0k8159IFrxYvfcZCk+RFeDW74nSd3UD9a0Ycj8Vtokgt0PATJOemDaNbvCE/CXcsDXMersVt4INzaFt31uPAc4dlN8wVPivN2BC0CfUU1XMA3k59+Bf4hHTqGq4VbOwTJttZjPXbdp9F/y7bO6SMfmP/0JT/YWiijB8gD4KGtIPC7SGLYbpF+DU/3J98tmHTzRed8gEb3243jJ/cD96Y9XR+CcI0/JlsyZL8tmtFynLSSwb3uzwYc0U5nYJxrevaFanyUb/biY4ebgpN+ERmQcCQbQe5Hrb7pm75p+fXLz//8z1++Qty3Bfrb/baYg62EdApokjpq+DhK9n5N1SsFBYUvtuo7BUpuxtHHD0j5dVl6+RIeT2Ge0j0dBSa5RNYk9jSRTsngnmaCoyvBsUNPWPBAMpY8WpSNK6nVkhXd7pWge0pECw2Fh1/V9GuqvjjJk2R/2ou+sXQgGxrG4Zl8ZJG0skNfha4ff68O0lurv50WgCY++t0HbMDutsB9x4CnUfjw8G8sIKemj4xk7XVNeGhb0F1r8PkYPhutXxvBT04yGZtsaz+mk+ZaQcYmcLKV/ngDfobjPnktxH65WAz5sS1xZ0fNzhqfOO9PTLMVHdAQt/FZy+YcHnxy8SV94buvBY0DxtCZbMawJ4DvntZY5y12aDj32sz4+rKtewre97///Utz3/dl9HsrUx7AtslFBxAPC6WHBL+1wm523txrHvXnoVuQzO7TTxzwtYK37/PwmzJiWmzY+bAbwhfowiUrHTXX6PGN8zVfuMUmfvwUTvoF6PGVlozaxMs3+roPmq/FB0jXaBknbtjWNd+io+D3IPG6171uKbZ8r5A4PGbHHXY4NZy0ABH0JrOFzrlvBfSz5hYUk1nzxVEtACZCE21OuFNCdEt2+JqkJqCfdZa8yCQxktMkTDaT1uSUPC3ako2iSpOg6AFHYrS7432yosZih0afK4HjCc6Thi9SsqPiGxQlANeSj4mPHnwJBU1JFz1fhexaoveNhJIK3F5TwFdIodc7bcmVzpI9XcnnJ7XtSKFjkXOP7vTSR5betaOFJ4CTHnTjX/w1ungyVaTRA57FQXKkL1nwSTcy4eV1g4U4Ozm3HcwfvuEUvnvGzNigO5+Qkaz0ZUv98ZH8PdGxH/k0P99t0feqR2zSGb5YIBN50WUnNtd6YocHPz+yE54WLzTRpqv7vVokNz78AMdP2sPxOlJjMzGnIKcvu5KTLOxhoWjngA3Zxhgx67UBO8FpwcALjeKQ//AhryObsA18sk0gN93JZ2erhYgs7Mpm9PVaiC/4mb/5kMx8QUd2qYBhA/f9HL7XJ2TCBw0LPPnzOZr68bPYpqtzcjiiD//Zz372MvfojD49yaeP3baATGzDjnxF3l61kJ/tfKU7f8BjdwV7P4xGbryNFxdkYyv+x5Nd6QuMgyv26IwXemigxTbNWbz5ly3NKfOtggU9TVzyN7wKovxHBzTQB/r5Wy5wRK/4JDue5jI7k8/OrzlkvCLFvBXrvf6b826HHa4DTlqAmGQmpSSpEDGBBLxJJPhNdIHd4iLAa9cJJhyIVwuDiWmyeQ+vTwHiSYjc8CRtSVUSNWHdU1B5avUUBiymLdiSPzy00fNUIUHRXdIq+UngkpSFQfKR5Mkh4UlQkpjEINmhK8kYg5d+iyb+ElKLBzpwJSqJWVIxxmIiuVhAFFISrCSjWfjcB8b5nQeJSsJDQwLjJ3pYWPkRXT8CJlGyEV3p3QJBD9+SSEa7RnAtDhU8+iVIY/AQH+iTXVInn5+ZlwzZotjgQ2NbCMiqMDOGvBU/bEhOCVjB5Zj+8Cw6Eje/wI0+HK8NW0jZQyzTk4zw8edfxQQ/sD0fkscYMlZos1vFeEUhP9HP0TU9fa0+fOPhij22stDQTeyxoxiy0BrnSC62tmtiPtGfTOKLjOxkIWdr/MkuvtkajwlowcMfTzHO38aIRfpq4p8d6OD1Kt3ZUlGcH9zjO0UG/5IHXTFMJ/Kab8bRQz89yAbwQ8/nx/AXS+yc/Z7znOcscctfPmcmboyxo8dPE/jDPORHspl//EtuMeJIbzYxp8mAN/uJm3b4jBcbxZtYohtd+QpfOpOTH81b/MQQfHgKLrKIObFhLvMtvcjBFmzCF/Q2V/iA38mNph2aClzAduiThV/IgZ5cwy75hhwa/sajTYeKI7Ykn5xCPr4zl5obO+xwXXDSAsRkMVklQpNLgjDRTAaTQrAL/pLNTYLJVDMRTU4T29c5ez0kYUhsJrmkAyQOOkjwXtGY+BZTCdRkleDRePvb374kouc973nLb7VIDD4zQlfJFU8J5C/+4i+WBPj85z9/eR3ldyzYBL6jD3XiJfm99rWvXezpp/f92qfFyoJ2//33L0mEzBKn5GVxUPSR64UvfOGiA3u/5z3vWcbRS1IhfwvvS17ykkXWFj+yGfNVX/VVy695ejKnn4WMTyVoeuDnczOSOxyyJbcP6UqubEp3xYc4wMerFbYwzkJCRzqLBU0CthhYSC0mdJQE4eMrKbvHHwopC9Pnfd7nnX3hF37hYgd+8Jcl7EJfceczO3wN7+lPf/riQ3K98Y1vXBKuBZVd0JWMf/EXf3Gxz4tf/OLltSG+CiU2MA5dCd0TPX5o+k0Mv2xq4che9LcYsedP//RPL3b/mq/5mrOv+IqvWHYFLZj08MRNXouyhYMMdGEPiwmb+MwR/9JTg68wU7SKB7ZC3wLzkz/5k4scFmnyiwd47373u5eY5i++56sJZCW7RYlPxCY52I5t6MuPiiV+4b9Xv/rVy86EYuUZz3jGQptc4pPf2LrfRSEf/5Pry7/8yxe5FK6KQX6gr3nF3vhZVH/3d393sQHfiRu2wNfrTzoquPmXPi996UuX8fhPID8byUeKONdi8QUveMGCz97mqULj0z7t0xb/mgv8Jj7ZW/wpPH7hF35h0f1rv/ZrF33Zk6/lEXOffq7f9KY3nf3+7//+IrfXReYvvnZQxaexrsXPq171qoXOV37lVy5xpIgxB/Cju3msUDK36cvX4rViGC6fiUkxRCfz01yml1jBnx7il83pZS6bP+xunohXvhHP5gR794C4ww7XCSd92SfRmIwmjiQmqE3snog9kZoYJqqkd1NgItW6llhMbonWn/ZJIBZ8E9RRkjNhTXITUqI18U3MnsxNXviSiMks4UqutnMlBIuXJNtTjd0GSUThwUYSgaSOngRLHgnZYoCPhCKxw4OPNrqSCfktLp7W7AaQjQ4aOYzlCwmppxtykUFy69wCwQbkkoDw0a9P83QkKaNBPg1f9xQeZOJjPwyGL13gsk9PUXSXdLUKCuDaPX2OaIsL14eAzSVcPpKM2caPgFlULPD60GJzdFzzryRLTn5kf3JabMnAh4rk7IKm4kCzKCgW+BKQkY0tMHzDBug50hctNkPbDpICj03xVgwmC/+wIfvzdTZAwzVwblE0Bg8LJT/hC0fMKA4tzPiJAf5ol64x5p+YIfsh29bf3JigLz+iYWewnQ708XLEjz7wgPtiia70EIMWOLLA4esKlCBbmHviLLvAIYO/XFFMWJT5wMLNZ+hsAf8qzuDPHUxNMaOx88xHeBonxjTxjK/iSIywsQJLMcOn5hk8uUJcuec1bb5SBJhb5KUHWmKYXcQF22lkEytsa96Wi7IBmHPHOdnFetdwmxfiTHNODvfYQlHGB/yhqFLEmbvimn58EJ8ddrhOOGkBYvIJfovqy172srPv/u7vXp7IPY1JTp5sbMfabTBp7iSYjBKpiUZmE1USsqB7QjVJJXXnErsCwxjNpAcWGguiCWxCS1TGWVgkJguQxQFdtpEIJCL38LQ4SQwt9Ca+JCcBSU5sZvGRFOBLfBY6/MjhCbSte0mQXGRGC77E7AmNnmjAUSzh47rkLxF5SvJ0BhRAWom5reEWMPYgH33QVBRJnIoQC44xeLBJCU0CnUl0NoDuhPqBe67ZUDGo0Z2t6YanAuQ7vuM7FrnwkbjZQBEhuVoM84vPEViULXLwJHoxydbwAR+Q2xiLAXuQQaKHh4bFA2+08aCveBEHCgPn5oIFCR750bMQFgN4ALbmD/5psXXN555kxYIFQszgZZxCnpzijC7ksfCh38IiBpLzIiADGUE2B/zdjhT9NXjkMW/INAsM1+Qzni50qohgI/eisy5AAD7G1uCJKfYU6x5i5BI7H/zApsaAGUfO8W3HTYzmJ/ZgV+PJIw7wIit9yYUvGsU7PLbmWzGowOBbdjDeqxA2sIPGD3IGWzgn6ytf+colVux4kqndM+PZV0zARbuHH3pnw+ySbq7JOe2ln46KHvqam+ageCe//CA+QWP5Ev0ZezvscBNw0gJE4Jo8FlWLkapespYAPaWahCak1xAWjmAmjZsCickTFjlMQonUtacrid2CpEkokg+9yGkRbiGVdCyCnmZsk9vq9m7c+2KJSqIzueGZ/BIZOia5a/aSBPRp+sijCJGQJHUJC1+tBcwYcriG3wLqQ2Vvfetbz971rnctuyJkMB5f+Boo4eNfArKQ2ea1S2XL3Xk7DRU3yWBRk1xLVuTWT199a3+Go6ED2FC/Y4UNCNdxgmt62FX79m//9oUPHW15s7kdDAuGse6RpwSLvqTrSEbJ2D1Jnv8sbIo2i4LPS/j8ARt67aDAlMwVW2S1ICRvjWz5TwyxmYINLj9W7GUD8pELDr7ZwDhH1+g6h4d24/U7uqcIg4snHejGRtN2zo1lD7TWdl2D+3iA9GNX/AB+oKflFmlAL0UVeetjAzEaDTpG1zW5exjBWx/8bKDpVwR7NfHmN795eUWCh/nhOGHqZyz+8MxvvmC7dCAv2+CpGctG7ieTMQqN7/3e711oeK34hje8YYkPcqDB5vjY2UBH4cfe2RK9inT4fE4fePKhPqAAgCdfuocWeQG78XdyGqOP/bJRAMc9fY3XRw7XdKQ3ftPGO+xw03DSAgRINJK9YJccTE6LYE/w+iTMkgC4U8FPVs1k9uQrGZBNYvGkZWG32CpATNomcUnFJJd4jKNbW6m2dT3deCWgGKM/HWdCANEB7pEFOHp140kLuEdGMpTAJTjySErwLQjx9lT2rGc96+xFL3rRw7sS2bgEFKDnadJnEOiLDpnRkXglbzImp/EVVkF6ac7JRyaytfCDdA+fHDV9swXzGl0FmGJAUeAJ1qLgPp+9973vXWwWP0AO1/GpD63kcY2GGFAwWyjY0tOoJ1Sfi2ELOMYdAnTEgwYXP4tN8W5sjf3w73oLjEEHnhZ/R4BfOPoVri324aUjPHY4xAu4Z2y8gOvoAf30soA5TnrGVSilL3xt0omHxj7kZjP36o9Pi7M4Ek9eY/C7mPYgI3b14xego9HXAq24VmxOv0zgi/hEhwzkBIoQr1t8pkM8iD96elARd3Y0jEOfr+mzlsc1evHXwslG8NAgLzrh1q9Fg3zG03361TF+E7oP4qeZ//nD9Q473CSctAAR9Ca8p0iJoScZAW6iNDFV3oK9iaLNCXLd0OSLpwTkiUOh4anOkzUdJC0Lkl0Q+CY6XeYEl4gs2t7feoXhA5y2dZ173WLrXAIzfuoa79mHfsnQqyBb/xJR+J7KbKGyK5zwPTXZ+pYkFT0+GGrRtBVMLvdLeuQA9MCXX7zG4S++g6948krG6x67H/gmY+PBPE8f4Bw++Yzld4kOfklaA/TQ3KsdAvTISH9FEjvbEVEk2gHyIdg+X5Ru+DhKsIA8EjxaiuGeBPldAaLQsMgo4PhPoaO5d0g++qKn4asp0tC3LW8nqsIxm2TTixL/tOsa3ONH8uOHj1dFcwcBP4t8heAxemzV67YZH+g5Jq84CrZkh2c84FsxCvTX9KFj18DOUzLXyIl2MUt2OtpFFdvmpQ+R2hUhc/wC49ERC3SHo/EDmvrFpXhqzjUGzAWebK4Vu+JNw989O59ij4xiiA29OnEks2Y8HcUCOeUDDy38ouUXdldAm49kpS+58HafrPlBQ5cO6Z4v4K5h+sn5xE3vdN9hh5uCkxYgJrdF018T2Br3Ce0Svi19fSarhV7in4uR85uGJq6EpNnF8PRrm1UBYPeGrHZv3DdB6dhi6jWE97YteHY67BhIaBKD5CrBlEDw0+C6RqME7Qgs+GhYTLwC6cNvFhZFgicuNpZ8JCg7FT5jAwcvcrKtRMXuLRiO8PGFJ5nRA5DHIoY3nSVE/NjA010JEg0NzPMtgG+3gi79BQPdyekDnT4UKDYmDfZwXXKcgB47+2sir5ns2JBfcdgHQNmFbvRBg+x2dSR19sBbAceOYo5sfMbHfO8em6FFdj5Bj/xexRyD/Gksf4oNzSJJ3woAfPmWHx3Tn23oh04wz7fAfTbssy78pZFVP9kthv4KhB0O2TaA668z6NtizR7sqBUvaGjoRTO6cNgaf34Qi2wsvly7Z4w4o7PXfWxEVvrjR1bn2YRNxSZf+3yDAlHMo63gJC9+QbLhaYyiWmE5i0G+5hdxxC94ADZ1jS8/kouv/KWb17NiSEGv6PXQggZ5yWLXjMz0YS829BBDPq9H3/e+9y3+b6dNvLrX7ow4lTP7k1m6Ni8VLeJWPpi+RYOu+DtOmH6hX76qqCnOndOLDHy0ww43BSf5M1yTVuCWECUFicYk947dhDLRTTTbp5KHLVQTyOS2OJkUngpuAsgpSfuzOAUEmXqXTEafg5Ak/MmgbXgLNz0sfp5y7DZYtExcyYr8EoJF23hPZZoJDh+exCL5SLwWTEmZHPo88Ug+nrrbrWA/tCWYihGfc/ABPE9insotoCUZMrC3JAuXzZ1LXGSosPBqR9KT4CQt9xQzeMAnj/sSK//o51s7OuxggbBIsQ/bSI70o7/XVhKmz1hoEpqFV+JkGzLSQSygIwYUfI705BO6eIUU3TWgIb4keLJJ/opbutuJ4jNJlR/Yit50dJ+dNbwVHBYmY/ApJtxjB/TZgOzuW2zEiAJasqanBUcfPS02aONrq158wKE3+1k40BIHjnBt5dOVH/kMX3KxnfgwRlzwFVvTAy22Fl9099dmfME3dDT/+E0jPzxFiQUPrz7/MgHN5i15Faf0J4/xZAb+zJys+Pt8jEXYrhsb8Js5Ijb4U4ybz2JOv9clYhrQA75CgGzs654YwMtR87pFnMsN8Pje7h4b8XE+g0svBYM+gD66xrIf+mSjI1+ZH2RiY4WiOSUW8EBP3NoBo5v5wT/usSuefMhG7OEhQBzzt9hwn42yofg0r8hYzJBPrMHjR3LQEW80fWaOz+lkLBvabeFjY+CZR3iY4+yNvrmLP/D61TwCxQz97eDQmd/pRBfzUsyRrR3bHXa4bjjZ94BINCa8hG8iSGImlMljoTChe03haLIKfJPCBPcUJwHcBEhS5DPpJB7ySODkl4j1S6y+r8NE1U9GSUKBIOF7sjJZJTiLhIks2RjfzoVEWUEBBx1JWbIylhw9jUmSXntIPhK0sRYDRU9byBKLhYu8EjNa6LAlfprEhBeakm47OJKLZOZe/jDefTT0k1+ik6TwyiaSGH6uJVh4CrcKqeyjHy6a7ANfImNP9NFMV3aBZ2EkH13ZwhgfwmMDdCewI5A4S74am4g5r78kbXj4KIjQIyP+LT7izCscr8foDkcTq3DQEx/OJe4+BwQHXX6jp9jpSZ6t6edef9lgkaSnfq/00FOgmCvG86NY4AfysS27GksuuOza0zU90NdHb7HGL2yNHl4WNQteBR/e6JKVXeGuCxDA1hp/KQKMZStN3JBTYUUnuirEFFDNHePYzwJtfuBnIUMTvrlOXtf0Iy8d9bEHu4pLsqIlpj0Y8Kcx5FHo0VeBIz7QYVO0m1N8ny7OyY6WmPH9GPTBj235mC3EoPGKTP6GYzz+5iMa5ku8yMi+fGExt7vChy3c4lihz/b4mJf8qlgkM3vhazy/o8lvbICv16j+egpvIMfA9V0i8NiMPOwq/tDkC7mqecQW/E0mUP4ylh/RZh+2kKfFDDoaOvTQdtjhOuG+V731Aw980pOeePbkj3/i2VOf8vizxz/ufAKf35CiLgo/k2KCSS6gTQwTweQqiAW7pGOxcTQBJQDNpDNRJJWbAAuGiUhGE5g8khR9yC65SxImaclLv8QkGfSkAN/EpqfkS3d6wae3hEYnY9zHl67GtgiQQ0KTXC0gjZdE0JXAsqHk/su//MtLIvMbO5Ka5IhGT1P44EF+crIrHXoSzOZokg0OfmSQ1IzNr3xmDFyyOeKFD5r5TD95yWo8m7pvLHn0Ry9dHOHg74g32volc31TFkfX/KBI4iNy4AtX4qzoYTcJ9Xd+53eWRO4zA2wePTYjd7YB7dbwJz/CgUseMqJLfnZy37nxaLKf8exKPos0G7iHpoWoRQ0d9+A7TwZ4Wn4TB3ihRw40ixn86U7WYhTAZWvNPbJbNH/pl35p2U3wZ6AWdPQnoF9sGEte8uGHPrnpKwbEUbFJD3Lhjwb/8Q1cerA5aI7AgYs/HHrgh557gMz4ORZf7rENPDKgAYfM+IkxeYW86BpbM9Y4tlTEGEdu/fg75gf9cJur5i8a+tg7f4gNdNhCrBpfvNCVHeG6hic+0C8u9LMvPugZkw3QqcDKr8WWBxsy60eLbGgbk/zZCa362AQfOvCRsWQmP952YORCNjSHmus77HDL8MjSYBvOY/S2CpA1mLQmRJNW0Ds2WU0GRxNCn0kCH7jWbgLw1MiRDCWuQH+QXuSDU2uspBCOc/foKVGka9CYaMBf6y4xeSpxv8XIouCp37cs2kX6xm/8xuVJE49oSi7sbZwxEtMpIPoaoJtz/S2KzrXbhWisbaLfNb5sLbY0yZkNLHaSqvsWXdvtvr3SK5nv+q7vWpIue7ANQCvf1DcBv3X/Fh6YejvPp8UXGfUBtpv2A9HtOrnoOWnD09zrGqBvcbH7pY8tHC1GtuRf//rXLzsHX//1X78UrebhFpCJnGKoOLYQpsca0qH7rpPbudhAo3tBtOp3rA8Y04LeuOwJ3L8MRHfSOQRoRnee00Vz7bj244R0wCs84+CRP78lU+C8eQuH7o7J4D7e4t0R8GH0QLhBPNhMI1P44sV58osTBRMa8s26QN1hhyvDh6aLDwXxeapXME2oJpHgbhE0WSwSWpMRXs0EcbwpmLJqyTNhXk+8ietI9qlrujtP1wnRigZwPvEkAx9488TmCUVhYXGxNe6Jz7a3984W3MY5koUc7D2TmOPttuik76H7p2ggeo612U9PidJTngWXvt1nM0WILXdb696nwxF/8OgweW3BesGK/wR9xdIa3EtW/PAtJqIVzrql9xbOGvRZvOyA+fCjbXwFrL4+IwN8HsDuBztMvaf8aM0YYq9jNoK/lrXjvNf5uuGVLzqvRat7jqD+W4G1HNFdnyezxj6OxbxzuMXRlv/DCW/GXHTXeGxdDuk+2jVgfLnFeRD+hMkjPrMvWUCxjjYZHHfY4SbgpL8FU7DPidYEmxMAzMkVbv3BxD8lxG+2Lah/3iefCZvcYB7pvqXvBP2zlUy6jrbFxK6HhcRWtYLDk6zPiviEfGOMz27R0NbXt9vwmb6tnZrPbIegpLmFo2BThHjS88HLPqvS4n+MbpAPwr1ozLy/Hjuhfi17brWJN9saZh/9bKX7zI3Xdb1y8GfVClavqbbicsYyiNe6b+o1WzCvHfG+CBpzUQvm+WWAzFpgfPbt+hjN7hsTnfrmuM7nva08sMZbn+NRfuncvWhNmnPcFsw4AnPM7Ien8Kj4qP/DFdjtw12HRwWIwVO9gpmT8zIQ/gyWdeDcDUGUnMG8Jt9lZFyPuQhs3/rMgKdXiwiQGDy9+oCYd9Oe/G3HSh4S0lV5fLhDiXlLVzsAdgTsGnmf7gO966d59spmaxrdW/cfsuvsP0T30NirQrQ70km8KLro7bMxxQyeYsZrF5/lcL6G6FwG4KJ5SJc1ravo3FhjDsl0K/QqVIO1/Jehmd5o9QqkIqBiYQviNeMOwK+tYavP+LWc6XWIN4h/Y9c07kXIHo8GXe9qOByWj4D7/udDBchTrrkAcX/eW183kedkve4gukywhgOuKs8cO/W9Ch12me9sozlldw/erdC/F2HG0iFbuD99sobsu4Y1/tb4OTYeh/jcCqQfyPcWRlvzwVX4TTs4X19PuEiXib+mCRo/r4HrSXfSCeb9YzDHrums+YPL0mXnbH9RAaIvXjMO9YdvLOi649a4CdEIfwui0XmwRe86gY5TluuEaRO22+EOwuHQfAQ8Bp72n+fx8YD20PUlxz8Mx4JsTtxgjStgmnDHaJ0KyLIlF5iB3PGq8qxpTt0uC8nXZPKkWx+Y9NbHDwdY2whM298qzFg6Ble11Rr/MuMvI8dVgG0UG8VAgMet2m0tX/EGpi3xvIgHvFq+1Hwmhdzx0jfprfG3YN4/1o5BOFOOy0J6NRY43/LxGje+k1+2rfV6JZj4W/TX42eb+JPnofM1bN3Td2zMGvi3DzRfN5DLgxqea1vtcPfCg5nmNv3F+ceSk4CoHYObDpxjMs1+iVNwNwHpel2ANn7xcb5OLOsEA47pcjfBOk6y6anhIltkr0N2W9/fwrkMrHWjv4R8FZ3hij+xAIqFgGzz+hSw1pcM+F8l9qftLKxTRvSuQuuyMHmur2c/WF9PIN+Wjw7RONbC6zj7wezTtub3hGP3LgOHdJuw5lEuuiqsYxUc4n2RTIcgfeJ1u/bZ4ebgtrJWjtfWCwtwLWhLXFs4dwKSWWti1dpl6L5g1q+S9569hcC9Y3CrkwBtH6D0YUKfA8EPrZ6OSuQX0U/+uwGSI5mmXOtrcCcSyKl4pk8x47MovsOhoqN5cBUwznj0xEO0yOwInF+33fCKX3p0fQzI1V+CsIu/8vJnw/7886q2WOs5r2c/WF9vARw6TL+kp2v21qae8Zz0Z99s3VsfOwfzHHR/3Q+O3btVSN9jIObkJV8HwG/gonFk7EOtxvO5uSCPrv1+jNahfjTIhK4GD69jMu1wF8F5CD/2BeOvYJ5wm3+G28QoAARIX94jebq3VRHfNJCDbCZDXwYkyZgYmiQJR8IMTCBfpkQPyfQynxZ3v3YIsltAFn9C6mviyeZLgdZ/8x9k50P017RPDZehD6dkU+GULo2dx0nvIv1ODfG/bNsCMosf8aSIfP/737/Mgb7sriLy0PgtgGuMZKsoFbds6K+iur+mdxX6E+a49Tme5KBj88R5fp2gf93XnPMlcb4p1Ln49tcXAH7tEKzvzeutcdFbt4BM5jZ/0Yd+9NFv/lnY+K8/eTd26jtpHmoTumafbITehPrn+HkODt1ftwnr6wlb/grck/f8Vd6f//mfL7bxHUTNa+PgdD6Bbuzrr/j8/pMcCsf3y8ihgfHouRe9SWtNF8iV/WyEePJBa7G0xt0ae1nYsstW3w63AOcmvK0ChBNyxDw3mVXKvq7Z7xcIEonTJO67GO4kCHQT4Y//+I+X34PwFeKaQPaV2RZ/T67+0oTMkpKq3z0TUf9F35FwWVhPXIuMyeSH+0xQX/PsrxfIsIY5YQ/BsXu3A+S+7ERMzs6Ba+cSvOTEljWQXcB16XBqmDKLE3/F9IY3vGG59rXv/hS4BfyqOsG3EPoLF1/d7dq3cE6bBddhr/zd7kW64kWnLZ5bfcb7cTx/rSNP+Jr7CqmLYNJzvr6+FaBHcShHKfb7sLcFzm/GyAv93s6t8tkCPNJj0s22wfr+Go7dA5PPFsTv2H0Fp3h+4xvfuOQj3ysDv9jbykWdG8vf73nPe5aiU9z667QKT2A8Pug1bovWBHTlSj+d4KsK/LVXhc0WjQnZ5DIw8S6y1Q5XgHMT3v4Keg6cUeC0xeqbPP3SpS/U8oNzPfGohu80CHYF0rve9a6z9773vcsTGXkVI+T1y5d/+Id/uBRPkhKdyC35K0wkToG41eA2mUD9E9yfLRzNNTuxme9yQG/CFj3Q2Phv0Q0mruZ6DXPsofuT38Sd1/McuG6cRVpxakHiD9fhNTaIRq2+Nf2OQTjrtsZbA5ypG3Bct/CmHc0D5/yoaPXnwDNm5pjo1w+6ry8Ih40k2+IwWCfE6G7Bmn60tS3eQL+ELybNEwW86+5pwRwbTcfswtfmkuPMB+HGXwvW+oH4rnEPwSE8NuUjvx3ki/6SSU4jo69AhwMa7xj/ZFhDOJ3TC23HCY2lY01f4y/iA9b2aXz48/68t24TXJO1Jq/7jhm/KUOP5HRva3wAV4Enx7Kz8y0bTFsdgvhlCzHoAcbuTPmjtWjacatFb55v2Xmeg/X1DrcOJylAQE4RBBaVd77zncvPpvsNipe97GXLDywd+iGsOwGC2ALhh6i+7uu+7uxbv/Vbz777u7/77Pu///vPfuInfmIJ3l//9V9fvggMnsrajzj5YisVvKc+NOhbUnG0bWsXowVHMHcOXBvTa6n5BFFD21eHe9JYJw604OhvoumPN1nxh9N95+RLHrj4SyiavgBOeOTDr7FrgGNnCC042UNSMM65Fn2ytO0Kh6yeil71qlctMaMvfZMxWaKvP3s6NyYe4cZv4mjo1fQfAuPZUoMbzXUjj/v0gIsmm9fsknnS67dtps/gs12+ohMZndPHfecgvey8+ZE3X8Xvx8fsJGavCdEgj7FBdJKZ/K4dp7/I5TgBnsXZKyW/seNHEhXn5rOxW7yAe80HNMhrjJ0GLfnhk4MN4OMPHxzSkR7pmS6HwD0ywJty6lMMvfvd7z77lV/5leVpGn9+smPlS/9e8pKXLPMRDc14PPFP1jVdACc9nPMpmznCxyO5HCe4B4xPx46HgJ00cqCHByjmgH504qnBX8sO4BULmrxkJ08ed24sOtrWeFB/OU0eXa8BcNBvrtUXTNnxIpM4AejST14xP8RUAJ8N2ExzrsUDRBM/OGRAOztv6ZWNazvcOpzsMyCcwpGeGOwiWNgkSb/FYZvVO3DBIWk2ue4UCELv5//0T/90kdEvWppUfozJJBHIXh9ZFBUcvkHSAiI5AfdNIjRsh3sqtMXoScnPlNvtkWSMMTFMEgGt8reNKXl7GoAvIXmiMN5kgOfp1u6R4sgvq5q0xnp68PQp6fXNniaj8Wj+wz/8w/IbKBYXNp6vbtCFi79fILaQeJqRfOG2KPCjSciPZNRsQeNNJzz50MTDB612hujjKdJTv2s4ZIBPDrQ18vucizghB53Ywb1+XI2ceFv02N3X0LsPxBkbk9/uCTpsIInFj754kKmnLsUk+/Cr+9mQ/q7JwJ9w/uZv/mYZS1byoAmXDOzoiYtcdCUDHtGMP5y//du/XeJfIc6++dGum0Qn3ti+frtufEnfEjK+Gnz2oBcexmbXgM3Jx6bwxQ790OE/PIznO/forE+zsyKWxRGf8yt90BQPf/d3f7d8vT0f84FXEuYCXY1rfiSveZYP6JecXmvwlZzgV37pIl7Ykc0A2fRv5Qo4aLAhPfGVb9iCvPjgzX5wzWV4mjnLFvDYSSyYa3QTc77kzz384cEnm9xAHn1slu/tVDpnO/zh8Cc8vNEXq2g7si2bsFn5QVvryT74mAPGGiM26SCO6YdXr6/EP5vg6XUyvnzKd+xMHv7Mbo7w9EeH3VyLef6kn89t4I1u+viVXT8HIQbwIBeb0bt8Q1c8ABn4h38V44pov15NR3KLJ/FBBo0tjCFL48UyXHPe/CRfutoBYUu/YC4eycVn/I42vnzEl/CSE02xWZ6hm3zGxuYHvHCL3TnXgq2+HS4B52Y7WQECONRC6vWFBf0FL3jB8gRosghqjqzdSTD5BaPFz+LgZ7dLeMkmYAW8z2D4KXZB5nUNXUweE0XACu6SNZomh0lhQlXMwJX8LSruS1pw4MMzHj/4JojgTzaTSp/JbKF1RI8M5DXRJQoTTWLBwwQ0iY3DX4KTjE1IfCQwtIyV5FqoJF8gmZLJZDQGngkPl+36hVSLkuRtEksGbCBBkAU+/uJAcsqu7MgW4sTijD4bwEe3n3GnE9rusTNfkI8ukgW741VCxZsePtSoCOEniQWe+5IY3f1eCnndx0dyJpvFKNkVAMZ4zcCWeLJ5ixJZs00FGvnQxNtiBY9N/vqv/3p5N+2dOZvxjyLDEf9P+IRPWPhL4volfOd8QB90JEG4bCHhk5FtfR2/sSVAOmqS75/8yZ88HKtwgfH5hg/cwyedycvHztnVPbqQm835q4ITbf4yv/FHg+wWGLLyOdvRxRgxrY8d6W7xYU9P1GKTbxR9+ZCv6T2hxRG9f/qnf1riQuNPsirwfFMwf6FvfokjPir2+yA5HnwutvG1yLMdGemEDn70Egv93D9Z0TOHydHcwJ9sZMj/dGdLePjyi+tw6Y+mBvAH7M0/ZHrf+9636GiusTve5q8FnV/xEgP6KxzlFrh4im+2NJ5PLa7sL47MQX4lM3ugwzbiQCzKVcbQWVywJ9kVjZ/+6Z++6ACHTr5tGC8+o4c+NMjH5+iKDzgerNiXfvDYUi6TZ9lCPLGf1jn5+cIDHpkUHWxA1/zpt47oItbMZXZnK7aBx/5sxsf4wJMH/+qv/mqJBX7kM/joF+Nosk3+WUPzb4crwqkLEIEqGbz2ta9dnCuoBEJJwOIlGAXhnQSJ0eQ0YQW9ySQZSFzumYA96SmiTC76+AAWPIuJAJYYTCCT2gSwXes3NwSvsQJdAGv67r///rO3vOUtS8ED15OERGNSmZx+50WyYEc2U4CY7CbH2972tuWzKX7Xw0/MWzzgKfb+6I/+aOm32+Q1kYkpMZrgFnQym8A+2CqR+G0Ur8Tck0R86Fbi0G8yKX7QlIjp6umdbTwlSojkjCZcvjW5yeDJyCJEVra0+NLJBDahJVc8xIbkZMFx7zu/8zsX+S2qeNkS98u/ziX/pz3taUviKrlIbhZvP7WPLztaKNBmd0mDXHSTZOhBNjZHQ8Eg4dgBw1/cvvrVr14Scj/hz8ZiQRFDXvzct3OmsRe5/Nid5ISemFC0inMxJo7ED/7G8uMf/MEfnD396U9f+Nhdg0fXd7zjHWcvetGLzp773OcuNMjk6ZM/2VEBIfnSR7zRhVwzAZLD4iNW2W7+Dg5fswmaYsfiz4f04y8ys6XYFN90t0gZa56wR0mY3nbnxKgFQvyKWfZUdPaakj0seGQUT4oTOogNecB4MpkD+FhEzCH+m3qB5LdgOL74xS9eYhGd173udUsM8JG4YmvF5m/91m8tPF/4whcu9sqf6JORb+jGtsa89KUvXYp+C6R4FYcePMQmPuKGrdiPT5///OcvNMzv3/3d311swXd0EadyDD/iwWZ8Tk6LrnltHlXEAfZ1blE17jd+4zeWuSX2vXpDm+z0JS9bk0tBYU6Q1yIrJvnHfMJHvOYH99jCuddp5EGfncwNi/ab3/zmZd5mj4pJ8SCm+AmunKAIYQv4ZIOrz3yUv8Sq3C8+6OsDvY5ev/ocnnhjF74DbAjEtnzB74oJc8nR3JRDPbDJvfjxF5nEnNzHF2wpnp/97Gcv94sJ9sFLLvSHCGQQ7/IMXflKXlfEszf56UUHUA6r7XCLcG66k74L4SDBwtEmtMXF5BBsgtXi64nQhMqZdwIEqeCWJFT1igVPVBKNz62YxMAiLaHSwaSQkEoQ5DdxHS0OkrkF3SJnglpY2EKiYgeTwng4FnSvdozRFCjoRptskkETxk4APs985jOXCWIhgIe2BCSxxRd9E9wi5InVAiMBmWwWSNf4SHp0I4vEJgGZWN0zmSUpuuEhkZFBUpRsncMnA/vgbQKbsHRzrqihA73nZKWf5G9MOyTxojf/oC0p6CcLO1lYSth0xoeu7CH5SSzks6DnIzTg0A8/xaZkyTcStliUwPjSoiZu+Q4/CyF7G4e+eCGbBUdyZ2vJCr6EJsYlLk+J7AKfbSwmnr7Fvjjyyk8CJRc5+ccYTaJja3rjTw76omVssqK5huwL6C7u6FlcsSko1uiCpiN+fEcn5+KJXu008JFigcxswVd05xN+RieZphxokz1wT4PLT+xlYTOen9tpSNYJdFJAsDO6YoWt+NODApnFAFpoWyzJLT74RwzAV2gpDsx9ixh/WqD4Co5zOqUHeniLY/TFA1kd2Yg9xKXCThNDcOnIX+yELtuKP3Y258WD3LP2kaNx/Ic3XGPJaUGnLzruKSoUqM7FDh+xg7kBn508iCgQ6SCe0cjH9MCPD8SVHKFANC+7j6ZcQQb0khWgSVZ9gXP663cs1toJkQsVLuzUbgobsblYyQYafPNCHLp+1rOetcwL48hDRgVCMuDDF+RGt/wlbvmavcUzuTS209w319BVDNGZPPKoHLbD9cDJCxCBYCJwtslpsmiSqKcBSd+EgHcnoMkjUAW6BcjC00LfE48gfvnLX74EuSQGX2KUgEATTL9JIHAlOpNB8Apm9+CZRIKeTb7sy75sSQ4SIVwJV6Jw3gKHB16etlT9diPI8I3f+I2LLSX9JhC+CiXJ2KJnMTNWkrbtbHJJZHwDh/4Sr+RMfrw95ShE8GUTyUZRQh+AFmA3dCq8Wlgkd08xkgg/u65Qojue6NINOBcjdJaU3HfUTHr3ySp5eMKVSCR599lQvwJEYlFYWWwAn1VwlcgkFrrxB/ksLhYARZBEWIGEL/pkZBdFFnuwbx/6dM0Pkhs/KqLYQgzhhZYCiH0rQOBLYrb5PVGR3wee82Ogn45sjR6ZLHCSocWCvbKhI2C3NdRHF/zR0VdC10fXkr0+8WJHRlEkLi14jhobsS96Fmj6sANb85EjWuzZccpXPOcPgCf7etL2ZI6HuDEvirlDgB5bkZFcbEUmHyT3pMuG+Fq0zB+xCJ+fNLK4rhhHj201OvKJY/ainz4LPLrGinW+oS9fW0jdB+K9ggKgC1cBQja0xJJ4pL/ClFz5KMhv8CsA8HaN1vOe97zFZnY+zHHgnt0NcwZ+xa+ijY1dK5wrmuQ2O0PmoQJE7LGL1xXwxB4e/MyO5gL7AbKyHX/zLUjn4lS/Pk2fsWyu6LTzQEe5i33I1lgtW7CNXGXdIIdcJWeS3/w3F8lYnsHTPYUKG8hTeMqB6NJPzCQrfHaVE9BlG/nFNR9VoIAp1w6ngZMWICahgBRQXgVI0lXaJoUkZ9Ja8E3SmwLBRraawC9hSDCCTjBLuBYpCci1CdqEmzSAwDXJgHsCswB1dL9gtaBJAsACqN/EQMvYJrJ+4yQt197n2h60k2HSWPDgGOdo4UBHcWP7/v7771+KJ1udcCQqOBK082/5lm9ZJqVtTIWWwsZWKYCHJ/8AC7snNK9cvGaxgEpiAE8TXjOmBE4PfNmX3dDKDhq7ADhsYpGGq3/awz3X2SadXaPnnicZX4pkUSeb7V4LzrS9sWRINuA+/0pafEwHwD4/8AM/sCQhdG3h2g2TLNlGnBiLljFsYfFkH/7p8ywSHUhuC63C1lY3OSVUyTw7O7q2razgtSDh6xUKHdGTUOkE0DwGbDPtyg+OARsCdDTX2XbajlwSs/ngCNyPVkWtcXg1Prqa6+ThU3wCsS1m7Yp6IGEDNsY/Gdcgjnu1YC4ozr1WFMuKEbqSFT+FIPvxkwcf9vSdLHyGd7rkf7LRSV4iM5ixR/7iyUKNtkU0/ysmjIUPjx4aHo5sRC606CHnsK3YIkN+yKZ0cQ890BGgp2jQZ3GtgCGbce5PcI0f2xiTL/RnL3Yy5xXv7vVQFGQv9zRAT+f0tkjTA310yaJlQ/KxgVdP4tvrFz4zB6PjvuP0P5/Q0U4PPnMuxJs+ARmBhwG5zStPOVEu87rG/GVXgI+ija760DWePPD4SX7TR4eOO5wOTlqAcJxmEnGc4OZYlatgVslzbE+dEwTDOvhOCQKnhoegNWHIZlFWJElu3hmSG846MUw6Mxjh1A+2zuGjJ1mAGdQCv0DHCx5+nt4Vcgo3ckrULXDwPH3ZWjW5JG8Vu90CRZ9CB80KAX5QUCkEPSl6cjD5LJDG25KWfMiHpqRuvAUZruZ8JqU5YdMnSLfZB+rX1tfONfTYlA3q0/R5siWrYoNunsrsJvCfIkJxEW106KBNiB48OPRgX7s2djvsrtDVOHwsMJ4QJTtPY+zlszdoiGm2YXfJlK3RTX5xrt/ugoVTv2LJU/NcCMSgVzN4V/h6uoUrcba4JbfjMcAXDv0AvlpjnYNi2zH6AB65xA2d6nd0by0DfuIWTNwafYzBB29xxGaeVMko5tha/E26AL5xQP5gK35iU4UL+X2GRFFgTrgmC/uaQ+ypGcfHeJpTfEdHgAe+ZCGna3TyETvQ0e6Az4BYEPlV3PG/OacpbKf8aKGp1e+cPRRR4jWI/zwXg2Sc44FztrBz4D55ycdXUyeNDPgUm2g5ArqRRfzrF2cediz6zgN46BfT0c4veGa3+ta6y1383mtf8isGFXToGht0TmaFAPkrRuACNJvb/GQMme1yKPrlCsUF/+Ap3vAEZDPWNdrJWHM/GyVL93Y4HZy0ABGEnCq5alX8wQxM4ForaDuvnQrWgQVMIgFt4ZaI7NpIThYAQWsxlmQkxOS6lQA0TnBb7PGTwEyWAhxt1xpILrazDfjKV75yefUiQXgPKsFKrvAshnY7LFKKD0lVwWJBtkUNh0/IbNLSxS6PbU/NljfZPI2grRjxJOPc050ixqKpMGthJEd25Our2gM0vqQFHPVryVyiq58OntS8LpO06CKR0ZvOrktIIB50XAPabO4+KAFapHywUDHgnK3ZJ574K0B8uNUClH3EjsUum/ArHnjbyubDV7ziFUvCU9C02OLL5sZ4/eBzPhZIvhcHdqt86FQ8gmxxCOhcMsW/WKEreng6FtPuldDXgAZa+Qg4p2M86gsHH/SKawuCxs4anpo5Jga//du/fbGbJ2O7CHYKyQRngmv02umwmPhgKN8br0jz4VJFm/EWFXPA3GZ/NlV4e3Xh8yJ8VrwkE5j60qO44De2tNtoV9JnPcwf/NHqMxfmB/zsC8gDims09cHtKRu4h7djMnWeTbKr3QqLs5ghW/35BjRec09O4fv0o485b0y7MWTUbzfPq8Nk1cePzvFKP7SMyW76irMKmGKFDAr7r/7qrz77pm/6pmU3Q9EoJ1ovopfOgG6KFrYlC/u3rmjAMft4uCW73UZy9CFUeVHMoI2O4zqOtwDNZNnh9PDBzHILkHNykEA0KYAqWiUqCDQT1na5RdNTiyQiEASpwARNnOsGQa4JXDJLVq7xF+ySlED+vd/7vWWhoJ+J0BjBfhUw1pO6SWkxYZsmtolnZ0PixIc8wIS3E2PSmDwSjlcsnhTZ0n30PAEpDExmtmdPNkYXkBeuPuM9GShijJOcJR5P94otyZ1cTWzFGZugyR6eKPDOflt2MJlrW1CsuE9XvMQHHni7j677c3HQxIkFir3ED/uwLV0lJguYc3TA5BU4L+ngDVcBIGm9/vWvXz4cp09i90QrVn0oj30k6+QkuwUOf35gG09nCgX2RpuNyCl5WqT8hYvF0rzoQ5B09bqAX7wSw0Ph54N2Fk42EBtsROapyxbEk3/JpWBiE62CVR9bsg/8Q/Muu9PFkSxiovf16cgG4o/c5Bcr5BXn7KY4IAvcfG6M2LODoBCxkPcn0/wBJ6CzsRYeOF4J2l5nO/Y0R7y3d12Bz2+efPlLv90GMuLLP2RED6ANx7V7zgG+5GUf8vMtHP5nC3mDXfTzP9nFpvEaumj0wVkAny/EigJEvqloQde4bE4WuMYrBsigGaswdU5/csCnd7YKxAJZmx+OfEMPNBV+7M0XbORBjD3lBA1/sssN4pU9NDLiWwEFJ1uzrRgznkxk0y8/0VcRonA3L4wx5+yEzJhEs1jHww4G33lFSSa6y4n4OIdjnD45yvhes5KXf7z6Zzu646MfxDeY52R3Pft2OBGcm/QkvwVToDhymGAUrG0dC3qJSGDaNlWVSt4Wd4lYUJjkJTYQzesAk8GE8m7QU5DgNjkEsGZikdmiZJGWICQDT74C2gSViC0cJoDdDXS8ZwUSvSZoJQgNmPAmgoRV0SFpWRRMKn9+KUlKCHhJCmRD1yRhS5OIbeoz2djRpLKwkVvzZIGfJz8LNfnJC79JyyfoSUgWO09xJjLZ+YQtJD/4EpXiyXV/1macz0iwjwWATOxIP34lZ08vkgdoIudfMpJJciQjfLFgSx1PxSA7SKRADJWA+VDCkZQ0skniCjI2Z1+4YlIBSE58yYc+GdmnDz5KgmQxTvyyD7po2uGwoElaZLa4OsfTopfNLcB2UNiCH31GwGLog4t0E3tsr6iRJOHlGzYgL53QFxvusZ+ChL/5RmIXl+JwJurAGHYil50b/Jyjb+eGPdDkb3ho8jWbiWPnxujnc74VH3xId7ryO3nMY3aFT3b8yO6aPe320JXtyCy+yCF2zHcFCBr8iy7AR18PM4CO/MA2/MN3yS7uNXOH78lbvJAXXgsouTX3+cPcRZdNK2w1sulX6LgnDsmUD+Q4cpi3bEtXCyn+ik246OnvQcz87bMpdGUPO3d8weZ0ND+cwyW7gos/8RVPxrGf3GReGC+GyEQO9uVH9wB69OAPNOWK9DW/8MCfH9AR0+SAl33pIU/wI33FDb5w2dSccd9cEP9ktgNhrF0qfsEfP7lIAcJHFU58yddyqz7669eAa4AePvTA0/z0UEumbGE+mN9ylvHusbl8YT6xvbnER+aieGULa5I8YBcI6EODH9mTbdbzbIfbh5N+D4iFo4ltgkjygkeQmjwcz9GqbIECx2QSUAKz96endvSsXtEWmCaXCeFzA7a7yU1+8prEEp1JIwDJRl7JxGJCfgWICQfPYmwCmGhAIkYfzYLXZBXwEpGJ0xOzpCFBAYshGhKEiYaXp3BPJiYHuyqaTBIySPz4m5gmpGQiAUhYEi697Z4YZ4LTG65EQg4Tk288jfhsiIQo+ZMTmIDuoykhOeIJN13Jzm/G6qNnxZBkoo9tWkzIMH3cgmxhxNurJPaXMPC0Xc5+7M8/jmi0kyPZkEsfn7C5RYC92IAs9bnPv/iJO+O98mBn9/Tzh8LZAuOcHyUrBUR47IuuxCwG4OgT42RXSFagSXhsYwHmN/Yjj4Udrviz2Fm08eMfSRNNCxye5ow4Qo+u4kYSZ6sWjIDPXbM9P+OjD0324Bf2FPNiix50ZftilZ3xElsKMLZT7KAJV6wpLPjUQmIcv1Q4OwIxzkZ8XHyhQUd+aDEyx/TzBz+6pxAi09QN6MOfbuQT82yHvyKTncUjW+sjAxxysIHFTtyzHbnJQD52ze78IWbJQX/2tpDyaTKhoTjBQ/6iM3kUah6y0DB/5Ay8zWk2FdP6xYsP6VcY4wXQ1uDylxyF/hxPf3LQVTFgPFw6sCXbzc+i8BNd4ZhX+snENvAUH/IJm/ED2uzgvhzdAyUdFWz9GazYqzBScBjjms3YnFzmgvxT4SYfKHjEmXM4CgNzgc35Q/yJA805+d0vd2VrPMxV+ZEO4rlcTVc44t0cbZ6Kd/5hN/OCH/Wb32RiA/1szJ7lL8fsucPp4L5ffOsHHvikJ58b+eOfePZ/PuXxZ4//iPNF+PyG5eJW3s8IGk5uQQQcJ4gEiglicgIBogky97SbgJ4IJBaTTdBaFEoCQDLSyCYoHenknA7GJT/d0DCZ5liBXL+EI9AFNd7xMt5fXFgofv7nf3550pYEWsDxwhNYbC1K7CcZoi/5mmySqIlHD0c+oKfJA79Emcxk4Cuye/KQWCyufIUPHPaROLKBMejijaax+hzdx9t4uprwZHIPLntVhNE9/Y3Hi23ZSUIka8WdRUu/Pvriz4aeUMgWb805HcURu0vYrumZz8iHJ/oSa4sQHflHzNIbHhnpRCb2wYNNJWN4EmE4ZCSfcTORwXNOJrjG4yux8y9bukdXuGRjP0AuiS/Z8wu+3aMzngFd8aC3goZdyYcXXPZzjmdP/+g60gHd/KQfDf10Qod89Gd/uAokcrA1u1lc6UlncvERMB4dtM2N4tVY+OTlE/LTlWyO/ALY0j2NDcR9MW68GCMPHvSEH80WHngaPdiUDdiCTmIK3eLbnGjO08uiaX7gz08WcGOaC/TSjy5d6a5I8xc45LLAK9bIQga0FF/No6AYIrvi5ad+6qeWOeA1VQu55hxv/MjJHmjT32JNR3zYmY0c2YKM2Qxf+GxNRv4AFT9oilW64aHBMR/4zXW2Yw+AL/nQMK7CBk/08HWNHzBeUaWfLciCBxskN5u4bzwd0MZDP1x+JE9zjO34rbjWB9c5/7JZBZpYhF88sB0f87lGB/3kdW7MDpeAS76xOnkBEggQiZTDOU2wCngB47yAEGCAc5sA1w14CjI8HclCpnVwuUdG/Vrnxgnq7gN9aAB9s98Yk8GkMIkEu8RnvIRtG9FTw4//+I8vTxYSb+PxiQY52bS+rtk6XDI4TljLZgKb+GjyiYTA9nMcG5XgAZnIi1c2qLkOyJRdHEH4ZNCHT2Pg4wVfXzLAyy/pNGlLGiUhOkh8eOiD2xj4kyf8GljjsgvaQD+7tBCGw+ZsWKGgH860oWPnIDnSgW2NJ5MEp7/E6h6b6EeXXsa4lz/Ik02zJYg+PPh4uE4XMsGftjYGv2iGY1wy1g+PnOIZvQobNPBzz3lgzJacILrxJ7NzY+BrU8bupR/ZsocYRgtNDW42g+eIB5nJm1yO7ofvXCyxO0DfuHDRhsNHaKKlua8/HPd9VqVv7PVgYddJbMFFf8q8BuM93f/Ij/zIMtaf0CuCAJmKDTaqTyNL+merzsmLP9qus4Xj2tZozRjPH2iTOXvAZR90HeMFz1F8hJcs0agPD2NBtjTGPQ3oc06HbA8UDMYkG5g0Gz8B3rrBYweNXHjQnxz1Tx47XABXKkCe9MSzp5y3p56wAAEF2xr0T4BT3004WLDh18ToPN5TPuf1C+jwjskZfQDPtacT25/e4fY0aRLZVlTVm0Tf8A3fsDzVGDPl6YgmWt0HTfomh/NkbtwE47XGg0O4a0iv8A+NCafzZK7v0LiLAK3Aee1QYnBPf3jpLpltyQKnpCXhdE//hGiu7RGsz+HUAvaXtCVKT6F0CJIhOZ3ri8+kP/0I4mMBQXPS7d4cD6ZcIJpr3OgmS/TX9ADc8NDbwrkKTBnXtLq31V+fc3bMZ2RKT31dO2+Mc5D8xtVcN34N9FbI+j6ZPkPjVajPcxk7YS1zYLzXLz/0Qz+0vDLwUwVeg4kJ9NvhWEOyBcm7xp122JJhTQfoyz5rHmRyBGIiflu0J0QzeeAbO+XV173rgGSIt2u5WazLA9loyrTDBfDIMD8Ij33hQ58B+diPfvzZEz/mvCL+386d78Z5u113rwOGY2sFlQZc1xesx58Soh3fyWv2rVvBeAy28E1K2322Kv2Z6zvf+c7lT13d8469zxh4qjGmcVp20uqrP35zcphMQH8wx6/pg4l7DC47xj1ybC1Cx8Ydg8ZNO0y6QbpqAZzZ1zE6rktC60U1PUqy7sV3fVw3sNVf21rEnUdv8tZXck+X6ICpE5xoBOEeahOn8yD7gHDW9yf/7q1luFWIfjxAdNekA6HcAAARW0lEQVTHYF4716YNNTBlnMfZ6gtm/9S7o+Z1h9c6Hjh6VcWGFjbHY7aBowjxusvnVTQ7pz3tr8euZQBbfcD1bGswbvp6gut4d69z/bV5/xjMsc0D5yD5HTsHl6F7FZgyBMnjqIWzw2lh+RDqf/vY8wLkYz7q7Akf81/PC5BzR5zf0K7D3DlxOnvLudfp7KvyMhm18OZkmOcgHMdJt2tPLrYNPfX6oKQP5/lA1PwSrWmbCdGI7jwe65uw1b+FRy86N/m1xm7RWIP72WZrAh8a35iL6E95jsHE6Xz2xS+Y94Ip06F2GdjCP+ZvEG54a9x5PWlf1o5bsB6DVvSSYfJaX8/x83wNaB5a6A5BfNb4lxk/x4bvmG7BFt6UE379CoWuyxE1dvGqxA6IIsQrl3Bn24L4+ayHz1H4LJe80SK9Htf17A+vFjhvbq/vga7X9y6Du76Px1Zbw9bYNc31/eis+28H0IznjOtT8tjhg3Df/3zrBx74lKd83NlTPv6JZ0990uPPPuojziu/c1tLa7dj8lsNjgLgOmE9AS7i5+nThLX9aaxzwbmlo/4tMEaTsGy72w3xjlGC6TMYtv0kGG3CrdpkjnPetZbsYIu2+71nbQzdDuk3IT4luSZy94I1X/e6H89gjgPtCBySJ1rR6bx7ATogvHAm0KN7k2YwaV8FjDskF1jzuSygI87YZiuWgrUOwZTHeX5MnvqC6YPwLgNwD8X8TQEZpi6A/GudigH9nes3l5Nfv/uNdV0ffK2xjXfcAnYRm3Y8piy3C/Esp5E7eW4V0Jwwr513PXmsz7te01rLNek5NnaNd1WIrpa/drgNeKQbD8J9r3rbBx745Cd/3Nl/f9LHnf2P/+Mjzz76cbdfgBQga7jIqQXUdYPJp5l8lwm29AnvkH4XQeNKTJqiJhlcH5PnqvaZ+M67jtekNc/DDeY9sL4+BNG4LP5VIF0OwVr+Q/gTL4C3tk9wjOcaLpIxSIar0L4ITk1z2glN1/XdzgK5pnsnYMoAtuSAU3/4ro/NIzDHgTl2fW+Ce9rt2PYYRB//QzKcAvDYglPwTP5TwnXQfFTCtts/BM6j+4MVZGZ3vB0XrB0Y/bsB5oRwfmiCTFjLf6u6REfhY8fD65ieQMB1JZvgKjokawVRDVzGZiD864CLaK9lPoQ/8Wr1d+wcXFZ3MMcdgzWPU8CpaUZv0jwFjy26Nw1ThkNyzP6JtzU/Jqz7Jt4WfuDedeaD5Dgmwylg8pntFHAqOhOug+YOh2GJ8POQWP4t5+f59RQuyJF3g0PXRYenFlvU/n7dnxPaDbnKwnK7cJO81nDIH8k0ZVvjznvO76QeNwFT/7shjnfY4SbgXp/XO9wlcJ5SH/NgwfHA0ryFVZGcKtVeNWlfV5KProml+PDZC3/66lsb/WmsIkT/rUJ0L0MjXMdD+s4EMM+P2WfiBRPf+bHxYM3L9WxbsMapBRfxvFthS+7L2PDRAtlit8eHLxzy3e7THW4KHrOE2vl6sawZ5+1eDj0Ty7am3Q9/IufPYP2tfZ9kv11YL763C6ekdRXYE9AOO+ywww7XDcsrmGWhe2ixuzNL3s2BAsQOhNcvfsvBV5tfZaGvyFiPOdSP13zFs7W4u9cOynr8+noN7h/C6d7W/WPjLguNdyT7hGM8t+7tsMMOO+zw6ILHtBg4tjbe68uDxdKHP/0OiN8euOwTPxtVUFQwTHDfbor+aHrd4/cU/Fldtl7zMwaer/91fpUdCLzWOzhTTnzXcrrGL17rFqzPZ0Mjuuj4c0R84935Ibjo/g477LDDDvc23PdLb/2/H/iUJz9x+R6Q/+tJjz97/ON8qvuhrZF7FPzQkl8p/dVf/dXlp+W/7du+bfkhJN882A8w+X4OXx7kz2Qt1r5K3beY+uwIPPf8YJVvN/QFQUC/H+8CChy0/KKkfr/x4tsQ0e37RCzacIzxg0wWcr9k6UeqfCU7PF/X7fdifB+AYqkfvoJrLF0ULr6syMJvZ0dff13jR+2AH1NCV7/vILHz40fN0PJjV/j50qS+dwB93+Lo92u8rsLDDziRj87J5tckFTmuga+Wx59t0O2XUvEFFR1km8cddthhhx3uEbjMs+V56n/sV77iex78Of6PevzZE5avYveEu9y7Z0FBYFH1Csa3FPopZ+B3WnwmxD3fSuqrj4Eiws9A+4l8DR4aChPQLyUqUvwCpkXZwu3o57/76XALMZr+/NZYfPwUtR+d8suX8BUV7ik24PmALJqKIl9Y5htU8YKjMCGvcYoLuH7q309jo20M+n55VYFjDPpk83P0dPEjeGRDsx+4snNCF7LDIxs8YxUb4bEB2fwyKn4KG/J84AMfWAoRRUf6VhApQBz3AmSHHXbY4VEMjyhAztsTPva/nP2X8wLEDcvCvbg0WAA9zXtK/9d//dflKd3uhAX0T//0T5e/jPHrk0996lOX3QY7Cn7V8i//8i+XXY/P/uzPPvvcz/3cZTFXiGh+p0FhAPctb3nLsuhbwH3FusLAAqzfroJrxQV+Fuq3v/3ty/Xzn//85Tdh/uVf/uXsHe94x8M7EoqB9773vcvuht0EC7pChg4KDzqQwW/J6FPMvO51r1uKA7qRwa4GnN///d9fCgM7GYouxRd7vOlNb1ps48eu6KHQoMMb3/jGpUD4gi/4gkU2/P7+7/9+kY1tjHXtFz8VKE972tMWGuhXNNkdshvCBmAWHLMQ2WGHHXbY4VEE56n/Q9+03OPrgQXP03hfBOY1hF0DC6ZF+zM/8zOXIsHi7xWJXQbFikXcaw4/qa3gcLS4KiTsAMBRYCg8FAl+wdIi/zmf8znLr2Ba7IEfl7KLgJeCRYGBl9+Cgf+MZzzj7FnPetbZR3/0Ry8LvLb1mYqu0VIMAbp5faKI8Krk0z7t05amKPD6x04OXL9Bo6BQnCioFAxs4h5eCg27Q3ZF0KGvgkwhAc+OiF0U/NnIayWyK3jYCF182Ze+7LIXGzvssMMOO0x4uABZloZHyfowF0Ofv/i7v/u7s3/4h39YCgo7EYoBrzt8xsGTvQXUgm1R9aNQCgYLrYUcWLAttBZvzWL93Oc+d1m4LcqOdgcUJv/+7/++0FMo4IGG1z12LxRFX/zFX3z2zd/8zQs/98lpIXfPGFAh4p6CQKHgqBljrIJA4UHeZPCqSLHxiZ/4icsuhuKCHooQuzuKIY3OChA4Grr62QcNn4VRcAX4PfOZz1yKHPTt1CjAfFbEaxljp8132GGHHXa4l8EadXF7zMNrwvnx0bI8WBAVFxbRv/iLv1heNVgoFQgWbLsdcPR5dWHht1ArFBQY7vkMhAXWAq2vvwJxDl/BYMHVZwFvl6FdD0WA1yYKEDswZPijP/qj5dx4xYFCB712JhQacyHHUzETJJv7aODn3FHxoBAhs+vAfQVOHz61o+IDqj6k6wO3XhO9/vWvX14h+WyJHSE8Jo3JiwygosoOEZoVTXBr6bHDDjvssMO9Aue5/r7zdeCidna+Vp6fPWIhcFa7l6FiQcHhNYmF2WLu8w8t4kChogCwiLrfAtsiClr44awXVuf6LNBaYyz6ipIv+ZIvWT5joSBB32c63v3udy+vOXyGYs1j7n64Vwvm/UDhgp8jXPfWMgI86NAHbMlnV8PrI42dvCLyGRmvY0C0Jj2AD3qKpCn3DjvssMMOjwaQ84+183XiPgvD+X+PXD7ufWjhtpi+/OUvX16v+PzGv/3bvy1/FWLxtCvg8xQWUbsBnuj1W2z1KVb0t6hXuGhzwXVtHDxFgHv+YsUib2flS7/0S8+e/vSnL7sePlvhA68KEa914NtNwY98FUE1tNHdKjyAfvcVP/Bdh+Nc00/2mt0LBZndGZ+JUXSQ0Wslr6i8XvHKBp01vy2I7w477LDDDjsEj7GRvvwGzPn64DnacnKvFyMt2o4WfYvrl3/5ly+vC17zmtcsf37qw6k+7+A1idcX/pRV0QAsqP6axOdG/uqv/mp5HQMXPTsI7qMfrqKhawu8HYb+XPaf//mfl4LHTozPfzznOc9ZPrRq90PBoQDxasjrIHLpV7igoQCyQzMLkPQK8CODPgUVevO+ceQjN1w7JT47ougwDr7PdNjx6DtI5vg1uLeWYUJFz16Q7LDDDjs8uuEx58+wS8FxvmQ8KooPYGG1iPtAqKLCousVQ39++2d/9mdLceGeD6RagC3S+hQN/uz0z//8z5ddiS/6oi9a/oy3z3goGhQvFnNgoXXeaxzXFnFFi2v03ve+9y1HH/z0gVZFhb8ssfuiaPDZDcXGe97znuVPheGT0YdnfdHYsQW9YoD8dmvoVDEEjGMPzbndFvp4LaQgoyt+/tyWzvjqp3swiw3nh4qPHXbYYYcddgiWH6NbipBH0ZphgVQE+FNXRYMCwQ6GP3998YtfvHzQ0g6FXQYfMvVnuXYA/HWID2faiXDf7snXfu3XLq9RfJeHVxc+OOovUda7Eooc/PBxX8GCpqLAl3155aL5CxP4eMIxzrmCxT1f9OW7Qhx9uRjo21XpYrfGOMULPdHSr7BAAz1FjXvkc894cul37XMf/jIGjj8x/sd//Mfl1RT5fM+IAkvB0lg60z2ajnS0c0MWsoHu77DDDjvssMN9v33/Pz/wyU/5uLMnf/wTzj7lKR959pH/9aGn43u4IPH07rWHIsJnHewwWHztEtjB8JcvFnIFgoXZroHdErsQdi0s6oqJmsXeAu8zIooJY/prGguuHQ2FhkXbQm1RRsNCboHHF64+OGj5UCq64flzYd/jYWF3Pz1Af3qbXvAVBj6nkV76FQ/66UsOhYExdlGck5veZFZ8ec2ElvGKl4oOnw1RdBjjMyv62AFN8sL31z5ooEUOMsJHQyESzPMddthhhx0+3MFDpj/WuOhh876z+17zUAHypPMC5H88+SPPHvcR934BYsdDIaEwsEC3cFos3bNwWhgt9BUR4VuwXVuoKxpqFldjLbTu9cRvQbaQg3Yi4LjXAu/cQo6OIxxH0CscDY/4AePwscC7V1GS7PCmDPrtghgTDWO6dkxu/Rr+8SQTuuSH19hkdU6OdHINN930hbfDDjvssMO9BlctQJ78cWdPftITzj7lXi9AFnuMzzycXy2L6nk7XxEf7DtfIFuIzy8WnMUU59cPGKfv/Lh0PYS3tPN/sC3WrtFYcM7P9fUBVouxAiAe8cToMY+Nr/9wfhDiDx74z/P+89MF7yFooT8ID9ELBz6+gNyLrOe39M9i4xg8KPM5Hbx1PER78gj0HZVvhx122GGHewTk/ssVII/x1y+Whvsm7r2wVtCnZtE+b0sBcb7A/ud/nBvnfIF87GMeu6i6LMbn1y28Fstw/+P//V8Lfov2A+d9aBlniT7HXv4Bx2Un4Jzdf/yv83H/34N/MovmRz7ucWePf5wC74PFx4Njzmncd85X8fGQrHgtNM+P+C1Fx/n5gm8xX0Z9EB6+fmj80h5Efxiivch+fiD3uXCLjIoT+mqPPZcFtYXnAVjuPcTDN9kt8p+P0oz1/2w5dd1hhx122GGHYHnMfcTycC+uFRbAZWU8XxotiueL/WMeKj6WBX25/6DiDxcGD/XfpzB46G+F7rPQno97zPI6wTd/2jl4ED8wxqLs3tKWcQ+9hjhvD4774JiH+ehb2vLfI2ApfB5a8BdYI2xCyOcA/2H6msODMi4FwnL7ITnoCucclp2ehwqfCY/AX64mrK932GGHHXbY4UPhvte+5f954JOf/ISzJ338/372Sf/9I84e97gHt97nMvKhS9CDcBmcOwUX7ujYXbDALovuxusG4y2+/k5orRx6hxRe7qF9frr8jdFDfVeBaKNz3h7xWkRxsKYHv77z8wd3UM5hCzd4WP7zE3hrWHQ4YJ+Hxw5eQbQeOgzUDws4ZK7rhDtlo+vRdVubVZTssMMO9yyY7edrx4Vwdvb/A3BUYdkL8nkPAAAAAElFTkSuQmCC;" parent="1" vertex="1">
          <mxGeometry x="-710" y="-750" width="326.1" height="220" as="geometry" />
        </mxCell>
        <mxCell id="ekMqlFdolK9tJXopoHlO-9" value="&lt;font style=&quot;font-size: 13px;&quot;&gt;1. Matrix Penjualan, total konsumen yang bertransaksi, profit, total discount, kuantitas barang&lt;/font&gt;" style="text;html=1;align=left;verticalAlign=middle;whiteSpace=wrap;rounded=0;fontSize=16;" parent="1" vertex="1">
          <mxGeometry x="-710" y="-480" width="400" height="40" as="geometry" />
        </mxCell>
        <mxCell id="ekMqlFdolK9tJXopoHlO-11" value="&lt;font style=&quot;font-size: 13px;&quot;&gt;2. Line : sales/revenue terhadap waktu&lt;/font&gt;" style="text;html=1;align=left;verticalAlign=middle;whiteSpace=wrap;rounded=0;fontSize=16;" parent="1" vertex="1">
          <mxGeometry x="-710" y="-420" width="400" height="40" as="geometry" />
        </mxCell>
        <mxCell id="ekMqlFdolK9tJXopoHlO-12" value="&lt;span style=&quot;font-size: 13px;&quot;&gt;3. Berapa banyak transaksi dari setiap metode pembayaran -&amp;gt; barchart, column&lt;/span&gt;&lt;div&gt;&lt;span style=&quot;font-size: 13px;&quot;&gt;&lt;span style=&quot;white-space: pre;&quot;&gt;&#x9;&lt;/span&gt;nilai transaksi untuk setiap produk -&amp;gt; bar,col,pie&lt;br&gt;&lt;/span&gt;&lt;/div&gt;" style="text;html=1;align=left;verticalAlign=middle;whiteSpace=wrap;rounded=0;fontSize=16;" parent="1" vertex="1">
          <mxGeometry x="-720" y="-360" width="500" height="40" as="geometry" />
        </mxCell>
        <mxCell id="ekMqlFdolK9tJXopoHlO-13" value="&lt;span style=&quot;font-size: 13px;&quot;&gt;5. Nilai diskon per produk/categori produk&lt;/span&gt;" style="text;html=1;align=left;verticalAlign=middle;whiteSpace=wrap;rounded=0;fontSize=16;" parent="1" vertex="1">
          <mxGeometry x="-720" y="-220" width="400" height="40" as="geometry" />
        </mxCell>
        <mxCell id="ekMqlFdolK9tJXopoHlO-14" value="&lt;span style=&quot;font-size: 13px;&quot;&gt;6. Produk A berapa yang laku? berapa revenue? berapa profit? berapa diskon?&lt;/span&gt;&lt;div&gt;&lt;span style=&quot;font-size: 13px;&quot;&gt;&lt;br&gt;&lt;/span&gt;&lt;/div&gt;&lt;div&gt;&lt;span style=&quot;font-size: 13px;&quot;&gt;konsumen A berapa kali transaksi? berapa revenue, berapa profit?&lt;/span&gt;&lt;/div&gt;" style="text;html=1;align=left;verticalAlign=middle;whiteSpace=wrap;rounded=0;fontSize=16;" parent="1" vertex="1">
          <mxGeometry x="-720" y="-160" width="480" height="60" as="geometry" />
        </mxCell>
        <mxCell id="ekMqlFdolK9tJXopoHlO-15" value="&lt;span style=&quot;font-size: 13px;&quot;&gt;4. berapa value sales untuk setiap produk? -&amp;gt; bar,col,pie&lt;/span&gt;" style="text;html=1;align=left;verticalAlign=middle;whiteSpace=wrap;rounded=0;fontSize=16;" parent="1" vertex="1">
          <mxGeometry x="-720" y="-290" width="400" height="40" as="geometry" />
        </mxCell>
        <mxCell id="xwtH-_SH6U7PaBS7QPdh-1" value="Sales" style="rounded=0;whiteSpace=wrap;html=1;" vertex="1" parent="1">
          <mxGeometry x="-800" y="-60" width="120" height="60" as="geometry" />
        </mxCell>
        <mxCell id="xwtH-_SH6U7PaBS7QPdh-2" value="Customer" style="rounded=0;whiteSpace=wrap;html=1;" vertex="1" parent="1">
          <mxGeometry x="-640" y="-60" width="120" height="60" as="geometry" />
        </mxCell>
        <mxCell id="xwtH-_SH6U7PaBS7QPdh-3" value="Profit" style="rounded=0;whiteSpace=wrap;html=1;" vertex="1" parent="1">
          <mxGeometry x="-480" y="-60" width="120" height="60" as="geometry" />
        </mxCell>
        <mxCell id="xwtH-_SH6U7PaBS7QPdh-4" value="Diskon" style="rounded=0;whiteSpace=wrap;html=1;" vertex="1" parent="1">
          <mxGeometry x="-320" y="-60" width="120" height="60" as="geometry" />
        </mxCell>
        <mxCell id="xwtH-_SH6U7PaBS7QPdh-5" value="Qty" style="rounded=0;whiteSpace=wrap;html=1;" vertex="1" parent="1">
          <mxGeometry x="-160" y="-60" width="120" height="60" as="geometry" />
        </mxCell>
        <mxCell id="xwtH-_SH6U7PaBS7QPdh-6" value="LINE CHART REVENUE/SALES TERHADAP WAKTU" style="rounded=0;whiteSpace=wrap;html=1;" vertex="1" parent="1">
          <mxGeometry x="-800" y="50" width="760" height="230" as="geometry" />
        </mxCell>
        <mxCell id="xwtH-_SH6U7PaBS7QPdh-7" value="BANYAK TRANSAKSI PER METODE PEMBAYARAN" style="rounded=0;whiteSpace=wrap;html=1;" vertex="1" parent="1">
          <mxGeometry x="-800" y="310" width="370" height="190" as="geometry" />
        </mxCell>
        <mxCell id="xwtH-_SH6U7PaBS7QPdh-8" value="VALUE/NILAI TRANSAKSI PER PAYMENT" style="rounded=0;whiteSpace=wrap;html=1;" vertex="1" parent="1">
          <mxGeometry x="-400" y="310" width="370" height="190" as="geometry" />
        </mxCell>
        <mxCell id="xwtH-_SH6U7PaBS7QPdh-9" value="1" style="text;html=1;align=center;verticalAlign=middle;whiteSpace=wrap;rounded=0;fontSize=16;" vertex="1" parent="1">
          <mxGeometry x="-880" y="-45" width="60" height="30" as="geometry" />
        </mxCell>
        <mxCell id="xwtH-_SH6U7PaBS7QPdh-10" value="2" style="text;html=1;align=center;verticalAlign=middle;whiteSpace=wrap;rounded=0;fontSize=16;" vertex="1" parent="1">
          <mxGeometry x="-880" y="80" width="60" height="30" as="geometry" />
        </mxCell>
        <mxCell id="xwtH-_SH6U7PaBS7QPdh-11" value="3" style="text;html=1;align=center;verticalAlign=middle;whiteSpace=wrap;rounded=0;fontSize=16;" vertex="1" parent="1">
          <mxGeometry x="-880" y="330" width="60" height="30" as="geometry" />
        </mxCell>
        <mxCell id="xwtH-_SH6U7PaBS7QPdh-12" value="BANYAK TRANSAKSI PER PRODUCT" style="rounded=0;whiteSpace=wrap;html=1;" vertex="1" parent="1">
          <mxGeometry x="-800" y="530" width="370" height="190" as="geometry" />
        </mxCell>
        <mxCell id="xwtH-_SH6U7PaBS7QPdh-13" value="4" style="text;html=1;align=center;verticalAlign=middle;whiteSpace=wrap;rounded=0;fontSize=16;" vertex="1" parent="1">
          <mxGeometry x="-880" y="540" width="60" height="30" as="geometry" />
        </mxCell>
        <mxCell id="xwtH-_SH6U7PaBS7QPdh-15" value="VALUE/NILAI TRANSAKSI PER PRODUCT" style="rounded=0;whiteSpace=wrap;html=1;" vertex="1" parent="1">
          <mxGeometry x="-410" y="530" width="370" height="190" as="geometry" />
        </mxCell>
        <mxCell id="xwtH-_SH6U7PaBS7QPdh-16" value="DISCOUNT PER PRODUK/KATEGORI PRODUK" style="rounded=0;whiteSpace=wrap;html=1;" vertex="1" parent="1">
          <mxGeometry x="-800" y="740" width="760" height="230" as="geometry" />
        </mxCell>
        <mxCell id="xwtH-_SH6U7PaBS7QPdh-17" value="5" style="text;html=1;align=center;verticalAlign=middle;whiteSpace=wrap;rounded=0;fontSize=16;" vertex="1" parent="1">
          <mxGeometry x="-880" y="760" width="60" height="30" as="geometry" />
        </mxCell>
        <mxCell id="xwtH-_SH6U7PaBS7QPdh-18" value="SUMMARY PRODUCT" style="rounded=0;whiteSpace=wrap;html=1;" vertex="1" parent="1">
          <mxGeometry x="-800" y="1000" width="370" height="190" as="geometry" />
        </mxCell>
        <mxCell id="xwtH-_SH6U7PaBS7QPdh-19" value="6" style="text;html=1;align=center;verticalAlign=middle;whiteSpace=wrap;rounded=0;fontSize=16;" vertex="1" parent="1">
          <mxGeometry x="-880" y="1010" width="60" height="30" as="geometry" />
        </mxCell>
        <mxCell id="xwtH-_SH6U7PaBS7QPdh-20" value="SUMMARY KONSUMEN" style="rounded=0;whiteSpace=wrap;html=1;" vertex="1" parent="1">
          <mxGeometry x="-410" y="1000" width="370" height="190" as="geometry" />
        </mxCell>
      </root>
    </mxGraphModel>
  </diagram>
</mxfile>
